<!DOCTYPE svg PUBLIC "-//W3C//DTD SVG 1.1//EN" "http://www.w3.org/Graphics/SVG/1.1/DTD/svg11.dtd">
                <svg xmlns="http://www.w3.org/2000/svg" xmlns:xlink="http://www.w3.org/1999/xlink" 
                width="575" height="789">
                
            <g>
                <rect x="50" y="80"
            width="245" height="30"
            style="fill:#a5d6a7; stroke:#444; stroke-width:1" />
                    
                <line x1="60" y1="80" x2="60" y2="110"
                style="fill:#a5d6a7; stroke:#444; stroke-width:1" />
                <line x1="285" y1="80" x2="285" y2="110"
                style="fill:#a5d6a7; stroke:#444; stroke-width:1" />
             
                <title>Solution = function(nums)</title>
            <text x="75" y="100"
                font-family="monospace" font-size="13" fill="#222">
                <tspan x="75" y="100">Solution = function(nums)</tspan>
            </text>
                
            </g>
                <g>
                   <rect x="87" y="128.5"
            width="154.8" height="30"
            rx="3" ry="3"
            style="fill:#90caf9; stroke:#444; stroke-width:1" />
                   <title>this.nums = nums</title>
            <text x="102" y="148.5"
                font-family="monospace" font-size="13" fill="#222">
                <tspan x="102" y="148.5">this.nums = nums</tspan>
            </text>
                   
                   
                </g>
            <g>
                <rect x="50" y="192"
            width="338.59999999999997" height="30"
            style="fill:#a5d6a7; stroke:#444; stroke-width:1" />
                    
                <line x1="60" y1="192" x2="60" y2="222"
                style="fill:#a5d6a7; stroke:#444; stroke-width:1" />
                <line x1="378.59999999999997" y1="192" x2="378.59999999999997" y2="222"
                style="fill:#a5d6a7; stroke:#444; stroke-width:1" />
             
                <title>Solution.prototype.reset = function()</title>
            <text x="75" y="212"
                font-family="monospace" font-size="13" fill="#222">
                <tspan x="75" y="212">Solution.prototype.reset = function()</tspan>
            </text>
                
            </g>
            <g>
                <rect x="87" y="240.5"
            width="154.8" height="30"
            rx="3" ry="3"
            style="fill:#90caf9; stroke:#444; stroke-width:1" />
                
                <line x1="241.8" y1="250.5" x2="246.8" y2="250.5"
                style="fill:#a5d6a7; stroke:#444; stroke-width:1" />
                
                <line x1="241.8" y1="260.5" x2="246.8" y2="260.5"
                style="fill:#a5d6a7; stroke:#444; stroke-width:1" />

                <path d="M246.8, 244.5 L262.8, 255.5 L246.8, 266.5 Z" 
        fill="#a5d6a7" stroke="#444" stroke-width="1" />
                             
                <title>return this.nums</title>
            <text x="102" y="260.5"
                font-family="monospace" font-size="13" fill="#222">
                <tspan x="102" y="260.5">return this.nums</tspan>
            </text>
                
            </g>
            <g>
                <rect x="50" y="304"
            width="354.2" height="30"
            style="fill:#a5d6a7; stroke:#444; stroke-width:1" />
                    
                <line x1="60" y1="304" x2="60" y2="334"
                style="fill:#a5d6a7; stroke:#444; stroke-width:1" />
                <line x1="394.2" y1="304" x2="394.2" y2="334"
                style="fill:#a5d6a7; stroke:#444; stroke-width:1" />
             
                <title>Solution.prototype.shuffle = function()</title>
            <text x="75" y="324"
                font-family="monospace" font-size="13" fill="#222">
                <tspan x="75" y="324">Solution.prototype.shuffle = function()</tspan>
            </text>
                
            </g>
                <g>
                   <rect x="87" y="352.5"
            width="225" height="30"
            rx="3" ry="3"
            style="fill:#90caf9; stroke:#444; stroke-width:1" />
                   <title>let nums = [...this.nums]</title>
            <text x="102" y="372.5"
                font-family="monospace" font-size="13" fill="#222">
                <tspan x="102" y="372.5">let nums = [...this.nums]</tspan>
            </text>
                   
                   
                </g>
                <g>
                   <rect x="87" y="401"
            width="178.2" height="30"
            rx="3" ry="3"
            style="fill:#90caf9; stroke:#444; stroke-width:1" />
                   <title>let i = nums.length</title>
            <text x="102" y="421"
                font-family="monospace" font-size="13" fill="#222">
                <tspan x="102" y="421">let i = nums.length</tspan>
            </text>
                   
                   
                </g><g>

            <rect x="117" y="484.5"
            width="83.4" height="30"
            rx="3" ry="3"
            style="fill:#b39ddb; stroke:#444; stroke-width:1" />
            <polygon points="87,499.5 117,469.5 147,499.5 117,529.5"
            style="fill:#b39ddb; stroke:#444; stroke-width:1" />
                
            <title>i--</title>
            <text x="162" y="504.5"
                font-family="monospace" font-size="13" fill="#222">
                <tspan x="162" y="504.5">i--</tspan>
            </text>
            
            <text x="97.5" y="504.5"
        font-family="monospace" font-size="13" fill="#222">while</text>
        </g>
                <g>
                   <rect x="137" y="539.5"
            width="53.4" height="30"
            rx="3" ry="3"
            style="fill:#90caf9; stroke:#444; stroke-width:1" />
                   <title>i--</title>
            <text x="152" y="559.5"
                font-family="monospace" font-size="13" fill="#222">
                <tspan x="152" y="559.5">i--</tspan>
            </text>
                   
                   
                </g>
                <g>
                   <rect x="137" y="588"
            width="412.2" height="30"
            rx="3" ry="3"
            style="fill:#90caf9; stroke:#444; stroke-width:1" />
                   <title>const n = Math.floor(Math.random() * nums.length)</title>
            <text x="152" y="608"
                font-family="monospace" font-size="13" fill="#222">
                <tspan x="152" y="608">const n = Math.floor(Math.random() * nums.length)</tspan>
            </text>
                   
                   
                </g>
                <g>
                   <rect x="137" y="636.5"
            width="334.2" height="30"
            rx="3" ry="3"
            style="fill:#90caf9; stroke:#444; stroke-width:1" />
                   <title>[nums[i], nums[n]] = [nums[n], nums[i]]</title>
            <text x="152" y="656.5"
                font-family="monospace" font-size="13" fill="#222">
                <tspan x="152" y="656.5">[nums[i], nums[n]] = [nums[n], nums[i]]</tspan>
            </text>
                   
                   
                </g>
                <g>
                   <rect x="174" y="685"
            width="69" height="30"
            rx="3" ry="3"
            style="fill:#90caf9; stroke:#444; stroke-width:1" />
                   <title>[...]</title>
            <text x="189" y="705"
                font-family="monospace" font-size="13" fill="#222">
                <tspan x="189" y="705">[...]</tspan>
            </text>
                   
                   
                </g>
            <g>
                <rect x="87" y="733.5"
            width="115.80000000000001" height="30"
            rx="3" ry="3"
            style="fill:#90caf9; stroke:#444; stroke-width:1" />
                
                <line x1="202.8" y1="743.5" x2="207.8" y2="743.5"
                style="fill:#a5d6a7; stroke:#444; stroke-width:1" />
                
                <line x1="202.8" y1="753.5" x2="207.8" y2="753.5"
                style="fill:#a5d6a7; stroke:#444; stroke-width:1" />

                <path d="M207.8, 737.5 L223.8, 748.5 L207.8, 759.5 Z" 
        fill="#a5d6a7" stroke="#444" stroke-width="1" />
                             
                <title>return nums</title>
            <text x="102" y="753.5"
                font-family="monospace" font-size="13" fill="#222">
                <tspan x="102" y="753.5">return nums</tspan>
            </text>
                
            </g>
            <g>
               <rect x="25" y="13.75"
            width="216.6" height="24"
            style="fill:#fff59d; stroke:#444; stroke-width:1" />
               <circle cx="25" cy="25" r="15"
        style="fill:#fff59d; stroke:#444; stroke-width:1" />
               <title>Program: source module</title>
            <text x="55" y="30"
                font-family="monospace" font-size="13" fill="#222">
                <tspan x="55" y="30">Program: source module</tspan>
            </text>
            </g>
            <g>
               <path d="M25, 40 L25 91 Q25 95
                29 95
                L42 95 "
        style="fill:none; stroke:#444; stroke-width:1" />
               <path d="M42, 92 L50, 95 L42, 98 Z" 
        fill="#333" />
            </g>
            <g>
               <path d="M68.5, 110 L68.5 139.5 Q68.5 143.5
                72.5 143.5
                L79 143.5 "
        style="fill:none; stroke:#444; stroke-width:1" />
               <path d="M79, 140.5 L87, 143.5 L79, 146.5 Z" 
        fill="#333" />
            </g>
            <g>
               <path d="M25, 40 L25 203 Q25 207
                29 207
                L42 207 "
        style="fill:none; stroke:#444; stroke-width:1" />
               <path d="M42, 204 L50, 207 L42, 210 Z" 
        fill="#333" />
            </g>
            <g>
               <path d="M68.5, 222 L68.5 251.5 Q68.5 255.5
                72.5 255.5
                L79 255.5 "
        style="fill:none; stroke:#444; stroke-width:1" />
               <path d="M79, 252.5 L87, 255.5 L79, 258.5 Z" 
        fill="#333" />
            </g>
            <g>
               <path d="M25, 40 L25 315 Q25 319
                29 319
                L42 319 "
        style="fill:none; stroke:#444; stroke-width:1" />
               <path d="M42, 316 L50, 319 L42, 322 Z" 
        fill="#333" />
            </g>
            <g>
               <path d="M68.5, 334 L68.5 363.5 Q68.5 367.5
                72.5 367.5
                L79 367.5 "
        style="fill:none; stroke:#444; stroke-width:1" />
               <path d="M79, 364.5 L87, 367.5 L79, 370.5 Z" 
        fill="#333" />
            </g>
            <g>
               <path d="M68.5, 334 L68.5 412 Q68.5 416
                72.5 416
                L79 416 "
        style="fill:none; stroke:#444; stroke-width:1" />
               <path d="M79, 413 L87, 416 L79, 419 Z" 
        fill="#333" />
            </g>
            <g>
               <path d="M68.5, 334 L68.5 495.5 Q68.5 499.5
                72.5 499.5
                L79 499.5 "
        style="fill:none; stroke:#444; stroke-width:1" />
               <path d="M79, 496.5 L87, 499.5 L79, 502.5 Z" 
        fill="#333" />
            </g>
            <g>
               <path d="M117, 529.5 L117 550.5 Q117 554.5
                121 554.5
                L129 554.5 "
        style="fill:none; stroke:#444; stroke-width:1" />
               <path d="M129, 551.5 L137, 554.5 L129, 557.5 Z" 
        fill="#333" />
            </g>
            <g>
               <path d="M117, 529.5 L117 599 Q117 603
                121 603
                L129 603 "
        style="fill:none; stroke:#444; stroke-width:1" />
               <path d="M129, 600 L137, 603 L129, 606 Z" 
        fill="#333" />
            </g>
            <g>
               <path d="M117, 529.5 L117 647.5 Q117 651.5
                121 651.5
                L129 651.5 "
        style="fill:none; stroke:#444; stroke-width:1" />
               <path d="M129, 648.5 L137, 651.5 L129, 654.5 Z" 
        fill="#333" />
            </g>
            <g>
               <path d="M155.5, 666.5 L155.5 696 Q155.5 700
                159.5 700
                L166 700 "
        style="fill:none; stroke:#444; stroke-width:1" />
               <path d="M166, 697 L174, 700 L166, 703 Z" 
        fill="#333" />
            </g>
            <g>
               <path d="M243, 700 L565.2 700  Q569.2 700
                569.2 696
                L569.2 457.5 Q569.2 449.5
                565.2 449.5
                L125 449.5  Q117 449.5
                117 453.5
                L117 461.5"
        style="fill:none; stroke:#444; stroke-width:1" />
               <path d="M114, 461.5 L117, 469.5 L120, 461.5 Z" 
        fill="#333" />
            </g>
            <g>
               <path d="M68.5, 334 L68.5 744.5 Q68.5 748.5
                72.5 748.5
                L79 748.5 "
        style="fill:none; stroke:#444; stroke-width:1" />
               <path d="M79, 745.5 L87, 748.5 L79, 751.5 Z" 
        fill="#333" />
            </g>
            </svg>