<!DOCTYPE svg PUBLIC "-//W3C//DTD SVG 1.1//EN" "http://www.w3.org/Graphics/SVG/1.1/DTD/svg11.dtd">
                <svg xmlns="http://www.w3.org/2000/svg" xmlns:xlink="http://www.w3.org/1999/xlink" 
                width="1145" height="1431">
                
            <g>
                <rect x="50" y="80"
            width="291.79999999999995" height="30"
            style="fill:#a5d6a7; stroke:#444; stroke-width:1" />
                    
                <line x1="60" y1="80" x2="60" y2="110"
                style="fill:#a5d6a7; stroke:#444; stroke-width:1" />
                <line x1="331.79999999999995" y1="80" x2="331.79999999999995" y2="110"
                style="fill:#a5d6a7; stroke:#444; stroke-width:1" />
             
                <title>function binarySearch(arr, val)</title>
            <text x="75" y="100"
                font-family="monospace" font-size="13" fill="#222">
                <tspan x="75" y="100">function binarySearch(arr, val)</tspan>
            </text>
                
            </g>
                <g>
                   <rect x="87" y="128.5"
            width="178.2" height="30"
            rx="3" ry="3"
            style="fill:#90caf9; stroke:#444; stroke-width:1" />
                   <title>let lower_bound = 0</title>
            <text x="102" y="148.5"
                font-family="monospace" font-size="13" fill="#222">
                <tspan x="102" y="148.5">let lower_bound = 0</tspan>
            </text>
                   
                   
                </g>
                <g>
                   <rect x="87" y="177"
            width="279.6" height="30"
            rx="3" ry="3"
            style="fill:#90caf9; stroke:#444; stroke-width:1" />
                   <title>let upper_bound = arr.length - 1</title>
            <text x="102" y="197"
                font-family="monospace" font-size="13" fill="#222">
                <tspan x="102" y="197">let upper_bound = arr.length - 1</tspan>
            </text>
                   
                   
                </g><g>

            <rect x="117" y="260.5"
            width="262.79999999999995" height="30"
            rx="3" ry="3"
            style="fill:#b39ddb; stroke:#444; stroke-width:1" />
            <polygon points="87,275.5 117,245.5 147,275.5 117,305.5"
            style="fill:#b39ddb; stroke:#444; stroke-width:1" />
                
            <title>lower_bound &lt;= upper_bound</title>
            <text x="162" y="280.5"
                font-family="monospace" font-size="13" fill="#222">
                <tspan x="162" y="280.5">lower_bound &lt;= upper_bound</tspan>
            </text>
            
            <text x="97.5" y="280.5"
        font-family="monospace" font-size="13" fill="#222">while</text>
        </g>
                <g>
                   <rect x="137" y="315.5"
            width="443.4" height="30"
            rx="3" ry="3"
            style="fill:#90caf9; stroke:#444; stroke-width:1" />
                   <title>let midpoint = Math.floor(upper_bound + lower_bound / 2)</title>
            <text x="152" y="335.5"
                font-family="monospace" font-size="13" fill="#222">
                <tspan x="152" y="335.5">let midpoint = Math.floor(upper_bound + lower_boun...</tspan>
            </text>
                   
                   
                </g>
                <g>
                   <rect x="137" y="364"
            width="318.59999999999997" height="30"
            rx="3" ry="3"
            style="fill:#90caf9; stroke:#444; stroke-width:1" />
                   <title>let value_at_midpoint = arr[midpoint]</title>
            <text x="152" y="384"
                font-family="monospace" font-size="13" fill="#222">
                <tspan x="152" y="384">let value_at_midpoint = arr[midpoint]</tspan>
            </text>
                   
                   
                </g>
                <g>
                   <rect x="137" y="412.5"
            width="342" height="30"
            rx="2" ry="2"
            style="fill:#C5E1A5; stroke:#444; stroke-width:1" />
                   <title>console.log(midpoint, value_at_midpoint)</title>
            <text x="152" y="432.5"
                font-family="monospace" font-size="13" fill="#222">
                <tspan x="152" y="432.5">console.log(midpoint, value_at_midpoint)</tspan>
            </text>
                   
                   
                </g><g>
            <rect x="167" y="476"
            width="255" height="30"
            rx="3" ry="3"
            style="fill:#ce93d8; stroke:#444; stroke-width:1" />                
            <polygon points="137,491 167,461 197,491 167,521"
            style="fill:#ce93d8; stroke:#444; stroke-width:1" />
            <title>(val &lt; value_at_midpoint)</title>
            <text x="212" y="496"
                font-family="monospace" font-size="13" fill="#222">
                <tspan x="212" y="496">(val &lt; value_at_midpoint)</tspan>
            </text>
            
            <text x="159.2" y="496"
        font-family="monospace" font-size="13" fill="#222">if</text> <text x="174.8" y="522.95"
        font-family="monospace" font-size="13" fill="#222">+</text> <text x="425.9" y="489.05"
        font-family="monospace" font-size="13" fill="#222">-</text>
        </g>
                <g>
                   <rect x="187" y="531"
            width="232.79999999999998" height="30"
            rx="3" ry="3"
            style="fill:#90caf9; stroke:#444; stroke-width:1" />
                   <title>upper_bound = midpoint - 1</title>
            <text x="202" y="551"
                font-family="monospace" font-size="13" fill="#222">
                <tspan x="202" y="551">upper_bound = midpoint - 1</tspan>
            </text>
                   
                   
                </g><g>
            <rect x="512" y="546"
            width="255" height="30"
            rx="3" ry="3"
            style="fill:#ce93d8; stroke:#444; stroke-width:1" />                
            <polygon points="482,561 512,531 542,561 512,591"
            style="fill:#ce93d8; stroke:#444; stroke-width:1" />
            <title>(val &gt; value_at_midpoint)</title>
            <text x="557" y="566"
                font-family="monospace" font-size="13" fill="#222">
                <tspan x="557" y="566">(val &gt; value_at_midpoint)</tspan>
            </text>
            
            <text x="504.2" y="566"
        font-family="monospace" font-size="13" fill="#222">if</text> <text x="519.8" y="592.95"
        font-family="monospace" font-size="13" fill="#222">+</text> <text x="770.9" y="559.05"
        font-family="monospace" font-size="13" fill="#222">-</text>
        </g>
                <g>
                   <rect x="532" y="601"
            width="232.79999999999998" height="30"
            rx="3" ry="3"
            style="fill:#90caf9; stroke:#444; stroke-width:1" />
                   <title>lower_bound = midpoint + 1</title>
            <text x="547" y="621"
                font-family="monospace" font-size="13" fill="#222">
                <tspan x="547" y="621">lower_bound = midpoint + 1</tspan>
            </text>
                   
                   
                </g><g>
            <rect x="857" y="616"
            width="262.79999999999995" height="30"
            rx="3" ry="3"
            style="fill:#ce93d8; stroke:#444; stroke-width:1" />                
            <polygon points="827,631 857,601 887,631 857,661"
            style="fill:#ce93d8; stroke:#444; stroke-width:1" />
            <title>(val == value_at_midpoint)</title>
            <text x="902" y="636"
                font-family="monospace" font-size="13" fill="#222">
                <tspan x="902" y="636">(val == value_at_midpoint)</tspan>
            </text>
            
            <text x="849.2" y="636"
        font-family="monospace" font-size="13" fill="#222">if</text> <text x="864.8" y="662.95"
        font-family="monospace" font-size="13" fill="#222">+</text> 
        </g>
            <g>
                <rect x="877" y="671"
            width="147" height="30"
            rx="3" ry="3"
            style="fill:#90caf9; stroke:#444; stroke-width:1" />
                
                <line x1="1024" y1="681" x2="1029" y2="681"
                style="fill:#a5d6a7; stroke:#444; stroke-width:1" />
                
                <line x1="1024" y1="691" x2="1029" y2="691"
                style="fill:#a5d6a7; stroke:#444; stroke-width:1" />

                <path d="M1029, 675 L1045, 686 L1029, 697 Z" 
        fill="#a5d6a7" stroke="#444" stroke-width="1" />
                             
                <title>return midpoint</title>
            <text x="892" y="691"
                font-family="monospace" font-size="13" fill="#222">
                <tspan x="892" y="691">return midpoint</tspan>
            </text>
                
            </g>
            <g>
                <rect x="87" y="721"
            width="115.80000000000001" height="30"
            rx="3" ry="3"
            style="fill:#90caf9; stroke:#444; stroke-width:1" />
                
                <line x1="202.8" y1="731" x2="207.8" y2="731"
                style="fill:#a5d6a7; stroke:#444; stroke-width:1" />
                
                <line x1="202.8" y1="741" x2="207.8" y2="741"
                style="fill:#a5d6a7; stroke:#444; stroke-width:1" />

                <path d="M207.8, 725 L223.8, 736 L207.8, 747 Z" 
        fill="#a5d6a7" stroke="#444" stroke-width="1" />
                             
                <title>return null</title>
            <text x="102" y="741"
                font-family="monospace" font-size="13" fill="#222">
                <tspan x="102" y="741">return null</tspan>
            </text>
                
            </g>
            <g>
                <rect x="50" y="784.5"
            width="307.4" height="30"
            style="fill:#a5d6a7; stroke:#444; stroke-width:1" />
                    
                <line x1="60" y1="784.5" x2="60" y2="814.5"
                style="fill:#a5d6a7; stroke:#444; stroke-width:1" />
                <line x1="347.4" y1="784.5" x2="347.4" y2="814.5"
                style="fill:#a5d6a7; stroke:#444; stroke-width:1" />
             
                <title>function findPairs(arr1, arr2, x)</title>
            <text x="75" y="804.5"
                font-family="monospace" font-size="13" fill="#222">
                <tspan x="75" y="804.5">function findPairs(arr1, arr2, x)</tspan>
            </text>
                
            </g>
                <g>
                   <rect x="87" y="833"
            width="131.39999999999998" height="30"
            rx="3" ry="3"
            style="fill:#90caf9; stroke:#444; stroke-width:1" />
                   <title>let map = {*}</title>
            <text x="102" y="853"
                font-family="monospace" font-size="13" fill="#222">
                <tspan x="102" y="853">let map = {*}</tspan>
            </text>
                   
                   
                </g><g>

            <rect x="117" y="916.5"
            width="177" height="30"
            rx="3" ry="3"
            style="fill:#b39ddb; stroke:#444; stroke-width:1" />
            <polygon points="87,931.5 117,901.5 147,931.5 117,961.5"
            style="fill:#b39ddb; stroke:#444; stroke-width:1" />
                
            <title>i &lt; arr1.length</title>
            <text x="162" y="936.5"
                font-family="monospace" font-size="13" fill="#222">
                <tspan x="162" y="936.5">i &lt; arr1.length</tspan>
            </text>
            
            <text x="105.3" y="936.5"
        font-family="monospace" font-size="13" fill="#222">for</text>
        </g>
                <g>
                   <rect x="137" y="971.5"
            width="53.4" height="30"
            rx="3" ry="3"
            style="fill:#90caf9; stroke:#444; stroke-width:1" />
                   <title>i++</title>
            <text x="152" y="991.5"
                font-family="monospace" font-size="13" fill="#222">
                <tspan x="152" y="991.5">i++</tspan>
            </text>
                   
                   
                </g>
                <g>
                   <rect x="137" y="1020"
            width="154.8" height="30"
            rx="3" ry="3"
            style="fill:#90caf9; stroke:#444; stroke-width:1" />
                   <title>map[arr1[i]] = 0</title>
            <text x="152" y="1040"
                font-family="monospace" font-size="13" fill="#222">
                <tspan x="152" y="1040">map[arr1[i]] = 0</tspan>
            </text>
                   
                   
                </g><g>

            <rect x="117" y="1103.5"
            width="177" height="30"
            rx="3" ry="3"
            style="fill:#b39ddb; stroke:#444; stroke-width:1" />
            <polygon points="87,1118.5 117,1088.5 147,1118.5 117,1148.5"
            style="fill:#b39ddb; stroke:#444; stroke-width:1" />
                
            <title>j &lt; arr2.length</title>
            <text x="162" y="1123.5"
                font-family="monospace" font-size="13" fill="#222">
                <tspan x="162" y="1123.5">j &lt; arr2.length</tspan>
            </text>
            
            <text x="105.3" y="1123.5"
        font-family="monospace" font-size="13" fill="#222">for</text>
        </g>
                <g>
                   <rect x="137" y="1158.5"
            width="53.4" height="30"
            rx="3" ry="3"
            style="fill:#90caf9; stroke:#444; stroke-width:1" />
                   <title>j++</title>
            <text x="152" y="1178.5"
                font-family="monospace" font-size="13" fill="#222">
                <tspan x="152" y="1178.5">j++</tspan>
            </text>
                   
                   
                </g>
                <g>
                   <rect x="137" y="1207"
            width="217.2" height="30"
            rx="2" ry="2"
            style="fill:#C5E1A5; stroke:#444; stroke-width:1" />
                   <title>console.log(x - arr2[j])</title>
            <text x="152" y="1227"
                font-family="monospace" font-size="13" fill="#222">
                <tspan x="152" y="1227">console.log(x - arr2[j])</tspan>
            </text>
                   
                   
                </g><g>
            <rect x="167" y="1270.5"
            width="200.4" height="30"
            rx="3" ry="3"
            style="fill:#ce93d8; stroke:#444; stroke-width:1" />                
            <polygon points="137,1285.5 167,1255.5 197,1285.5 167,1315.5"
            style="fill:#ce93d8; stroke:#444; stroke-width:1" />
            <title>(map[x - arr2[j]])</title>
            <text x="212" y="1290.5"
                font-family="monospace" font-size="13" fill="#222">
                <tspan x="212" y="1290.5">(map[x - arr2[j]])</tspan>
            </text>
            
            <text x="159.2" y="1290.5"
        font-family="monospace" font-size="13" fill="#222">if</text> <text x="174.8" y="1317.45"
        font-family="monospace" font-size="13" fill="#222">+</text> 
        </g>
                <g>
                   <rect x="187" y="1325.5"
            width="225" height="30"
            rx="2" ry="2"
            style="fill:#C5E1A5; stroke:#444; stroke-width:1" />
                   <title>console.log(&apos;Found pair&apos;)</title>
            <text x="202" y="1345.5"
                font-family="monospace" font-size="13" fill="#222">
                <tspan x="202" y="1345.5">console.log(&apos;Found pair&apos;)</tspan>
            </text>
                   
                   
                </g>
                <g>
                   <rect x="50" y="1375.5"
            width="443.4" height="30"
            rx="2" ry="2"
            style="fill:#C5E1A5; stroke:#444; stroke-width:1" />
                   <title>console.log(findPairs([1, 0, -4, 7, 6, 4], [0, 2, 4, -3, 2, 1], 8))</title>
            <text x="65" y="1395.5"
                font-family="monospace" font-size="13" fill="#222">
                <tspan x="65" y="1395.5">console.log(findPairs([1, 0, -4, 7, 6, 4], [0, 2, ...</tspan>
            </text>
                   
                   
                </g>
            <g>
               <rect x="25" y="13.75"
            width="216.6" height="24"
            style="fill:#fff59d; stroke:#444; stroke-width:1" />
               <circle cx="25" cy="25" r="15"
        style="fill:#fff59d; stroke:#444; stroke-width:1" />
               <title>Program: source module</title>
            <text x="55" y="30"
                font-family="monospace" font-size="13" fill="#222">
                <tspan x="55" y="30">Program: source module</tspan>
            </text>
            </g>
            <g>
               <path d="M25, 40 L25 91 Q25 95
                29 95
                L42 95 "
        style="fill:none; stroke:#444; stroke-width:1" />
               <path d="M42, 92 L50, 95 L42, 98 Z" 
        fill="#333" />
            </g>
            <g>
               <path d="M68.5, 110 L68.5 139.5 Q68.5 143.5
                72.5 143.5
                L79 143.5 "
        style="fill:none; stroke:#444; stroke-width:1" />
               <path d="M79, 140.5 L87, 143.5 L79, 146.5 Z" 
        fill="#333" />
            </g>
            <g>
               <path d="M68.5, 110 L68.5 188 Q68.5 192
                72.5 192
                L79 192 "
        style="fill:none; stroke:#444; stroke-width:1" />
               <path d="M79, 189 L87, 192 L79, 195 Z" 
        fill="#333" />
            </g>
            <g>
               <path d="M68.5, 110 L68.5 271.5 Q68.5 275.5
                72.5 275.5
                L79 275.5 "
        style="fill:none; stroke:#444; stroke-width:1" />
               <path d="M79, 272.5 L87, 275.5 L79, 278.5 Z" 
        fill="#333" />
            </g>
            <g>
               <path d="M117, 305.5 L117 326.5 Q117 330.5
                121 330.5
                L129 330.5 "
        style="fill:none; stroke:#444; stroke-width:1" />
               <path d="M129, 327.5 L137, 330.5 L129, 333.5 Z" 
        fill="#333" />
            </g>
            <g>
               <path d="M117, 305.5 L117 375 Q117 379
                121 379
                L129 379 "
        style="fill:none; stroke:#444; stroke-width:1" />
               <path d="M129, 376 L137, 379 L129, 382 Z" 
        fill="#333" />
            </g>
            <g>
               <path d="M117, 305.5 L117 423.5 Q117 427.5
                121 427.5
                L129 427.5 "
        style="fill:none; stroke:#444; stroke-width:1" />
               <path d="M129, 424.5 L137, 427.5 L129, 430.5 Z" 
        fill="#333" />
            </g>
            <g>
               <path d="M117, 305.5 L117 487 Q117 491
                121 491
                L129 491 "
        style="fill:none; stroke:#444; stroke-width:1" />
               <path d="M129, 488 L137, 491 L129, 494 Z" 
        fill="#333" />
            </g>
            <g>
               <path d="M167, 521 L167 542 Q167 546
                171 546
                L179 546 "
        style="fill:none; stroke:#444; stroke-width:1" />
               <path d="M179, 543 L187, 546 L179, 549 Z" 
        fill="#333" />
            </g>
            <g>
               <path d="M422, 491 L458 491  Q462 491
                462 495
                L462 553 Q462 561
                466 561
                L474 561 "
        style="fill:none; stroke:#444; stroke-width:1" />
               <path d="M474, 558 L482, 561 L474, 564 Z" 
        fill="#333" />
            </g>
            <g>
               <path d="M512, 591 L512 612 Q512 616
                516 616
                L524 616 "
        style="fill:none; stroke:#444; stroke-width:1" />
               <path d="M524, 613 L532, 616 L524, 619 Z" 
        fill="#333" />
            </g>
            <g>
               <path d="M767, 561 L803 561  Q807 561
                807 565
                L807 623 Q807 631
                811 631
                L819 631 "
        style="fill:none; stroke:#444; stroke-width:1" />
               <path d="M819, 628 L827, 631 L819, 634 Z" 
        fill="#333" />
            </g>
            <g>
               <path d="M857, 661 L857 682 Q857 686
                861 686
                L869 686 "
        style="fill:none; stroke:#444; stroke-width:1" />
               <path d="M869, 683 L877, 686 L869, 689 Z" 
        fill="#333" />
            </g>
            <g>
               <path d="M1045, 686 L1135.8 686  Q1139.8 686
                1139.8 682
                L1139.8 233.5 Q1139.8 225.5
                1135.8 225.5
                L125 225.5  Q117 225.5
                117 229.5
                L117 237.5"
        style="fill:none; stroke:#444; stroke-width:1" />
               <path d="M114, 237.5 L117, 245.5 L120, 237.5 Z" 
        fill="#333" />
            </g>
            <g>
               <path d="M68.5, 110 L68.5 732 Q68.5 736
                72.5 736
                L79 736 "
        style="fill:none; stroke:#444; stroke-width:1" />
               <path d="M79, 733 L87, 736 L79, 739 Z" 
        fill="#333" />
            </g>
            <g>
               <path d="M25, 40 L25 795.5 Q25 799.5
                29 799.5
                L42 799.5 "
        style="fill:none; stroke:#444; stroke-width:1" />
               <path d="M42, 796.5 L50, 799.5 L42, 802.5 Z" 
        fill="#333" />
            </g>
            <g>
               <path d="M68.5, 814.5 L68.5 844 Q68.5 848
                72.5 848
                L79 848 "
        style="fill:none; stroke:#444; stroke-width:1" />
               <path d="M79, 845 L87, 848 L79, 851 Z" 
        fill="#333" />
            </g>
            <g>
               <path d="M68.5, 814.5 L68.5 927.5 Q68.5 931.5
                72.5 931.5
                L79 931.5 "
        style="fill:none; stroke:#444; stroke-width:1" />
               <path d="M79, 928.5 L87, 931.5 L79, 934.5 Z" 
        fill="#333" />
            </g>
            <g>
               <path d="M117, 961.5 L117 982.5 Q117 986.5
                121 986.5
                L129 986.5 "
        style="fill:none; stroke:#444; stroke-width:1" />
               <path d="M129, 983.5 L137, 986.5 L129, 989.5 Z" 
        fill="#333" />
            </g>
            <g>
               <path d="M117, 961.5 L117 1031 Q117 1035
                121 1035
                L129 1035 "
        style="fill:none; stroke:#444; stroke-width:1" />
               <path d="M129, 1032 L137, 1035 L129, 1038 Z" 
        fill="#333" />
            </g>
            <g>
               <path d="M291.8, 1035 L310 1035  Q314 1035
                314 1031
                L314 889.5 Q314 881.5
                310 881.5
                L125 881.5  Q117 881.5
                117 885.5
                L117 893.5"
        style="fill:none; stroke:#444; stroke-width:1" />
               <path d="M114, 893.5 L117, 901.5 L120, 893.5 Z" 
        fill="#333" />
            </g>
            <g>
               <path d="M68.5, 814.5 L68.5 1114.5 Q68.5 1118.5
                72.5 1118.5
                L79 1118.5 "
        style="fill:none; stroke:#444; stroke-width:1" />
               <path d="M79, 1115.5 L87, 1118.5 L79, 1121.5 Z" 
        fill="#333" />
            </g>
            <g>
               <path d="M117, 1148.5 L117 1169.5 Q117 1173.5
                121 1173.5
                L129 1173.5 "
        style="fill:none; stroke:#444; stroke-width:1" />
               <path d="M129, 1170.5 L137, 1173.5 L129, 1176.5 Z" 
        fill="#333" />
            </g>
            <g>
               <path d="M117, 1148.5 L117 1218 Q117 1222
                121 1222
                L129 1222 "
        style="fill:none; stroke:#444; stroke-width:1" />
               <path d="M129, 1219 L137, 1222 L129, 1225 Z" 
        fill="#333" />
            </g>
            <g>
               <path d="M117, 1148.5 L117 1281.5 Q117 1285.5
                121 1285.5
                L129 1285.5 "
        style="fill:none; stroke:#444; stroke-width:1" />
               <path d="M129, 1282.5 L137, 1285.5 L129, 1288.5 Z" 
        fill="#333" />
            </g>
            <g>
               <path d="M167, 1315.5 L167 1336.5 Q167 1340.5
                171 1340.5
                L179 1340.5 "
        style="fill:none; stroke:#444; stroke-width:1" />
               <path d="M179, 1337.5 L187, 1340.5 L179, 1343.5 Z" 
        fill="#333" />
            </g>
            <g>
               <path d="M412, 1340.5 L428 1340.5  Q432 1340.5
                432 1336.5
                L432 1076.5 Q432 1068.5
                428 1068.5
                L125 1068.5  Q117 1068.5
                117 1072.5
                L117 1080.5"
        style="fill:none; stroke:#444; stroke-width:1" />
               <path d="M114, 1080.5 L117, 1088.5 L120, 1080.5 Z" 
        fill="#333" />
            </g>
            <g>
               <path d="M25, 40 L25 1386.5 Q25 1390.5
                29 1390.5
                L42 1390.5 "
        style="fill:none; stroke:#444; stroke-width:1" />
               <path d="M42, 1387.5 L50, 1390.5 L42, 1393.5 Z" 
        fill="#333" />
            </g>
            </svg>