<!DOCTYPE svg PUBLIC "-//W3C//DTD SVG 1.1//EN" "http://www.w3.org/Graphics/SVG/1.1/DTD/svg11.dtd">
                <svg xmlns="http://www.w3.org/2000/svg" xmlns:xlink="http://www.w3.org/1999/xlink" 
                width="414" height="2122">
                
            <g>
                <rect x="50" y="80"
            width="315.2" height="30"
            style="fill:#a5d6a7; stroke:#444; stroke-width:1" />
                    
                <line x1="60" y1="80" x2="60" y2="110"
                style="fill:#a5d6a7; stroke:#444; stroke-width:1" />
                <line x1="355.2" y1="80" x2="355.2" y2="110"
                style="fill:#a5d6a7; stroke:#444; stroke-width:1" />
             
                <title>function postorderTraversal1(node)</title>
            <text x="75" y="100"
                font-family="monospace" font-size="13" fill="#222">
                <tspan x="75" y="100">function postorderTraversal1(node)</tspan>
            </text>
                
            </g>
                <g>
                   <rect x="87" y="128.5"
            width="123.6" height="30"
            rx="3" ry="3"
            style="fill:#90caf9; stroke:#444; stroke-width:1" />
                   <title>let res = []</title>
            <text x="102" y="148.5"
                font-family="monospace" font-size="13" fill="#222">
                <tspan x="102" y="148.5">let res = []</tspan>
            </text>
                   
                   
                </g>
                <g>
                   <rect x="87" y="177"
            width="131.39999999999998" height="30"
            rx="2" ry="2"
            style="fill:#C5E1A5; stroke:#444; stroke-width:1" />
                   <title>go(node, res)</title>
            <text x="102" y="197"
                font-family="monospace" font-size="13" fill="#222">
                <tspan x="102" y="197">go(node, res)</tspan>
            </text>
                   
                   
                </g>
            <g>
                <rect x="87" y="225.5"
            width="108" height="30"
            rx="3" ry="3"
            style="fill:#90caf9; stroke:#444; stroke-width:1" />
                
                <line x1="195" y1="235.5" x2="200" y2="235.5"
                style="fill:#a5d6a7; stroke:#444; stroke-width:1" />
                
                <line x1="195" y1="245.5" x2="200" y2="245.5"
                style="fill:#a5d6a7; stroke:#444; stroke-width:1" />

                <path d="M200, 229.5 L216, 240.5 L200, 251.5 Z" 
        fill="#a5d6a7" stroke="#444" stroke-width="1" />
                             
                <title>return res</title>
            <text x="102" y="245.5"
                font-family="monospace" font-size="13" fill="#222">
                <tspan x="102" y="245.5">return res</tspan>
            </text>
                
            </g>
            <g>
                <rect x="50" y="289"
            width="221.6" height="30"
            style="fill:#a5d6a7; stroke:#444; stroke-width:1" />
                    
                <line x1="60" y1="289" x2="60" y2="319"
                style="fill:#a5d6a7; stroke:#444; stroke-width:1" />
                <line x1="261.6" y1="289" x2="261.6" y2="319"
                style="fill:#a5d6a7; stroke:#444; stroke-width:1" />
             
                <title>function go(node, res)</title>
            <text x="75" y="309"
                font-family="monospace" font-size="13" fill="#222">
                <tspan x="75" y="309">function go(node, res)</tspan>
            </text>
                
            </g><g>
            <rect x="117" y="352.5"
            width="114.6" height="30"
            rx="3" ry="3"
            style="fill:#ce93d8; stroke:#444; stroke-width:1" />                
            <polygon points="87,367.5 117,337.5 147,367.5 117,397.5"
            style="fill:#ce93d8; stroke:#444; stroke-width:1" />
            <title>(!node)</title>
            <text x="162" y="372.5"
                font-family="monospace" font-size="13" fill="#222">
                <tspan x="162" y="372.5">(!node)</tspan>
            </text>
            
            <text x="109.2" y="372.5"
        font-family="monospace" font-size="13" fill="#222">if</text> <text x="124.8" y="399.45"
        font-family="monospace" font-size="13" fill="#222">+</text> 
        </g>
            <g>
                <rect x="137" y="407.5"
            width="76.8" height="30"
            rx="3" ry="3"
            style="fill:#90caf9; stroke:#444; stroke-width:1" />
                
                <line x1="213.8" y1="417.5" x2="218.8" y2="417.5"
                style="fill:#a5d6a7; stroke:#444; stroke-width:1" />
                
                <line x1="213.8" y1="427.5" x2="218.8" y2="427.5"
                style="fill:#a5d6a7; stroke:#444; stroke-width:1" />

                <path d="M218.8, 411.5 L234.8, 422.5 L218.8, 433.5 Z" 
        fill="#a5d6a7" stroke="#444" stroke-width="1" />
                             
                <title>return</title>
            <text x="152" y="427.5"
                font-family="monospace" font-size="13" fill="#222">
                <tspan x="152" y="427.5">return</tspan>
            </text>
                
            </g>
                <g>
                   <rect x="87" y="457.5"
            width="170.4" height="30"
            rx="2" ry="2"
            style="fill:#C5E1A5; stroke:#444; stroke-width:1" />
                   <title>go(node.left, res)</title>
            <text x="102" y="477.5"
                font-family="monospace" font-size="13" fill="#222">
                <tspan x="102" y="477.5">go(node.left, res)</tspan>
            </text>
                   
                   
                </g>
                <g>
                   <rect x="87" y="506"
            width="178.2" height="30"
            rx="2" ry="2"
            style="fill:#C5E1A5; stroke:#444; stroke-width:1" />
                   <title>go(node.right, res)</title>
            <text x="102" y="526"
                font-family="monospace" font-size="13" fill="#222">
                <tspan x="102" y="526">go(node.right, res)</tspan>
            </text>
                   
                   
                </g>
                <g>
                   <rect x="87" y="554.5"
            width="170.4" height="30"
            rx="2" ry="2"
            style="fill:#C5E1A5; stroke:#444; stroke-width:1" />
                   <title>res.push(node.val)</title>
            <text x="102" y="574.5"
                font-family="monospace" font-size="13" fill="#222">
                <tspan x="102" y="574.5">res.push(node.val)</tspan>
            </text>
                   
                   
                </g>
            <g>
                <rect x="50" y="618"
            width="307.4" height="30"
            style="fill:#a5d6a7; stroke:#444; stroke-width:1" />
                    
                <line x1="60" y1="618" x2="60" y2="648"
                style="fill:#a5d6a7; stroke:#444; stroke-width:1" />
                <line x1="347.4" y1="618" x2="347.4" y2="648"
                style="fill:#a5d6a7; stroke:#444; stroke-width:1" />
             
                <title>function postorderTraversal(node)</title>
            <text x="75" y="638"
                font-family="monospace" font-size="13" fill="#222">
                <tspan x="75" y="638">function postorderTraversal(node)</tspan>
            </text>
                
            </g>
                <g>
                   <rect x="87" y="666.5"
            width="139.2" height="30"
            rx="3" ry="3"
            style="fill:#90caf9; stroke:#444; stroke-width:1" />
                   <title>let stack = []</title>
            <text x="102" y="686.5"
                font-family="monospace" font-size="13" fill="#222">
                <tspan x="102" y="686.5">let stack = []</tspan>
            </text>
                   
                   
                </g>
                <g>
                   <rect x="87" y="715"
            width="123.6" height="30"
            rx="3" ry="3"
            style="fill:#90caf9; stroke:#444; stroke-width:1" />
                   <title>let res = []</title>
            <text x="102" y="735"
                font-family="monospace" font-size="13" fill="#222">
                <tspan x="102" y="735">let res = []</tspan>
            </text>
                   
                   
                </g><g>
            <rect x="117" y="778.5"
            width="106.80000000000001" height="30"
            rx="3" ry="3"
            style="fill:#ce93d8; stroke:#444; stroke-width:1" />                
            <polygon points="87,793.5 117,763.5 147,793.5 117,823.5"
            style="fill:#ce93d8; stroke:#444; stroke-width:1" />
            <title>(node)</title>
            <text x="162" y="798.5"
                font-family="monospace" font-size="13" fill="#222">
                <tspan x="162" y="798.5">(node)</tspan>
            </text>
            
            <text x="109.2" y="798.5"
        font-family="monospace" font-size="13" fill="#222">if</text> <text x="124.8" y="825.45"
        font-family="monospace" font-size="13" fill="#222">+</text> 
        </g>
                <g>
                   <rect x="137" y="833.5"
            width="154.8" height="30"
            rx="2" ry="2"
            style="fill:#C5E1A5; stroke:#444; stroke-width:1" />
                   <title>stack.push(node)</title>
            <text x="152" y="853.5"
                font-family="monospace" font-size="13" fill="#222">
                <tspan x="152" y="853.5">stack.push(node)</tspan>
            </text>
                   
                   
                </g><g>

            <rect x="117" y="918.5"
            width="153.6" height="30"
            rx="3" ry="3"
            style="fill:#b39ddb; stroke:#444; stroke-width:1" />
            <polygon points="87,933.5 117,903.5 147,933.5 117,963.5"
            style="fill:#b39ddb; stroke:#444; stroke-width:1" />
                
            <title>stack.length</title>
            <text x="162" y="938.5"
                font-family="monospace" font-size="13" fill="#222">
                <tspan x="162" y="938.5">stack.length</tspan>
            </text>
            
            <text x="97.5" y="938.5"
        font-family="monospace" font-size="13" fill="#222">while</text>
        </g>
                <g>
                   <rect x="137" y="973.5"
            width="170.4" height="30"
            rx="3" ry="3"
            style="fill:#90caf9; stroke:#444; stroke-width:1" />
                   <title>node = stack.pop()</title>
            <text x="152" y="993.5"
                font-family="monospace" font-size="13" fill="#222">
                <tspan x="152" y="993.5">node = stack.pop()</tspan>
            </text>
                   
                   
                </g>
                <g>
                   <rect x="137" y="1022"
            width="193.79999999999998" height="30"
            rx="2" ry="2"
            style="fill:#C5E1A5; stroke:#444; stroke-width:1" />
                   <title>res.unshift(node.val)</title>
            <text x="152" y="1042"
                font-family="monospace" font-size="13" fill="#222">
                <tspan x="152" y="1042">res.unshift(node.val)</tspan>
            </text>
                   
                   
                </g><g>
            <rect x="167" y="1085.5"
            width="145.8" height="30"
            rx="3" ry="3"
            style="fill:#ce93d8; stroke:#444; stroke-width:1" />                
            <polygon points="137,1100.5 167,1070.5 197,1100.5 167,1130.5"
            style="fill:#ce93d8; stroke:#444; stroke-width:1" />
            <title>(node.left)</title>
            <text x="212" y="1105.5"
                font-family="monospace" font-size="13" fill="#222">
                <tspan x="212" y="1105.5">(node.left)</tspan>
            </text>
            
            <text x="159.2" y="1105.5"
        font-family="monospace" font-size="13" fill="#222">if</text> <text x="174.8" y="1132.45"
        font-family="monospace" font-size="13" fill="#222">+</text> 
        </g>
                <g>
                   <rect x="187" y="1140.5"
            width="193.79999999999998" height="30"
            rx="2" ry="2"
            style="fill:#C5E1A5; stroke:#444; stroke-width:1" />
                   <title>stack.push(node.left)</title>
            <text x="202" y="1160.5"
                font-family="monospace" font-size="13" fill="#222">
                <tspan x="202" y="1160.5">stack.push(node.left)</tspan>
            </text>
                   
                   
                </g><g>
            <rect x="167" y="1205.5"
            width="153.6" height="30"
            rx="3" ry="3"
            style="fill:#ce93d8; stroke:#444; stroke-width:1" />                
            <polygon points="137,1220.5 167,1190.5 197,1220.5 167,1250.5"
            style="fill:#ce93d8; stroke:#444; stroke-width:1" />
            <title>(node.right)</title>
            <text x="212" y="1225.5"
                font-family="monospace" font-size="13" fill="#222">
                <tspan x="212" y="1225.5">(node.right)</tspan>
            </text>
            
            <text x="159.2" y="1225.5"
        font-family="monospace" font-size="13" fill="#222">if</text> <text x="174.8" y="1252.45"
        font-family="monospace" font-size="13" fill="#222">+</text> 
        </g>
                <g>
                   <rect x="187" y="1260.5"
            width="201.6" height="30"
            rx="2" ry="2"
            style="fill:#C5E1A5; stroke:#444; stroke-width:1" />
                   <title>stack.push(node.right)</title>
            <text x="202" y="1280.5"
                font-family="monospace" font-size="13" fill="#222">
                <tspan x="202" y="1280.5">stack.push(node.right)</tspan>
            </text>
                   
                   
                </g>
            <g>
                <rect x="87" y="1310.5"
            width="108" height="30"
            rx="3" ry="3"
            style="fill:#90caf9; stroke:#444; stroke-width:1" />
                
                <line x1="195" y1="1320.5" x2="200" y2="1320.5"
                style="fill:#a5d6a7; stroke:#444; stroke-width:1" />
                
                <line x1="195" y1="1330.5" x2="200" y2="1330.5"
                style="fill:#a5d6a7; stroke:#444; stroke-width:1" />

                <path d="M200, 1314.5 L216, 1325.5 L200, 1336.5 Z" 
        fill="#a5d6a7" stroke="#444" stroke-width="1" />
                             
                <title>return res</title>
            <text x="102" y="1330.5"
                font-family="monospace" font-size="13" fill="#222">
                <tspan x="102" y="1330.5">return res</tspan>
            </text>
                
            </g>
            <g>
                <rect x="50" y="1374"
            width="315.2" height="30"
            style="fill:#a5d6a7; stroke:#444; stroke-width:1" />
                    
                <line x1="60" y1="1374" x2="60" y2="1404"
                style="fill:#a5d6a7; stroke:#444; stroke-width:1" />
                <line x1="355.2" y1="1374" x2="355.2" y2="1404"
                style="fill:#a5d6a7; stroke:#444; stroke-width:1" />
             
                <title>function levelOrderTraversal(node)</title>
            <text x="75" y="1394"
                font-family="monospace" font-size="13" fill="#222">
                <tspan x="75" y="1394">function levelOrderTraversal(node)</tspan>
            </text>
                
            </g>
                <g>
                   <rect x="87" y="1422.5"
            width="139.2" height="30"
            rx="3" ry="3"
            style="fill:#90caf9; stroke:#444; stroke-width:1" />
                   <title>let stack = []</title>
            <text x="102" y="1442.5"
                font-family="monospace" font-size="13" fill="#222">
                <tspan x="102" y="1442.5">let stack = []</tspan>
            </text>
                   
                   
                </g>
                <g>
                   <rect x="87" y="1471"
            width="123.6" height="30"
            rx="3" ry="3"
            style="fill:#90caf9; stroke:#444; stroke-width:1" />
                   <title>let res = []</title>
            <text x="102" y="1491"
                font-family="monospace" font-size="13" fill="#222">
                <tspan x="102" y="1491">let res = []</tspan>
            </text>
                   
                   
                </g><g>
            <rect x="117" y="1534.5"
            width="106.80000000000001" height="30"
            rx="3" ry="3"
            style="fill:#ce93d8; stroke:#444; stroke-width:1" />                
            <polygon points="87,1549.5 117,1519.5 147,1549.5 117,1579.5"
            style="fill:#ce93d8; stroke:#444; stroke-width:1" />
            <title>(node)</title>
            <text x="162" y="1554.5"
                font-family="monospace" font-size="13" fill="#222">
                <tspan x="162" y="1554.5">(node)</tspan>
            </text>
            
            <text x="109.2" y="1554.5"
        font-family="monospace" font-size="13" fill="#222">if</text> <text x="124.8" y="1581.45"
        font-family="monospace" font-size="13" fill="#222">+</text> 
        </g>
                <g>
                   <rect x="137" y="1589.5"
            width="154.8" height="30"
            rx="2" ry="2"
            style="fill:#C5E1A5; stroke:#444; stroke-width:1" />
                   <title>stack.push(node)</title>
            <text x="152" y="1609.5"
                font-family="monospace" font-size="13" fill="#222">
                <tspan x="152" y="1609.5">stack.push(node)</tspan>
            </text>
                   
                   
                </g><g>

            <rect x="117" y="1674.5"
            width="153.6" height="30"
            rx="3" ry="3"
            style="fill:#b39ddb; stroke:#444; stroke-width:1" />
            <polygon points="87,1689.5 117,1659.5 147,1689.5 117,1719.5"
            style="fill:#b39ddb; stroke:#444; stroke-width:1" />
                
            <title>stack.length</title>
            <text x="162" y="1694.5"
                font-family="monospace" font-size="13" fill="#222">
                <tspan x="162" y="1694.5">stack.length</tspan>
            </text>
            
            <text x="97.5" y="1694.5"
        font-family="monospace" font-size="13" fill="#222">while</text>
        </g>
                <g>
                   <rect x="137" y="1729.5"
            width="186" height="30"
            rx="3" ry="3"
            style="fill:#90caf9; stroke:#444; stroke-width:1" />
                   <title>node = stack.shift()</title>
            <text x="152" y="1749.5"
                font-family="monospace" font-size="13" fill="#222">
                <tspan x="152" y="1749.5">node = stack.shift()</tspan>
            </text>
                   
                   
                </g>
                <g>
                   <rect x="137" y="1778"
            width="170.4" height="30"
            rx="2" ry="2"
            style="fill:#C5E1A5; stroke:#444; stroke-width:1" />
                   <title>res.push(node.val)</title>
            <text x="152" y="1798"
                font-family="monospace" font-size="13" fill="#222">
                <tspan x="152" y="1798">res.push(node.val)</tspan>
            </text>
                   
                   
                </g><g>
            <rect x="167" y="1841.5"
            width="145.8" height="30"
            rx="3" ry="3"
            style="fill:#ce93d8; stroke:#444; stroke-width:1" />                
            <polygon points="137,1856.5 167,1826.5 197,1856.5 167,1886.5"
            style="fill:#ce93d8; stroke:#444; stroke-width:1" />
            <title>(node.left)</title>
            <text x="212" y="1861.5"
                font-family="monospace" font-size="13" fill="#222">
                <tspan x="212" y="1861.5">(node.left)</tspan>
            </text>
            
            <text x="159.2" y="1861.5"
        font-family="monospace" font-size="13" fill="#222">if</text> <text x="174.8" y="1888.45"
        font-family="monospace" font-size="13" fill="#222">+</text> 
        </g>
                <g>
                   <rect x="187" y="1896.5"
            width="193.79999999999998" height="30"
            rx="2" ry="2"
            style="fill:#C5E1A5; stroke:#444; stroke-width:1" />
                   <title>stack.push(node.left)</title>
            <text x="202" y="1916.5"
                font-family="monospace" font-size="13" fill="#222">
                <tspan x="202" y="1916.5">stack.push(node.left)</tspan>
            </text>
                   
                   
                </g><g>
            <rect x="167" y="1961.5"
            width="153.6" height="30"
            rx="3" ry="3"
            style="fill:#ce93d8; stroke:#444; stroke-width:1" />                
            <polygon points="137,1976.5 167,1946.5 197,1976.5 167,2006.5"
            style="fill:#ce93d8; stroke:#444; stroke-width:1" />
            <title>(node.right)</title>
            <text x="212" y="1981.5"
                font-family="monospace" font-size="13" fill="#222">
                <tspan x="212" y="1981.5">(node.right)</tspan>
            </text>
            
            <text x="159.2" y="1981.5"
        font-family="monospace" font-size="13" fill="#222">if</text> <text x="174.8" y="2008.45"
        font-family="monospace" font-size="13" fill="#222">+</text> 
        </g>
                <g>
                   <rect x="187" y="2016.5"
            width="201.6" height="30"
            rx="2" ry="2"
            style="fill:#C5E1A5; stroke:#444; stroke-width:1" />
                   <title>stack.push(node.right)</title>
            <text x="202" y="2036.5"
                font-family="monospace" font-size="13" fill="#222">
                <tspan x="202" y="2036.5">stack.push(node.right)</tspan>
            </text>
                   
                   
                </g>
            <g>
                <rect x="87" y="2066.5"
            width="108" height="30"
            rx="3" ry="3"
            style="fill:#90caf9; stroke:#444; stroke-width:1" />
                
                <line x1="195" y1="2076.5" x2="200" y2="2076.5"
                style="fill:#a5d6a7; stroke:#444; stroke-width:1" />
                
                <line x1="195" y1="2086.5" x2="200" y2="2086.5"
                style="fill:#a5d6a7; stroke:#444; stroke-width:1" />

                <path d="M200, 2070.5 L216, 2081.5 L200, 2092.5 Z" 
        fill="#a5d6a7" stroke="#444" stroke-width="1" />
                             
                <title>return res</title>
            <text x="102" y="2086.5"
                font-family="monospace" font-size="13" fill="#222">
                <tspan x="102" y="2086.5">return res</tspan>
            </text>
                
            </g>
            <g>
               <rect x="25" y="13.75"
            width="216.6" height="24"
            style="fill:#fff59d; stroke:#444; stroke-width:1" />
               <circle cx="25" cy="25" r="15"
        style="fill:#fff59d; stroke:#444; stroke-width:1" />
               <title>Program: source module</title>
            <text x="55" y="30"
                font-family="monospace" font-size="13" fill="#222">
                <tspan x="55" y="30">Program: source module</tspan>
            </text>
            </g>
            <g>
               <path d="M25, 40 L25 91 Q25 95
                29 95
                L42 95 "
        style="fill:none; stroke:#444; stroke-width:1" />
               <path d="M42, 92 L50, 95 L42, 98 Z" 
        fill="#333" />
            </g>
            <g>
               <path d="M68.5, 110 L68.5 139.5 Q68.5 143.5
                72.5 143.5
                L79 143.5 "
        style="fill:none; stroke:#444; stroke-width:1" />
               <path d="M79, 140.5 L87, 143.5 L79, 146.5 Z" 
        fill="#333" />
            </g>
            <g>
               <path d="M68.5, 110 L68.5 188 Q68.5 192
                72.5 192
                L79 192 "
        style="fill:none; stroke:#444; stroke-width:1" />
               <path d="M79, 189 L87, 192 L79, 195 Z" 
        fill="#333" />
            </g>
            <g>
               <path d="M68.5, 110 L68.5 236.5 Q68.5 240.5
                72.5 240.5
                L79 240.5 "
        style="fill:none; stroke:#444; stroke-width:1" />
               <path d="M79, 237.5 L87, 240.5 L79, 243.5 Z" 
        fill="#333" />
            </g>
            <g>
               <path d="M25, 40 L25 300 Q25 304
                29 304
                L42 304 "
        style="fill:none; stroke:#444; stroke-width:1" />
               <path d="M42, 301 L50, 304 L42, 307 Z" 
        fill="#333" />
            </g>
            <g>
               <path d="M68.5, 319 L68.5 363.5 Q68.5 367.5
                72.5 367.5
                L79 367.5 "
        style="fill:none; stroke:#444; stroke-width:1" />
               <path d="M79, 364.5 L87, 367.5 L79, 370.5 Z" 
        fill="#333" />
            </g>
            <g>
               <path d="M117, 397.5 L117 418.5 Q117 422.5
                121 422.5
                L129 422.5 "
        style="fill:none; stroke:#444; stroke-width:1" />
               <path d="M129, 419.5 L137, 422.5 L129, 425.5 Z" 
        fill="#333" />
            </g>
            <g>
               <path d="M68.5, 319 L68.5 468.5 Q68.5 472.5
                72.5 472.5
                L79 472.5 "
        style="fill:none; stroke:#444; stroke-width:1" />
               <path d="M79, 469.5 L87, 472.5 L79, 475.5 Z" 
        fill="#333" />
            </g>
            <g>
               <path d="M68.5, 319 L68.5 517 Q68.5 521
                72.5 521
                L79 521 "
        style="fill:none; stroke:#444; stroke-width:1" />
               <path d="M79, 518 L87, 521 L79, 524 Z" 
        fill="#333" />
            </g>
            <g>
               <path d="M68.5, 319 L68.5 565.5 Q68.5 569.5
                72.5 569.5
                L79 569.5 "
        style="fill:none; stroke:#444; stroke-width:1" />
               <path d="M79, 566.5 L87, 569.5 L79, 572.5 Z" 
        fill="#333" />
            </g>
            <g>
               <path d="M25, 40 L25 629 Q25 633
                29 633
                L42 633 "
        style="fill:none; stroke:#444; stroke-width:1" />
               <path d="M42, 630 L50, 633 L42, 636 Z" 
        fill="#333" />
            </g>
            <g>
               <path d="M68.5, 648 L68.5 677.5 Q68.5 681.5
                72.5 681.5
                L79 681.5 "
        style="fill:none; stroke:#444; stroke-width:1" />
               <path d="M79, 678.5 L87, 681.5 L79, 684.5 Z" 
        fill="#333" />
            </g>
            <g>
               <path d="M68.5, 648 L68.5 726 Q68.5 730
                72.5 730
                L79 730 "
        style="fill:none; stroke:#444; stroke-width:1" />
               <path d="M79, 727 L87, 730 L79, 733 Z" 
        fill="#333" />
            </g>
            <g>
               <path d="M68.5, 648 L68.5 789.5 Q68.5 793.5
                72.5 793.5
                L79 793.5 "
        style="fill:none; stroke:#444; stroke-width:1" />
               <path d="M79, 790.5 L87, 793.5 L79, 796.5 Z" 
        fill="#333" />
            </g>
            <g>
               <path d="M117, 823.5 L117 844.5 Q117 848.5
                121 848.5
                L129 848.5 "
        style="fill:none; stroke:#444; stroke-width:1" />
               <path d="M129, 845.5 L137, 848.5 L129, 851.5 Z" 
        fill="#333" />
            </g>
            <g>
               <path d="M68.5, 648 L68.5 929.5 Q68.5 933.5
                72.5 933.5
                L79 933.5 "
        style="fill:none; stroke:#444; stroke-width:1" />
               <path d="M79, 930.5 L87, 933.5 L79, 936.5 Z" 
        fill="#333" />
            </g>
            <g>
               <path d="M117, 963.5 L117 984.5 Q117 988.5
                121 988.5
                L129 988.5 "
        style="fill:none; stroke:#444; stroke-width:1" />
               <path d="M129, 985.5 L137, 988.5 L129, 991.5 Z" 
        fill="#333" />
            </g>
            <g>
               <path d="M117, 963.5 L117 1033 Q117 1037
                121 1037
                L129 1037 "
        style="fill:none; stroke:#444; stroke-width:1" />
               <path d="M129, 1034 L137, 1037 L129, 1040 Z" 
        fill="#333" />
            </g>
            <g>
               <path d="M117, 963.5 L117 1096.5 Q117 1100.5
                121 1100.5
                L129 1100.5 "
        style="fill:none; stroke:#444; stroke-width:1" />
               <path d="M129, 1097.5 L137, 1100.5 L129, 1103.5 Z" 
        fill="#333" />
            </g>
            <g>
               <path d="M167, 1130.5 L167 1151.5 Q167 1155.5
                171 1155.5
                L179 1155.5 "
        style="fill:none; stroke:#444; stroke-width:1" />
               <path d="M179, 1152.5 L187, 1155.5 L179, 1158.5 Z" 
        fill="#333" />
            </g>
            <g>
               <path d="M117, 963.5 L117 1216.5 Q117 1220.5
                121 1220.5
                L129 1220.5 "
        style="fill:none; stroke:#444; stroke-width:1" />
               <path d="M129, 1217.5 L137, 1220.5 L129, 1223.5 Z" 
        fill="#333" />
            </g>
            <g>
               <path d="M167, 1250.5 L167 1271.5 Q167 1275.5
                171 1275.5
                L179 1275.5 "
        style="fill:none; stroke:#444; stroke-width:1" />
               <path d="M179, 1272.5 L187, 1275.5 L179, 1278.5 Z" 
        fill="#333" />
            </g>
            <g>
               <path d="M388.6, 1275.5 L404.6 1275.5  Q408.6 1275.5
                408.6 1271.5
                L408.6 891.5 Q408.6 883.5
                404.6 883.5
                L125 883.5  Q117 883.5
                117 887.5
                L117 895.5"
        style="fill:none; stroke:#444; stroke-width:1" />
               <path d="M114, 895.5 L117, 903.5 L120, 895.5 Z" 
        fill="#333" />
            </g>
            <g>
               <path d="M68.5, 648 L68.5 1321.5 Q68.5 1325.5
                72.5 1325.5
                L79 1325.5 "
        style="fill:none; stroke:#444; stroke-width:1" />
               <path d="M79, 1322.5 L87, 1325.5 L79, 1328.5 Z" 
        fill="#333" />
            </g>
            <g>
               <path d="M25, 40 L25 1385 Q25 1389
                29 1389
                L42 1389 "
        style="fill:none; stroke:#444; stroke-width:1" />
               <path d="M42, 1386 L50, 1389 L42, 1392 Z" 
        fill="#333" />
            </g>
            <g>
               <path d="M68.5, 1404 L68.5 1433.5 Q68.5 1437.5
                72.5 1437.5
                L79 1437.5 "
        style="fill:none; stroke:#444; stroke-width:1" />
               <path d="M79, 1434.5 L87, 1437.5 L79, 1440.5 Z" 
        fill="#333" />
            </g>
            <g>
               <path d="M68.5, 1404 L68.5 1482 Q68.5 1486
                72.5 1486
                L79 1486 "
        style="fill:none; stroke:#444; stroke-width:1" />
               <path d="M79, 1483 L87, 1486 L79, 1489 Z" 
        fill="#333" />
            </g>
            <g>
               <path d="M68.5, 1404 L68.5 1545.5 Q68.5 1549.5
                72.5 1549.5
                L79 1549.5 "
        style="fill:none; stroke:#444; stroke-width:1" />
               <path d="M79, 1546.5 L87, 1549.5 L79, 1552.5 Z" 
        fill="#333" />
            </g>
            <g>
               <path d="M117, 1579.5 L117 1600.5 Q117 1604.5
                121 1604.5
                L129 1604.5 "
        style="fill:none; stroke:#444; stroke-width:1" />
               <path d="M129, 1601.5 L137, 1604.5 L129, 1607.5 Z" 
        fill="#333" />
            </g>
            <g>
               <path d="M68.5, 1404 L68.5 1685.5 Q68.5 1689.5
                72.5 1689.5
                L79 1689.5 "
        style="fill:none; stroke:#444; stroke-width:1" />
               <path d="M79, 1686.5 L87, 1689.5 L79, 1692.5 Z" 
        fill="#333" />
            </g>
            <g>
               <path d="M117, 1719.5 L117 1740.5 Q117 1744.5
                121 1744.5
                L129 1744.5 "
        style="fill:none; stroke:#444; stroke-width:1" />
               <path d="M129, 1741.5 L137, 1744.5 L129, 1747.5 Z" 
        fill="#333" />
            </g>
            <g>
               <path d="M117, 1719.5 L117 1789 Q117 1793
                121 1793
                L129 1793 "
        style="fill:none; stroke:#444; stroke-width:1" />
               <path d="M129, 1790 L137, 1793 L129, 1796 Z" 
        fill="#333" />
            </g>
            <g>
               <path d="M117, 1719.5 L117 1852.5 Q117 1856.5
                121 1856.5
                L129 1856.5 "
        style="fill:none; stroke:#444; stroke-width:1" />
               <path d="M129, 1853.5 L137, 1856.5 L129, 1859.5 Z" 
        fill="#333" />
            </g>
            <g>
               <path d="M167, 1886.5 L167 1907.5 Q167 1911.5
                171 1911.5
                L179 1911.5 "
        style="fill:none; stroke:#444; stroke-width:1" />
               <path d="M179, 1908.5 L187, 1911.5 L179, 1914.5 Z" 
        fill="#333" />
            </g>
            <g>
               <path d="M117, 1719.5 L117 1972.5 Q117 1976.5
                121 1976.5
                L129 1976.5 "
        style="fill:none; stroke:#444; stroke-width:1" />
               <path d="M129, 1973.5 L137, 1976.5 L129, 1979.5 Z" 
        fill="#333" />
            </g>
            <g>
               <path d="M167, 2006.5 L167 2027.5 Q167 2031.5
                171 2031.5
                L179 2031.5 "
        style="fill:none; stroke:#444; stroke-width:1" />
               <path d="M179, 2028.5 L187, 2031.5 L179, 2034.5 Z" 
        fill="#333" />
            </g>
            <g>
               <path d="M388.6, 2031.5 L404.6 2031.5  Q408.6 2031.5
                408.6 2027.5
                L408.6 1647.5 Q408.6 1639.5
                404.6 1639.5
                L125 1639.5  Q117 1639.5
                117 1643.5
                L117 1651.5"
        style="fill:none; stroke:#444; stroke-width:1" />
               <path d="M114, 1651.5 L117, 1659.5 L120, 1651.5 Z" 
        fill="#333" />
            </g>
            <g>
               <path d="M68.5, 1404 L68.5 2077.5 Q68.5 2081.5
                72.5 2081.5
                L79 2081.5 "
        style="fill:none; stroke:#444; stroke-width:1" />
               <path d="M79, 2078.5 L87, 2081.5 L79, 2084.5 Z" 
        fill="#333" />
            </g>
            </svg>