<!DOCTYPE svg PUBLIC "-//W3C//DTD SVG 1.1//EN" "http://www.w3.org/Graphics/SVG/1.1/DTD/svg11.dtd">
                <svg xmlns="http://www.w3.org/2000/svg" xmlns:xlink="http://www.w3.org/1999/xlink" 
                width="497" height="935">
                
            <g>
                <rect x="50" y="80"
            width="330.8" height="30"
            style="fill:#a5d6a7; stroke:#444; stroke-width:1" />
                    
                <line x1="60" y1="80" x2="60" y2="110"
                style="fill:#a5d6a7; stroke:#444; stroke-width:1" />
                <line x1="370.8" y1="80" x2="370.8" y2="110"
                style="fill:#a5d6a7; stroke:#444; stroke-width:1" />
             
                <title>function swap(array, index1, index2)</title>
            <text x="75" y="100"
                font-family="monospace" font-size="13" fill="#222">
                <tspan x="75" y="100">function swap(array, index1, index2)</tspan>
            </text>
                
            </g>
                <g>
                   <rect x="87" y="128.5"
            width="209.4" height="30"
            rx="3" ry="3"
            style="fill:#90caf9; stroke:#444; stroke-width:1" />
                   <title>var aux = array[index1]</title>
            <text x="102" y="148.5"
                font-family="monospace" font-size="13" fill="#222">
                <tspan x="102" y="148.5">var aux = array[index1]</tspan>
            </text>
                   
                   
                </g>
                <g>
                   <rect x="87" y="177"
            width="256.2" height="30"
            rx="3" ry="3"
            style="fill:#90caf9; stroke:#444; stroke-width:1" />
                   <title>array[index1] = array[index2]</title>
            <text x="102" y="197"
                font-family="monospace" font-size="13" fill="#222">
                <tspan x="102" y="197">array[index1] = array[index2]</tspan>
            </text>
                   
                   
                </g>
                <g>
                   <rect x="87" y="225.5"
            width="178.2" height="30"
            rx="3" ry="3"
            style="fill:#90caf9; stroke:#444; stroke-width:1" />
                   <title>array[index2] = aux</title>
            <text x="102" y="245.5"
                font-family="monospace" font-size="13" fill="#222">
                <tspan x="102" y="245.5">array[index2] = aux</tspan>
            </text>
                   
                   
                </g>
            <g>
                <rect x="50" y="289"
            width="252.79999999999998" height="30"
            style="fill:#a5d6a7; stroke:#444; stroke-width:1" />
                    
                <line x1="60" y1="289" x2="60" y2="319"
                style="fill:#a5d6a7; stroke:#444; stroke-width:1" />
                <line x1="292.79999999999995" y1="289" x2="292.79999999999995" y2="319"
                style="fill:#a5d6a7; stroke:#444; stroke-width:1" />
             
                <title>function bubbleSort(array)</title>
            <text x="75" y="309"
                font-family="monospace" font-size="13" fill="#222">
                <tspan x="75" y="309">function bubbleSort(array)</tspan>
            </text>
                
            </g>
                <g>
                   <rect x="87" y="337.5"
            width="225" height="30"
            rx="3" ry="3"
            style="fill:#90caf9; stroke:#444; stroke-width:1" />
                   <title>let length = array.length</title>
            <text x="102" y="357.5"
                font-family="monospace" font-size="13" fill="#222">
                <tspan x="102" y="357.5">let length = array.length</tspan>
            </text>
                   
                   
                </g><g>

            <rect x="117" y="421"
            width="138" height="30"
            rx="3" ry="3"
            style="fill:#b39ddb; stroke:#444; stroke-width:1" />
            <polygon points="87,436 117,406 147,436 117,466"
            style="fill:#b39ddb; stroke:#444; stroke-width:1" />
                
            <title>i &lt; length</title>
            <text x="162" y="441"
                font-family="monospace" font-size="13" fill="#222">
                <tspan x="162" y="441">i &lt; length</tspan>
            </text>
            
            <text x="105.3" y="441"
        font-family="monospace" font-size="13" fill="#222">for</text>
        </g>
                <g>
                   <rect x="137" y="476"
            width="53.4" height="30"
            rx="3" ry="3"
            style="fill:#90caf9; stroke:#444; stroke-width:1" />
                   <title>i++</title>
            <text x="152" y="496"
                font-family="monospace" font-size="13" fill="#222">
                <tspan x="152" y="496">i++</tspan>
            </text>
                   
                   
                </g>
                <g>
                   <rect x="137" y="524.5"
            width="193.79999999999998" height="30"
            rx="2" ry="2"
            style="fill:#C5E1A5; stroke:#444; stroke-width:1" />
                   <title>console.log(i, array)</title>
            <text x="152" y="544.5"
                font-family="monospace" font-size="13" fill="#222">
                <tspan x="152" y="544.5">console.log(i, array)</tspan>
            </text>
                   
                   
                </g><g>

            <rect x="167" y="608"
            width="169.2" height="30"
            rx="3" ry="3"
            style="fill:#b39ddb; stroke:#444; stroke-width:1" />
            <polygon points="137,623 167,593 197,623 167,653"
            style="fill:#b39ddb; stroke:#444; stroke-width:1" />
                
            <title>j &lt; length - 1</title>
            <text x="212" y="628"
                font-family="monospace" font-size="13" fill="#222">
                <tspan x="212" y="628">j &lt; length - 1</tspan>
            </text>
            
            <text x="155.3" y="628"
        font-family="monospace" font-size="13" fill="#222">for</text>
        </g>
                <g>
                   <rect x="187" y="663"
            width="53.4" height="30"
            rx="3" ry="3"
            style="fill:#90caf9; stroke:#444; stroke-width:1" />
                   <title>j++</title>
            <text x="202" y="683"
                font-family="monospace" font-size="13" fill="#222">
                <tspan x="202" y="683">j++</tspan>
            </text>
                   
                   
                </g><g>
            <rect x="217" y="726.5"
            width="255" height="30"
            rx="3" ry="3"
            style="fill:#ce93d8; stroke:#444; stroke-width:1" />                
            <polygon points="187,741.5 217,711.5 247,741.5 217,771.5"
            style="fill:#ce93d8; stroke:#444; stroke-width:1" />
            <title>(array[j] &gt; array[j + 1])</title>
            <text x="262" y="746.5"
                font-family="monospace" font-size="13" fill="#222">
                <tspan x="262" y="746.5">(array[j] &gt; array[j + 1])</tspan>
            </text>
            
            <text x="209.2" y="746.5"
        font-family="monospace" font-size="13" fill="#222">if</text> <text x="224.8" y="773.45"
        font-family="monospace" font-size="13" fill="#222">+</text> 
        </g>
                <g>
                   <rect x="237" y="781.5"
            width="193.79999999999998" height="30"
            rx="2" ry="2"
            style="fill:#C5E1A5; stroke:#444; stroke-width:1" />
                   <title>swap(array, j, j + 1)</title>
            <text x="252" y="801.5"
                font-family="monospace" font-size="13" fill="#222">
                <tspan x="252" y="801.5">swap(array, j, j + 1)</tspan>
            </text>
                   
                   
                </g>
            <g>
                <rect x="87" y="831.5"
            width="123.6" height="30"
            rx="3" ry="3"
            style="fill:#90caf9; stroke:#444; stroke-width:1" />
                
                <line x1="210.6" y1="841.5" x2="215.6" y2="841.5"
                style="fill:#a5d6a7; stroke:#444; stroke-width:1" />
                
                <line x1="210.6" y1="851.5" x2="215.6" y2="851.5"
                style="fill:#a5d6a7; stroke:#444; stroke-width:1" />

                <path d="M215.6, 835.5 L231.6, 846.5 L215.6, 857.5 Z" 
        fill="#a5d6a7" stroke="#444" stroke-width="1" />
                             
                <title>return array</title>
            <text x="102" y="851.5"
                font-family="monospace" font-size="13" fill="#222">
                <tspan x="102" y="851.5">return array</tspan>
            </text>
                
            </g>
                <g>
                   <rect x="50" y="880"
            width="342" height="30"
            rx="2" ry="2"
            style="fill:#C5E1A5; stroke:#444; stroke-width:1" />
                   <title>console.log(bubbleSort([5, 4, 3, 2, 1]))</title>
            <text x="65" y="900"
                font-family="monospace" font-size="13" fill="#222">
                <tspan x="65" y="900">console.log(bubbleSort([5, 4, 3, 2, 1]))</tspan>
            </text>
                   
                   
                </g>
            <g>
               <rect x="25" y="13.75"
            width="216.6" height="24"
            style="fill:#fff59d; stroke:#444; stroke-width:1" />
               <circle cx="25" cy="25" r="15"
        style="fill:#fff59d; stroke:#444; stroke-width:1" />
               <title>Program: source module</title>
            <text x="55" y="30"
                font-family="monospace" font-size="13" fill="#222">
                <tspan x="55" y="30">Program: source module</tspan>
            </text>
            </g>
            <g>
               <path d="M25, 40 L25 91 Q25 95
                29 95
                L42 95 "
        style="fill:none; stroke:#444; stroke-width:1" />
               <path d="M42, 92 L50, 95 L42, 98 Z" 
        fill="#333" />
            </g>
            <g>
               <path d="M68.5, 110 L68.5 139.5 Q68.5 143.5
                72.5 143.5
                L79 143.5 "
        style="fill:none; stroke:#444; stroke-width:1" />
               <path d="M79, 140.5 L87, 143.5 L79, 146.5 Z" 
        fill="#333" />
            </g>
            <g>
               <path d="M68.5, 110 L68.5 188 Q68.5 192
                72.5 192
                L79 192 "
        style="fill:none; stroke:#444; stroke-width:1" />
               <path d="M79, 189 L87, 192 L79, 195 Z" 
        fill="#333" />
            </g>
            <g>
               <path d="M68.5, 110 L68.5 236.5 Q68.5 240.5
                72.5 240.5
                L79 240.5 "
        style="fill:none; stroke:#444; stroke-width:1" />
               <path d="M79, 237.5 L87, 240.5 L79, 243.5 Z" 
        fill="#333" />
            </g>
            <g>
               <path d="M25, 40 L25 300 Q25 304
                29 304
                L42 304 "
        style="fill:none; stroke:#444; stroke-width:1" />
               <path d="M42, 301 L50, 304 L42, 307 Z" 
        fill="#333" />
            </g>
            <g>
               <path d="M68.5, 319 L68.5 348.5 Q68.5 352.5
                72.5 352.5
                L79 352.5 "
        style="fill:none; stroke:#444; stroke-width:1" />
               <path d="M79, 349.5 L87, 352.5 L79, 355.5 Z" 
        fill="#333" />
            </g>
            <g>
               <path d="M68.5, 319 L68.5 432 Q68.5 436
                72.5 436
                L79 436 "
        style="fill:none; stroke:#444; stroke-width:1" />
               <path d="M79, 433 L87, 436 L79, 439 Z" 
        fill="#333" />
            </g>
            <g>
               <path d="M117, 466 L117 487 Q117 491
                121 491
                L129 491 "
        style="fill:none; stroke:#444; stroke-width:1" />
               <path d="M129, 488 L137, 491 L129, 494 Z" 
        fill="#333" />
            </g>
            <g>
               <path d="M117, 466 L117 535.5 Q117 539.5
                121 539.5
                L129 539.5 "
        style="fill:none; stroke:#444; stroke-width:1" />
               <path d="M129, 536.5 L137, 539.5 L129, 542.5 Z" 
        fill="#333" />
            </g>
            <g>
               <path d="M117, 466 L117 619 Q117 623
                121 623
                L129 623 "
        style="fill:none; stroke:#444; stroke-width:1" />
               <path d="M129, 620 L137, 623 L129, 626 Z" 
        fill="#333" />
            </g>
            <g>
               <path d="M167, 653 L167 674 Q167 678
                171 678
                L179 678 "
        style="fill:none; stroke:#444; stroke-width:1" />
               <path d="M179, 675 L187, 678 L179, 681 Z" 
        fill="#333" />
            </g>
            <g>
               <path d="M167, 653 L167 737.5 Q167 741.5
                171 741.5
                L179 741.5 "
        style="fill:none; stroke:#444; stroke-width:1" />
               <path d="M179, 738.5 L187, 741.5 L179, 744.5 Z" 
        fill="#333" />
            </g>
            <g>
               <path d="M217, 771.5 L217 792.5 Q217 796.5
                221 796.5
                L229 796.5 "
        style="fill:none; stroke:#444; stroke-width:1" />
               <path d="M229, 793.5 L237, 796.5 L229, 799.5 Z" 
        fill="#333" />
            </g>
            <g>
               <path d="M430.79999999999995, 796.5 L488 796.5  Q492 796.5
                492 792.5
                L492 581 Q492 573
                488 573
                L175 573  Q167 573
                167 577
                L167 585"
        style="fill:none; stroke:#444; stroke-width:1" />
               <path d="M164, 585 L167, 593 L170, 585 Z" 
        fill="#333" />
            </g>
            <g>
               <path d="M430.79999999999995, 796.5 L488 796.5  Q492 796.5
                492 792.5
                L492 394 Q492 386
                488 386
                L125 386  Q117 386
                117 390
                L117 398"
        style="fill:none; stroke:#444; stroke-width:1" />
               <path d="M114, 398 L117, 406 L120, 398 Z" 
        fill="#333" />
            </g>
            <g>
               <path d="M68.5, 319 L68.5 842.5 Q68.5 846.5
                72.5 846.5
                L79 846.5 "
        style="fill:none; stroke:#444; stroke-width:1" />
               <path d="M79, 843.5 L87, 846.5 L79, 849.5 Z" 
        fill="#333" />
            </g>
            <g>
               <path d="M25, 40 L25 891 Q25 895
                29 895
                L42 895 "
        style="fill:none; stroke:#444; stroke-width:1" />
               <path d="M42, 892 L50, 895 L42, 898 Z" 
        fill="#333" />
            </g>
            </svg>