<!DOCTYPE svg PUBLIC "-//W3C//DTD SVG 1.1//EN" "http://www.w3.org/Graphics/SVG/1.1/DTD/svg11.dtd">
                <svg xmlns="http://www.w3.org/2000/svg" xmlns:xlink="http://www.w3.org/1999/xlink" 
                width="606" height="1669">
                
                <g>
                   <rect x="50" y="65"
            width="271.79999999999995" height="30"
            rx="3" ry="3"
            style="fill:#90caf9; stroke:#444; stroke-width:1" />
                   <title>const print = console.log.apply</title>
            <text x="65" y="85"
                font-family="monospace" font-size="13" fill="#222">
                <tspan x="65" y="85">const print = console.log.apply</tspan>
            </text>
                   
                   
                </g>
            <g>
                <rect x="50" y="128.5"
            width="323" height="30"
            style="fill:#a5d6a7; stroke:#444; stroke-width:1" />
                    
                <line x1="60" y1="128.5" x2="60" y2="158.5"
                style="fill:#a5d6a7; stroke:#444; stroke-width:1" />
                <line x1="363" y1="128.5" x2="363" y2="158.5"
                style="fill:#a5d6a7; stroke:#444; stroke-width:1" />
             
                <title>function makeChange(origAmt, coins)</title>
            <text x="75" y="148.5"
                font-family="monospace" font-size="13" fill="#222">
                <tspan x="75" y="148.5">function makeChange(origAmt, coins)</tspan>
            </text>
                
            </g>
                <g>
                   <rect x="87" y="177"
            width="162.6" height="30"
            rx="3" ry="3"
            style="fill:#90caf9; stroke:#444; stroke-width:1" />
                   <title>var remainAmt = 0</title>
            <text x="102" y="197"
                font-family="monospace" font-size="13" fill="#222">
                <tspan x="102" y="197">var remainAmt = 0</tspan>
            </text>
                   
                   
                </g><g>
            <rect x="117" y="240.5"
            width="255" height="30"
            rx="3" ry="3"
            style="fill:#ce93d8; stroke:#444; stroke-width:1" />                
            <polygon points="87,255.5 117,225.5 147,255.5 117,285.5"
            style="fill:#ce93d8; stroke:#444; stroke-width:1" />
            <title>(origAmt % .25 &lt; origAmt)</title>
            <text x="162" y="260.5"
                font-family="monospace" font-size="13" fill="#222">
                <tspan x="162" y="260.5">(origAmt % .25 &lt; origAmt)</tspan>
            </text>
            
            <text x="109.2" y="260.5"
        font-family="monospace" font-size="13" fill="#222">if</text> <text x="124.8" y="287.45"
        font-family="monospace" font-size="13" fill="#222">+</text> 
        </g>
                <g>
                   <rect x="137" y="295.5"
            width="295.2" height="30"
            rx="3" ry="3"
            style="fill:#90caf9; stroke:#444; stroke-width:1" />
                   <title>coins[3] = parseInt(origAmt / .25)</title>
            <text x="152" y="315.5"
                font-family="monospace" font-size="13" fill="#222">
                <tspan x="152" y="315.5">coins[3] = parseInt(origAmt / .25)</tspan>
            </text>
                   
                   
                </g>
                <g>
                   <rect x="137" y="344"
            width="225" height="30"
            rx="3" ry="3"
            style="fill:#90caf9; stroke:#444; stroke-width:1" />
                   <title>remainAmt = origAmt % .25</title>
            <text x="152" y="364"
                font-family="monospace" font-size="13" fill="#222">
                <tspan x="152" y="364">remainAmt = origAmt % .25</tspan>
            </text>
                   
                   
                </g>
                <g>
                   <rect x="137" y="392.5"
            width="178.2" height="30"
            rx="3" ry="3"
            style="fill:#90caf9; stroke:#444; stroke-width:1" />
                   <title>origAmt = remainAmt</title>
            <text x="152" y="412.5"
                font-family="monospace" font-size="13" fill="#222">
                <tspan x="152" y="412.5">origAmt = remainAmt</tspan>
            </text>
                   
                   
                </g><g>
            <rect x="117" y="457.5"
            width="247.2" height="30"
            rx="3" ry="3"
            style="fill:#ce93d8; stroke:#444; stroke-width:1" />                
            <polygon points="87,472.5 117,442.5 147,472.5 117,502.5"
            style="fill:#ce93d8; stroke:#444; stroke-width:1" />
            <title>(origAmt % .1 &lt; origAmt)</title>
            <text x="162" y="477.5"
                font-family="monospace" font-size="13" fill="#222">
                <tspan x="162" y="477.5">(origAmt % .1 &lt; origAmt)</tspan>
            </text>
            
            <text x="109.2" y="477.5"
        font-family="monospace" font-size="13" fill="#222">if</text> <text x="124.8" y="504.45"
        font-family="monospace" font-size="13" fill="#222">+</text> 
        </g>
                <g>
                   <rect x="137" y="512.5"
            width="287.4" height="30"
            rx="3" ry="3"
            style="fill:#90caf9; stroke:#444; stroke-width:1" />
                   <title>coins[2] = parseInt(origAmt / .1)</title>
            <text x="152" y="532.5"
                font-family="monospace" font-size="13" fill="#222">
                <tspan x="152" y="532.5">coins[2] = parseInt(origAmt / .1)</tspan>
            </text>
                   
                   
                </g>
                <g>
                   <rect x="137" y="561"
            width="217.2" height="30"
            rx="3" ry="3"
            style="fill:#90caf9; stroke:#444; stroke-width:1" />
                   <title>remainAmt = origAmt % .1</title>
            <text x="152" y="581"
                font-family="monospace" font-size="13" fill="#222">
                <tspan x="152" y="581">remainAmt = origAmt % .1</tspan>
            </text>
                   
                   
                </g>
                <g>
                   <rect x="137" y="609.5"
            width="178.2" height="30"
            rx="3" ry="3"
            style="fill:#90caf9; stroke:#444; stroke-width:1" />
                   <title>origAmt = remainAmt</title>
            <text x="152" y="629.5"
                font-family="monospace" font-size="13" fill="#222">
                <tspan x="152" y="629.5">origAmt = remainAmt</tspan>
            </text>
                   
                   
                </g><g>
            <rect x="117" y="674.5"
            width="255" height="30"
            rx="3" ry="3"
            style="fill:#ce93d8; stroke:#444; stroke-width:1" />                
            <polygon points="87,689.5 117,659.5 147,689.5 117,719.5"
            style="fill:#ce93d8; stroke:#444; stroke-width:1" />
            <title>(origAmt % .05 &lt; origAmt)</title>
            <text x="162" y="694.5"
                font-family="monospace" font-size="13" fill="#222">
                <tspan x="162" y="694.5">(origAmt % .05 &lt; origAmt)</tspan>
            </text>
            
            <text x="109.2" y="694.5"
        font-family="monospace" font-size="13" fill="#222">if</text> <text x="124.8" y="721.45"
        font-family="monospace" font-size="13" fill="#222">+</text> 
        </g>
                <g>
                   <rect x="137" y="729.5"
            width="295.2" height="30"
            rx="3" ry="3"
            style="fill:#90caf9; stroke:#444; stroke-width:1" />
                   <title>coins[1] = parseInt(origAmt / .05)</title>
            <text x="152" y="749.5"
                font-family="monospace" font-size="13" fill="#222">
                <tspan x="152" y="749.5">coins[1] = parseInt(origAmt / .05)</tspan>
            </text>
                   
                   
                </g>
                <g>
                   <rect x="137" y="778"
            width="225" height="30"
            rx="3" ry="3"
            style="fill:#90caf9; stroke:#444; stroke-width:1" />
                   <title>remainAmt = origAmt % .05</title>
            <text x="152" y="798"
                font-family="monospace" font-size="13" fill="#222">
                <tspan x="152" y="798">remainAmt = origAmt % .05</tspan>
            </text>
                   
                   
                </g>
                <g>
                   <rect x="137" y="826.5"
            width="178.2" height="30"
            rx="3" ry="3"
            style="fill:#90caf9; stroke:#444; stroke-width:1" />
                   <title>origAmt = remainAmt</title>
            <text x="152" y="846.5"
                font-family="monospace" font-size="13" fill="#222">
                <tspan x="152" y="846.5">origAmt = remainAmt</tspan>
            </text>
                   
                   
                </g>
                <g>
                   <rect x="87" y="876.5"
            width="295.2" height="30"
            rx="3" ry="3"
            style="fill:#90caf9; stroke:#444; stroke-width:1" />
                   <title>coins[0] = parseInt(origAmt / .01)</title>
            <text x="102" y="896.5"
                font-family="monospace" font-size="13" fill="#222">
                <tspan x="102" y="896.5">coins[0] = parseInt(origAmt / .01)</tspan>
            </text>
                   
                   
                </g>
            <g>
                <rect x="50" y="940"
            width="252.79999999999998" height="30"
            style="fill:#a5d6a7; stroke:#444; stroke-width:1" />
                    
                <line x1="60" y1="940" x2="60" y2="970"
                style="fill:#a5d6a7; stroke:#444; stroke-width:1" />
                <line x1="292.79999999999995" y1="940" x2="292.79999999999995" y2="970"
                style="fill:#a5d6a7; stroke:#444; stroke-width:1" />
             
                <title>function showChange(coins)</title>
            <text x="75" y="960"
                font-family="monospace" font-size="13" fill="#222">
                <tspan x="75" y="960">function showChange(coins)</tspan>
            </text>
                
            </g><g>
            <rect x="117" y="1003.5"
            width="169.2" height="30"
            rx="3" ry="3"
            style="fill:#ce93d8; stroke:#444; stroke-width:1" />                
            <polygon points="87,1018.5 117,988.5 147,1018.5 117,1048.5"
            style="fill:#ce93d8; stroke:#444; stroke-width:1" />
            <title>(coins[3] &gt; 0)</title>
            <text x="162" y="1023.5"
                font-family="monospace" font-size="13" fill="#222">
                <tspan x="162" y="1023.5">(coins[3] &gt; 0)</tspan>
            </text>
            
            <text x="109.2" y="1023.5"
        font-family="monospace" font-size="13" fill="#222">if</text> <text x="124.8" y="1050.45"
        font-family="monospace" font-size="13" fill="#222">+</text> 
        </g>
                <g>
                   <rect x="137" y="1058.5"
            width="443.4" height="30"
            rx="2" ry="2"
            style="fill:#C5E1A5; stroke:#444; stroke-width:1" />
                   <title>print(&quot;Number of quarters - &quot; + coins[3] + &quot; - &quot; + coins[3] * .25)</title>
            <text x="152" y="1078.5"
                font-family="monospace" font-size="13" fill="#222">
                <tspan x="152" y="1078.5">print(&quot;Number of quarters - &quot; + coins[3] + &quot; - &quot; +...</tspan>
            </text>
                   
                   
                </g><g>
            <rect x="117" y="1123.5"
            width="169.2" height="30"
            rx="3" ry="3"
            style="fill:#ce93d8; stroke:#444; stroke-width:1" />                
            <polygon points="87,1138.5 117,1108.5 147,1138.5 117,1168.5"
            style="fill:#ce93d8; stroke:#444; stroke-width:1" />
            <title>(coins[2] &gt; 0)</title>
            <text x="162" y="1143.5"
                font-family="monospace" font-size="13" fill="#222">
                <tspan x="162" y="1143.5">(coins[2] &gt; 0)</tspan>
            </text>
            
            <text x="109.2" y="1143.5"
        font-family="monospace" font-size="13" fill="#222">if</text> <text x="124.8" y="1170.45"
        font-family="monospace" font-size="13" fill="#222">+</text> 
        </g>
                <g>
                   <rect x="137" y="1178.5"
            width="443.4" height="30"
            rx="2" ry="2"
            style="fill:#C5E1A5; stroke:#444; stroke-width:1" />
                   <title>print(&quot;Number of dimes - &quot; + coins[2] + &quot; - &quot; + coins[2] * .10)</title>
            <text x="152" y="1198.5"
                font-family="monospace" font-size="13" fill="#222">
                <tspan x="152" y="1198.5">print(&quot;Number of dimes - &quot; + coins[2] + &quot; - &quot; + co...</tspan>
            </text>
                   
                   
                </g><g>
            <rect x="117" y="1243.5"
            width="169.2" height="30"
            rx="3" ry="3"
            style="fill:#ce93d8; stroke:#444; stroke-width:1" />                
            <polygon points="87,1258.5 117,1228.5 147,1258.5 117,1288.5"
            style="fill:#ce93d8; stroke:#444; stroke-width:1" />
            <title>(coins[1] &gt; 0)</title>
            <text x="162" y="1263.5"
                font-family="monospace" font-size="13" fill="#222">
                <tspan x="162" y="1263.5">(coins[1] &gt; 0)</tspan>
            </text>
            
            <text x="109.2" y="1263.5"
        font-family="monospace" font-size="13" fill="#222">if</text> <text x="124.8" y="1290.45"
        font-family="monospace" font-size="13" fill="#222">+</text> 
        </g>
                <g>
                   <rect x="137" y="1298.5"
            width="443.4" height="30"
            rx="2" ry="2"
            style="fill:#C5E1A5; stroke:#444; stroke-width:1" />
                   <title>print(&quot;Number of nickels - &quot; + coins[1] + &quot; - &quot; + coins[1] * .05)</title>
            <text x="152" y="1318.5"
                font-family="monospace" font-size="13" fill="#222">
                <tspan x="152" y="1318.5">print(&quot;Number of nickels - &quot; + coins[1] + &quot; - &quot; + ...</tspan>
            </text>
                   
                   
                </g><g>
            <rect x="117" y="1363.5"
            width="169.2" height="30"
            rx="3" ry="3"
            style="fill:#ce93d8; stroke:#444; stroke-width:1" />                
            <polygon points="87,1378.5 117,1348.5 147,1378.5 117,1408.5"
            style="fill:#ce93d8; stroke:#444; stroke-width:1" />
            <title>(coins[0] &gt; 0)</title>
            <text x="162" y="1383.5"
                font-family="monospace" font-size="13" fill="#222">
                <tspan x="162" y="1383.5">(coins[0] &gt; 0)</tspan>
            </text>
            
            <text x="109.2" y="1383.5"
        font-family="monospace" font-size="13" fill="#222">if</text> <text x="124.8" y="1410.45"
        font-family="monospace" font-size="13" fill="#222">+</text> 
        </g>
                <g>
                   <rect x="137" y="1418.5"
            width="443.4" height="30"
            rx="2" ry="2"
            style="fill:#C5E1A5; stroke:#444; stroke-width:1" />
                   <title>print(&quot;Number of pennies - &quot; + coins[0] + &quot; - &quot; + coins[0] * .01)</title>
            <text x="152" y="1438.5"
                font-family="monospace" font-size="13" fill="#222">
                <tspan x="152" y="1438.5">print(&quot;Number of pennies - &quot; + coins[0] + &quot; - &quot; + ...</tspan>
            </text>
                   
                   
                </g>
                <g>
                   <rect x="50" y="1468.5"
            width="162.6" height="30"
            rx="3" ry="3"
            style="fill:#90caf9; stroke:#444; stroke-width:1" />
                   <title>var origAmt = .63</title>
            <text x="65" y="1488.5"
                font-family="monospace" font-size="13" fill="#222">
                <tspan x="65" y="1488.5">var origAmt = .63</tspan>
            </text>
                   
                   
                </g>
                <g>
                   <rect x="50" y="1517"
            width="139.2" height="30"
            rx="3" ry="3"
            style="fill:#90caf9; stroke:#444; stroke-width:1" />
                   <title>var coins = []</title>
            <text x="65" y="1537"
                font-family="monospace" font-size="13" fill="#222">
                <tspan x="65" y="1537">var coins = []</tspan>
            </text>
                   
                   
                </g>
                <g>
                   <rect x="50" y="1565.5"
            width="232.79999999999998" height="30"
            rx="2" ry="2"
            style="fill:#C5E1A5; stroke:#444; stroke-width:1" />
                   <title>makeChange(origAmt, coins)</title>
            <text x="65" y="1585.5"
                font-family="monospace" font-size="13" fill="#222">
                <tspan x="65" y="1585.5">makeChange(origAmt, coins)</tspan>
            </text>
                   
                   
                </g>
                <g>
                   <rect x="50" y="1614"
            width="162.6" height="30"
            rx="2" ry="2"
            style="fill:#C5E1A5; stroke:#444; stroke-width:1" />
                   <title>showChange(coins)</title>
            <text x="65" y="1634"
                font-family="monospace" font-size="13" fill="#222">
                <tspan x="65" y="1634">showChange(coins)</tspan>
            </text>
                   
                   
                </g>
            <g>
               <rect x="25" y="13.75"
            width="216.6" height="24"
            style="fill:#fff59d; stroke:#444; stroke-width:1" />
               <circle cx="25" cy="25" r="15"
        style="fill:#fff59d; stroke:#444; stroke-width:1" />
               <title>Program: source module</title>
            <text x="55" y="30"
                font-family="monospace" font-size="13" fill="#222">
                <tspan x="55" y="30">Program: source module</tspan>
            </text>
            </g>
            <g>
               <path d="M25, 40 L25 76 Q25 80
                29 80
                L42 80 "
        style="fill:none; stroke:#444; stroke-width:1" />
               <path d="M42, 77 L50, 80 L42, 83 Z" 
        fill="#333" />
            </g>
            <g>
               <path d="M25, 40 L25 139.5 Q25 143.5
                29 143.5
                L42 143.5 "
        style="fill:none; stroke:#444; stroke-width:1" />
               <path d="M42, 140.5 L50, 143.5 L42, 146.5 Z" 
        fill="#333" />
            </g>
            <g>
               <path d="M68.5, 158.5 L68.5 188 Q68.5 192
                72.5 192
                L79 192 "
        style="fill:none; stroke:#444; stroke-width:1" />
               <path d="M79, 189 L87, 192 L79, 195 Z" 
        fill="#333" />
            </g>
            <g>
               <path d="M68.5, 158.5 L68.5 251.5 Q68.5 255.5
                72.5 255.5
                L79 255.5 "
        style="fill:none; stroke:#444; stroke-width:1" />
               <path d="M79, 252.5 L87, 255.5 L79, 258.5 Z" 
        fill="#333" />
            </g>
            <g>
               <path d="M117, 285.5 L117 306.5 Q117 310.5
                121 310.5
                L129 310.5 "
        style="fill:none; stroke:#444; stroke-width:1" />
               <path d="M129, 307.5 L137, 310.5 L129, 313.5 Z" 
        fill="#333" />
            </g>
            <g>
               <path d="M117, 285.5 L117 355 Q117 359
                121 359
                L129 359 "
        style="fill:none; stroke:#444; stroke-width:1" />
               <path d="M129, 356 L137, 359 L129, 362 Z" 
        fill="#333" />
            </g>
            <g>
               <path d="M117, 285.5 L117 403.5 Q117 407.5
                121 407.5
                L129 407.5 "
        style="fill:none; stroke:#444; stroke-width:1" />
               <path d="M129, 404.5 L137, 407.5 L129, 410.5 Z" 
        fill="#333" />
            </g>
            <g>
               <path d="M68.5, 158.5 L68.5 468.5 Q68.5 472.5
                72.5 472.5
                L79 472.5 "
        style="fill:none; stroke:#444; stroke-width:1" />
               <path d="M79, 469.5 L87, 472.5 L79, 475.5 Z" 
        fill="#333" />
            </g>
            <g>
               <path d="M117, 502.5 L117 523.5 Q117 527.5
                121 527.5
                L129 527.5 "
        style="fill:none; stroke:#444; stroke-width:1" />
               <path d="M129, 524.5 L137, 527.5 L129, 530.5 Z" 
        fill="#333" />
            </g>
            <g>
               <path d="M117, 502.5 L117 572 Q117 576
                121 576
                L129 576 "
        style="fill:none; stroke:#444; stroke-width:1" />
               <path d="M129, 573 L137, 576 L129, 579 Z" 
        fill="#333" />
            </g>
            <g>
               <path d="M117, 502.5 L117 620.5 Q117 624.5
                121 624.5
                L129 624.5 "
        style="fill:none; stroke:#444; stroke-width:1" />
               <path d="M129, 621.5 L137, 624.5 L129, 627.5 Z" 
        fill="#333" />
            </g>
            <g>
               <path d="M68.5, 158.5 L68.5 685.5 Q68.5 689.5
                72.5 689.5
                L79 689.5 "
        style="fill:none; stroke:#444; stroke-width:1" />
               <path d="M79, 686.5 L87, 689.5 L79, 692.5 Z" 
        fill="#333" />
            </g>
            <g>
               <path d="M117, 719.5 L117 740.5 Q117 744.5
                121 744.5
                L129 744.5 "
        style="fill:none; stroke:#444; stroke-width:1" />
               <path d="M129, 741.5 L137, 744.5 L129, 747.5 Z" 
        fill="#333" />
            </g>
            <g>
               <path d="M117, 719.5 L117 789 Q117 793
                121 793
                L129 793 "
        style="fill:none; stroke:#444; stroke-width:1" />
               <path d="M129, 790 L137, 793 L129, 796 Z" 
        fill="#333" />
            </g>
            <g>
               <path d="M117, 719.5 L117 837.5 Q117 841.5
                121 841.5
                L129 841.5 "
        style="fill:none; stroke:#444; stroke-width:1" />
               <path d="M129, 838.5 L137, 841.5 L129, 844.5 Z" 
        fill="#333" />
            </g>
            <g>
               <path d="M68.5, 158.5 L68.5 887.5 Q68.5 891.5
                72.5 891.5
                L79 891.5 "
        style="fill:none; stroke:#444; stroke-width:1" />
               <path d="M79, 888.5 L87, 891.5 L79, 894.5 Z" 
        fill="#333" />
            </g>
            <g>
               <path d="M25, 40 L25 951 Q25 955
                29 955
                L42 955 "
        style="fill:none; stroke:#444; stroke-width:1" />
               <path d="M42, 952 L50, 955 L42, 958 Z" 
        fill="#333" />
            </g>
            <g>
               <path d="M68.5, 970 L68.5 1014.5 Q68.5 1018.5
                72.5 1018.5
                L79 1018.5 "
        style="fill:none; stroke:#444; stroke-width:1" />
               <path d="M79, 1015.5 L87, 1018.5 L79, 1021.5 Z" 
        fill="#333" />
            </g>
            <g>
               <path d="M117, 1048.5 L117 1069.5 Q117 1073.5
                121 1073.5
                L129 1073.5 "
        style="fill:none; stroke:#444; stroke-width:1" />
               <path d="M129, 1070.5 L137, 1073.5 L129, 1076.5 Z" 
        fill="#333" />
            </g>
            <g>
               <path d="M68.5, 970 L68.5 1134.5 Q68.5 1138.5
                72.5 1138.5
                L79 1138.5 "
        style="fill:none; stroke:#444; stroke-width:1" />
               <path d="M79, 1135.5 L87, 1138.5 L79, 1141.5 Z" 
        fill="#333" />
            </g>
            <g>
               <path d="M117, 1168.5 L117 1189.5 Q117 1193.5
                121 1193.5
                L129 1193.5 "
        style="fill:none; stroke:#444; stroke-width:1" />
               <path d="M129, 1190.5 L137, 1193.5 L129, 1196.5 Z" 
        fill="#333" />
            </g>
            <g>
               <path d="M68.5, 970 L68.5 1254.5 Q68.5 1258.5
                72.5 1258.5
                L79 1258.5 "
        style="fill:none; stroke:#444; stroke-width:1" />
               <path d="M79, 1255.5 L87, 1258.5 L79, 1261.5 Z" 
        fill="#333" />
            </g>
            <g>
               <path d="M117, 1288.5 L117 1309.5 Q117 1313.5
                121 1313.5
                L129 1313.5 "
        style="fill:none; stroke:#444; stroke-width:1" />
               <path d="M129, 1310.5 L137, 1313.5 L129, 1316.5 Z" 
        fill="#333" />
            </g>
            <g>
               <path d="M68.5, 970 L68.5 1374.5 Q68.5 1378.5
                72.5 1378.5
                L79 1378.5 "
        style="fill:none; stroke:#444; stroke-width:1" />
               <path d="M79, 1375.5 L87, 1378.5 L79, 1381.5 Z" 
        fill="#333" />
            </g>
            <g>
               <path d="M117, 1408.5 L117 1429.5 Q117 1433.5
                121 1433.5
                L129 1433.5 "
        style="fill:none; stroke:#444; stroke-width:1" />
               <path d="M129, 1430.5 L137, 1433.5 L129, 1436.5 Z" 
        fill="#333" />
            </g>
            <g>
               <path d="M25, 40 L25 1479.5 Q25 1483.5
                29 1483.5
                L42 1483.5 "
        style="fill:none; stroke:#444; stroke-width:1" />
               <path d="M42, 1480.5 L50, 1483.5 L42, 1486.5 Z" 
        fill="#333" />
            </g>
            <g>
               <path d="M25, 40 L25 1528 Q25 1532
                29 1532
                L42 1532 "
        style="fill:none; stroke:#444; stroke-width:1" />
               <path d="M42, 1529 L50, 1532 L42, 1535 Z" 
        fill="#333" />
            </g>
            <g>
               <path d="M25, 40 L25 1576.5 Q25 1580.5
                29 1580.5
                L42 1580.5 "
        style="fill:none; stroke:#444; stroke-width:1" />
               <path d="M42, 1577.5 L50, 1580.5 L42, 1583.5 Z" 
        fill="#333" />
            </g>
            <g>
               <path d="M25, 40 L25 1625 Q25 1629
                29 1629
                L42 1629 "
        style="fill:none; stroke:#444; stroke-width:1" />
               <path d="M42, 1626 L50, 1629 L42, 1632 Z" 
        fill="#333" />
            </g>
            </svg>