<!DOCTYPE svg PUBLIC "-//W3C//DTD SVG 1.1//EN" "http://www.w3.org/Graphics/SVG/1.1/DTD/svg11.dtd">
                <svg xmlns="http://www.w3.org/2000/svg" xmlns:xlink="http://www.w3.org/1999/xlink" 
                width="539" height="717">
                
            <g>
                <rect x="50" y="80"
            width="245" height="30"
            style="fill:#a5d6a7; stroke:#444; stroke-width:1" />
                    
                <line x1="60" y1="80" x2="60" y2="110"
                style="fill:#a5d6a7; stroke:#444; stroke-width:1" />
                <line x1="285" y1="80" x2="285" y2="110"
                style="fill:#a5d6a7; stroke:#444; stroke-width:1" />
             
                <title>MyLinkedList = function()</title>
            <text x="75" y="100"
                font-family="monospace" font-size="13" fill="#222">
                <tspan x="75" y="100">MyLinkedList = function()</tspan>
            </text>
                
            </g>
            <g>
                <rect x="50" y="128.5"
            width="393.2" height="30"
            style="fill:#a5d6a7; stroke:#444; stroke-width:1" />
                    
                <line x1="60" y1="128.5" x2="60" y2="158.5"
                style="fill:#a5d6a7; stroke:#444; stroke-width:1" />
                <line x1="433.2" y1="128.5" x2="433.2" y2="158.5"
                style="fill:#a5d6a7; stroke:#444; stroke-width:1" />
             
                <title>MyLinkedList.prototype.get = function(index)</title>
            <text x="75" y="148.5"
                font-family="monospace" font-size="13" fill="#222">
                <tspan x="75" y="148.5">MyLinkedList.prototype.get = function(index)</tspan>
            </text>
                
            </g>
            <g>
                <rect x="50" y="177"
            width="424.4" height="30"
            style="fill:#a5d6a7; stroke:#444; stroke-width:1" />
                    
                <line x1="60" y1="177" x2="60" y2="207"
                style="fill:#a5d6a7; stroke:#444; stroke-width:1" />
                <line x1="464.4" y1="177" x2="464.4" y2="207"
                style="fill:#a5d6a7; stroke:#444; stroke-width:1" />
             
                <title>MyLinkedList.prototype.addAtHead = function(val)</title>
            <text x="75" y="197"
                font-family="monospace" font-size="13" fill="#222">
                <tspan x="75" y="197">MyLinkedList.prototype.addAtHead = function(val)</tspan>
            </text>
                
            </g>
            <g>
                <rect x="50" y="225.5"
            width="424.4" height="30"
            style="fill:#a5d6a7; stroke:#444; stroke-width:1" />
                    
                <line x1="60" y1="225.5" x2="60" y2="255.5"
                style="fill:#a5d6a7; stroke:#444; stroke-width:1" />
                <line x1="464.4" y1="225.5" x2="464.4" y2="255.5"
                style="fill:#a5d6a7; stroke:#444; stroke-width:1" />
             
                <title>MyLinkedList.prototype.addAtTail = function(val)</title>
            <text x="75" y="245.5"
                font-family="monospace" font-size="13" fill="#222">
                <tspan x="75" y="245.5">MyLinkedList.prototype.addAtTail = function(val)</tspan>
            </text>
                
            </g>
            <g>
                <rect x="50" y="274"
            width="463.4" height="30"
            style="fill:#a5d6a7; stroke:#444; stroke-width:1" />
                    
                <line x1="60" y1="274" x2="60" y2="304"
                style="fill:#a5d6a7; stroke:#444; stroke-width:1" />
                <line x1="503.4" y1="274" x2="503.4" y2="304"
                style="fill:#a5d6a7; stroke:#444; stroke-width:1" />
             
                <title>MyLinkedList.prototype.addAtIndex = function(index, val)</title>
            <text x="75" y="294"
                font-family="monospace" font-size="13" fill="#222">
                <tspan x="75" y="294">MyLinkedList.prototype.addAtIndex = function(index...</tspan>
            </text>
                
            </g>
            <g>
                <rect x="50" y="322.5"
            width="463.4" height="30"
            style="fill:#a5d6a7; stroke:#444; stroke-width:1" />
                    
                <line x1="60" y1="322.5" x2="60" y2="352.5"
                style="fill:#a5d6a7; stroke:#444; stroke-width:1" />
                <line x1="503.4" y1="322.5" x2="503.4" y2="352.5"
                style="fill:#a5d6a7; stroke:#444; stroke-width:1" />
             
                <title>MyLinkedList.prototype.deleteAtIndex = function(index)</title>
            <text x="75" y="342.5"
                font-family="monospace" font-size="13" fill="#222">
                <tspan x="75" y="342.5">MyLinkedList.prototype.deleteAtIndex = function(in...</tspan>
            </text>
                
            </g>
                <g>
                   <rect x="50" y="371"
            width="303" height="30"
            rx="3" ry="3"
            style="fill:#90caf9; stroke:#444; stroke-width:1" />
                   <title>var linkedList = new MyLinkedList()</title>
            <text x="65" y="391"
                font-family="monospace" font-size="13" fill="#222">
                <tspan x="65" y="391">var linkedList = new MyLinkedList()</tspan>
            </text>
                   
                   
                </g>
                <g>
                   <rect x="50" y="419.5"
            width="209.4" height="30"
            rx="2" ry="2"
            style="fill:#C5E1A5; stroke:#444; stroke-width:1" />
                   <title>linkedList.addAtHead(1)</title>
            <text x="65" y="439.5"
                font-family="monospace" font-size="13" fill="#222">
                <tspan x="65" y="439.5">linkedList.addAtHead(1)</tspan>
            </text>
                   
                   
                </g>
                <g>
                   <rect x="50" y="468"
            width="209.4" height="30"
            rx="2" ry="2"
            style="fill:#C5E1A5; stroke:#444; stroke-width:1" />
                   <title>linkedList.addAtTail(3)</title>
            <text x="65" y="488"
                font-family="monospace" font-size="13" fill="#222">
                <tspan x="65" y="488">linkedList.addAtTail(3)</tspan>
            </text>
                   
                   
                </g>
                <g>
                   <rect x="50" y="516.5"
            width="240.6" height="30"
            rx="2" ry="2"
            style="fill:#C5E1A5; stroke:#444; stroke-width:1" />
                   <title>linkedList.addAtIndex(1, 2)</title>
            <text x="65" y="536.5"
                font-family="monospace" font-size="13" fill="#222">
                <tspan x="65" y="536.5">linkedList.addAtIndex(1, 2)</tspan>
            </text>
                   
                   
                </g>
                <g>
                   <rect x="50" y="565"
            width="162.6" height="30"
            rx="2" ry="2"
            style="fill:#C5E1A5; stroke:#444; stroke-width:1" />
                   <title>linkedList.get(1)</title>
            <text x="65" y="585"
                font-family="monospace" font-size="13" fill="#222">
                <tspan x="65" y="585">linkedList.get(1)</tspan>
            </text>
                   
                   
                </g>
                <g>
                   <rect x="50" y="613.5"
            width="240.6" height="30"
            rx="2" ry="2"
            style="fill:#C5E1A5; stroke:#444; stroke-width:1" />
                   <title>linkedList.deleteAtIndex(1)</title>
            <text x="65" y="633.5"
                font-family="monospace" font-size="13" fill="#222">
                <tspan x="65" y="633.5">linkedList.deleteAtIndex(1)</tspan>
            </text>
                   
                   
                </g>
                <g>
                   <rect x="50" y="662"
            width="162.6" height="30"
            rx="2" ry="2"
            style="fill:#C5E1A5; stroke:#444; stroke-width:1" />
                   <title>linkedList.get(1)</title>
            <text x="65" y="682"
                font-family="monospace" font-size="13" fill="#222">
                <tspan x="65" y="682">linkedList.get(1)</tspan>
            </text>
                   
                   
                </g>
            <g>
               <rect x="25" y="13.75"
            width="216.6" height="24"
            style="fill:#fff59d; stroke:#444; stroke-width:1" />
               <circle cx="25" cy="25" r="15"
        style="fill:#fff59d; stroke:#444; stroke-width:1" />
               <title>Program: source module</title>
            <text x="55" y="30"
                font-family="monospace" font-size="13" fill="#222">
                <tspan x="55" y="30">Program: source module</tspan>
            </text>
            </g>
            <g>
               <path d="M25, 40 L25 91 Q25 95
                29 95
                L42 95 "
        style="fill:none; stroke:#444; stroke-width:1" />
               <path d="M42, 92 L50, 95 L42, 98 Z" 
        fill="#333" />
            </g>
            <g>
               <path d="M25, 40 L25 139.5 Q25 143.5
                29 143.5
                L42 143.5 "
        style="fill:none; stroke:#444; stroke-width:1" />
               <path d="M42, 140.5 L50, 143.5 L42, 146.5 Z" 
        fill="#333" />
            </g>
            <g>
               <path d="M25, 40 L25 188 Q25 192
                29 192
                L42 192 "
        style="fill:none; stroke:#444; stroke-width:1" />
               <path d="M42, 189 L50, 192 L42, 195 Z" 
        fill="#333" />
            </g>
            <g>
               <path d="M25, 40 L25 236.5 Q25 240.5
                29 240.5
                L42 240.5 "
        style="fill:none; stroke:#444; stroke-width:1" />
               <path d="M42, 237.5 L50, 240.5 L42, 243.5 Z" 
        fill="#333" />
            </g>
            <g>
               <path d="M25, 40 L25 285 Q25 289
                29 289
                L42 289 "
        style="fill:none; stroke:#444; stroke-width:1" />
               <path d="M42, 286 L50, 289 L42, 292 Z" 
        fill="#333" />
            </g>
            <g>
               <path d="M25, 40 L25 333.5 Q25 337.5
                29 337.5
                L42 337.5 "
        style="fill:none; stroke:#444; stroke-width:1" />
               <path d="M42, 334.5 L50, 337.5 L42, 340.5 Z" 
        fill="#333" />
            </g>
            <g>
               <path d="M25, 40 L25 382 Q25 386
                29 386
                L42 386 "
        style="fill:none; stroke:#444; stroke-width:1" />
               <path d="M42, 383 L50, 386 L42, 389 Z" 
        fill="#333" />
            </g>
            <g>
               <path d="M25, 40 L25 430.5 Q25 434.5
                29 434.5
                L42 434.5 "
        style="fill:none; stroke:#444; stroke-width:1" />
               <path d="M42, 431.5 L50, 434.5 L42, 437.5 Z" 
        fill="#333" />
            </g>
            <g>
               <path d="M25, 40 L25 479 Q25 483
                29 483
                L42 483 "
        style="fill:none; stroke:#444; stroke-width:1" />
               <path d="M42, 480 L50, 483 L42, 486 Z" 
        fill="#333" />
            </g>
            <g>
               <path d="M25, 40 L25 527.5 Q25 531.5
                29 531.5
                L42 531.5 "
        style="fill:none; stroke:#444; stroke-width:1" />
               <path d="M42, 528.5 L50, 531.5 L42, 534.5 Z" 
        fill="#333" />
            </g>
            <g>
               <path d="M25, 40 L25 576 Q25 580
                29 580
                L42 580 "
        style="fill:none; stroke:#444; stroke-width:1" />
               <path d="M42, 577 L50, 580 L42, 583 Z" 
        fill="#333" />
            </g>
            <g>
               <path d="M25, 40 L25 624.5 Q25 628.5
                29 628.5
                L42 628.5 "
        style="fill:none; stroke:#444; stroke-width:1" />
               <path d="M42, 625.5 L50, 628.5 L42, 631.5 Z" 
        fill="#333" />
            </g>
            <g>
               <path d="M25, 40 L25 673 Q25 677
                29 677
                L42 677 "
        style="fill:none; stroke:#444; stroke-width:1" />
               <path d="M42, 674 L50, 677 L42, 680 Z" 
        fill="#333" />
            </g>
            </svg>