<!DOCTYPE svg PUBLIC "-//W3C//DTD SVG 1.1//EN" "http://www.w3.org/Graphics/SVG/1.1/DTD/svg11.dtd">
                <svg xmlns="http://www.w3.org/2000/svg" xmlns:xlink="http://www.w3.org/1999/xlink" 
                width="577" height="1271">
                
            <g>
                <rect x="50" y="80"
            width="229.4" height="30"
            style="fill:#a5d6a7; stroke:#444; stroke-width:1" />
                    
                <line x1="60" y1="80" x2="60" y2="110"
                style="fill:#a5d6a7; stroke:#444; stroke-width:1" />
                <line x1="269.4" y1="80" x2="269.4" y2="110"
                style="fill:#a5d6a7; stroke:#444; stroke-width:1" />
             
                <title>HitCounter = function()</title>
            <text x="75" y="100"
                font-family="monospace" font-size="13" fill="#222">
                <tspan x="75" y="100">HitCounter = function()</tspan>
            </text>
                
            </g>
                <g>
                   <rect x="87" y="128.5"
            width="186" height="30"
            rx="3" ry="3"
            style="fill:#90caf9; stroke:#444; stroke-width:1" />
                   <title>this.map = new Map()</title>
            <text x="102" y="148.5"
                font-family="monospace" font-size="13" fill="#222">
                <tspan x="102" y="148.5">this.map = new Map()</tspan>
            </text>
                   
                   
                </g>
            <g>
                <rect x="50" y="192"
            width="408.8" height="30"
            style="fill:#a5d6a7; stroke:#444; stroke-width:1" />
                    
                <line x1="60" y1="192" x2="60" y2="222"
                style="fill:#a5d6a7; stroke:#444; stroke-width:1" />
                <line x1="448.8" y1="192" x2="448.8" y2="222"
                style="fill:#a5d6a7; stroke:#444; stroke-width:1" />
             
                <title>HitCounter.prototype.hit = function(timestamp)</title>
            <text x="75" y="212"
                font-family="monospace" font-size="13" fill="#222">
                <tspan x="75" y="212">HitCounter.prototype.hit = function(timestamp)</tspan>
            </text>
                
            </g><g>
            <rect x="117" y="255.5"
            width="262.79999999999995" height="30"
            rx="3" ry="3"
            style="fill:#ce93d8; stroke:#444; stroke-width:1" />                
            <polygon points="87,270.5 117,240.5 147,270.5 117,300.5"
            style="fill:#ce93d8; stroke:#444; stroke-width:1" />
            <title>(!this.map.has(timestamp))</title>
            <text x="162" y="275.5"
                font-family="monospace" font-size="13" fill="#222">
                <tspan x="162" y="275.5">(!this.map.has(timestamp))</tspan>
            </text>
            
            <text x="109.2" y="275.5"
        font-family="monospace" font-size="13" fill="#222">if</text> <text x="124.8" y="302.45"
        font-family="monospace" font-size="13" fill="#222">+</text> 
        </g>
                <g>
                   <rect x="137" y="310.5"
            width="232.79999999999998" height="30"
            rx="2" ry="2"
            style="fill:#C5E1A5; stroke:#444; stroke-width:1" />
                   <title>this.map.set(timestamp, 0)</title>
            <text x="152" y="330.5"
                font-family="monospace" font-size="13" fill="#222">
                <tspan x="152" y="330.5">this.map.set(timestamp, 0)</tspan>
            </text>
                   
                   
                </g>
            <g>
                <rect x="87" y="360.5"
            width="443.4" height="30"
            rx="3" ry="3"
            style="fill:#90caf9; stroke:#444; stroke-width:1" />
                
                <line x1="530.4" y1="370.5" x2="535.4" y2="370.5"
                style="fill:#a5d6a7; stroke:#444; stroke-width:1" />
                
                <line x1="530.4" y1="380.5" x2="535.4" y2="380.5"
                style="fill:#a5d6a7; stroke:#444; stroke-width:1" />

                <path d="M535.4, 364.5 L551.4, 375.5 L535.4, 386.5 Z" 
        fill="#a5d6a7" stroke="#444" stroke-width="1" />
                             
                <title>return this.map.set(timestamp, this.map.get(timestamp) + 1)</title>
            <text x="102" y="380.5"
                font-family="monospace" font-size="13" fill="#222">
                <tspan x="102" y="380.5">return this.map.set(timestamp, this.map.get(timest...</tspan>
            </text>
                
            </g>
            <g>
                <rect x="50" y="424"
            width="440" height="30"
            style="fill:#a5d6a7; stroke:#444; stroke-width:1" />
                    
                <line x1="60" y1="424" x2="60" y2="454"
                style="fill:#a5d6a7; stroke:#444; stroke-width:1" />
                <line x1="480" y1="424" x2="480" y2="454"
                style="fill:#a5d6a7; stroke:#444; stroke-width:1" />
             
                <title>HitCounter.prototype.getHits = function(timestamp)</title>
            <text x="75" y="444"
                font-family="monospace" font-size="13" fill="#222">
                <tspan x="75" y="444">HitCounter.prototype.getHits = function(timestamp)</tspan>
            </text>
                
            </g>
                <g>
                   <rect x="87" y="472.5"
            width="131.39999999999998" height="30"
            rx="3" ry="3"
            style="fill:#90caf9; stroke:#444; stroke-width:1" />
                   <title>let count = 0</title>
            <text x="102" y="492.5"
                font-family="monospace" font-size="13" fill="#222">
                <tspan x="102" y="492.5">let count = 0</tspan>
            </text>
                   
                   
                </g>
                <g>
                   <rect x="87" y="521"
            width="373.2" height="30"
            rx="3" ry="3"
            style="fill:#90caf9; stroke:#444; stroke-width:1" />
                   <title>let bound = Math.max(1, timestamp - 300 + 1)</title>
            <text x="102" y="541"
                font-family="monospace" font-size="13" fill="#222">
                <tspan x="102" y="541">let bound = Math.max(1, timestamp - 300 + 1)</tspan>
            </text>
                   
                   
                </g><g>

            <rect x="117" y="604.5"
            width="138" height="30"
            rx="3" ry="3"
            style="fill:#b39ddb; stroke:#444; stroke-width:1" />
            <polygon points="87,619.5 117,589.5 147,619.5 117,649.5"
            style="fill:#b39ddb; stroke:#444; stroke-width:1" />
                
            <title>i &gt;= bound</title>
            <text x="162" y="624.5"
                font-family="monospace" font-size="13" fill="#222">
                <tspan x="162" y="624.5">i &gt;= bound</tspan>
            </text>
            
            <text x="105.3" y="624.5"
        font-family="monospace" font-size="13" fill="#222">for</text>
        </g>
                <g>
                   <rect x="137" y="659.5"
            width="53.4" height="30"
            rx="3" ry="3"
            style="fill:#90caf9; stroke:#444; stroke-width:1" />
                   <title>i--</title>
            <text x="152" y="679.5"
                font-family="monospace" font-size="13" fill="#222">
                <tspan x="152" y="679.5">i--</tspan>
            </text>
                   
                   
                </g><g>
            <rect x="167" y="723"
            width="192.6" height="30"
            rx="3" ry="3"
            style="fill:#ce93d8; stroke:#444; stroke-width:1" />                
            <polygon points="137,738 167,708 197,738 167,768"
            style="fill:#ce93d8; stroke:#444; stroke-width:1" />
            <title>(this.map.has(i))</title>
            <text x="212" y="743"
                font-family="monospace" font-size="13" fill="#222">
                <tspan x="212" y="743">(this.map.has(i))</tspan>
            </text>
            
            <text x="159.2" y="743"
        font-family="monospace" font-size="13" fill="#222">if</text> <text x="174.8" y="769.95"
        font-family="monospace" font-size="13" fill="#222">+</text> 
        </g>
                <g>
                   <rect x="187" y="778"
            width="217.2" height="30"
            rx="3" ry="3"
            style="fill:#90caf9; stroke:#444; stroke-width:1" />
                   <title>count += this.map.get(i)</title>
            <text x="202" y="798"
                font-family="monospace" font-size="13" fill="#222">
                <tspan x="202" y="798">count += this.map.get(i)</tspan>
            </text>
                   
                   
                </g>
            <g>
                <rect x="87" y="828"
            width="123.6" height="30"
            rx="3" ry="3"
            style="fill:#90caf9; stroke:#444; stroke-width:1" />
                
                <line x1="210.6" y1="838" x2="215.6" y2="838"
                style="fill:#a5d6a7; stroke:#444; stroke-width:1" />
                
                <line x1="210.6" y1="848" x2="215.6" y2="848"
                style="fill:#a5d6a7; stroke:#444; stroke-width:1" />

                <path d="M215.6, 832 L231.6, 843 L215.6, 854 Z" 
        fill="#a5d6a7" stroke="#444" stroke-width="1" />
                             
                <title>return count</title>
            <text x="102" y="848"
                font-family="monospace" font-size="13" fill="#222">
                <tspan x="102" y="848">return count</tspan>
            </text>
                
            </g>
                <g>
                   <rect x="50" y="876.5"
            width="279.6" height="30"
            rx="3" ry="3"
            style="fill:#90caf9; stroke:#444; stroke-width:1" />
                   <title>const counter = new HitCounter()</title>
            <text x="65" y="896.5"
                font-family="monospace" font-size="13" fill="#222">
                <tspan x="65" y="896.5">const counter = new HitCounter()</tspan>
            </text>
                   
                   
                </g>
                <g>
                   <rect x="50" y="925"
            width="139.2" height="30"
            rx="2" ry="2"
            style="fill:#C5E1A5; stroke:#444; stroke-width:1" />
                   <title>counter.hit(1)</title>
            <text x="65" y="945"
                font-family="monospace" font-size="13" fill="#222">
                <tspan x="65" y="945">counter.hit(1)</tspan>
            </text>
                   
                   
                </g>
                <g>
                   <rect x="50" y="973.5"
            width="139.2" height="30"
            rx="2" ry="2"
            style="fill:#C5E1A5; stroke:#444; stroke-width:1" />
                   <title>counter.hit(2)</title>
            <text x="65" y="993.5"
                font-family="monospace" font-size="13" fill="#222">
                <tspan x="65" y="993.5">counter.hit(2)</tspan>
            </text>
                   
                   
                </g>
                <g>
                   <rect x="50" y="1022"
            width="240.6" height="30"
            rx="2" ry="2"
            style="fill:#C5E1A5; stroke:#444; stroke-width:1" />
                   <title>console.log(counter.hit(3))</title>
            <text x="65" y="1042"
                font-family="monospace" font-size="13" fill="#222">
                <tspan x="65" y="1042">console.log(counter.hit(3))</tspan>
            </text>
                   
                   
                </g>
                <g>
                   <rect x="50" y="1070.5"
            width="271.79999999999995" height="30"
            rx="2" ry="2"
            style="fill:#C5E1A5; stroke:#444; stroke-width:1" />
                   <title>console.log(counter.getHits(4))</title>
            <text x="65" y="1090.5"
                font-family="monospace" font-size="13" fill="#222">
                <tspan x="65" y="1090.5">console.log(counter.getHits(4))</tspan>
            </text>
                   
                   
                </g>
                <g>
                   <rect x="50" y="1119"
            width="154.8" height="30"
            rx="2" ry="2"
            style="fill:#C5E1A5; stroke:#444; stroke-width:1" />
                   <title>counter.hit(300)</title>
            <text x="65" y="1139"
                font-family="monospace" font-size="13" fill="#222">
                <tspan x="65" y="1139">counter.hit(300)</tspan>
            </text>
                   
                   
                </g>
                <g>
                   <rect x="50" y="1167.5"
            width="287.4" height="30"
            rx="2" ry="2"
            style="fill:#C5E1A5; stroke:#444; stroke-width:1" />
                   <title>console.log(counter.getHits(300))</title>
            <text x="65" y="1187.5"
                font-family="monospace" font-size="13" fill="#222">
                <tspan x="65" y="1187.5">console.log(counter.getHits(300))</tspan>
            </text>
                   
                   
                </g>
                <g>
                   <rect x="50" y="1216"
            width="287.4" height="30"
            rx="2" ry="2"
            style="fill:#C5E1A5; stroke:#444; stroke-width:1" />
                   <title>console.log(counter.getHits(301))</title>
            <text x="65" y="1236"
                font-family="monospace" font-size="13" fill="#222">
                <tspan x="65" y="1236">console.log(counter.getHits(301))</tspan>
            </text>
                   
                   
                </g>
            <g>
               <rect x="25" y="13.75"
            width="216.6" height="24"
            style="fill:#fff59d; stroke:#444; stroke-width:1" />
               <circle cx="25" cy="25" r="15"
        style="fill:#fff59d; stroke:#444; stroke-width:1" />
               <title>Program: source module</title>
            <text x="55" y="30"
                font-family="monospace" font-size="13" fill="#222">
                <tspan x="55" y="30">Program: source module</tspan>
            </text>
            </g>
            <g>
               <path d="M25, 40 L25 91 Q25 95
                29 95
                L42 95 "
        style="fill:none; stroke:#444; stroke-width:1" />
               <path d="M42, 92 L50, 95 L42, 98 Z" 
        fill="#333" />
            </g>
            <g>
               <path d="M68.5, 110 L68.5 139.5 Q68.5 143.5
                72.5 143.5
                L79 143.5 "
        style="fill:none; stroke:#444; stroke-width:1" />
               <path d="M79, 140.5 L87, 143.5 L79, 146.5 Z" 
        fill="#333" />
            </g>
            <g>
               <path d="M25, 40 L25 203 Q25 207
                29 207
                L42 207 "
        style="fill:none; stroke:#444; stroke-width:1" />
               <path d="M42, 204 L50, 207 L42, 210 Z" 
        fill="#333" />
            </g>
            <g>
               <path d="M68.5, 222 L68.5 266.5 Q68.5 270.5
                72.5 270.5
                L79 270.5 "
        style="fill:none; stroke:#444; stroke-width:1" />
               <path d="M79, 267.5 L87, 270.5 L79, 273.5 Z" 
        fill="#333" />
            </g>
            <g>
               <path d="M117, 300.5 L117 321.5 Q117 325.5
                121 325.5
                L129 325.5 "
        style="fill:none; stroke:#444; stroke-width:1" />
               <path d="M129, 322.5 L137, 325.5 L129, 328.5 Z" 
        fill="#333" />
            </g>
            <g>
               <path d="M68.5, 222 L68.5 371.5 Q68.5 375.5
                72.5 375.5
                L79 375.5 "
        style="fill:none; stroke:#444; stroke-width:1" />
               <path d="M79, 372.5 L87, 375.5 L79, 378.5 Z" 
        fill="#333" />
            </g>
            <g>
               <path d="M25, 40 L25 435 Q25 439
                29 439
                L42 439 "
        style="fill:none; stroke:#444; stroke-width:1" />
               <path d="M42, 436 L50, 439 L42, 442 Z" 
        fill="#333" />
            </g>
            <g>
               <path d="M68.5, 454 L68.5 483.5 Q68.5 487.5
                72.5 487.5
                L79 487.5 "
        style="fill:none; stroke:#444; stroke-width:1" />
               <path d="M79, 484.5 L87, 487.5 L79, 490.5 Z" 
        fill="#333" />
            </g>
            <g>
               <path d="M68.5, 454 L68.5 532 Q68.5 536
                72.5 536
                L79 536 "
        style="fill:none; stroke:#444; stroke-width:1" />
               <path d="M79, 533 L87, 536 L79, 539 Z" 
        fill="#333" />
            </g>
            <g>
               <path d="M68.5, 454 L68.5 615.5 Q68.5 619.5
                72.5 619.5
                L79 619.5 "
        style="fill:none; stroke:#444; stroke-width:1" />
               <path d="M79, 616.5 L87, 619.5 L79, 622.5 Z" 
        fill="#333" />
            </g>
            <g>
               <path d="M117, 649.5 L117 670.5 Q117 674.5
                121 674.5
                L129 674.5 "
        style="fill:none; stroke:#444; stroke-width:1" />
               <path d="M129, 671.5 L137, 674.5 L129, 677.5 Z" 
        fill="#333" />
            </g>
            <g>
               <path d="M117, 649.5 L117 734 Q117 738
                121 738
                L129 738 "
        style="fill:none; stroke:#444; stroke-width:1" />
               <path d="M129, 735 L137, 738 L129, 741 Z" 
        fill="#333" />
            </g>
            <g>
               <path d="M167, 768 L167 789 Q167 793
                171 793
                L179 793 "
        style="fill:none; stroke:#444; stroke-width:1" />
               <path d="M179, 790 L187, 793 L179, 796 Z" 
        fill="#333" />
            </g>
            <g>
               <path d="M404.2, 793 L420.2 793  Q424.2 793
                424.2 789
                L424.2 577.5 Q424.2 569.5
                420.2 569.5
                L125 569.5  Q117 569.5
                117 573.5
                L117 581.5"
        style="fill:none; stroke:#444; stroke-width:1" />
               <path d="M114, 581.5 L117, 589.5 L120, 581.5 Z" 
        fill="#333" />
            </g>
            <g>
               <path d="M68.5, 454 L68.5 839 Q68.5 843
                72.5 843
                L79 843 "
        style="fill:none; stroke:#444; stroke-width:1" />
               <path d="M79, 840 L87, 843 L79, 846 Z" 
        fill="#333" />
            </g>
            <g>
               <path d="M25, 40 L25 887.5 Q25 891.5
                29 891.5
                L42 891.5 "
        style="fill:none; stroke:#444; stroke-width:1" />
               <path d="M42, 888.5 L50, 891.5 L42, 894.5 Z" 
        fill="#333" />
            </g>
            <g>
               <path d="M25, 40 L25 936 Q25 940
                29 940
                L42 940 "
        style="fill:none; stroke:#444; stroke-width:1" />
               <path d="M42, 937 L50, 940 L42, 943 Z" 
        fill="#333" />
            </g>
            <g>
               <path d="M25, 40 L25 984.5 Q25 988.5
                29 988.5
                L42 988.5 "
        style="fill:none; stroke:#444; stroke-width:1" />
               <path d="M42, 985.5 L50, 988.5 L42, 991.5 Z" 
        fill="#333" />
            </g>
            <g>
               <path d="M25, 40 L25 1033 Q25 1037
                29 1037
                L42 1037 "
        style="fill:none; stroke:#444; stroke-width:1" />
               <path d="M42, 1034 L50, 1037 L42, 1040 Z" 
        fill="#333" />
            </g>
            <g>
               <path d="M25, 40 L25 1081.5 Q25 1085.5
                29 1085.5
                L42 1085.5 "
        style="fill:none; stroke:#444; stroke-width:1" />
               <path d="M42, 1082.5 L50, 1085.5 L42, 1088.5 Z" 
        fill="#333" />
            </g>
            <g>
               <path d="M25, 40 L25 1130 Q25 1134
                29 1134
                L42 1134 "
        style="fill:none; stroke:#444; stroke-width:1" />
               <path d="M42, 1131 L50, 1134 L42, 1137 Z" 
        fill="#333" />
            </g>
            <g>
               <path d="M25, 40 L25 1178.5 Q25 1182.5
                29 1182.5
                L42 1182.5 "
        style="fill:none; stroke:#444; stroke-width:1" />
               <path d="M42, 1179.5 L50, 1182.5 L42, 1185.5 Z" 
        fill="#333" />
            </g>
            <g>
               <path d="M25, 40 L25 1227 Q25 1231
                29 1231
                L42 1231 "
        style="fill:none; stroke:#444; stroke-width:1" />
               <path d="M42, 1228 L50, 1231 L42, 1234 Z" 
        fill="#333" />
            </g>
            </svg>