<!DOCTYPE svg PUBLIC "-//W3C//DTD SVG 1.1//EN" "http://www.w3.org/Graphics/SVG/1.1/DTD/svg11.dtd">
                <svg xmlns="http://www.w3.org/2000/svg" xmlns:xlink="http://www.w3.org/1999/xlink" 
                width="486" height="1112">
                
            <g>
                <rect x="50" y="80"
            width="229.4" height="30"
            style="fill:#a5d6a7; stroke:#444; stroke-width:1" />
                    
                <line x1="60" y1="80" x2="60" y2="110"
                style="fill:#a5d6a7; stroke:#444; stroke-width:1" />
                <line x1="269.4" y1="80" x2="269.4" y2="110"
                style="fill:#a5d6a7; stroke:#444; stroke-width:1" />
             
                <title>function sumToZero(arr)</title>
            <text x="75" y="100"
                font-family="monospace" font-size="13" fill="#222">
                <tspan x="75" y="100">function sumToZero(arr)</tspan>
            </text>
                
            </g><g>
            <rect x="117" y="143.5"
            width="106.80000000000001" height="30"
            rx="3" ry="3"
            style="fill:#ce93d8; stroke:#444; stroke-width:1" />                
            <polygon points="87,158.5 117,128.5 147,158.5 117,188.5"
            style="fill:#ce93d8; stroke:#444; stroke-width:1" />
            <title>(!arr)</title>
            <text x="162" y="163.5"
                font-family="monospace" font-size="13" fill="#222">
                <tspan x="162" y="163.5">(!arr)</tspan>
            </text>
            
            <text x="109.2" y="163.5"
        font-family="monospace" font-size="13" fill="#222">if</text> <text x="124.8" y="190.45"
        font-family="monospace" font-size="13" fill="#222">+</text> 
        </g>
            <g>
                <rect x="137" y="198.5"
            width="123.6" height="30"
            rx="3" ry="3"
            style="fill:#90caf9; stroke:#444; stroke-width:1" />
                
                <line x1="260.6" y1="208.5" x2="265.6" y2="208.5"
                style="fill:#a5d6a7; stroke:#444; stroke-width:1" />
                
                <line x1="260.6" y1="218.5" x2="265.6" y2="218.5"
                style="fill:#a5d6a7; stroke:#444; stroke-width:1" />

                <path d="M265.6, 202.5 L281.6, 213.5 L265.6, 224.5 Z" 
        fill="#a5d6a7" stroke="#444" stroke-width="1" />
                             
                <title>return false</title>
            <text x="152" y="218.5"
                font-family="monospace" font-size="13" fill="#222">
                <tspan x="152" y="218.5">return false</tspan>
            </text>
                
            </g>
                <g>
                   <rect x="87" y="248.5"
            width="108" height="30"
            rx="2" ry="2"
            style="fill:#C5E1A5; stroke:#444; stroke-width:1" />
                   <title>arr.sort()</title>
            <text x="102" y="268.5"
                font-family="monospace" font-size="13" fill="#222">
                <tspan x="102" y="268.5">arr.sort()</tspan>
            </text>
                   
                   
                </g>
                <g>
                   <rect x="87" y="297"
            width="100.2" height="30"
            rx="3" ry="3"
            style="fill:#90caf9; stroke:#444; stroke-width:1" />
                   <title>let i = 0</title>
            <text x="102" y="317"
                font-family="monospace" font-size="13" fill="#222">
                <tspan x="102" y="317">let i = 0</tspan>
            </text>
                   
                   
                </g>
                <g>
                   <rect x="87" y="345.5"
            width="100.2" height="30"
            rx="3" ry="3"
            style="fill:#90caf9; stroke:#444; stroke-width:1" />
                   <title>let j = 0</title>
            <text x="102" y="365.5"
                font-family="monospace" font-size="13" fill="#222">
                <tspan x="102" y="365.5">let j = 0</tspan>
            </text>
                   
                   
                </g>
                <g>
                   <rect x="87" y="394"
            width="201.6" height="30"
            rx="3" ry="3"
            style="fill:#90caf9; stroke:#444; stroke-width:1" />
                   <title>let k = arr.length - 1</title>
            <text x="102" y="414"
                font-family="monospace" font-size="13" fill="#222">
                <tspan x="102" y="414">let k = arr.length - 1</tspan>
            </text>
                   
                   
                </g>
                <g>
                   <rect x="87" y="442.5"
            width="115.8" height="30"
            rx="3" ry="3"
            style="fill:#90caf9; stroke:#444; stroke-width:1" />
                   <title>let sum = 0</title>
            <text x="102" y="462.5"
                font-family="monospace" font-size="13" fill="#222">
                <tspan x="102" y="462.5">let sum = 0</tspan>
            </text>
                   
                   
                </g><g>

            <rect x="117" y="526"
            width="169.2" height="30"
            rx="3" ry="3"
            style="fill:#b39ddb; stroke:#444; stroke-width:1" />
            <polygon points="87,541 117,511 147,541 117,571"
            style="fill:#b39ddb; stroke:#444; stroke-width:1" />
                
            <title>i &lt; arr.length</title>
            <text x="162" y="546"
                font-family="monospace" font-size="13" fill="#222">
                <tspan x="162" y="546">i &lt; arr.length</tspan>
            </text>
            
            <text x="105.3" y="546"
        font-family="monospace" font-size="13" fill="#222">for</text>
        </g>
                <g>
                   <rect x="137" y="581"
            width="53.4" height="30"
            rx="3" ry="3"
            style="fill:#90caf9; stroke:#444; stroke-width:1" />
                   <title>i++</title>
            <text x="152" y="601"
                font-family="monospace" font-size="13" fill="#222">
                <tspan x="152" y="601">i++</tspan>
            </text>
                   
                   
                </g>
                <g>
                   <rect x="137" y="629.5"
            width="100.2" height="30"
            rx="3" ry="3"
            style="fill:#90caf9; stroke:#444; stroke-width:1" />
                   <title>j = i + 1</title>
            <text x="152" y="649.5"
                font-family="monospace" font-size="13" fill="#222">
                <tspan x="152" y="649.5">j = i + 1</tspan>
            </text>
                   
                   
                </g><g>

            <rect x="167" y="713"
            width="99" height="30"
            rx="3" ry="3"
            style="fill:#b39ddb; stroke:#444; stroke-width:1" />
            <polygon points="137,728 167,698 197,728 167,758"
            style="fill:#b39ddb; stroke:#444; stroke-width:1" />
                
            <title>k &gt; j</title>
            <text x="212" y="733"
                font-family="monospace" font-size="13" fill="#222">
                <tspan x="212" y="733">k &gt; j</tspan>
            </text>
            
            <text x="147.5" y="733"
        font-family="monospace" font-size="13" fill="#222">while</text>
        </g>
                <g>
                   <rect x="187" y="768"
            width="264" height="30"
            rx="3" ry="3"
            style="fill:#90caf9; stroke:#444; stroke-width:1" />
                   <title>sum = arr[i] + arr[j] + arr[k]</title>
            <text x="202" y="788"
                font-family="monospace" font-size="13" fill="#222">
                <tspan x="202" y="788">sum = arr[i] + arr[j] + arr[k]</tspan>
            </text>
                   
                   
                </g><g>
            <rect x="217" y="831.5"
            width="145.8" height="30"
            rx="3" ry="3"
            style="fill:#ce93d8; stroke:#444; stroke-width:1" />                
            <polygon points="187,846.5 217,816.5 247,846.5 217,876.5"
            style="fill:#ce93d8; stroke:#444; stroke-width:1" />
            <title>(sum === 0)</title>
            <text x="262" y="851.5"
                font-family="monospace" font-size="13" fill="#222">
                <tspan x="262" y="851.5">(sum === 0)</tspan>
            </text>
            
            <text x="209.2" y="851.5"
        font-family="monospace" font-size="13" fill="#222">if</text> <text x="224.8" y="878.45"
        font-family="monospace" font-size="13" fill="#222">+</text> 
        </g>
            <g>
                <rect x="237" y="886.5"
            width="115.80000000000001" height="30"
            rx="3" ry="3"
            style="fill:#90caf9; stroke:#444; stroke-width:1" />
                
                <line x1="352.8" y1="896.5" x2="357.8" y2="896.5"
                style="fill:#a5d6a7; stroke:#444; stroke-width:1" />
                
                <line x1="352.8" y1="906.5" x2="357.8" y2="906.5"
                style="fill:#a5d6a7; stroke:#444; stroke-width:1" />

                <path d="M357.8, 890.5 L373.8, 901.5 L357.8, 912.5 Z" 
        fill="#a5d6a7" stroke="#444" stroke-width="1" />
                             
                <title>return true</title>
            <text x="252" y="906.5"
                font-family="monospace" font-size="13" fill="#222">
                <tspan x="252" y="906.5">return true</tspan>
            </text>
                
            </g><g>
            <rect x="217" y="951.5"
            width="130.2" height="30"
            rx="3" ry="3"
            style="fill:#ce93d8; stroke:#444; stroke-width:1" />                
            <polygon points="187,966.5 217,936.5 247,966.5 217,996.5"
            style="fill:#ce93d8; stroke:#444; stroke-width:1" />
            <title>(sum &gt; 0)</title>
            <text x="262" y="971.5"
                font-family="monospace" font-size="13" fill="#222">
                <tspan x="262" y="971.5">(sum &gt; 0)</tspan>
            </text>
            
            <text x="213.1" y="971.5"
        font-family="monospace" font-size="13" fill="#222">?</text> <text x="224.8" y="998.45"
        font-family="monospace" font-size="13" fill="#222">+</text> <text x="351.09999999999997" y="964.55"
        font-family="monospace" font-size="13" fill="#222">-</text>
        </g>
                <g>
                   <rect x="237" y="1006.5"
            width="53.4" height="30"
            rx="3" ry="3"
            style="fill:#90caf9; stroke:#444; stroke-width:1" />
                   <title>k--</title>
            <text x="252" y="1026.5"
                font-family="monospace" font-size="13" fill="#222">
                <tspan x="252" y="1026.5">k--</tspan>
            </text>
                   
                   
                </g>
                <g>
                   <rect x="407.2" y="1006.5"
            width="53.4" height="30"
            rx="3" ry="3"
            style="fill:#90caf9; stroke:#444; stroke-width:1" />
                   <title>j++</title>
            <text x="422.2" y="1026.5"
                font-family="monospace" font-size="13" fill="#222">
                <tspan x="422.2" y="1026.5">j++</tspan>
            </text>
                   
                   
                </g>
            <g>
                <rect x="87" y="1056.5"
            width="123.6" height="30"
            rx="3" ry="3"
            style="fill:#90caf9; stroke:#444; stroke-width:1" />
                
                <line x1="210.6" y1="1066.5" x2="215.6" y2="1066.5"
                style="fill:#a5d6a7; stroke:#444; stroke-width:1" />
                
                <line x1="210.6" y1="1076.5" x2="215.6" y2="1076.5"
                style="fill:#a5d6a7; stroke:#444; stroke-width:1" />

                <path d="M215.6, 1060.5 L231.6, 1071.5 L215.6, 1082.5 Z" 
        fill="#a5d6a7" stroke="#444" stroke-width="1" />
                             
                <title>return false</title>
            <text x="102" y="1076.5"
                font-family="monospace" font-size="13" fill="#222">
                <tspan x="102" y="1076.5">return false</tspan>
            </text>
                
            </g>
            <g>
               <rect x="25" y="13.75"
            width="216.6" height="24"
            style="fill:#fff59d; stroke:#444; stroke-width:1" />
               <circle cx="25" cy="25" r="15"
        style="fill:#fff59d; stroke:#444; stroke-width:1" />
               <title>Program: source module</title>
            <text x="55" y="30"
                font-family="monospace" font-size="13" fill="#222">
                <tspan x="55" y="30">Program: source module</tspan>
            </text>
            </g>
            <g>
               <path d="M25, 40 L25 91 Q25 95
                29 95
                L42 95 "
        style="fill:none; stroke:#444; stroke-width:1" />
               <path d="M42, 92 L50, 95 L42, 98 Z" 
        fill="#333" />
            </g>
            <g>
               <path d="M68.5, 110 L68.5 154.5 Q68.5 158.5
                72.5 158.5
                L79 158.5 "
        style="fill:none; stroke:#444; stroke-width:1" />
               <path d="M79, 155.5 L87, 158.5 L79, 161.5 Z" 
        fill="#333" />
            </g>
            <g>
               <path d="M117, 188.5 L117 209.5 Q117 213.5
                121 213.5
                L129 213.5 "
        style="fill:none; stroke:#444; stroke-width:1" />
               <path d="M129, 210.5 L137, 213.5 L129, 216.5 Z" 
        fill="#333" />
            </g>
            <g>
               <path d="M68.5, 110 L68.5 259.5 Q68.5 263.5
                72.5 263.5
                L79 263.5 "
        style="fill:none; stroke:#444; stroke-width:1" />
               <path d="M79, 260.5 L87, 263.5 L79, 266.5 Z" 
        fill="#333" />
            </g>
            <g>
               <path d="M68.5, 110 L68.5 308 Q68.5 312
                72.5 312
                L79 312 "
        style="fill:none; stroke:#444; stroke-width:1" />
               <path d="M79, 309 L87, 312 L79, 315 Z" 
        fill="#333" />
            </g>
            <g>
               <path d="M68.5, 110 L68.5 356.5 Q68.5 360.5
                72.5 360.5
                L79 360.5 "
        style="fill:none; stroke:#444; stroke-width:1" />
               <path d="M79, 357.5 L87, 360.5 L79, 363.5 Z" 
        fill="#333" />
            </g>
            <g>
               <path d="M68.5, 110 L68.5 405 Q68.5 409
                72.5 409
                L79 409 "
        style="fill:none; stroke:#444; stroke-width:1" />
               <path d="M79, 406 L87, 409 L79, 412 Z" 
        fill="#333" />
            </g>
            <g>
               <path d="M68.5, 110 L68.5 453.5 Q68.5 457.5
                72.5 457.5
                L79 457.5 "
        style="fill:none; stroke:#444; stroke-width:1" />
               <path d="M79, 454.5 L87, 457.5 L79, 460.5 Z" 
        fill="#333" />
            </g>
            <g>
               <path d="M68.5, 110 L68.5 537 Q68.5 541
                72.5 541
                L79 541 "
        style="fill:none; stroke:#444; stroke-width:1" />
               <path d="M79, 538 L87, 541 L79, 544 Z" 
        fill="#333" />
            </g>
            <g>
               <path d="M117, 571 L117 592 Q117 596
                121 596
                L129 596 "
        style="fill:none; stroke:#444; stroke-width:1" />
               <path d="M129, 593 L137, 596 L129, 599 Z" 
        fill="#333" />
            </g>
            <g>
               <path d="M117, 571 L117 640.5 Q117 644.5
                121 644.5
                L129 644.5 "
        style="fill:none; stroke:#444; stroke-width:1" />
               <path d="M129, 641.5 L137, 644.5 L129, 647.5 Z" 
        fill="#333" />
            </g>
            <g>
               <path d="M117, 571 L117 724 Q117 728
                121 728
                L129 728 "
        style="fill:none; stroke:#444; stroke-width:1" />
               <path d="M129, 725 L137, 728 L129, 731 Z" 
        fill="#333" />
            </g>
            <g>
               <path d="M167, 758 L167 779 Q167 783
                171 783
                L179 783 "
        style="fill:none; stroke:#444; stroke-width:1" />
               <path d="M179, 780 L187, 783 L179, 786 Z" 
        fill="#333" />
            </g>
            <g>
               <path d="M167, 758 L167 842.5 Q167 846.5
                171 846.5
                L179 846.5 "
        style="fill:none; stroke:#444; stroke-width:1" />
               <path d="M179, 843.5 L187, 846.5 L179, 849.5 Z" 
        fill="#333" />
            </g>
            <g>
               <path d="M217, 876.5 L217 897.5 Q217 901.5
                221 901.5
                L229 901.5 "
        style="fill:none; stroke:#444; stroke-width:1" />
               <path d="M229, 898.5 L237, 901.5 L229, 904.5 Z" 
        fill="#333" />
            </g>
            <g>
               <path d="M167, 758 L167 962.5 Q167 966.5
                171 966.5
                L179 966.5 "
        style="fill:none; stroke:#444; stroke-width:1" />
               <path d="M179, 963.5 L187, 966.5 L179, 969.5 Z" 
        fill="#333" />
            </g>
            <g>
               <path d="M217, 996.5 L217 1017.5 Q217 1021.5
                221 1021.5
                L229 1021.5 "
        style="fill:none; stroke:#444; stroke-width:1" />
               <path d="M229, 1018.5 L237, 1021.5 L229, 1024.5 Z" 
        fill="#333" />
            </g>
            <g>
               <path d="M347.2, 966.5 L383.2 966.5  Q387.2 966.5
                387.2 970.5
                L387.2 1013.5 Q387.2 1021.5
                391.2 1021.5
                L399.2 1021.5 "
        style="fill:none; stroke:#444; stroke-width:1" />
               <path d="M399.2, 1018.5 L407.2, 1021.5 L399.2, 1024.5 Z" 
        fill="#333" />
            </g>
            <g>
               <path d="M460.59999999999997, 1021.5 L476.59999999999997 1021.5  Q480.59999999999997 1021.5
                480.59999999999997 1017.5
                L480.59999999999997 686 Q480.59999999999997 678
                476.59999999999997 678
                L175 678  Q167 678
                167 682
                L167 690"
        style="fill:none; stroke:#444; stroke-width:1" />
               <path d="M164, 690 L167, 698 L170, 690 Z" 
        fill="#333" />
            </g>
            <g>
               <path d="M460.59999999999997, 1021.5 L476.59999999999997 1021.5  Q480.59999999999997 1021.5
                480.59999999999997 1017.5
                L480.59999999999997 499 Q480.59999999999997 491
                476.59999999999997 491
                L125 491  Q117 491
                117 495
                L117 503"
        style="fill:none; stroke:#444; stroke-width:1" />
               <path d="M114, 503 L117, 511 L120, 503 Z" 
        fill="#333" />
            </g>
            <g>
               <path d="M68.5, 110 L68.5 1067.5 Q68.5 1071.5
                72.5 1071.5
                L79 1071.5 "
        style="fill:none; stroke:#444; stroke-width:1" />
               <path d="M79, 1068.5 L87, 1071.5 L79, 1074.5 Z" 
        fill="#333" />
            </g>
            </svg>