<!DOCTYPE svg PUBLIC "-//W3C//DTD SVG 1.1//EN" "http://www.w3.org/Graphics/SVG/1.1/DTD/svg11.dtd">
                <svg xmlns="http://www.w3.org/2000/svg" xmlns:xlink="http://www.w3.org/1999/xlink" 
                width="623" height="1190">
                
            <g>
                <rect x="50" y="80"
            width="245" height="30"
            style="fill:#a5d6a7; stroke:#444; stroke-width:1" />
                    
                <line x1="60" y1="80" x2="60" y2="110"
                style="fill:#a5d6a7; stroke:#444; stroke-width:1" />
                <line x1="285" y1="80" x2="285" y2="110"
                style="fill:#a5d6a7; stroke:#444; stroke-width:1" />
             
                <title>findMin2 = function(nums)</title>
            <text x="75" y="100"
                font-family="monospace" font-size="13" fill="#222">
                <tspan x="75" y="100">findMin2 = function(nums)</tspan>
            </text>
                
            </g>
                <g>
                   <rect x="87" y="128.5"
            width="170.4" height="30"
            rx="3" ry="3"
            style="fill:#90caf9; stroke:#444; stroke-width:1" />
                   <title>var min = Infinity</title>
            <text x="102" y="148.5"
                font-family="monospace" font-size="13" fill="#222">
                <tspan x="102" y="148.5">var min = Infinity</tspan>
            </text>
                   
                   
                </g><g>

            <rect x="117" y="212"
            width="177" height="30"
            rx="3" ry="3"
            style="fill:#b39ddb; stroke:#444; stroke-width:1" />
            <polygon points="87,227 117,197 147,227 117,257"
            style="fill:#b39ddb; stroke:#444; stroke-width:1" />
                
            <title>i &lt; nums.length</title>
            <text x="162" y="232"
                font-family="monospace" font-size="13" fill="#222">
                <tspan x="162" y="232">i &lt; nums.length</tspan>
            </text>
            
            <text x="105.3" y="232"
        font-family="monospace" font-size="13" fill="#222">for</text>
        </g>
                <g>
                   <rect x="137" y="267"
            width="53.4" height="30"
            rx="3" ry="3"
            style="fill:#90caf9; stroke:#444; stroke-width:1" />
                   <title>i++</title>
            <text x="152" y="287"
                font-family="monospace" font-size="13" fill="#222">
                <tspan x="152" y="287">i++</tspan>
            </text>
                   
                   
                </g><g>
            <rect x="167" y="330.5"
            width="239.39999999999998" height="30"
            rx="3" ry="3"
            style="fill:#ce93d8; stroke:#444; stroke-width:1" />                
            <polygon points="137,345.5 167,315.5 197,345.5 167,375.5"
            style="fill:#ce93d8; stroke:#444; stroke-width:1" />
            <title>(nums[i] &gt; nums[i + 1])</title>
            <text x="212" y="350.5"
                font-family="monospace" font-size="13" fill="#222">
                <tspan x="212" y="350.5">(nums[i] &gt; nums[i + 1])</tspan>
            </text>
            
            <text x="159.2" y="350.5"
        font-family="monospace" font-size="13" fill="#222">if</text> <text x="174.8" y="377.45"
        font-family="monospace" font-size="13" fill="#222">+</text> 
        </g>
            <g>
                <rect x="187" y="385.5"
            width="170.4" height="30"
            rx="3" ry="3"
            style="fill:#90caf9; stroke:#444; stroke-width:1" />
                
                <line x1="357.4" y1="395.5" x2="362.4" y2="395.5"
                style="fill:#a5d6a7; stroke:#444; stroke-width:1" />
                
                <line x1="357.4" y1="405.5" x2="362.4" y2="405.5"
                style="fill:#a5d6a7; stroke:#444; stroke-width:1" />

                <path d="M362.4, 389.5 L378.4, 400.5 L362.4, 411.5 Z" 
        fill="#a5d6a7" stroke="#444" stroke-width="1" />
                             
                <title>return nums[i + 1]</title>
            <text x="202" y="405.5"
                font-family="monospace" font-size="13" fill="#222">
                <tspan x="202" y="405.5">return nums[i + 1]</tspan>
            </text>
                
            </g><g>
            <rect x="167" y="450.5"
            width="177" height="30"
            rx="3" ry="3"
            style="fill:#ce93d8; stroke:#444; stroke-width:1" />                
            <polygon points="137,465.5 167,435.5 197,465.5 167,495.5"
            style="fill:#ce93d8; stroke:#444; stroke-width:1" />
            <title>(nums[i] &lt; min)</title>
            <text x="212" y="470.5"
                font-family="monospace" font-size="13" fill="#222">
                <tspan x="212" y="470.5">(nums[i] &lt; min)</tspan>
            </text>
            
            <text x="159.2" y="470.5"
        font-family="monospace" font-size="13" fill="#222">if</text> <text x="174.8" y="497.45"
        font-family="monospace" font-size="13" fill="#222">+</text> 
        </g>
                <g>
                   <rect x="187" y="505.5"
            width="131.39999999999998" height="30"
            rx="3" ry="3"
            style="fill:#90caf9; stroke:#444; stroke-width:1" />
                   <title>min = nums[i]</title>
            <text x="202" y="525.5"
                font-family="monospace" font-size="13" fill="#222">
                <tspan x="202" y="525.5">min = nums[i]</tspan>
            </text>
                   
                   
                </g>
            <g>
                <rect x="87" y="555.5"
            width="108" height="30"
            rx="3" ry="3"
            style="fill:#90caf9; stroke:#444; stroke-width:1" />
                
                <line x1="195" y1="565.5" x2="200" y2="565.5"
                style="fill:#a5d6a7; stroke:#444; stroke-width:1" />
                
                <line x1="195" y1="575.5" x2="200" y2="575.5"
                style="fill:#a5d6a7; stroke:#444; stroke-width:1" />

                <path d="M200, 559.5 L216, 570.5 L200, 581.5 Z" 
        fill="#a5d6a7" stroke="#444" stroke-width="1" />
                             
                <title>return min</title>
            <text x="102" y="575.5"
                font-family="monospace" font-size="13" fill="#222">
                <tspan x="102" y="575.5">return min</tspan>
            </text>
                
            </g>
            <g>
                <rect x="50" y="619"
            width="245" height="30"
            style="fill:#a5d6a7; stroke:#444; stroke-width:1" />
                    
                <line x1="60" y1="619" x2="60" y2="649"
                style="fill:#a5d6a7; stroke:#444; stroke-width:1" />
                <line x1="285" y1="619" x2="285" y2="649"
                style="fill:#a5d6a7; stroke:#444; stroke-width:1" />
             
                <title>findMin3 = function(nums)</title>
            <text x="75" y="639"
                font-family="monospace" font-size="13" fill="#222">
                <tspan x="75" y="639">findMin3 = function(nums)</tspan>
            </text>
                
            </g>
                <g>
                   <rect x="87" y="667.5"
            width="123.6" height="30"
            rx="3" ry="3"
            style="fill:#90caf9; stroke:#444; stroke-width:1" />
                   <title>let left = 0</title>
            <text x="102" y="687.5"
                font-family="monospace" font-size="13" fill="#222">
                <tspan x="102" y="687.5">let left = 0</tspan>
            </text>
                   
                   
                </g>
                <g>
                   <rect x="87" y="716"
            width="240.6" height="30"
            rx="3" ry="3"
            style="fill:#90caf9; stroke:#444; stroke-width:1" />
                   <title>let right = nums.length - 1</title>
            <text x="102" y="736"
                font-family="monospace" font-size="13" fill="#222">
                <tspan x="102" y="736">let right = nums.length - 1</tspan>
            </text>
                   
                   
                </g><g>

            <rect x="117" y="799.5"
            width="184.8" height="30"
            rx="3" ry="3"
            style="fill:#b39ddb; stroke:#444; stroke-width:1" />
            <polygon points="87,814.5 117,784.5 147,814.5 117,844.5"
            style="fill:#b39ddb; stroke:#444; stroke-width:1" />
                
            <title>right - left &gt; 1</title>
            <text x="162" y="819.5"
                font-family="monospace" font-size="13" fill="#222">
                <tspan x="162" y="819.5">right - left &gt; 1</tspan>
            </text>
            
            <text x="97.5" y="819.5"
        font-family="monospace" font-size="13" fill="#222">while</text>
        </g>
                <g>
                   <rect x="137" y="854.5"
            width="310.8" height="30"
            rx="3" ry="3"
            style="fill:#90caf9; stroke:#444; stroke-width:1" />
                   <title>let mid = left + (right - left &gt;&gt; 1)</title>
            <text x="152" y="874.5"
                font-family="monospace" font-size="13" fill="#222">
                <tspan x="152" y="874.5">let mid = left + (right - left &gt;&gt; 1)</tspan>
            </text>
                   
                   
                </g><g>
            <rect x="167" y="918"
            width="255" height="30"
            rx="3" ry="3"
            style="fill:#ce93d8; stroke:#444; stroke-width:1" />                
            <polygon points="137,933 167,903 197,933 167,963"
            style="fill:#ce93d8; stroke:#444; stroke-width:1" />
            <title>(nums[mid] &gt; nums[right])</title>
            <text x="212" y="938"
                font-family="monospace" font-size="13" fill="#222">
                <tspan x="212" y="938">(nums[mid] &gt; nums[right])</tspan>
            </text>
            
            <text x="159.2" y="938"
        font-family="monospace" font-size="13" fill="#222">if</text> <text x="174.8" y="964.95"
        font-family="monospace" font-size="13" fill="#222">+</text> <text x="425.9" y="931.05"
        font-family="monospace" font-size="13" fill="#222">-</text>
        </g>
                <g>
                   <rect x="187" y="973"
            width="108" height="30"
            rx="3" ry="3"
            style="fill:#90caf9; stroke:#444; stroke-width:1" />
                   <title>left = mid</title>
            <text x="202" y="993"
                font-family="monospace" font-size="13" fill="#222">
                <tspan x="202" y="993">left = mid</tspan>
            </text>
                   
                   
                </g>
                <g>
                   <rect x="482" y="973"
            width="115.8" height="30"
            rx="3" ry="3"
            style="fill:#90caf9; stroke:#444; stroke-width:1" />
                   <title>right = mid</title>
            <text x="497" y="993"
                font-family="monospace" font-size="13" fill="#222">
                <tspan x="497" y="993">right = mid</tspan>
            </text>
                   
                   
                </g>
            <g>
                <rect x="87" y="1023"
            width="342" height="30"
            rx="3" ry="3"
            style="fill:#90caf9; stroke:#444; stroke-width:1" />
                
                <line x1="429" y1="1033" x2="434" y2="1033"
                style="fill:#a5d6a7; stroke:#444; stroke-width:1" />
                
                <line x1="429" y1="1043" x2="434" y2="1043"
                style="fill:#a5d6a7; stroke:#444; stroke-width:1" />

                <path d="M434, 1027 L450, 1038 L434, 1049 Z" 
        fill="#a5d6a7" stroke="#444" stroke-width="1" />
                             
                <title>return Math.min(nums[left], nums[right])</title>
            <text x="102" y="1043"
                font-family="monospace" font-size="13" fill="#222">
                <tspan x="102" y="1043">return Math.min(nums[left], nums[right])</tspan>
            </text>
                
            </g>
            <g>
                <rect x="50" y="1086.5"
            width="237.2" height="30"
            style="fill:#a5d6a7; stroke:#444; stroke-width:1" />
                    
                <line x1="60" y1="1086.5" x2="60" y2="1116.5"
                style="fill:#a5d6a7; stroke:#444; stroke-width:1" />
                <line x1="277.2" y1="1086.5" x2="277.2" y2="1116.5"
                style="fill:#a5d6a7; stroke:#444; stroke-width:1" />
             
                <title>findMin = function(nums)</title>
            <text x="75" y="1106.5"
                font-family="monospace" font-size="13" fill="#222">
                <tspan x="75" y="1106.5">findMin = function(nums)</tspan>
            </text>
                
            </g>
            <g>
                <rect x="87" y="1135"
            width="217.2" height="30"
            rx="3" ry="3"
            style="fill:#90caf9; stroke:#444; stroke-width:1" />
                
                <line x1="304.2" y1="1145" x2="309.2" y2="1145"
                style="fill:#a5d6a7; stroke:#444; stroke-width:1" />
                
                <line x1="304.2" y1="1155" x2="309.2" y2="1155"
                style="fill:#a5d6a7; stroke:#444; stroke-width:1" />

                <path d="M309.2, 1139 L325.2, 1150 L309.2, 1161 Z" 
        fill="#a5d6a7" stroke="#444" stroke-width="1" />
                             
                <title>return Math.min(...nums)</title>
            <text x="102" y="1155"
                font-family="monospace" font-size="13" fill="#222">
                <tspan x="102" y="1155">return Math.min(...nums)</tspan>
            </text>
                
            </g>
            <g>
               <rect x="25" y="13.75"
            width="216.6" height="24"
            style="fill:#fff59d; stroke:#444; stroke-width:1" />
               <circle cx="25" cy="25" r="15"
        style="fill:#fff59d; stroke:#444; stroke-width:1" />
               <title>Program: source module</title>
            <text x="55" y="30"
                font-family="monospace" font-size="13" fill="#222">
                <tspan x="55" y="30">Program: source module</tspan>
            </text>
            </g>
            <g>
               <path d="M25, 40 L25 91 Q25 95
                29 95
                L42 95 "
        style="fill:none; stroke:#444; stroke-width:1" />
               <path d="M42, 92 L50, 95 L42, 98 Z" 
        fill="#333" />
            </g>
            <g>
               <path d="M68.5, 110 L68.5 139.5 Q68.5 143.5
                72.5 143.5
                L79 143.5 "
        style="fill:none; stroke:#444; stroke-width:1" />
               <path d="M79, 140.5 L87, 143.5 L79, 146.5 Z" 
        fill="#333" />
            </g>
            <g>
               <path d="M68.5, 110 L68.5 223 Q68.5 227
                72.5 227
                L79 227 "
        style="fill:none; stroke:#444; stroke-width:1" />
               <path d="M79, 224 L87, 227 L79, 230 Z" 
        fill="#333" />
            </g>
            <g>
               <path d="M117, 257 L117 278 Q117 282
                121 282
                L129 282 "
        style="fill:none; stroke:#444; stroke-width:1" />
               <path d="M129, 279 L137, 282 L129, 285 Z" 
        fill="#333" />
            </g>
            <g>
               <path d="M117, 257 L117 341.5 Q117 345.5
                121 345.5
                L129 345.5 "
        style="fill:none; stroke:#444; stroke-width:1" />
               <path d="M129, 342.5 L137, 345.5 L129, 348.5 Z" 
        fill="#333" />
            </g>
            <g>
               <path d="M167, 375.5 L167 396.5 Q167 400.5
                171 400.5
                L179 400.5 "
        style="fill:none; stroke:#444; stroke-width:1" />
               <path d="M179, 397.5 L187, 400.5 L179, 403.5 Z" 
        fill="#333" />
            </g>
            <g>
               <path d="M117, 257 L117 461.5 Q117 465.5
                121 465.5
                L129 465.5 "
        style="fill:none; stroke:#444; stroke-width:1" />
               <path d="M129, 462.5 L137, 465.5 L129, 468.5 Z" 
        fill="#333" />
            </g>
            <g>
               <path d="M167, 495.5 L167 516.5 Q167 520.5
                171 520.5
                L179 520.5 "
        style="fill:none; stroke:#444; stroke-width:1" />
               <path d="M179, 517.5 L187, 520.5 L179, 523.5 Z" 
        fill="#333" />
            </g>
            <g>
               <path d="M318.4, 520.5 L422.4 520.5  Q426.4 520.5
                426.4 516.5
                L426.4 185 Q426.4 177
                422.4 177
                L125 177  Q117 177
                117 181
                L117 189"
        style="fill:none; stroke:#444; stroke-width:1" />
               <path d="M114, 189 L117, 197 L120, 189 Z" 
        fill="#333" />
            </g>
            <g>
               <path d="M68.5, 110 L68.5 566.5 Q68.5 570.5
                72.5 570.5
                L79 570.5 "
        style="fill:none; stroke:#444; stroke-width:1" />
               <path d="M79, 567.5 L87, 570.5 L79, 573.5 Z" 
        fill="#333" />
            </g>
            <g>
               <path d="M25, 40 L25 630 Q25 634
                29 634
                L42 634 "
        style="fill:none; stroke:#444; stroke-width:1" />
               <path d="M42, 631 L50, 634 L42, 637 Z" 
        fill="#333" />
            </g>
            <g>
               <path d="M68.5, 649 L68.5 678.5 Q68.5 682.5
                72.5 682.5
                L79 682.5 "
        style="fill:none; stroke:#444; stroke-width:1" />
               <path d="M79, 679.5 L87, 682.5 L79, 685.5 Z" 
        fill="#333" />
            </g>
            <g>
               <path d="M68.5, 649 L68.5 727 Q68.5 731
                72.5 731
                L79 731 "
        style="fill:none; stroke:#444; stroke-width:1" />
               <path d="M79, 728 L87, 731 L79, 734 Z" 
        fill="#333" />
            </g>
            <g>
               <path d="M68.5, 649 L68.5 810.5 Q68.5 814.5
                72.5 814.5
                L79 814.5 "
        style="fill:none; stroke:#444; stroke-width:1" />
               <path d="M79, 811.5 L87, 814.5 L79, 817.5 Z" 
        fill="#333" />
            </g>
            <g>
               <path d="M117, 844.5 L117 865.5 Q117 869.5
                121 869.5
                L129 869.5 "
        style="fill:none; stroke:#444; stroke-width:1" />
               <path d="M129, 866.5 L137, 869.5 L129, 872.5 Z" 
        fill="#333" />
            </g>
            <g>
               <path d="M117, 844.5 L117 929 Q117 933
                121 933
                L129 933 "
        style="fill:none; stroke:#444; stroke-width:1" />
               <path d="M129, 930 L137, 933 L129, 936 Z" 
        fill="#333" />
            </g>
            <g>
               <path d="M167, 963 L167 984 Q167 988
                171 988
                L179 988 "
        style="fill:none; stroke:#444; stroke-width:1" />
               <path d="M179, 985 L187, 988 L179, 991 Z" 
        fill="#333" />
            </g>
            <g>
               <path d="M422, 933 L458 933  Q462 933
                462 937
                L462 980 Q462 988
                466 988
                L474 988 "
        style="fill:none; stroke:#444; stroke-width:1" />
               <path d="M474, 985 L482, 988 L474, 991 Z" 
        fill="#333" />
            </g>
            <g>
               <path d="M597.8, 988 L613.8 988  Q617.8 988
                617.8 984
                L617.8 772.5 Q617.8 764.5
                613.8 764.5
                L125 764.5  Q117 764.5
                117 768.5
                L117 776.5"
        style="fill:none; stroke:#444; stroke-width:1" />
               <path d="M114, 776.5 L117, 784.5 L120, 776.5 Z" 
        fill="#333" />
            </g>
            <g>
               <path d="M68.5, 649 L68.5 1034 Q68.5 1038
                72.5 1038
                L79 1038 "
        style="fill:none; stroke:#444; stroke-width:1" />
               <path d="M79, 1035 L87, 1038 L79, 1041 Z" 
        fill="#333" />
            </g>
            <g>
               <path d="M25, 40 L25 1097.5 Q25 1101.5
                29 1101.5
                L42 1101.5 "
        style="fill:none; stroke:#444; stroke-width:1" />
               <path d="M42, 1098.5 L50, 1101.5 L42, 1104.5 Z" 
        fill="#333" />
            </g>
            <g>
               <path d="M68.5, 1116.5 L68.5 1146 Q68.5 1150
                72.5 1150
                L79 1150 "
        style="fill:none; stroke:#444; stroke-width:1" />
               <path d="M79, 1147 L87, 1150 L79, 1153 Z" 
        fill="#333" />
            </g>
            </svg>