<!DOCTYPE svg PUBLIC "-//W3C//DTD SVG 1.1//EN" "http://www.w3.org/Graphics/SVG/1.1/DTD/svg11.dtd">
                <svg xmlns="http://www.w3.org/2000/svg" xmlns:xlink="http://www.w3.org/1999/xlink" 
                width="678" height="992">
                
            <g>
                <rect x="50" y="80"
            width="260.6" height="30"
            style="fill:#a5d6a7; stroke:#444; stroke-width:1" />
                    
                <line x1="60" y1="80" x2="60" y2="110"
                style="fill:#a5d6a7; stroke:#444; stroke-width:1" />
                <line x1="300.6" y1="80" x2="300.6" y2="110"
                style="fill:#a5d6a7; stroke:#444; stroke-width:1" />
             
                <title>firstUniqChar = function(s)</title>
            <text x="75" y="100"
                font-family="monospace" font-size="13" fill="#222">
                <tspan x="75" y="100">firstUniqChar = function(s)</tspan>
            </text>
                
            </g>
                <g>
                   <rect x="87" y="128.5"
            width="131.39999999999998" height="30"
            rx="3" ry="3"
            style="fill:#90caf9; stroke:#444; stroke-width:1" />
                   <title>var map = {*}</title>
            <text x="102" y="148.5"
                font-family="monospace" font-size="13" fill="#222">
                <tspan x="102" y="148.5">var map = {*}</tspan>
            </text>
                   
                   
                </g><g>

            <rect x="117" y="212"
            width="153.6" height="30"
            rx="3" ry="3"
            style="fill:#b39ddb; stroke:#444; stroke-width:1" />
            <polygon points="87,227 117,197 147,227 117,257"
            style="fill:#b39ddb; stroke:#444; stroke-width:1" />
                
            <title>i &lt; s.length</title>
            <text x="162" y="232"
                font-family="monospace" font-size="13" fill="#222">
                <tspan x="162" y="232">i &lt; s.length</tspan>
            </text>
            
            <text x="105.3" y="232"
        font-family="monospace" font-size="13" fill="#222">for</text>
        </g>
                <g>
                   <rect x="137" y="267"
            width="53.4" height="30"
            rx="3" ry="3"
            style="fill:#90caf9; stroke:#444; stroke-width:1" />
                   <title>i++</title>
            <text x="152" y="287"
                font-family="monospace" font-size="13" fill="#222">
                <tspan x="152" y="287">i++</tspan>
            </text>
                   
                   
                </g>
                <g>
                   <rect x="137" y="315.5"
            width="139.2" height="30"
            rx="3" ry="3"
            style="fill:#90caf9; stroke:#444; stroke-width:1" />
                   <title>let key = s[i]</title>
            <text x="152" y="335.5"
                font-family="monospace" font-size="13" fill="#222">
                <tspan x="152" y="335.5">let key = s[i]</tspan>
            </text>
                   
                   
                </g><g>
            <rect x="167" y="379"
            width="247.2" height="30"
            rx="3" ry="3"
            style="fill:#ce93d8; stroke:#444; stroke-width:1" />                
            <polygon points="137,394 167,364 197,394 167,424"
            style="fill:#ce93d8; stroke:#444; stroke-width:1" />
            <title>(map[key] === undefined)</title>
            <text x="212" y="399"
                font-family="monospace" font-size="13" fill="#222">
                <tspan x="212" y="399">(map[key] === undefined)</tspan>
            </text>
            
            <text x="159.2" y="399"
        font-family="monospace" font-size="13" fill="#222">if</text> <text x="174.8" y="425.95"
        font-family="monospace" font-size="13" fill="#222">+</text> <text x="418.09999999999997" y="392.05"
        font-family="monospace" font-size="13" fill="#222">-</text>
        </g>
                <g>
                   <rect x="187" y="434"
            width="162.6" height="30"
            rx="3" ry="3"
            style="fill:#90caf9; stroke:#444; stroke-width:1" />
                   <title>map[key] = [i, 1]</title>
            <text x="202" y="454"
                font-family="monospace" font-size="13" fill="#222">
                <tspan x="202" y="454">map[key] = [i, 1]</tspan>
            </text>
                   
                   
                </g>
                <g>
                   <rect x="474.2" y="434"
            width="154.8" height="30"
            rx="3" ry="3"
            style="fill:#90caf9; stroke:#444; stroke-width:1" />
                   <title>map[key][1] += 1</title>
            <text x="489.2" y="454"
                font-family="monospace" font-size="13" fill="#222">
                <tspan x="489.2" y="454">map[key][1] += 1</tspan>
            </text>
                   
                   
                </g>
                <g>
                   <rect x="474.2" y="482.5"
            width="178.2" height="30"
            rx="2" ry="2"
            style="fill:#C5E1A5; stroke:#444; stroke-width:1" />
                   <title>console.log(key, i)</title>
            <text x="489.2" y="502.5"
                font-family="monospace" font-size="13" fill="#222">
                <tspan x="489.2" y="502.5">console.log(key, i)</tspan>
            </text>
                   
                   
                </g><g>

            <rect x="117" y="567.5"
            width="130.2" height="30"
            rx="3" ry="3"
            style="fill:#b39ddb; stroke:#444; stroke-width:1" />
            <polygon points="87,582.5 117,552.5 147,582.5 117,612.5"
            style="fill:#b39ddb; stroke:#444; stroke-width:1" />
                
            <title> k in map</title>
            <text x="162" y="587.5"
                font-family="monospace" font-size="13" fill="#222">
                <tspan x="162" y="587.5"> k in map</tspan>
            </text>
            
            <text x="105.3" y="587.5"
        font-family="monospace" font-size="13" fill="#222">for</text>
        </g>
                <g>
                   <rect x="137" y="622.5"
            width="201.6" height="30"
            rx="2" ry="2"
            style="fill:#C5E1A5; stroke:#444; stroke-width:1" />
                   <title>console.log(k, map[k])</title>
            <text x="152" y="642.5"
                font-family="monospace" font-size="13" fill="#222">
                <tspan x="152" y="642.5">console.log(k, map[k])</tspan>
            </text>
                   
                   
                </g><g>
            <rect x="167" y="686"
            width="192.6" height="30"
            rx="3" ry="3"
            style="fill:#ce93d8; stroke:#444; stroke-width:1" />                
            <polygon points="137,701 167,671 197,701 167,731"
            style="fill:#ce93d8; stroke:#444; stroke-width:1" />
            <title>(map[k][1] === 1)</title>
            <text x="212" y="706"
                font-family="monospace" font-size="13" fill="#222">
                <tspan x="212" y="706">(map[k][1] === 1)</tspan>
            </text>
            
            <text x="159.2" y="706"
        font-family="monospace" font-size="13" fill="#222">if</text> <text x="174.8" y="732.95"
        font-family="monospace" font-size="13" fill="#222">+</text> 
        </g>
            <g>
                <rect x="187" y="741"
            width="154.8" height="30"
            rx="3" ry="3"
            style="fill:#90caf9; stroke:#444; stroke-width:1" />
                
                <line x1="341.8" y1="751" x2="346.8" y2="751"
                style="fill:#a5d6a7; stroke:#444; stroke-width:1" />
                
                <line x1="341.8" y1="761" x2="346.8" y2="761"
                style="fill:#a5d6a7; stroke:#444; stroke-width:1" />

                <path d="M346.8, 745 L362.8, 756 L346.8, 767 Z" 
        fill="#a5d6a7" stroke="#444" stroke-width="1" />
                             
                <title>return map[k][0]</title>
            <text x="202" y="761"
                font-family="monospace" font-size="13" fill="#222">
                <tspan x="202" y="761">return map[k][0]</tspan>
            </text>
                
            </g>
            <g>
                <rect x="87" y="791"
            width="100.2" height="30"
            rx="3" ry="3"
            style="fill:#90caf9; stroke:#444; stroke-width:1" />
                
                <line x1="187.2" y1="801" x2="192.2" y2="801"
                style="fill:#a5d6a7; stroke:#444; stroke-width:1" />
                
                <line x1="187.2" y1="811" x2="192.2" y2="811"
                style="fill:#a5d6a7; stroke:#444; stroke-width:1" />

                <path d="M192.2, 795 L208.2, 806 L192.2, 817 Z" 
        fill="#a5d6a7" stroke="#444" stroke-width="1" />
                             
                <title>return -1</title>
            <text x="102" y="811"
                font-family="monospace" font-size="13" fill="#222">
                <tspan x="102" y="811">return -1</tspan>
            </text>
                
            </g>
                <g>
                   <rect x="50" y="839.5"
            width="287.4" height="30"
            rx="2" ry="2"
            style="fill:#C5E1A5; stroke:#444; stroke-width:1" />
                   <title>console.log(firstUniqChar(&apos;abc&apos;))</title>
            <text x="65" y="859.5"
                font-family="monospace" font-size="13" fill="#222">
                <tspan x="65" y="859.5">console.log(firstUniqChar(&apos;abc&apos;))</tspan>
            </text>
                   
                   
                </g>
                <g>
                   <rect x="50" y="888"
            width="287.4" height="30"
            rx="2" ry="2"
            style="fill:#C5E1A5; stroke:#444; stroke-width:1" />
                   <title>console.log(firstUniqChar(&apos;aba&apos;))</title>
            <text x="65" y="908"
                font-family="monospace" font-size="13" fill="#222">
                <tspan x="65" y="908">console.log(firstUniqChar(&apos;aba&apos;))</tspan>
            </text>
                   
                   
                </g>
                <g>
                   <rect x="50" y="936.5"
            width="357.59999999999997" height="30"
            rx="2" ry="2"
            style="fill:#C5E1A5; stroke:#444; stroke-width:1" />
                   <title>console.log(firstUniqChar(&apos;loveleetcode&apos;))</title>
            <text x="65" y="956.5"
                font-family="monospace" font-size="13" fill="#222">
                <tspan x="65" y="956.5">console.log(firstUniqChar(&apos;loveleetcode&apos;))</tspan>
            </text>
                   
                   
                </g>
            <g>
               <rect x="25" y="13.75"
            width="216.6" height="24"
            style="fill:#fff59d; stroke:#444; stroke-width:1" />
               <circle cx="25" cy="25" r="15"
        style="fill:#fff59d; stroke:#444; stroke-width:1" />
               <title>Program: source module</title>
            <text x="55" y="30"
                font-family="monospace" font-size="13" fill="#222">
                <tspan x="55" y="30">Program: source module</tspan>
            </text>
            </g>
            <g>
               <path d="M25, 40 L25 91 Q25 95
                29 95
                L42 95 "
        style="fill:none; stroke:#444; stroke-width:1" />
               <path d="M42, 92 L50, 95 L42, 98 Z" 
        fill="#333" />
            </g>
            <g>
               <path d="M68.5, 110 L68.5 139.5 Q68.5 143.5
                72.5 143.5
                L79 143.5 "
        style="fill:none; stroke:#444; stroke-width:1" />
               <path d="M79, 140.5 L87, 143.5 L79, 146.5 Z" 
        fill="#333" />
            </g>
            <g>
               <path d="M68.5, 110 L68.5 223 Q68.5 227
                72.5 227
                L79 227 "
        style="fill:none; stroke:#444; stroke-width:1" />
               <path d="M79, 224 L87, 227 L79, 230 Z" 
        fill="#333" />
            </g>
            <g>
               <path d="M117, 257 L117 278 Q117 282
                121 282
                L129 282 "
        style="fill:none; stroke:#444; stroke-width:1" />
               <path d="M129, 279 L137, 282 L129, 285 Z" 
        fill="#333" />
            </g>
            <g>
               <path d="M117, 257 L117 326.5 Q117 330.5
                121 330.5
                L129 330.5 "
        style="fill:none; stroke:#444; stroke-width:1" />
               <path d="M129, 327.5 L137, 330.5 L129, 333.5 Z" 
        fill="#333" />
            </g>
            <g>
               <path d="M117, 257 L117 390 Q117 394
                121 394
                L129 394 "
        style="fill:none; stroke:#444; stroke-width:1" />
               <path d="M129, 391 L137, 394 L129, 397 Z" 
        fill="#333" />
            </g>
            <g>
               <path d="M167, 424 L167 445 Q167 449
                171 449
                L179 449 "
        style="fill:none; stroke:#444; stroke-width:1" />
               <path d="M179, 446 L187, 449 L179, 452 Z" 
        fill="#333" />
            </g>
            <g>
               <path d="M414.2, 394 L450.2 394  Q454.2 394
                454.2 398
                L454.2 441 Q454.2 449
                458.2 449
                L466.2 449 "
        style="fill:none; stroke:#444; stroke-width:1" />
               <path d="M466.2, 446 L474.2, 449 L466.2, 452 Z" 
        fill="#333" />
            </g>
            <g>
               <path d="M414.2, 394 L450.2 394  Q454.2 394
                454.2 398
                L454.2 489.5 Q454.2 497.5
                458.2 497.5
                L466.2 497.5 "
        style="fill:none; stroke:#444; stroke-width:1" />
               <path d="M466.2, 494.5 L474.2, 497.5 L466.2, 500.5 Z" 
        fill="#333" />
            </g>
            <g>
               <path d="M652.4, 497.5 L668.4 497.5  Q672.4 497.5
                672.4 493.5
                L672.4 185 Q672.4 177
                668.4 177
                L125 177  Q117 177
                117 181
                L117 189"
        style="fill:none; stroke:#444; stroke-width:1" />
               <path d="M114, 189 L117, 197 L120, 189 Z" 
        fill="#333" />
            </g>
            <g>
               <path d="M68.5, 110 L68.5 578.5 Q68.5 582.5
                72.5 582.5
                L79 582.5 "
        style="fill:none; stroke:#444; stroke-width:1" />
               <path d="M79, 579.5 L87, 582.5 L79, 585.5 Z" 
        fill="#333" />
            </g>
            <g>
               <path d="M117, 612.5 L117 633.5 Q117 637.5
                121 637.5
                L129 637.5 "
        style="fill:none; stroke:#444; stroke-width:1" />
               <path d="M129, 634.5 L137, 637.5 L129, 640.5 Z" 
        fill="#333" />
            </g>
            <g>
               <path d="M117, 612.5 L117 697 Q117 701
                121 701
                L129 701 "
        style="fill:none; stroke:#444; stroke-width:1" />
               <path d="M129, 698 L137, 701 L129, 704 Z" 
        fill="#333" />
            </g>
            <g>
               <path d="M167, 731 L167 752 Q167 756
                171 756
                L179 756 "
        style="fill:none; stroke:#444; stroke-width:1" />
               <path d="M179, 753 L187, 756 L179, 759 Z" 
        fill="#333" />
            </g>
            <g>
               <path d="M362.8, 756 L378.8 756  Q382.8 756
                382.8 752
                L382.8 540.5 Q382.8 532.5
                378.8 532.5
                L125 532.5  Q117 532.5
                117 536.5
                L117 544.5"
        style="fill:none; stroke:#444; stroke-width:1" />
               <path d="M114, 544.5 L117, 552.5 L120, 544.5 Z" 
        fill="#333" />
            </g>
            <g>
               <path d="M68.5, 110 L68.5 802 Q68.5 806
                72.5 806
                L79 806 "
        style="fill:none; stroke:#444; stroke-width:1" />
               <path d="M79, 803 L87, 806 L79, 809 Z" 
        fill="#333" />
            </g>
            <g>
               <path d="M25, 40 L25 850.5 Q25 854.5
                29 854.5
                L42 854.5 "
        style="fill:none; stroke:#444; stroke-width:1" />
               <path d="M42, 851.5 L50, 854.5 L42, 857.5 Z" 
        fill="#333" />
            </g>
            <g>
               <path d="M25, 40 L25 899 Q25 903
                29 903
                L42 903 "
        style="fill:none; stroke:#444; stroke-width:1" />
               <path d="M42, 900 L50, 903 L42, 906 Z" 
        fill="#333" />
            </g>
            <g>
               <path d="M25, 40 L25 947.5 Q25 951.5
                29 951.5
                L42 951.5 "
        style="fill:none; stroke:#444; stroke-width:1" />
               <path d="M42, 948.5 L50, 951.5 L42, 954.5 Z" 
        fill="#333" />
            </g>
            </svg>