<!DOCTYPE svg PUBLIC "-//W3C//DTD SVG 1.1//EN" "http://www.w3.org/Graphics/SVG/1.1/DTD/svg11.dtd">
                <svg xmlns="http://www.w3.org/2000/svg" xmlns:xlink="http://www.w3.org/1999/xlink" 
                width="639" height="743">
                
            <g>
                <rect x="50" y="80"
            width="291.79999999999995" height="30"
            style="fill:#a5d6a7; stroke:#444; stroke-width:1" />
                    
                <line x1="60" y1="80" x2="60" y2="110"
                style="fill:#a5d6a7; stroke:#444; stroke-width:1" />
                <line x1="331.79999999999995" y1="80" x2="331.79999999999995" y2="110"
                style="fill:#a5d6a7; stroke:#444; stroke-width:1" />
             
                <title>function solution(isBadVersion)</title>
            <text x="75" y="100"
                font-family="monospace" font-size="13" fill="#222">
                <tspan x="75" y="100">function solution(isBadVersion)</tspan>
            </text>
                
            </g>
            <g>
                <rect x="87" y="128.5"
            width="76.8" height="30"
            rx="3" ry="3"
            style="fill:#90caf9; stroke:#444; stroke-width:1" />
                
                <line x1="163.8" y1="138.5" x2="168.8" y2="138.5"
                style="fill:#a5d6a7; stroke:#444; stroke-width:1" />
                
                <line x1="163.8" y1="148.5" x2="168.8" y2="148.5"
                style="fill:#a5d6a7; stroke:#444; stroke-width:1" />

                <path d="M168.8, 132.5 L184.8, 143.5 L168.8, 154.5 Z" 
        fill="#a5d6a7" stroke="#444" stroke-width="1" />
                             
                <title>return</title>
            <text x="102" y="148.5"
                font-family="monospace" font-size="13" fill="#222">
                <tspan x="102" y="148.5">return</tspan>
            </text>
                
            </g>
            <g>
                <rect x="124" y="192"
            width="135.8" height="30"
            style="fill:#a5d6a7; stroke:#444; stroke-width:1" />
                    
                <line x1="134" y1="192" x2="134" y2="222"
                style="fill:#a5d6a7; stroke:#444; stroke-width:1" />
                <line x1="249.8" y1="192" x2="249.8" y2="222"
                style="fill:#a5d6a7; stroke:#444; stroke-width:1" />
             
                <title>function(n)</title>
            <text x="149" y="212"
                font-family="monospace" font-size="13" fill="#222">
                <tspan x="149" y="212">function(n)</tspan>
            </text>
                
            </g>
            <g>
                <rect x="161" y="240.5"
            width="162.6" height="30"
            rx="3" ry="3"
            style="fill:#90caf9; stroke:#444; stroke-width:1" />
                
                <line x1="323.6" y1="250.5" x2="328.6" y2="250.5"
                style="fill:#a5d6a7; stroke:#444; stroke-width:1" />
                
                <line x1="323.6" y1="260.5" x2="328.6" y2="260.5"
                style="fill:#a5d6a7; stroke:#444; stroke-width:1" />

                <path d="M328.6, 244.5 L344.6, 255.5 L328.6, 266.5 Z" 
        fill="#a5d6a7" stroke="#444" stroke-width="1" />
                             
                <title>return find(1, n)</title>
            <text x="176" y="260.5"
                font-family="monospace" font-size="13" fill="#222">
                <tspan x="176" y="260.5">return find(1, n)</tspan>
            </text>
                
            </g>
            <g>
                <rect x="87" y="304"
            width="198.2" height="30"
            style="fill:#a5d6a7; stroke:#444; stroke-width:1" />
                    
                <line x1="97" y1="304" x2="97" y2="334"
                style="fill:#a5d6a7; stroke:#444; stroke-width:1" />
                <line x1="275.2" y1="304" x2="275.2" y2="334"
                style="fill:#a5d6a7; stroke:#444; stroke-width:1" />
             
                <title>function find(l, r)</title>
            <text x="112" y="324"
                font-family="monospace" font-size="13" fill="#222">
                <tspan x="112" y="324">function find(l, r)</tspan>
            </text>
                
            </g><g>
            <rect x="154" y="367.5"
            width="130.2" height="30"
            rx="3" ry="3"
            style="fill:#ce93d8; stroke:#444; stroke-width:1" />                
            <polygon points="124,382.5 154,352.5 184,382.5 154,412.5"
            style="fill:#ce93d8; stroke:#444; stroke-width:1" />
            <title>(l === r)</title>
            <text x="199" y="387.5"
                font-family="monospace" font-size="13" fill="#222">
                <tspan x="199" y="387.5">(l === r)</tspan>
            </text>
            
            <text x="146.2" y="387.5"
        font-family="monospace" font-size="13" fill="#222">if</text> <text x="161.8" y="414.45"
        font-family="monospace" font-size="13" fill="#222">+</text> 
        </g>
            <g>
                <rect x="174" y="422.5"
            width="92.4" height="30"
            rx="3" ry="3"
            style="fill:#90caf9; stroke:#444; stroke-width:1" />
                
                <line x1="266.4" y1="432.5" x2="271.4" y2="432.5"
                style="fill:#a5d6a7; stroke:#444; stroke-width:1" />
                
                <line x1="266.4" y1="442.5" x2="271.4" y2="442.5"
                style="fill:#a5d6a7; stroke:#444; stroke-width:1" />

                <path d="M271.4, 426.5 L287.4, 437.5 L271.4, 448.5 Z" 
        fill="#a5d6a7" stroke="#444" stroke-width="1" />
                             
                <title>return l</title>
            <text x="189" y="442.5"
                font-family="monospace" font-size="13" fill="#222">
                <tspan x="189" y="442.5">return l</tspan>
            </text>
                
            </g>
                <g>
                   <rect x="124" y="472.5"
            width="303" height="30"
            rx="3" ry="3"
            style="fill:#90caf9; stroke:#444; stroke-width:1" />
                   <title>const mid = Math.floor((l + r) / 2)</title>
            <text x="139" y="492.5"
                font-family="monospace" font-size="13" fill="#222">
                <tspan x="139" y="492.5">const mid = Math.floor((l + r) / 2)</tspan>
            </text>
                   
                   
                </g>
            <g>
                <rect x="124" y="521"
            width="76.8" height="30"
            rx="3" ry="3"
            style="fill:#90caf9; stroke:#444; stroke-width:1" />
                
                <line x1="200.8" y1="531" x2="205.8" y2="531"
                style="fill:#a5d6a7; stroke:#444; stroke-width:1" />
                
                <line x1="200.8" y1="541" x2="205.8" y2="541"
                style="fill:#a5d6a7; stroke:#444; stroke-width:1" />

                <path d="M205.8, 525 L221.8, 536 L205.8, 547 Z" 
        fill="#a5d6a7" stroke="#444" stroke-width="1" />
                             
                <title>return</title>
            <text x="139" y="541"
                font-family="monospace" font-size="13" fill="#222">
                <tspan x="139" y="541">return</tspan>
            </text>
                
            </g><g>
            <rect x="191" y="584.5"
            width="208.2" height="30"
            rx="3" ry="3"
            style="fill:#ce93d8; stroke:#444; stroke-width:1" />                
            <polygon points="161,599.5 191,569.5 221,599.5 191,629.5"
            style="fill:#ce93d8; stroke:#444; stroke-width:1" />
            <title>(isBadVersion(mid))</title>
            <text x="236" y="604.5"
                font-family="monospace" font-size="13" fill="#222">
                <tspan x="236" y="604.5">(isBadVersion(mid))</tspan>
            </text>
            
            <text x="187.1" y="604.5"
        font-family="monospace" font-size="13" fill="#222">?</text> <text x="198.8" y="631.45"
        font-family="monospace" font-size="13" fill="#222">+</text> <text x="403.09999999999997" y="597.55"
        font-family="monospace" font-size="13" fill="#222">-</text>
        </g>
                <g>
                   <rect x="211" y="639.5"
            width="162.6" height="30"
            rx="2" ry="2"
            style="fill:#C5E1A5; stroke:#444; stroke-width:1" />
                   <title>isBadVersion(mid)</title>
            <text x="226" y="659.5"
                font-family="monospace" font-size="13" fill="#222">
                <tspan x="226" y="659.5">isBadVersion(mid)</tspan>
            </text>
                   
                   
                </g>
                <g>
                   <rect x="211" y="688"
            width="123.6" height="30"
            rx="2" ry="2"
            style="fill:#C5E1A5; stroke:#444; stroke-width:1" />
                   <title>find(l, mid)</title>
            <text x="226" y="708"
                font-family="monospace" font-size="13" fill="#222">
                <tspan x="226" y="708">find(l, mid)</tspan>
            </text>
                   
                   
                </g>
                <g>
                   <rect x="459.2" y="639.5"
            width="154.8" height="30"
            rx="2" ry="2"
            style="fill:#C5E1A5; stroke:#444; stroke-width:1" />
                   <title>find(mid + 1, r)</title>
            <text x="474.2" y="659.5"
                font-family="monospace" font-size="13" fill="#222">
                <tspan x="474.2" y="659.5">find(mid + 1, r)</tspan>
            </text>
                   
                   
                </g>
            <g>
               <rect x="25" y="13.75"
            width="216.6" height="24"
            style="fill:#fff59d; stroke:#444; stroke-width:1" />
               <circle cx="25" cy="25" r="15"
        style="fill:#fff59d; stroke:#444; stroke-width:1" />
               <title>Program: source module</title>
            <text x="55" y="30"
                font-family="monospace" font-size="13" fill="#222">
                <tspan x="55" y="30">Program: source module</tspan>
            </text>
            </g>
            <g>
               <path d="M25, 40 L25 91 Q25 95
                29 95
                L42 95 "
        style="fill:none; stroke:#444; stroke-width:1" />
               <path d="M42, 92 L50, 95 L42, 98 Z" 
        fill="#333" />
            </g>
            <g>
               <path d="M68.5, 110 L68.5 139.5 Q68.5 143.5
                72.5 143.5
                L79 143.5 "
        style="fill:none; stroke:#444; stroke-width:1" />
               <path d="M79, 140.5 L87, 143.5 L79, 146.5 Z" 
        fill="#333" />
            </g>
            <g>
               <path d="M105.5, 158.5 L105.5 203 Q105.5 207
                109.5 207
                L116 207 "
        style="fill:none; stroke:#444; stroke-width:1" />
               <path d="M116, 204 L124, 207 L116, 210 Z" 
        fill="#333" />
            </g>
            <g>
               <path d="M142.5, 222 L142.5 251.5 Q142.5 255.5
                146.5 255.5
                L153 255.5 "
        style="fill:none; stroke:#444; stroke-width:1" />
               <path d="M153, 252.5 L161, 255.5 L153, 258.5 Z" 
        fill="#333" />
            </g>
            <g>
               <path d="M68.5, 110 L68.5 315 Q68.5 319
                72.5 319
                L79 319 "
        style="fill:none; stroke:#444; stroke-width:1" />
               <path d="M79, 316 L87, 319 L79, 322 Z" 
        fill="#333" />
            </g>
            <g>
               <path d="M105.5, 334 L105.5 378.5 Q105.5 382.5
                109.5 382.5
                L116 382.5 "
        style="fill:none; stroke:#444; stroke-width:1" />
               <path d="M116, 379.5 L124, 382.5 L116, 385.5 Z" 
        fill="#333" />
            </g>
            <g>
               <path d="M154, 412.5 L154 433.5 Q154 437.5
                158 437.5
                L166 437.5 "
        style="fill:none; stroke:#444; stroke-width:1" />
               <path d="M166, 434.5 L174, 437.5 L166, 440.5 Z" 
        fill="#333" />
            </g>
            <g>
               <path d="M105.5, 334 L105.5 483.5 Q105.5 487.5
                109.5 487.5
                L116 487.5 "
        style="fill:none; stroke:#444; stroke-width:1" />
               <path d="M116, 484.5 L124, 487.5 L116, 490.5 Z" 
        fill="#333" />
            </g>
            <g>
               <path d="M105.5, 334 L105.5 532 Q105.5 536
                109.5 536
                L116 536 "
        style="fill:none; stroke:#444; stroke-width:1" />
               <path d="M116, 533 L124, 536 L116, 539 Z" 
        fill="#333" />
            </g>
            <g>
               <path d="M142.5, 551 L142.5 595.5 Q142.5 599.5
                146.5 599.5
                L153 599.5 "
        style="fill:none; stroke:#444; stroke-width:1" />
               <path d="M153, 596.5 L161, 599.5 L153, 602.5 Z" 
        fill="#333" />
            </g>
            <g>
               <path d="M191, 629.5 L191 650.5 Q191 654.5
                195 654.5
                L203 654.5 "
        style="fill:none; stroke:#444; stroke-width:1" />
               <path d="M203, 651.5 L211, 654.5 L203, 657.5 Z" 
        fill="#333" />
            </g>
            <g>
               <path d="M191, 629.5 L191 699 Q191 703
                195 703
                L203 703 "
        style="fill:none; stroke:#444; stroke-width:1" />
               <path d="M203, 700 L211, 703 L203, 706 Z" 
        fill="#333" />
            </g>
            <g>
               <path d="M399.2, 599.5 L435.2 599.5  Q439.2 599.5
                439.2 603.5
                L439.2 646.5 Q439.2 654.5
                443.2 654.5
                L451.2 654.5 "
        style="fill:none; stroke:#444; stroke-width:1" />
               <path d="M451.2, 651.5 L459.2, 654.5 L451.2, 657.5 Z" 
        fill="#333" />
            </g>
            </svg>