<!DOCTYPE svg PUBLIC "-//W3C//DTD SVG 1.1//EN" "http://www.w3.org/Graphics/SVG/1.1/DTD/svg11.dtd">
                <svg xmlns="http://www.w3.org/2000/svg" xmlns:xlink="http://www.w3.org/1999/xlink" 
                width="1166" height="631">
                
            <g>
                <rect x="50" y="80"
            width="206" height="30"
            style="fill:#a5d6a7; stroke:#444; stroke-width:1" />
                    
                <line x1="60" y1="80" x2="60" y2="110"
                style="fill:#a5d6a7; stroke:#444; stroke-width:1" />
                <line x1="246" y1="80" x2="246" y2="110"
                style="fill:#a5d6a7; stroke:#444; stroke-width:1" />
             
                <title>function fizzBuzz(n)</title>
            <text x="75" y="100"
                font-family="monospace" font-size="13" fill="#222">
                <tspan x="75" y="100">function fizzBuzz(n)</tspan>
            </text>
                
            </g>
                <g>
                   <rect x="87" y="128.5"
            width="123.6" height="30"
            rx="3" ry="3"
            style="fill:#90caf9; stroke:#444; stroke-width:1" />
                   <title>let arr = []</title>
            <text x="102" y="148.5"
                font-family="monospace" font-size="13" fill="#222">
                <tspan x="102" y="148.5">let arr = []</tspan>
            </text>
                   
                   
                </g><g>

            <rect x="117" y="212"
            width="106.80000000000001" height="30"
            rx="3" ry="3"
            style="fill:#b39ddb; stroke:#444; stroke-width:1" />
            <polygon points="87,227 117,197 147,227 117,257"
            style="fill:#b39ddb; stroke:#444; stroke-width:1" />
                
            <title>i &lt;= n</title>
            <text x="162" y="232"
                font-family="monospace" font-size="13" fill="#222">
                <tspan x="162" y="232">i &lt;= n</tspan>
            </text>
            
            <text x="105.3" y="232"
        font-family="monospace" font-size="13" fill="#222">for</text>
        </g>
                <g>
                   <rect x="137" y="267"
            width="53.4" height="30"
            rx="3" ry="3"
            style="fill:#90caf9; stroke:#444; stroke-width:1" />
                   <title>i++</title>
            <text x="152" y="287"
                font-family="monospace" font-size="13" fill="#222">
                <tspan x="152" y="287">i++</tspan>
            </text>
                   
                   
                </g><g>
            <rect x="167" y="330.5"
            width="169.2" height="30"
            rx="3" ry="3"
            style="fill:#ce93d8; stroke:#444; stroke-width:1" />                
            <polygon points="137,345.5 167,315.5 197,345.5 167,375.5"
            style="fill:#ce93d8; stroke:#444; stroke-width:1" />
            <title>(i % 15 === 0)</title>
            <text x="212" y="350.5"
                font-family="monospace" font-size="13" fill="#222">
                <tspan x="212" y="350.5">(i % 15 === 0)</tspan>
            </text>
            
            <text x="159.2" y="350.5"
        font-family="monospace" font-size="13" fill="#222">if</text> <text x="174.8" y="377.45"
        font-family="monospace" font-size="13" fill="#222">+</text> <text x="340.09999999999997" y="343.55"
        font-family="monospace" font-size="13" fill="#222">-</text>
        </g>
                <g>
                   <rect x="187" y="385.5"
            width="186" height="30"
            rx="2" ry="2"
            style="fill:#C5E1A5; stroke:#444; stroke-width:1" />
                   <title>arr.push(&apos;FizzBuzz&apos;)</title>
            <text x="202" y="405.5"
                font-family="monospace" font-size="13" fill="#222">
                <tspan x="202" y="405.5">arr.push(&apos;FizzBuzz&apos;)</tspan>
            </text>
                   
                   
                </g><g>
            <rect x="463" y="400.5"
            width="161.39999999999998" height="30"
            rx="3" ry="3"
            style="fill:#ce93d8; stroke:#444; stroke-width:1" />                
            <polygon points="433,415.5 463,385.5 493,415.5 463,445.5"
            style="fill:#ce93d8; stroke:#444; stroke-width:1" />
            <title>(i % 3 === 0)</title>
            <text x="508" y="420.5"
                font-family="monospace" font-size="13" fill="#222">
                <tspan x="508" y="420.5">(i % 3 === 0)</tspan>
            </text>
            
            <text x="455.2" y="420.5"
        font-family="monospace" font-size="13" fill="#222">if</text> <text x="470.8" y="447.45"
        font-family="monospace" font-size="13" fill="#222">+</text> <text x="628.3" y="413.55"
        font-family="monospace" font-size="13" fill="#222">-</text>
        </g>
                <g>
                   <rect x="483" y="455.5"
            width="154.8" height="30"
            rx="2" ry="2"
            style="fill:#C5E1A5; stroke:#444; stroke-width:1" />
                   <title>arr.push(&apos;Fizz&apos;)</title>
            <text x="498" y="475.5"
                font-family="monospace" font-size="13" fill="#222">
                <tspan x="498" y="475.5">arr.push(&apos;Fizz&apos;)</tspan>
            </text>
                   
                   
                </g><g>
            <rect x="727.8" y="470.5"
            width="161.39999999999998" height="30"
            rx="3" ry="3"
            style="fill:#ce93d8; stroke:#444; stroke-width:1" />                
            <polygon points="697.8,485.5 727.8,455.5 757.8,485.5 727.8,515.5"
            style="fill:#ce93d8; stroke:#444; stroke-width:1" />
            <title>(i % 5 === 0)</title>
            <text x="772.8" y="490.5"
                font-family="monospace" font-size="13" fill="#222">
                <tspan x="772.8" y="490.5">(i % 5 === 0)</tspan>
            </text>
            
            <text x="720" y="490.5"
        font-family="monospace" font-size="13" fill="#222">if</text> <text x="735.5999999999999" y="517.45"
        font-family="monospace" font-size="13" fill="#222">+</text> <text x="893.0999999999999" y="483.55"
        font-family="monospace" font-size="13" fill="#222">-</text>
        </g>
                <g>
                   <rect x="747.8" y="525.5"
            width="154.8" height="30"
            rx="2" ry="2"
            style="fill:#C5E1A5; stroke:#444; stroke-width:1" />
                   <title>arr.push(&apos;Buzz&apos;)</title>
            <text x="762.8" y="545.5"
                font-family="monospace" font-size="13" fill="#222">
                <tspan x="762.8" y="545.5">arr.push(&apos;Buzz&apos;)</tspan>
            </text>
                   
                   
                </g>
                <g>
                   <rect x="962.5999999999999" y="525.5"
            width="178.2" height="30"
            rx="2" ry="2"
            style="fill:#C5E1A5; stroke:#444; stroke-width:1" />
                   <title>arr.push(String(i))</title>
            <text x="977.5999999999999" y="545.5"
                font-family="monospace" font-size="13" fill="#222">
                <tspan x="977.5999999999999" y="545.5">arr.push(String(i))</tspan>
            </text>
                   
                   
                </g>
            <g>
                <rect x="87" y="575.5"
            width="108" height="30"
            rx="3" ry="3"
            style="fill:#90caf9; stroke:#444; stroke-width:1" />
                
                <line x1="195" y1="585.5" x2="200" y2="585.5"
                style="fill:#a5d6a7; stroke:#444; stroke-width:1" />
                
                <line x1="195" y1="595.5" x2="200" y2="595.5"
                style="fill:#a5d6a7; stroke:#444; stroke-width:1" />

                <path d="M200, 579.5 L216, 590.5 L200, 601.5 Z" 
        fill="#a5d6a7" stroke="#444" stroke-width="1" />
                             
                <title>return arr</title>
            <text x="102" y="595.5"
                font-family="monospace" font-size="13" fill="#222">
                <tspan x="102" y="595.5">return arr</tspan>
            </text>
                
            </g>
            <g>
               <rect x="25" y="13.75"
            width="216.6" height="24"
            style="fill:#fff59d; stroke:#444; stroke-width:1" />
               <circle cx="25" cy="25" r="15"
        style="fill:#fff59d; stroke:#444; stroke-width:1" />
               <title>Program: source module</title>
            <text x="55" y="30"
                font-family="monospace" font-size="13" fill="#222">
                <tspan x="55" y="30">Program: source module</tspan>
            </text>
            </g>
            <g>
               <path d="M25, 40 L25 91 Q25 95
                29 95
                L42 95 "
        style="fill:none; stroke:#444; stroke-width:1" />
               <path d="M42, 92 L50, 95 L42, 98 Z" 
        fill="#333" />
            </g>
            <g>
               <path d="M68.5, 110 L68.5 139.5 Q68.5 143.5
                72.5 143.5
                L79 143.5 "
        style="fill:none; stroke:#444; stroke-width:1" />
               <path d="M79, 140.5 L87, 143.5 L79, 146.5 Z" 
        fill="#333" />
            </g>
            <g>
               <path d="M68.5, 110 L68.5 223 Q68.5 227
                72.5 227
                L79 227 "
        style="fill:none; stroke:#444; stroke-width:1" />
               <path d="M79, 224 L87, 227 L79, 230 Z" 
        fill="#333" />
            </g>
            <g>
               <path d="M117, 257 L117 278 Q117 282
                121 282
                L129 282 "
        style="fill:none; stroke:#444; stroke-width:1" />
               <path d="M129, 279 L137, 282 L129, 285 Z" 
        fill="#333" />
            </g>
            <g>
               <path d="M117, 257 L117 341.5 Q117 345.5
                121 345.5
                L129 345.5 "
        style="fill:none; stroke:#444; stroke-width:1" />
               <path d="M129, 342.5 L137, 345.5 L129, 348.5 Z" 
        fill="#333" />
            </g>
            <g>
               <path d="M167, 375.5 L167 396.5 Q167 400.5
                171 400.5
                L179 400.5 "
        style="fill:none; stroke:#444; stroke-width:1" />
               <path d="M179, 397.5 L187, 400.5 L179, 403.5 Z" 
        fill="#333" />
            </g>
            <g>
               <path d="M336.2, 345.5 L409 345.5  Q413 345.5
                413 349.5
                L413 407.5 Q413 415.5
                417 415.5
                L425 415.5 "
        style="fill:none; stroke:#444; stroke-width:1" />
               <path d="M425, 412.5 L433, 415.5 L425, 418.5 Z" 
        fill="#333" />
            </g>
            <g>
               <path d="M463, 445.5 L463 466.5 Q463 470.5
                467 470.5
                L475 470.5 "
        style="fill:none; stroke:#444; stroke-width:1" />
               <path d="M475, 467.5 L483, 470.5 L475, 473.5 Z" 
        fill="#333" />
            </g>
            <g>
               <path d="M624.4, 415.5 L673.8 415.5  Q677.8 415.5
                677.8 419.5
                L677.8 477.5 Q677.8 485.5
                681.8 485.5
                L689.8 485.5 "
        style="fill:none; stroke:#444; stroke-width:1" />
               <path d="M689.8, 482.5 L697.8, 485.5 L689.8, 488.5 Z" 
        fill="#333" />
            </g>
            <g>
               <path d="M727.8, 515.5 L727.8 536.5 Q727.8 540.5
                731.8 540.5
                L739.8 540.5 "
        style="fill:none; stroke:#444; stroke-width:1" />
               <path d="M739.8, 537.5 L747.8, 540.5 L739.8, 543.5 Z" 
        fill="#333" />
            </g>
            <g>
               <path d="M889.1999999999999, 485.5 L938.5999999999999 485.5  Q942.5999999999999 485.5
                942.5999999999999 489.5
                L942.5999999999999 532.5 Q942.5999999999999 540.5
                946.5999999999999 540.5
                L954.5999999999999 540.5 "
        style="fill:none; stroke:#444; stroke-width:1" />
               <path d="M954.5999999999999, 537.5 L962.5999999999999, 540.5 L954.5999999999999, 543.5 Z" 
        fill="#333" />
            </g>
            <g>
               <path d="M1140.8, 540.5 L1156.8 540.5  Q1160.8 540.5
                1160.8 536.5
                L1160.8 185 Q1160.8 177
                1156.8 177
                L125 177  Q117 177
                117 181
                L117 189"
        style="fill:none; stroke:#444; stroke-width:1" />
               <path d="M114, 189 L117, 197 L120, 189 Z" 
        fill="#333" />
            </g>
            <g>
               <path d="M68.5, 110 L68.5 586.5 Q68.5 590.5
                72.5 590.5
                L79 590.5 "
        style="fill:none; stroke:#444; stroke-width:1" />
               <path d="M79, 587.5 L87, 590.5 L79, 593.5 Z" 
        fill="#333" />
            </g>
            </svg>