<!DOCTYPE svg PUBLIC "-//W3C//DTD SVG 1.1//EN" "http://www.w3.org/Graphics/SVG/1.1/DTD/svg11.dtd">
                <svg xmlns="http://www.w3.org/2000/svg" xmlns:xlink="http://www.w3.org/1999/xlink" 
                width="489" height="871">
                
            <g>
                <rect x="50" y="80"
            width="291.79999999999995" height="30"
            style="fill:#a5d6a7; stroke:#444; stroke-width:1" />
                    
                <line x1="60" y1="80" x2="60" y2="110"
                style="fill:#a5d6a7; stroke:#444; stroke-width:1" />
                <line x1="331.79999999999995" y1="80" x2="331.79999999999995" y2="110"
                style="fill:#a5d6a7; stroke:#444; stroke-width:1" />
             
                <title>function generateParenthesis(n)</title>
            <text x="75" y="100"
                font-family="monospace" font-size="13" fill="#222">
                <tspan x="75" y="100">function generateParenthesis(n)</tspan>
            </text>
                
            </g>
                <g>
                   <rect x="87" y="128.5"
            width="123.6" height="30"
            rx="3" ry="3"
            style="fill:#90caf9; stroke:#444; stroke-width:1" />
                   <title>let res = []</title>
            <text x="102" y="148.5"
                font-family="monospace" font-size="13" fill="#222">
                <tspan x="102" y="148.5">let res = []</tspan>
            </text>
                   
                   
                </g>
                <g>
                   <rect x="87" y="177"
            width="201.6" height="30"
            rx="2" ry="2"
            style="fill:#C5E1A5; stroke:#444; stroke-width:1" />
                   <title>compose(n, n, &apos;&apos;, res)</title>
            <text x="102" y="197"
                font-family="monospace" font-size="13" fill="#222">
                <tspan x="102" y="197">compose(n, n, &apos;&apos;, res)</tspan>
            </text>
                   
                   
                </g>
            <g>
                <rect x="87" y="225.5"
            width="108" height="30"
            rx="3" ry="3"
            style="fill:#90caf9; stroke:#444; stroke-width:1" />
                
                <line x1="195" y1="235.5" x2="200" y2="235.5"
                style="fill:#a5d6a7; stroke:#444; stroke-width:1" />
                
                <line x1="195" y1="245.5" x2="200" y2="245.5"
                style="fill:#a5d6a7; stroke:#444; stroke-width:1" />

                <path d="M200, 229.5 L216, 240.5 L200, 251.5 Z" 
        fill="#a5d6a7" stroke="#444" stroke-width="1" />
                             
                <title>return res</title>
            <text x="102" y="245.5"
                font-family="monospace" font-size="13" fill="#222">
                <tspan x="102" y="245.5">return res</tspan>
            </text>
                
            </g>
            <g>
                <rect x="50" y="289"
            width="338.59999999999997" height="30"
            style="fill:#a5d6a7; stroke:#444; stroke-width:1" />
                    
                <line x1="60" y1="289" x2="60" y2="319"
                style="fill:#a5d6a7; stroke:#444; stroke-width:1" />
                <line x1="378.59999999999997" y1="289" x2="378.59999999999997" y2="319"
                style="fill:#a5d6a7; stroke:#444; stroke-width:1" />
             
                <title>function compose(left, right, s, res)</title>
            <text x="75" y="309"
                font-family="monospace" font-size="13" fill="#222">
                <tspan x="75" y="309">function compose(left, right, s, res)</tspan>
            </text>
                
            </g><g>
            <rect x="117" y="352.5"
            width="169.2" height="30"
            rx="3" ry="3"
            style="fill:#ce93d8; stroke:#444; stroke-width:1" />                
            <polygon points="87,367.5 117,337.5 147,367.5 117,397.5"
            style="fill:#ce93d8; stroke:#444; stroke-width:1" />
            <title>(left &gt; right)</title>
            <text x="162" y="372.5"
                font-family="monospace" font-size="13" fill="#222">
                <tspan x="162" y="372.5">(left &gt; right)</tspan>
            </text>
            
            <text x="109.2" y="372.5"
        font-family="monospace" font-size="13" fill="#222">if</text> <text x="124.8" y="399.45"
        font-family="monospace" font-size="13" fill="#222">+</text> 
        </g>
            <g>
                <rect x="137" y="407.5"
            width="76.8" height="30"
            rx="3" ry="3"
            style="fill:#90caf9; stroke:#444; stroke-width:1" />
                
                <line x1="213.8" y1="417.5" x2="218.8" y2="417.5"
                style="fill:#a5d6a7; stroke:#444; stroke-width:1" />
                
                <line x1="213.8" y1="427.5" x2="218.8" y2="427.5"
                style="fill:#a5d6a7; stroke:#444; stroke-width:1" />

                <path d="M218.8, 411.5 L234.8, 422.5 L218.8, 433.5 Z" 
        fill="#a5d6a7" stroke="#444" stroke-width="1" />
                             
                <title>return</title>
            <text x="152" y="427.5"
                font-family="monospace" font-size="13" fill="#222">
                <tspan x="152" y="427.5">return</tspan>
            </text>
                
            </g><g>
            <rect x="117" y="472.5"
            width="192.6" height="30"
            rx="3" ry="3"
            style="fill:#ce93d8; stroke:#444; stroke-width:1" />                
            <polygon points="87,487.5 117,457.5 147,487.5 117,517.5"
            style="fill:#ce93d8; stroke:#444; stroke-width:1" />
            <title>(!left &amp;&amp; !right)</title>
            <text x="162" y="492.5"
                font-family="monospace" font-size="13" fill="#222">
                <tspan x="162" y="492.5">(!left &amp;&amp; !right)</tspan>
            </text>
            
            <text x="109.2" y="492.5"
        font-family="monospace" font-size="13" fill="#222">if</text> <text x="124.8" y="519.45"
        font-family="monospace" font-size="13" fill="#222">+</text> 
        </g>
                <g>
                   <rect x="137" y="527.5"
            width="115.8" height="30"
            rx="2" ry="2"
            style="fill:#C5E1A5; stroke:#444; stroke-width:1" />
                   <title>res.push(s)</title>
            <text x="152" y="547.5"
                font-family="monospace" font-size="13" fill="#222">
                <tspan x="152" y="547.5">res.push(s)</tspan>
            </text>
                   
                   
                </g>
            <g>
                <rect x="137" y="576"
            width="76.8" height="30"
            rx="3" ry="3"
            style="fill:#90caf9; stroke:#444; stroke-width:1" />
                
                <line x1="213.8" y1="586" x2="218.8" y2="586"
                style="fill:#a5d6a7; stroke:#444; stroke-width:1" />
                
                <line x1="213.8" y1="596" x2="218.8" y2="596"
                style="fill:#a5d6a7; stroke:#444; stroke-width:1" />

                <path d="M218.8, 580 L234.8, 591 L218.8, 602 Z" 
        fill="#a5d6a7" stroke="#444" stroke-width="1" />
                             
                <title>return</title>
            <text x="152" y="596"
                font-family="monospace" font-size="13" fill="#222">
                <tspan x="152" y="596">return</tspan>
            </text>
                
            </g><g>
            <rect x="117" y="641"
            width="106.80000000000001" height="30"
            rx="3" ry="3"
            style="fill:#ce93d8; stroke:#444; stroke-width:1" />                
            <polygon points="87,656 117,626 147,656 117,686"
            style="fill:#ce93d8; stroke:#444; stroke-width:1" />
            <title>(left)</title>
            <text x="162" y="661"
                font-family="monospace" font-size="13" fill="#222">
                <tspan x="162" y="661">(left)</tspan>
            </text>
            
            <text x="109.2" y="661"
        font-family="monospace" font-size="13" fill="#222">if</text> <text x="124.8" y="687.95"
        font-family="monospace" font-size="13" fill="#222">+</text> 
        </g>
                <g>
                   <rect x="137" y="696"
            width="326.4" height="30"
            rx="2" ry="2"
            style="fill:#C5E1A5; stroke:#444; stroke-width:1" />
                   <title>compose(left - 1, right, s + &apos;(&apos;, res)</title>
            <text x="152" y="716"
                font-family="monospace" font-size="13" fill="#222">
                <tspan x="152" y="716">compose(left - 1, right, s + &apos;(&apos;, res)</tspan>
            </text>
                   
                   
                </g><g>
            <rect x="117" y="761"
            width="114.6" height="30"
            rx="3" ry="3"
            style="fill:#ce93d8; stroke:#444; stroke-width:1" />                
            <polygon points="87,776 117,746 147,776 117,806"
            style="fill:#ce93d8; stroke:#444; stroke-width:1" />
            <title>(right)</title>
            <text x="162" y="781"
                font-family="monospace" font-size="13" fill="#222">
                <tspan x="162" y="781">(right)</tspan>
            </text>
            
            <text x="109.2" y="781"
        font-family="monospace" font-size="13" fill="#222">if</text> <text x="124.8" y="807.95"
        font-family="monospace" font-size="13" fill="#222">+</text> 
        </g>
                <g>
                   <rect x="137" y="816"
            width="326.4" height="30"
            rx="2" ry="2"
            style="fill:#C5E1A5; stroke:#444; stroke-width:1" />
                   <title>compose(left, right - 1, s + &apos;)&apos;, res)</title>
            <text x="152" y="836"
                font-family="monospace" font-size="13" fill="#222">
                <tspan x="152" y="836">compose(left, right - 1, s + &apos;)&apos;, res)</tspan>
            </text>
                   
                   
                </g>
            <g>
               <rect x="25" y="13.75"
            width="216.6" height="24"
            style="fill:#fff59d; stroke:#444; stroke-width:1" />
               <circle cx="25" cy="25" r="15"
        style="fill:#fff59d; stroke:#444; stroke-width:1" />
               <title>Program: source module</title>
            <text x="55" y="30"
                font-family="monospace" font-size="13" fill="#222">
                <tspan x="55" y="30">Program: source module</tspan>
            </text>
            </g>
            <g>
               <path d="M25, 40 L25 91 Q25 95
                29 95
                L42 95 "
        style="fill:none; stroke:#444; stroke-width:1" />
               <path d="M42, 92 L50, 95 L42, 98 Z" 
        fill="#333" />
            </g>
            <g>
               <path d="M68.5, 110 L68.5 139.5 Q68.5 143.5
                72.5 143.5
                L79 143.5 "
        style="fill:none; stroke:#444; stroke-width:1" />
               <path d="M79, 140.5 L87, 143.5 L79, 146.5 Z" 
        fill="#333" />
            </g>
            <g>
               <path d="M68.5, 110 L68.5 188 Q68.5 192
                72.5 192
                L79 192 "
        style="fill:none; stroke:#444; stroke-width:1" />
               <path d="M79, 189 L87, 192 L79, 195 Z" 
        fill="#333" />
            </g>
            <g>
               <path d="M68.5, 110 L68.5 236.5 Q68.5 240.5
                72.5 240.5
                L79 240.5 "
        style="fill:none; stroke:#444; stroke-width:1" />
               <path d="M79, 237.5 L87, 240.5 L79, 243.5 Z" 
        fill="#333" />
            </g>
            <g>
               <path d="M25, 40 L25 300 Q25 304
                29 304
                L42 304 "
        style="fill:none; stroke:#444; stroke-width:1" />
               <path d="M42, 301 L50, 304 L42, 307 Z" 
        fill="#333" />
            </g>
            <g>
               <path d="M68.5, 319 L68.5 363.5 Q68.5 367.5
                72.5 367.5
                L79 367.5 "
        style="fill:none; stroke:#444; stroke-width:1" />
               <path d="M79, 364.5 L87, 367.5 L79, 370.5 Z" 
        fill="#333" />
            </g>
            <g>
               <path d="M117, 397.5 L117 418.5 Q117 422.5
                121 422.5
                L129 422.5 "
        style="fill:none; stroke:#444; stroke-width:1" />
               <path d="M129, 419.5 L137, 422.5 L129, 425.5 Z" 
        fill="#333" />
            </g>
            <g>
               <path d="M68.5, 319 L68.5 483.5 Q68.5 487.5
                72.5 487.5
                L79 487.5 "
        style="fill:none; stroke:#444; stroke-width:1" />
               <path d="M79, 484.5 L87, 487.5 L79, 490.5 Z" 
        fill="#333" />
            </g>
            <g>
               <path d="M117, 517.5 L117 538.5 Q117 542.5
                121 542.5
                L129 542.5 "
        style="fill:none; stroke:#444; stroke-width:1" />
               <path d="M129, 539.5 L137, 542.5 L129, 545.5 Z" 
        fill="#333" />
            </g>
            <g>
               <path d="M117, 517.5 L117 587 Q117 591
                121 591
                L129 591 "
        style="fill:none; stroke:#444; stroke-width:1" />
               <path d="M129, 588 L137, 591 L129, 594 Z" 
        fill="#333" />
            </g>
            <g>
               <path d="M68.5, 319 L68.5 652 Q68.5 656
                72.5 656
                L79 656 "
        style="fill:none; stroke:#444; stroke-width:1" />
               <path d="M79, 653 L87, 656 L79, 659 Z" 
        fill="#333" />
            </g>
            <g>
               <path d="M117, 686 L117 707 Q117 711
                121 711
                L129 711 "
        style="fill:none; stroke:#444; stroke-width:1" />
               <path d="M129, 708 L137, 711 L129, 714 Z" 
        fill="#333" />
            </g>
            <g>
               <path d="M68.5, 319 L68.5 772 Q68.5 776
                72.5 776
                L79 776 "
        style="fill:none; stroke:#444; stroke-width:1" />
               <path d="M79, 773 L87, 776 L79, 779 Z" 
        fill="#333" />
            </g>
            <g>
               <path d="M117, 806 L117 827 Q117 831
                121 831
                L129 831 "
        style="fill:none; stroke:#444; stroke-width:1" />
               <path d="M129, 828 L137, 831 L129, 834 Z" 
        fill="#333" />
            </g>
            </svg>