<!DOCTYPE svg PUBLIC "-//W3C//DTD SVG 1.1//EN" "http://www.w3.org/Graphics/SVG/1.1/DTD/svg11.dtd">
                <svg xmlns="http://www.w3.org/2000/svg" xmlns:xlink="http://www.w3.org/1999/xlink" 
                width="864" height="755">
                
            <g>
                <rect x="50" y="80"
            width="315.2" height="30"
            style="fill:#a5d6a7; stroke:#444; stroke-width:1" />
                    
                <line x1="60" y1="80" x2="60" y2="110"
                style="fill:#a5d6a7; stroke:#444; stroke-width:1" />
                <line x1="355.2" y1="80" x2="355.2" y2="110"
                style="fill:#a5d6a7; stroke:#444; stroke-width:1" />
             
                <title>increasingTriplet = function(nums)</title>
            <text x="75" y="100"
                font-family="monospace" font-size="13" fill="#222">
                <tspan x="75" y="100">increasingTriplet = function(nums)</tspan>
            </text>
                
            </g>
                <g>
                   <rect x="87" y="128.5"
            width="303" height="30"
            rx="3" ry="3"
            style="fill:#90caf9; stroke:#444; stroke-width:1" />
                   <title>let small = Number.MAX_SAFE_INTEGER</title>
            <text x="102" y="148.5"
                font-family="monospace" font-size="13" fill="#222">
                <tspan x="102" y="148.5">let small = Number.MAX_SAFE_INTEGER</tspan>
            </text>
                   
                   
                </g>
                <g>
                   <rect x="87" y="177"
            width="287.4" height="30"
            rx="3" ry="3"
            style="fill:#90caf9; stroke:#444; stroke-width:1" />
                   <title>let big = Number.MAX_SAFE_INTEGER</title>
            <text x="102" y="197"
                font-family="monospace" font-size="13" fill="#222">
                <tspan x="102" y="197">let big = Number.MAX_SAFE_INTEGER</tspan>
            </text>
                   
                   
                </g><g>

            <rect x="117" y="260.5"
            width="177" height="30"
            rx="3" ry="3"
            style="fill:#b39ddb; stroke:#444; stroke-width:1" />
            <polygon points="87,275.5 117,245.5 147,275.5 117,305.5"
            style="fill:#b39ddb; stroke:#444; stroke-width:1" />
                
            <title>i &lt; nums.length</title>
            <text x="162" y="280.5"
                font-family="monospace" font-size="13" fill="#222">
                <tspan x="162" y="280.5">i &lt; nums.length</tspan>
            </text>
            
            <text x="105.3" y="280.5"
        font-family="monospace" font-size="13" fill="#222">for</text>
        </g>
                <g>
                   <rect x="137" y="315.5"
            width="53.4" height="30"
            rx="3" ry="3"
            style="fill:#90caf9; stroke:#444; stroke-width:1" />
                   <title>i++</title>
            <text x="152" y="335.5"
                font-family="monospace" font-size="13" fill="#222">
                <tspan x="152" y="335.5">i++</tspan>
            </text>
                   
                   
                </g><g>
            <rect x="167" y="379"
            width="184.8" height="30"
            rx="3" ry="3"
            style="fill:#ce93d8; stroke:#444; stroke-width:1" />                
            <polygon points="137,394 167,364 197,394 167,424"
            style="fill:#ce93d8; stroke:#444; stroke-width:1" />
            <title>(big &gt;= nums[i])</title>
            <text x="212" y="399"
                font-family="monospace" font-size="13" fill="#222">
                <tspan x="212" y="399">(big &gt;= nums[i])</tspan>
            </text>
            
            <text x="159.2" y="399"
        font-family="monospace" font-size="13" fill="#222">if</text> <text x="174.8" y="425.95"
        font-family="monospace" font-size="13" fill="#222">+</text> <text x="355.7" y="392.05"
        font-family="monospace" font-size="13" fill="#222">-</text>
        </g>
                <g>
                   <rect x="187" y="434"
            width="131.39999999999998" height="30"
            rx="3" ry="3"
            style="fill:#90caf9; stroke:#444; stroke-width:1" />
                   <title>big = nums[i]</title>
            <text x="202" y="454"
                font-family="monospace" font-size="13" fill="#222">
                <tspan x="202" y="454">big = nums[i]</tspan>
            </text>
                   
                   
                </g><g>
            <rect x="441.8" y="449"
            width="200.4" height="30"
            rx="3" ry="3"
            style="fill:#ce93d8; stroke:#444; stroke-width:1" />                
            <polygon points="411.8,464 441.8,434 471.8,464 441.8,494"
            style="fill:#ce93d8; stroke:#444; stroke-width:1" />
            <title>(small &gt;= nums[i])</title>
            <text x="486.8" y="469"
                font-family="monospace" font-size="13" fill="#222">
                <tspan x="486.8" y="469">(small &gt;= nums[i])</tspan>
            </text>
            
            <text x="434" y="469"
        font-family="monospace" font-size="13" fill="#222">if</text> <text x="449.6" y="495.95"
        font-family="monospace" font-size="13" fill="#222">+</text> <text x="646.1" y="462.05"
        font-family="monospace" font-size="13" fill="#222">-</text>
        </g>
                <g>
                   <rect x="461.8" y="504"
            width="147" height="30"
            rx="3" ry="3"
            style="fill:#90caf9; stroke:#444; stroke-width:1" />
                   <title>small = nums[i]</title>
            <text x="476.8" y="524"
                font-family="monospace" font-size="13" fill="#222">
                <tspan x="476.8" y="524">small = nums[i]</tspan>
            </text>
                   
                   
                </g>
            <g>
                <rect x="702.2" y="504"
            width="115.80000000000001" height="30"
            rx="3" ry="3"
            style="fill:#90caf9; stroke:#444; stroke-width:1" />
                
                <line x1="818" y1="514" x2="823" y2="514"
                style="fill:#a5d6a7; stroke:#444; stroke-width:1" />
                
                <line x1="818" y1="524" x2="823" y2="524"
                style="fill:#a5d6a7; stroke:#444; stroke-width:1" />

                <path d="M823, 508 L839, 519 L823, 530 Z" 
        fill="#a5d6a7" stroke="#444" stroke-width="1" />
                             
                <title>return true</title>
            <text x="717.2" y="524"
                font-family="monospace" font-size="13" fill="#222">
                <tspan x="717.2" y="524">return true</tspan>
            </text>
                
            </g>
            <g>
                <rect x="87" y="554"
            width="123.6" height="30"
            rx="3" ry="3"
            style="fill:#90caf9; stroke:#444; stroke-width:1" />
                
                <line x1="210.6" y1="564" x2="215.6" y2="564"
                style="fill:#a5d6a7; stroke:#444; stroke-width:1" />
                
                <line x1="210.6" y1="574" x2="215.6" y2="574"
                style="fill:#a5d6a7; stroke:#444; stroke-width:1" />

                <path d="M215.6, 558 L231.6, 569 L215.6, 580 Z" 
        fill="#a5d6a7" stroke="#444" stroke-width="1" />
                             
                <title>return false</title>
            <text x="102" y="574"
                font-family="monospace" font-size="13" fill="#222">
                <tspan x="102" y="574">return false</tspan>
            </text>
                
            </g>
                <g>
                   <rect x="50" y="602.5"
            width="396.59999999999997" height="30"
            rx="2" ry="2"
            style="fill:#C5E1A5; stroke:#444; stroke-width:1" />
                   <title>console.log(increasingTriplet([1, 2, 3, 4, 5]))</title>
            <text x="65" y="622.5"
                font-family="monospace" font-size="13" fill="#222">
                <tspan x="65" y="622.5">console.log(increasingTriplet([1, 2, 3, 4, 5]))</tspan>
            </text>
                   
                   
                </g>
                <g>
                   <rect x="50" y="651"
            width="396.59999999999997" height="30"
            rx="2" ry="2"
            style="fill:#C5E1A5; stroke:#444; stroke-width:1" />
                   <title>console.log(increasingTriplet([5, 4, 3, 2, 1]))</title>
            <text x="65" y="671"
                font-family="monospace" font-size="13" fill="#222">
                <tspan x="65" y="671">console.log(increasingTriplet([5, 4, 3, 2, 1]))</tspan>
            </text>
                   
                   
                </g>
                <g>
                   <rect x="50" y="699.5"
            width="420" height="30"
            rx="2" ry="2"
            style="fill:#C5E1A5; stroke:#444; stroke-width:1" />
                   <title>console.log(increasingTriplet([2, 1, 5, 0, 4, 6]))</title>
            <text x="65" y="719.5"
                font-family="monospace" font-size="13" fill="#222">
                <tspan x="65" y="719.5">console.log(increasingTriplet([2, 1, 5, 0, 4, 6]))</tspan>
            </text>
                   
                   
                </g>
            <g>
               <rect x="25" y="13.75"
            width="216.6" height="24"
            style="fill:#fff59d; stroke:#444; stroke-width:1" />
               <circle cx="25" cy="25" r="15"
        style="fill:#fff59d; stroke:#444; stroke-width:1" />
               <title>Program: source module</title>
            <text x="55" y="30"
                font-family="monospace" font-size="13" fill="#222">
                <tspan x="55" y="30">Program: source module</tspan>
            </text>
            </g>
            <g>
               <path d="M25, 40 L25 91 Q25 95
                29 95
                L42 95 "
        style="fill:none; stroke:#444; stroke-width:1" />
               <path d="M42, 92 L50, 95 L42, 98 Z" 
        fill="#333" />
            </g>
            <g>
               <path d="M68.5, 110 L68.5 139.5 Q68.5 143.5
                72.5 143.5
                L79 143.5 "
        style="fill:none; stroke:#444; stroke-width:1" />
               <path d="M79, 140.5 L87, 143.5 L79, 146.5 Z" 
        fill="#333" />
            </g>
            <g>
               <path d="M68.5, 110 L68.5 188 Q68.5 192
                72.5 192
                L79 192 "
        style="fill:none; stroke:#444; stroke-width:1" />
               <path d="M79, 189 L87, 192 L79, 195 Z" 
        fill="#333" />
            </g>
            <g>
               <path d="M68.5, 110 L68.5 271.5 Q68.5 275.5
                72.5 275.5
                L79 275.5 "
        style="fill:none; stroke:#444; stroke-width:1" />
               <path d="M79, 272.5 L87, 275.5 L79, 278.5 Z" 
        fill="#333" />
            </g>
            <g>
               <path d="M117, 305.5 L117 326.5 Q117 330.5
                121 330.5
                L129 330.5 "
        style="fill:none; stroke:#444; stroke-width:1" />
               <path d="M129, 327.5 L137, 330.5 L129, 333.5 Z" 
        fill="#333" />
            </g>
            <g>
               <path d="M117, 305.5 L117 390 Q117 394
                121 394
                L129 394 "
        style="fill:none; stroke:#444; stroke-width:1" />
               <path d="M129, 391 L137, 394 L129, 397 Z" 
        fill="#333" />
            </g>
            <g>
               <path d="M167, 424 L167 445 Q167 449
                171 449
                L179 449 "
        style="fill:none; stroke:#444; stroke-width:1" />
               <path d="M179, 446 L187, 449 L179, 452 Z" 
        fill="#333" />
            </g>
            <g>
               <path d="M351.8, 394 L387.8 394  Q391.8 394
                391.8 398
                L391.8 456 Q391.8 464
                395.8 464
                L403.8 464 "
        style="fill:none; stroke:#444; stroke-width:1" />
               <path d="M403.8, 461 L411.8, 464 L403.8, 467 Z" 
        fill="#333" />
            </g>
            <g>
               <path d="M441.8, 494 L441.8 515 Q441.8 519
                445.8 519
                L453.8 519 "
        style="fill:none; stroke:#444; stroke-width:1" />
               <path d="M453.8, 516 L461.8, 519 L453.8, 522 Z" 
        fill="#333" />
            </g>
            <g>
               <path d="M642.2, 464 L678.2 464  Q682.2 464
                682.2 468
                L682.2 511 Q682.2 519
                686.2 519
                L694.2 519 "
        style="fill:none; stroke:#444; stroke-width:1" />
               <path d="M694.2, 516 L702.2, 519 L694.2, 522 Z" 
        fill="#333" />
            </g>
            <g>
               <path d="M839, 519 L855 519  Q859 519
                859 515
                L859 233.5 Q859 225.5
                855 225.5
                L125 225.5  Q117 225.5
                117 229.5
                L117 237.5"
        style="fill:none; stroke:#444; stroke-width:1" />
               <path d="M114, 237.5 L117, 245.5 L120, 237.5 Z" 
        fill="#333" />
            </g>
            <g>
               <path d="M68.5, 110 L68.5 565 Q68.5 569
                72.5 569
                L79 569 "
        style="fill:none; stroke:#444; stroke-width:1" />
               <path d="M79, 566 L87, 569 L79, 572 Z" 
        fill="#333" />
            </g>
            <g>
               <path d="M25, 40 L25 613.5 Q25 617.5
                29 617.5
                L42 617.5 "
        style="fill:none; stroke:#444; stroke-width:1" />
               <path d="M42, 614.5 L50, 617.5 L42, 620.5 Z" 
        fill="#333" />
            </g>
            <g>
               <path d="M25, 40 L25 662 Q25 666
                29 666
                L42 666 "
        style="fill:none; stroke:#444; stroke-width:1" />
               <path d="M42, 663 L50, 666 L42, 669 Z" 
        fill="#333" />
            </g>
            <g>
               <path d="M25, 40 L25 710.5 Q25 714.5
                29 714.5
                L42 714.5 "
        style="fill:none; stroke:#444; stroke-width:1" />
               <path d="M42, 711.5 L50, 714.5 L42, 717.5 Z" 
        fill="#333" />
            </g>
            </svg>