<!DOCTYPE svg PUBLIC "-//W3C//DTD SVG 1.1//EN" "http://www.w3.org/Graphics/SVG/1.1/DTD/svg11.dtd">
                <svg xmlns="http://www.w3.org/2000/svg" xmlns:xlink="http://www.w3.org/1999/xlink" 
                width="938" height="472">
                
            <g>
                <rect x="50" y="80"
            width="323" height="30"
            style="fill:#a5d6a7; stroke:#444; stroke-width:1" />
                    
                <line x1="60" y1="80" x2="60" y2="110"
                style="fill:#a5d6a7; stroke:#444; stroke-width:1" />
                <line x1="363" y1="80" x2="363" y2="110"
                style="fill:#a5d6a7; stroke:#444; stroke-width:1" />
             
                <title>insertIntoBST = function(root, val)</title>
            <text x="75" y="100"
                font-family="monospace" font-size="13" fill="#222">
                <tspan x="75" y="100">insertIntoBST = function(root, val)</tspan>
            </text>
                
            </g><g>
            <rect x="117" y="143.5"
            width="169.2" height="30"
            rx="3" ry="3"
            style="fill:#ce93d8; stroke:#444; stroke-width:1" />                
            <polygon points="87,158.5 117,128.5 147,158.5 117,188.5"
            style="fill:#ce93d8; stroke:#444; stroke-width:1" />
            <title>(root == null)</title>
            <text x="162" y="163.5"
                font-family="monospace" font-size="13" fill="#222">
                <tspan x="162" y="163.5">(root == null)</tspan>
            </text>
            
            <text x="109.2" y="163.5"
        font-family="monospace" font-size="13" fill="#222">if</text> <text x="124.8" y="190.45"
        font-family="monospace" font-size="13" fill="#222">+</text> 
        </g>
            <g>
                <rect x="137" y="198.5"
            width="217.2" height="30"
            rx="3" ry="3"
            style="fill:#90caf9; stroke:#444; stroke-width:1" />
                
                <line x1="354.2" y1="208.5" x2="359.2" y2="208.5"
                style="fill:#a5d6a7; stroke:#444; stroke-width:1" />
                
                <line x1="354.2" y1="218.5" x2="359.2" y2="218.5"
                style="fill:#a5d6a7; stroke:#444; stroke-width:1" />

                <path d="M359.2, 202.5 L375.2, 213.5 L359.2, 224.5 Z" 
        fill="#a5d6a7" stroke="#444" stroke-width="1" />
                             
                <title>return new TreeNode(val)</title>
            <text x="152" y="218.5"
                font-family="monospace" font-size="13" fill="#222">
                <tspan x="152" y="218.5">return new TreeNode(val)</tspan>
            </text>
                
            </g>
                <g>
                   <rect x="174" y="247"
            width="162.6" height="30"
            rx="3" ry="3"
            style="fill:#90caf9; stroke:#444; stroke-width:1" />
                   <title>new TreeNode(val)</title>
            <text x="189" y="267"
                font-family="monospace" font-size="13" fill="#222">
                <tspan x="189" y="267">new TreeNode(val)</tspan>
            </text>
                   
                   
                </g><g>
            <rect x="117" y="312"
            width="184.8" height="30"
            rx="3" ry="3"
            style="fill:#ce93d8; stroke:#444; stroke-width:1" />                
            <polygon points="87,327 117,297 147,327 117,357"
            style="fill:#ce93d8; stroke:#444; stroke-width:1" />
            <title>(root.val &lt; val)</title>
            <text x="162" y="332"
                font-family="monospace" font-size="13" fill="#222">
                <tspan x="162" y="332">(root.val &lt; val)</tspan>
            </text>
            
            <text x="109.2" y="332"
        font-family="monospace" font-size="13" fill="#222">if</text> <text x="124.8" y="358.95"
        font-family="monospace" font-size="13" fill="#222">+</text> <text x="305.7" y="325.05"
        font-family="monospace" font-size="13" fill="#222">-</text>
        </g>
                <g>
                   <rect x="137" y="367"
            width="365.4" height="30"
            rx="3" ry="3"
            style="fill:#90caf9; stroke:#444; stroke-width:1" />
                   <title>root.right = insertIntoBST(root.right, val)</title>
            <text x="152" y="387"
                font-family="monospace" font-size="13" fill="#222">
                <tspan x="152" y="387">root.right = insertIntoBST(root.right, val)</tspan>
            </text>
                   
                   
                </g>
                <g>
                   <rect x="562.4" y="367"
            width="349.8" height="30"
            rx="3" ry="3"
            style="fill:#90caf9; stroke:#444; stroke-width:1" />
                   <title>root.left = insertIntoBST(root.left, val)</title>
            <text x="577.4" y="387"
                font-family="monospace" font-size="13" fill="#222">
                <tspan x="577.4" y="387">root.left = insertIntoBST(root.left, val)</tspan>
            </text>
                   
                   
                </g>
            <g>
                <rect x="87" y="417"
            width="115.80000000000001" height="30"
            rx="3" ry="3"
            style="fill:#90caf9; stroke:#444; stroke-width:1" />
                
                <line x1="202.8" y1="427" x2="207.8" y2="427"
                style="fill:#a5d6a7; stroke:#444; stroke-width:1" />
                
                <line x1="202.8" y1="437" x2="207.8" y2="437"
                style="fill:#a5d6a7; stroke:#444; stroke-width:1" />

                <path d="M207.8, 421 L223.8, 432 L207.8, 443 Z" 
        fill="#a5d6a7" stroke="#444" stroke-width="1" />
                             
                <title>return root</title>
            <text x="102" y="437"
                font-family="monospace" font-size="13" fill="#222">
                <tspan x="102" y="437">return root</tspan>
            </text>
                
            </g>
            <g>
               <rect x="25" y="13.75"
            width="216.6" height="24"
            style="fill:#fff59d; stroke:#444; stroke-width:1" />
               <circle cx="25" cy="25" r="15"
        style="fill:#fff59d; stroke:#444; stroke-width:1" />
               <title>Program: source module</title>
            <text x="55" y="30"
                font-family="monospace" font-size="13" fill="#222">
                <tspan x="55" y="30">Program: source module</tspan>
            </text>
            </g>
            <g>
               <path d="M25, 40 L25 91 Q25 95
                29 95
                L42 95 "
        style="fill:none; stroke:#444; stroke-width:1" />
               <path d="M42, 92 L50, 95 L42, 98 Z" 
        fill="#333" />
            </g>
            <g>
               <path d="M68.5, 110 L68.5 154.5 Q68.5 158.5
                72.5 158.5
                L79 158.5 "
        style="fill:none; stroke:#444; stroke-width:1" />
               <path d="M79, 155.5 L87, 158.5 L79, 161.5 Z" 
        fill="#333" />
            </g>
            <g>
               <path d="M117, 188.5 L117 209.5 Q117 213.5
                121 213.5
                L129 213.5 "
        style="fill:none; stroke:#444; stroke-width:1" />
               <path d="M129, 210.5 L137, 213.5 L129, 216.5 Z" 
        fill="#333" />
            </g>
            <g>
               <path d="M155.5, 228.5 L155.5 258 Q155.5 262
                159.5 262
                L166 262 "
        style="fill:none; stroke:#444; stroke-width:1" />
               <path d="M166, 259 L174, 262 L166, 265 Z" 
        fill="#333" />
            </g>
            <g>
               <path d="M68.5, 110 L68.5 323 Q68.5 327
                72.5 327
                L79 327 "
        style="fill:none; stroke:#444; stroke-width:1" />
               <path d="M79, 324 L87, 327 L79, 330 Z" 
        fill="#333" />
            </g>
            <g>
               <path d="M117, 357 L117 378 Q117 382
                121 382
                L129 382 "
        style="fill:none; stroke:#444; stroke-width:1" />
               <path d="M129, 379 L137, 382 L129, 385 Z" 
        fill="#333" />
            </g>
            <g>
               <path d="M301.8, 327 L538.4 327  Q542.4 327
                542.4 331
                L542.4 374 Q542.4 382
                546.4 382
                L554.4 382 "
        style="fill:none; stroke:#444; stroke-width:1" />
               <path d="M554.4, 379 L562.4, 382 L554.4, 385 Z" 
        fill="#333" />
            </g>
            <g>
               <path d="M68.5, 110 L68.5 428 Q68.5 432
                72.5 432
                L79 432 "
        style="fill:none; stroke:#444; stroke-width:1" />
               <path d="M79, 429 L87, 432 L79, 435 Z" 
        fill="#333" />
            </g>
            </svg>