<!DOCTYPE svg PUBLIC "-//W3C//DTD SVG 1.1//EN" "http://www.w3.org/Graphics/SVG/1.1/DTD/svg11.dtd">
                <svg xmlns="http://www.w3.org/2000/svg" xmlns:xlink="http://www.w3.org/1999/xlink" 
                width="524" height="676">
                
            <g>
                <rect x="50" y="80"
            width="260.6" height="30"
            style="fill:#a5d6a7; stroke:#444; stroke-width:1" />
                    
                <line x1="60" y1="80" x2="60" y2="110"
                style="fill:#a5d6a7; stroke:#444; stroke-width:1" />
                <line x1="300.6" y1="80" x2="300.6" y2="110"
                style="fill:#a5d6a7; stroke:#444; stroke-width:1" />
             
                <title>function isPalindrome(word)</title>
            <text x="75" y="100"
                font-family="monospace" font-size="13" fill="#222">
                <tspan x="75" y="100">function isPalindrome(word)</tspan>
            </text>
                
            </g>
                <g>
                   <rect x="87" y="128.5"
            width="178.2" height="30"
            rx="3" ry="3"
            style="fill:#90caf9; stroke:#444; stroke-width:1" />
                   <title>var s = new Stack()</title>
            <text x="102" y="148.5"
                font-family="monospace" font-size="13" fill="#222">
                <tspan x="102" y="148.5">var s = new Stack()</tspan>
            </text>
                   
                   
                </g><g>

            <rect x="117" y="212"
            width="177" height="30"
            rx="3" ry="3"
            style="fill:#b39ddb; stroke:#444; stroke-width:1" />
            <polygon points="87,227 117,197 147,227 117,257"
            style="fill:#b39ddb; stroke:#444; stroke-width:1" />
                
            <title>i &lt; word.length</title>
            <text x="162" y="232"
                font-family="monospace" font-size="13" fill="#222">
                <tspan x="162" y="232">i &lt; word.length</tspan>
            </text>
            
            <text x="105.3" y="232"
        font-family="monospace" font-size="13" fill="#222">for</text>
        </g>
                <g>
                   <rect x="137" y="267"
            width="53.4" height="30"
            rx="3" ry="3"
            style="fill:#90caf9; stroke:#444; stroke-width:1" />
                   <title>++i</title>
            <text x="152" y="287"
                font-family="monospace" font-size="13" fill="#222">
                <tspan x="152" y="287">++i</tspan>
            </text>
                   
                   
                </g>
                <g>
                   <rect x="137" y="315.5"
            width="147" height="30"
            rx="2" ry="2"
            style="fill:#C5E1A5; stroke:#444; stroke-width:1" />
                   <title>s.push(word[i])</title>
            <text x="152" y="335.5"
                font-family="monospace" font-size="13" fill="#222">
                <tspan x="152" y="335.5">s.push(word[i])</tspan>
            </text>
                   
                   
                </g>
                <g>
                   <rect x="87" y="364"
            width="139.2" height="30"
            rx="3" ry="3"
            style="fill:#90caf9; stroke:#444; stroke-width:1" />
                   <title>var rword = &quot;&quot;</title>
            <text x="102" y="384"
                font-family="monospace" font-size="13" fill="#222">
                <tspan x="102" y="384">var rword = &quot;&quot;</tspan>
            </text>
                   
                   
                </g><g>

            <rect x="117" y="447.5"
            width="169.2" height="30"
            rx="3" ry="3"
            style="fill:#b39ddb; stroke:#444; stroke-width:1" />
            <polygon points="87,462.5 117,432.5 147,462.5 117,492.5"
            style="fill:#b39ddb; stroke:#444; stroke-width:1" />
                
            <title>s.length() &gt; 0</title>
            <text x="162" y="467.5"
                font-family="monospace" font-size="13" fill="#222">
                <tspan x="162" y="467.5">s.length() &gt; 0</tspan>
            </text>
            
            <text x="97.5" y="467.5"
        font-family="monospace" font-size="13" fill="#222">while</text>
        </g>
                <g>
                   <rect x="137" y="502.5"
            width="154.8" height="30"
            rx="3" ry="3"
            style="fill:#90caf9; stroke:#444; stroke-width:1" />
                   <title>rword += s.pop()</title>
            <text x="152" y="522.5"
                font-family="monospace" font-size="13" fill="#222">
                <tspan x="152" y="522.5">rword += s.pop()</tspan>
            </text>
                   
                   
                </g><g>
            <rect x="117" y="566"
            width="177" height="30"
            rx="3" ry="3"
            style="fill:#ce93d8; stroke:#444; stroke-width:1" />                
            <polygon points="87,581 117,551 147,581 117,611"
            style="fill:#ce93d8; stroke:#444; stroke-width:1" />
            <title>(word == rword)</title>
            <text x="162" y="586"
                font-family="monospace" font-size="13" fill="#222">
                <tspan x="162" y="586">(word == rword)</tspan>
            </text>
            
            <text x="109.2" y="586"
        font-family="monospace" font-size="13" fill="#222">if</text> <text x="124.8" y="612.95"
        font-family="monospace" font-size="13" fill="#222">+</text> <text x="297.9" y="579.05"
        font-family="monospace" font-size="13" fill="#222">-</text>
        </g>
            <g>
                <rect x="137" y="621"
            width="115.80000000000001" height="30"
            rx="3" ry="3"
            style="fill:#90caf9; stroke:#444; stroke-width:1" />
                
                <line x1="252.8" y1="631" x2="257.8" y2="631"
                style="fill:#a5d6a7; stroke:#444; stroke-width:1" />
                
                <line x1="252.8" y1="641" x2="257.8" y2="641"
                style="fill:#a5d6a7; stroke:#444; stroke-width:1" />

                <path d="M257.8, 625 L273.8, 636 L257.8, 647 Z" 
        fill="#a5d6a7" stroke="#444" stroke-width="1" />
                             
                <title>return true</title>
            <text x="152" y="641"
                font-family="monospace" font-size="13" fill="#222">
                <tspan x="152" y="641">return true</tspan>
            </text>
                
            </g>
            <g>
                <rect x="354" y="621"
            width="123.6" height="30"
            rx="3" ry="3"
            style="fill:#90caf9; stroke:#444; stroke-width:1" />
                
                <line x1="477.6" y1="631" x2="482.6" y2="631"
                style="fill:#a5d6a7; stroke:#444; stroke-width:1" />
                
                <line x1="477.6" y1="641" x2="482.6" y2="641"
                style="fill:#a5d6a7; stroke:#444; stroke-width:1" />

                <path d="M482.6, 625 L498.6, 636 L482.6, 647 Z" 
        fill="#a5d6a7" stroke="#444" stroke-width="1" />
                             
                <title>return false</title>
            <text x="369" y="641"
                font-family="monospace" font-size="13" fill="#222">
                <tspan x="369" y="641">return false</tspan>
            </text>
                
            </g>
            <g>
               <rect x="25" y="13.75"
            width="216.6" height="24"
            style="fill:#fff59d; stroke:#444; stroke-width:1" />
               <circle cx="25" cy="25" r="15"
        style="fill:#fff59d; stroke:#444; stroke-width:1" />
               <title>Program: source module</title>
            <text x="55" y="30"
                font-family="monospace" font-size="13" fill="#222">
                <tspan x="55" y="30">Program: source module</tspan>
            </text>
            </g>
            <g>
               <path d="M25, 40 L25 91 Q25 95
                29 95
                L42 95 "
        style="fill:none; stroke:#444; stroke-width:1" />
               <path d="M42, 92 L50, 95 L42, 98 Z" 
        fill="#333" />
            </g>
            <g>
               <path d="M68.5, 110 L68.5 139.5 Q68.5 143.5
                72.5 143.5
                L79 143.5 "
        style="fill:none; stroke:#444; stroke-width:1" />
               <path d="M79, 140.5 L87, 143.5 L79, 146.5 Z" 
        fill="#333" />
            </g>
            <g>
               <path d="M68.5, 110 L68.5 223 Q68.5 227
                72.5 227
                L79 227 "
        style="fill:none; stroke:#444; stroke-width:1" />
               <path d="M79, 224 L87, 227 L79, 230 Z" 
        fill="#333" />
            </g>
            <g>
               <path d="M117, 257 L117 278 Q117 282
                121 282
                L129 282 "
        style="fill:none; stroke:#444; stroke-width:1" />
               <path d="M129, 279 L137, 282 L129, 285 Z" 
        fill="#333" />
            </g>
            <g>
               <path d="M117, 257 L117 326.5 Q117 330.5
                121 330.5
                L129 330.5 "
        style="fill:none; stroke:#444; stroke-width:1" />
               <path d="M129, 327.5 L137, 330.5 L129, 333.5 Z" 
        fill="#333" />
            </g>
            <g>
               <path d="M284, 330.5 L310 330.5  Q314 330.5
                314 326.5
                L314 185 Q314 177
                310 177
                L125 177  Q117 177
                117 181
                L117 189"
        style="fill:none; stroke:#444; stroke-width:1" />
               <path d="M114, 189 L117, 197 L120, 189 Z" 
        fill="#333" />
            </g>
            <g>
               <path d="M68.5, 110 L68.5 375 Q68.5 379
                72.5 379
                L79 379 "
        style="fill:none; stroke:#444; stroke-width:1" />
               <path d="M79, 376 L87, 379 L79, 382 Z" 
        fill="#333" />
            </g>
            <g>
               <path d="M68.5, 110 L68.5 458.5 Q68.5 462.5
                72.5 462.5
                L79 462.5 "
        style="fill:none; stroke:#444; stroke-width:1" />
               <path d="M79, 459.5 L87, 462.5 L79, 465.5 Z" 
        fill="#333" />
            </g>
            <g>
               <path d="M117, 492.5 L117 513.5 Q117 517.5
                121 517.5
                L129 517.5 "
        style="fill:none; stroke:#444; stroke-width:1" />
               <path d="M129, 514.5 L137, 517.5 L129, 520.5 Z" 
        fill="#333" />
            </g>
            <g>
               <path d="M291.8, 517.5 L307.8 517.5  Q311.8 517.5
                311.8 513.5
                L311.8 420.5 Q311.8 412.5
                307.8 412.5
                L125 412.5  Q117 412.5
                117 416.5
                L117 424.5"
        style="fill:none; stroke:#444; stroke-width:1" />
               <path d="M114, 424.5 L117, 432.5 L120, 424.5 Z" 
        fill="#333" />
            </g>
            <g>
               <path d="M68.5, 110 L68.5 577 Q68.5 581
                72.5 581
                L79 581 "
        style="fill:none; stroke:#444; stroke-width:1" />
               <path d="M79, 578 L87, 581 L79, 584 Z" 
        fill="#333" />
            </g>
            <g>
               <path d="M117, 611 L117 632 Q117 636
                121 636
                L129 636 "
        style="fill:none; stroke:#444; stroke-width:1" />
               <path d="M129, 633 L137, 636 L129, 639 Z" 
        fill="#333" />
            </g>
            <g>
               <path d="M294, 581 L330 581  Q334 581
                334 585
                L334 628 Q334 636
                338 636
                L346 636 "
        style="fill:none; stroke:#444; stroke-width:1" />
               <path d="M346, 633 L354, 636 L346, 639 Z" 
        fill="#333" />
            </g>
            </svg>