<!DOCTYPE svg PUBLIC "-//W3C//DTD SVG 1.1//EN" "http://www.w3.org/Graphics/SVG/1.1/DTD/svg11.dtd">
                <svg xmlns="http://www.w3.org/2000/svg" xmlns:xlink="http://www.w3.org/1999/xlink" 
                width="498" height="1234">
                
            <g>
                <rect x="50" y="80"
            width="362" height="30"
            style="fill:#a5d6a7; stroke:#444; stroke-width:1" />
                    
                <line x1="60" y1="80" x2="60" y2="110"
                style="fill:#a5d6a7; stroke:#444; stroke-width:1" />
                <line x1="402" y1="80" x2="402" y2="110"
                style="fill:#a5d6a7; stroke:#444; stroke-width:1" />
             
                <title>lengthOfLongestSubstring = function(str)</title>
            <text x="75" y="100"
                font-family="monospace" font-size="13" fill="#222">
                <tspan x="75" y="100">lengthOfLongestSubstring = function(str)</tspan>
            </text>
                
            </g><g>
            <rect x="117" y="143.5"
            width="325.2" height="30"
            rx="3" ry="3"
            style="fill:#ce93d8; stroke:#444; stroke-width:1" />                
            <polygon points="87,158.5 117,128.5 147,158.5 117,188.5"
            style="fill:#ce93d8; stroke:#444; stroke-width:1" />
            <title>(str.length === 0 || str === null)</title>
            <text x="162" y="163.5"
                font-family="monospace" font-size="13" fill="#222">
                <tspan x="162" y="163.5">(str.length === 0 || str === null)</tspan>
            </text>
            
            <text x="109.2" y="163.5"
        font-family="monospace" font-size="13" fill="#222">if</text> <text x="124.8" y="190.45"
        font-family="monospace" font-size="13" fill="#222">+</text> 
        </g>
            <g>
                <rect x="137" y="198.5"
            width="92.4" height="30"
            rx="3" ry="3"
            style="fill:#90caf9; stroke:#444; stroke-width:1" />
                
                <line x1="229.4" y1="208.5" x2="234.4" y2="208.5"
                style="fill:#a5d6a7; stroke:#444; stroke-width:1" />
                
                <line x1="229.4" y1="218.5" x2="234.4" y2="218.5"
                style="fill:#a5d6a7; stroke:#444; stroke-width:1" />

                <path d="M234.4, 202.5 L250.4, 213.5 L234.4, 224.5 Z" 
        fill="#a5d6a7" stroke="#444" stroke-width="1" />
                             
                <title>return 0</title>
            <text x="152" y="218.5"
                font-family="monospace" font-size="13" fill="#222">
                <tspan x="152" y="218.5">return 0</tspan>
            </text>
                
            </g>
                <g>
                   <rect x="87" y="248.5"
            width="147" height="30"
            rx="3" ry="3"
            style="fill:#90caf9; stroke:#444; stroke-width:1" />
                   <title>const map = {*}</title>
            <text x="102" y="268.5"
                font-family="monospace" font-size="13" fill="#222">
                <tspan x="102" y="268.5">const map = {*}</tspan>
            </text>
                   
                   
                </g>
                <g>
                   <rect x="87" y="297"
            width="186" height="30"
            rx="3" ry="3"
            style="fill:#90caf9; stroke:#444; stroke-width:1" />
                   <title>let len = str.length</title>
            <text x="102" y="317"
                font-family="monospace" font-size="13" fill="#222">
                <tspan x="102" y="317">let len = str.length</tspan>
            </text>
                   
                   
                </g>
                <g>
                   <rect x="87" y="345.5"
            width="123.6" height="30"
            rx="3" ry="3"
            style="fill:#90caf9; stroke:#444; stroke-width:1" />
                   <title>let left = 0</title>
            <text x="102" y="365.5"
                font-family="monospace" font-size="13" fill="#222">
                <tspan x="102" y="365.5">let left = 0</tspan>
            </text>
                   
                   
                </g>
                <g>
                   <rect x="87" y="394"
            width="131.39999999999998" height="30"
            rx="3" ry="3"
            style="fill:#90caf9; stroke:#444; stroke-width:1" />
                   <title>let right = 0</title>
            <text x="102" y="414"
                font-family="monospace" font-size="13" fill="#222">
                <tspan x="102" y="414">let right = 0</tspan>
            </text>
                   
                   
                </g>
                <g>
                   <rect x="87" y="442.5"
            width="115.8" height="30"
            rx="3" ry="3"
            style="fill:#90caf9; stroke:#444; stroke-width:1" />
                   <title>let max = 0</title>
            <text x="102" y="462.5"
                font-family="monospace" font-size="13" fill="#222">
                <tspan x="102" y="462.5">let max = 0</tspan>
            </text>
                   
                   
                </g><g>

            <rect x="117" y="526"
            width="145.8" height="30"
            rx="3" ry="3"
            style="fill:#b39ddb; stroke:#444; stroke-width:1" />
            <polygon points="87,541 117,511 147,541 117,571"
            style="fill:#b39ddb; stroke:#444; stroke-width:1" />
                
            <title>right &lt; len</title>
            <text x="162" y="546"
                font-family="monospace" font-size="13" fill="#222">
                <tspan x="162" y="546">right &lt; len</tspan>
            </text>
            
            <text x="105.3" y="546"
        font-family="monospace" font-size="13" fill="#222">for</text>
        </g>
                <g>
                   <rect x="137" y="581"
            width="84.6" height="30"
            rx="3" ry="3"
            style="fill:#90caf9; stroke:#444; stroke-width:1" />
                   <title>right++</title>
            <text x="152" y="601"
                font-family="monospace" font-size="13" fill="#222">
                <tspan x="152" y="601">right++</tspan>
            </text>
                   
                   
                </g>
                <g>
                   <rect x="137" y="629.5"
            width="232.79999999999998" height="30"
            rx="3" ry="3"
            style="fill:#90caf9; stroke:#444; stroke-width:1" />
                   <title>let ch = str.charAt(right)</title>
            <text x="152" y="649.5"
                font-family="monospace" font-size="13" fill="#222">
                <tspan x="152" y="649.5">let ch = str.charAt(right)</tspan>
            </text>
                   
                   
                </g><g>
            <rect x="167" y="693"
            width="130.2" height="30"
            rx="3" ry="3"
            style="fill:#ce93d8; stroke:#444; stroke-width:1" />                
            <polygon points="137,708 167,678 197,708 167,738"
            style="fill:#ce93d8; stroke:#444; stroke-width:1" />
            <title>(map[ch])</title>
            <text x="212" y="713"
                font-family="monospace" font-size="13" fill="#222">
                <tspan x="212" y="713">(map[ch])</tspan>
            </text>
            
            <text x="163.1" y="713"
        font-family="monospace" font-size="13" fill="#222">?</text> <text x="174.8" y="739.95"
        font-family="monospace" font-size="13" fill="#222">+</text> <text x="301.09999999999997" y="706.05"
        font-family="monospace" font-size="13" fill="#222">-</text>
        </g>
                <g>
                   <rect x="187" y="748"
            width="100.2" height="30"
            rx="3" ry="3"
            style="fill:#90caf9; stroke:#444; stroke-width:1" />
                   <title>map[ch]++</title>
            <text x="202" y="768"
                font-family="monospace" font-size="13" fill="#222">
                <tspan x="202" y="768">map[ch]++</tspan>
            </text>
                   
                   
                </g>
                <g>
                   <rect x="357.2" y="748"
            width="115.8" height="30"
            rx="3" ry="3"
            style="fill:#90caf9; stroke:#444; stroke-width:1" />
                   <title>map[ch] = 1</title>
            <text x="372.2" y="768"
                font-family="monospace" font-size="13" fill="#222">
                <tspan x="372.2" y="768">map[ch] = 1</tspan>
            </text>
                   
                   
                </g><g>

            <rect x="167" y="833"
            width="270.6" height="30"
            rx="3" ry="3"
            style="fill:#b39ddb; stroke:#444; stroke-width:1" />
            <polygon points="137,848 167,818 197,848 167,878"
            style="fill:#b39ddb; stroke:#444; stroke-width:1" />
                
            <title>map[ch] &gt; 1 &amp;&amp; left &lt; right</title>
            <text x="212" y="853"
                font-family="monospace" font-size="13" fill="#222">
                <tspan x="212" y="853">map[ch] &gt; 1 &amp;&amp; left &lt; right</tspan>
            </text>
            
            <text x="147.5" y="853"
        font-family="monospace" font-size="13" fill="#222">while</text>
        </g>
                <g>
                   <rect x="187" y="888"
            width="209.4" height="30"
            rx="3" ry="3"
            style="fill:#90caf9; stroke:#444; stroke-width:1" />
                   <title>map[str.charAt(left)]--</title>
            <text x="202" y="908"
                font-family="monospace" font-size="13" fill="#222">
                <tspan x="202" y="908">map[str.charAt(left)]--</tspan>
            </text>
                   
                   
                </g>
                <g>
                   <rect x="187" y="936.5"
            width="154.8" height="30"
            rx="2" ry="2"
            style="fill:#C5E1A5; stroke:#444; stroke-width:1" />
                   <title>str.charAt(left)</title>
            <text x="202" y="956.5"
                font-family="monospace" font-size="13" fill="#222">
                <tspan x="202" y="956.5">str.charAt(left)</tspan>
            </text>
                   
                   
                </g>
                <g>
                   <rect x="187" y="985"
            width="76.8" height="30"
            rx="3" ry="3"
            style="fill:#90caf9; stroke:#444; stroke-width:1" />
                   <title>left++</title>
            <text x="202" y="1005"
                font-family="monospace" font-size="13" fill="#222">
                <tspan x="202" y="1005">left++</tspan>
            </text>
                   
                   
                </g>
                <g>
                   <rect x="137" y="1033.5"
            width="154.8" height="30"
            rx="2" ry="2"
            style="fill:#C5E1A5; stroke:#444; stroke-width:1" />
                   <title>console.log(map)</title>
            <text x="152" y="1053.5"
                font-family="monospace" font-size="13" fill="#222">
                <tspan x="152" y="1053.5">console.log(map)</tspan>
            </text>
                   
                   
                </g>
                <g>
                   <rect x="137" y="1082"
            width="318.59999999999997" height="30"
            rx="3" ry="3"
            style="fill:#90caf9; stroke:#444; stroke-width:1" />
                   <title>max = Math.max(max, right - left + 1)</title>
            <text x="152" y="1102"
                font-family="monospace" font-size="13" fill="#222">
                <tspan x="152" y="1102">max = Math.max(max, right - left + 1)</tspan>
            </text>
                   
                   
                </g>
            <g>
                <rect x="87" y="1130.5"
            width="108" height="30"
            rx="3" ry="3"
            style="fill:#90caf9; stroke:#444; stroke-width:1" />
                
                <line x1="195" y1="1140.5" x2="200" y2="1140.5"
                style="fill:#a5d6a7; stroke:#444; stroke-width:1" />
                
                <line x1="195" y1="1150.5" x2="200" y2="1150.5"
                style="fill:#a5d6a7; stroke:#444; stroke-width:1" />

                <path d="M200, 1134.5 L216, 1145.5 L200, 1156.5 Z" 
        fill="#a5d6a7" stroke="#444" stroke-width="1" />
                             
                <title>return max</title>
            <text x="102" y="1150.5"
                font-family="monospace" font-size="13" fill="#222">
                <tspan x="102" y="1150.5">return max</tspan>
            </text>
                
            </g>
                <g>
                   <rect x="50" y="1179"
            width="396.59999999999997" height="30"
            rx="2" ry="2"
            style="fill:#C5E1A5; stroke:#444; stroke-width:1" />
                   <title>console.log(lengthOfLongestSubstring(&quot;pwwkew&quot;))</title>
            <text x="65" y="1199"
                font-family="monospace" font-size="13" fill="#222">
                <tspan x="65" y="1199">console.log(lengthOfLongestSubstring(&quot;pwwkew&quot;))</tspan>
            </text>
                   
                   
                </g>
            <g>
               <rect x="25" y="13.75"
            width="216.6" height="24"
            style="fill:#fff59d; stroke:#444; stroke-width:1" />
               <circle cx="25" cy="25" r="15"
        style="fill:#fff59d; stroke:#444; stroke-width:1" />
               <title>Program: source module</title>
            <text x="55" y="30"
                font-family="monospace" font-size="13" fill="#222">
                <tspan x="55" y="30">Program: source module</tspan>
            </text>
            </g>
            <g>
               <path d="M25, 40 L25 91 Q25 95
                29 95
                L42 95 "
        style="fill:none; stroke:#444; stroke-width:1" />
               <path d="M42, 92 L50, 95 L42, 98 Z" 
        fill="#333" />
            </g>
            <g>
               <path d="M68.5, 110 L68.5 154.5 Q68.5 158.5
                72.5 158.5
                L79 158.5 "
        style="fill:none; stroke:#444; stroke-width:1" />
               <path d="M79, 155.5 L87, 158.5 L79, 161.5 Z" 
        fill="#333" />
            </g>
            <g>
               <path d="M117, 188.5 L117 209.5 Q117 213.5
                121 213.5
                L129 213.5 "
        style="fill:none; stroke:#444; stroke-width:1" />
               <path d="M129, 210.5 L137, 213.5 L129, 216.5 Z" 
        fill="#333" />
            </g>
            <g>
               <path d="M68.5, 110 L68.5 259.5 Q68.5 263.5
                72.5 263.5
                L79 263.5 "
        style="fill:none; stroke:#444; stroke-width:1" />
               <path d="M79, 260.5 L87, 263.5 L79, 266.5 Z" 
        fill="#333" />
            </g>
            <g>
               <path d="M68.5, 110 L68.5 308 Q68.5 312
                72.5 312
                L79 312 "
        style="fill:none; stroke:#444; stroke-width:1" />
               <path d="M79, 309 L87, 312 L79, 315 Z" 
        fill="#333" />
            </g>
            <g>
               <path d="M68.5, 110 L68.5 356.5 Q68.5 360.5
                72.5 360.5
                L79 360.5 "
        style="fill:none; stroke:#444; stroke-width:1" />
               <path d="M79, 357.5 L87, 360.5 L79, 363.5 Z" 
        fill="#333" />
            </g>
            <g>
               <path d="M68.5, 110 L68.5 405 Q68.5 409
                72.5 409
                L79 409 "
        style="fill:none; stroke:#444; stroke-width:1" />
               <path d="M79, 406 L87, 409 L79, 412 Z" 
        fill="#333" />
            </g>
            <g>
               <path d="M68.5, 110 L68.5 453.5 Q68.5 457.5
                72.5 457.5
                L79 457.5 "
        style="fill:none; stroke:#444; stroke-width:1" />
               <path d="M79, 454.5 L87, 457.5 L79, 460.5 Z" 
        fill="#333" />
            </g>
            <g>
               <path d="M68.5, 110 L68.5 537 Q68.5 541
                72.5 541
                L79 541 "
        style="fill:none; stroke:#444; stroke-width:1" />
               <path d="M79, 538 L87, 541 L79, 544 Z" 
        fill="#333" />
            </g>
            <g>
               <path d="M117, 571 L117 592 Q117 596
                121 596
                L129 596 "
        style="fill:none; stroke:#444; stroke-width:1" />
               <path d="M129, 593 L137, 596 L129, 599 Z" 
        fill="#333" />
            </g>
            <g>
               <path d="M117, 571 L117 640.5 Q117 644.5
                121 644.5
                L129 644.5 "
        style="fill:none; stroke:#444; stroke-width:1" />
               <path d="M129, 641.5 L137, 644.5 L129, 647.5 Z" 
        fill="#333" />
            </g>
            <g>
               <path d="M117, 571 L117 704 Q117 708
                121 708
                L129 708 "
        style="fill:none; stroke:#444; stroke-width:1" />
               <path d="M129, 705 L137, 708 L129, 711 Z" 
        fill="#333" />
            </g>
            <g>
               <path d="M167, 738 L167 759 Q167 763
                171 763
                L179 763 "
        style="fill:none; stroke:#444; stroke-width:1" />
               <path d="M179, 760 L187, 763 L179, 766 Z" 
        fill="#333" />
            </g>
            <g>
               <path d="M297.2, 708 L333.2 708  Q337.2 708
                337.2 712
                L337.2 755 Q337.2 763
                341.2 763
                L349.2 763 "
        style="fill:none; stroke:#444; stroke-width:1" />
               <path d="M349.2, 760 L357.2, 763 L349.2, 766 Z" 
        fill="#333" />
            </g>
            <g>
               <path d="M117, 571 L117 844 Q117 848
                121 848
                L129 848 "
        style="fill:none; stroke:#444; stroke-width:1" />
               <path d="M129, 845 L137, 848 L129, 851 Z" 
        fill="#333" />
            </g>
            <g>
               <path d="M167, 878 L167 899 Q167 903
                171 903
                L179 903 "
        style="fill:none; stroke:#444; stroke-width:1" />
               <path d="M179, 900 L187, 903 L179, 906 Z" 
        fill="#333" />
            </g>
            <g>
               <path d="M167, 878 L167 947.5 Q167 951.5
                171 951.5
                L179 951.5 "
        style="fill:none; stroke:#444; stroke-width:1" />
               <path d="M179, 948.5 L187, 951.5 L179, 954.5 Z" 
        fill="#333" />
            </g>
            <g>
               <path d="M167, 878 L167 996 Q167 1000
                171 1000
                L179 1000 "
        style="fill:none; stroke:#444; stroke-width:1" />
               <path d="M179, 997 L187, 1000 L179, 1003 Z" 
        fill="#333" />
            </g>
            <g>
               <path d="M263.8, 1000 L453.6 1000  Q457.6 1000
                457.6 996
                L457.6 806 Q457.6 798
                453.6 798
                L175 798  Q167 798
                167 802
                L167 810"
        style="fill:none; stroke:#444; stroke-width:1" />
               <path d="M164, 810 L167, 818 L170, 810 Z" 
        fill="#333" />
            </g>
            <g>
               <path d="M117, 571 L117 1044.5 Q117 1048.5
                121 1048.5
                L129 1048.5 "
        style="fill:none; stroke:#444; stroke-width:1" />
               <path d="M129, 1045.5 L137, 1048.5 L129, 1051.5 Z" 
        fill="#333" />
            </g>
            <g>
               <path d="M117, 571 L117 1093 Q117 1097
                121 1097
                L129 1097 "
        style="fill:none; stroke:#444; stroke-width:1" />
               <path d="M129, 1094 L137, 1097 L129, 1100 Z" 
        fill="#333" />
            </g>
            <g>
               <path d="M455.59999999999997, 1097 L489 1097  Q493 1097
                493 1093
                L493 499 Q493 491
                489 491
                L125 491  Q117 491
                117 495
                L117 503"
        style="fill:none; stroke:#444; stroke-width:1" />
               <path d="M114, 503 L117, 511 L120, 503 Z" 
        fill="#333" />
            </g>
            <g>
               <path d="M68.5, 110 L68.5 1141.5 Q68.5 1145.5
                72.5 1145.5
                L79 1145.5 "
        style="fill:none; stroke:#444; stroke-width:1" />
               <path d="M79, 1142.5 L87, 1145.5 L79, 1148.5 Z" 
        fill="#333" />
            </g>
            <g>
               <path d="M25, 40 L25 1190 Q25 1194
                29 1194
                L42 1194 "
        style="fill:none; stroke:#444; stroke-width:1" />
               <path d="M42, 1191 L50, 1194 L42, 1197 Z" 
        fill="#333" />
            </g>
            </svg>