<!DOCTYPE svg PUBLIC "-//W3C//DTD SVG 1.1//EN" "http://www.w3.org/Graphics/SVG/1.1/DTD/svg11.dtd">
                <svg xmlns="http://www.w3.org/2000/svg" xmlns:xlink="http://www.w3.org/1999/xlink" 
                width="500" height="1305">
                
            <g>
                <rect x="50" y="80"
            width="323" height="30"
            style="fill:#a5d6a7; stroke:#444; stroke-width:1" />
                    
                <line x1="60" y1="80" x2="60" y2="110"
                style="fill:#a5d6a7; stroke:#444; stroke-width:1" />
                <line x1="363" y1="80" x2="363" y2="110"
                style="fill:#a5d6a7; stroke:#444; stroke-width:1" />
             
                <title>function letterCombinations(digits)</title>
            <text x="75" y="100"
                font-family="monospace" font-size="13" fill="#222">
                <tspan x="75" y="100">function letterCombinations(digits)</tspan>
            </text>
                
            </g>
                <g>
                   <rect x="87" y="128.5"
            width="178.2" height="30"
            rx="3" ry="3"
            style="fill:#90caf9; stroke:#444; stroke-width:1" />
                   <title>const letters = {*}</title>
            <text x="102" y="148.5"
                font-family="monospace" font-size="13" fill="#222">
                <tspan x="102" y="148.5">const letters = {*}</tspan>
            </text>
                   
                   
                </g>
                <g>
                   <rect x="124" y="177"
            width="92.4" height="30"
            rx="2" ry="2"
            style="fill:#90caf9; stroke:#444; stroke-width:1" />
                   <title>2: &apos;abc&apos;</title>
            <text x="139" y="197"
                font-family="monospace" font-size="13" fill="#222">
                <tspan x="139" y="197">2: &apos;abc&apos;</tspan>
            </text>
                   
                   
                </g>
                <g>
                   <rect x="124" y="225.5"
            width="92.4" height="30"
            rx="2" ry="2"
            style="fill:#90caf9; stroke:#444; stroke-width:1" />
                   <title>3: &apos;def&apos;</title>
            <text x="139" y="245.5"
                font-family="monospace" font-size="13" fill="#222">
                <tspan x="139" y="245.5">3: &apos;def&apos;</tspan>
            </text>
                   
                   
                </g>
                <g>
                   <rect x="124" y="274"
            width="92.4" height="30"
            rx="2" ry="2"
            style="fill:#90caf9; stroke:#444; stroke-width:1" />
                   <title>4: &apos;ghi&apos;</title>
            <text x="139" y="294"
                font-family="monospace" font-size="13" fill="#222">
                <tspan x="139" y="294">4: &apos;ghi&apos;</tspan>
            </text>
                   
                   
                </g>
                <g>
                   <rect x="124" y="322.5"
            width="92.4" height="30"
            rx="2" ry="2"
            style="fill:#90caf9; stroke:#444; stroke-width:1" />
                   <title>5: &apos;jkl&apos;</title>
            <text x="139" y="342.5"
                font-family="monospace" font-size="13" fill="#222">
                <tspan x="139" y="342.5">5: &apos;jkl&apos;</tspan>
            </text>
                   
                   
                </g>
                <g>
                   <rect x="124" y="371"
            width="92.4" height="30"
            rx="2" ry="2"
            style="fill:#90caf9; stroke:#444; stroke-width:1" />
                   <title>6: &apos;mno&apos;</title>
            <text x="139" y="391"
                font-family="monospace" font-size="13" fill="#222">
                <tspan x="139" y="391">6: &apos;mno&apos;</tspan>
            </text>
                   
                   
                </g>
                <g>
                   <rect x="124" y="419.5"
            width="100.2" height="30"
            rx="2" ry="2"
            style="fill:#90caf9; stroke:#444; stroke-width:1" />
                   <title>7: &apos;pqrs&apos;</title>
            <text x="139" y="439.5"
                font-family="monospace" font-size="13" fill="#222">
                <tspan x="139" y="439.5">7: &apos;pqrs&apos;</tspan>
            </text>
                   
                   
                </g>
                <g>
                   <rect x="124" y="468"
            width="92.4" height="30"
            rx="2" ry="2"
            style="fill:#90caf9; stroke:#444; stroke-width:1" />
                   <title>8: &apos;tuv&apos;</title>
            <text x="139" y="488"
                font-family="monospace" font-size="13" fill="#222">
                <tspan x="139" y="488">8: &apos;tuv&apos;</tspan>
            </text>
                   
                   
                </g>
                <g>
                   <rect x="124" y="516.5"
            width="100.2" height="30"
            rx="2" ry="2"
            style="fill:#90caf9; stroke:#444; stroke-width:1" />
                   <title>9: &apos;wxyz&apos;</title>
            <text x="139" y="536.5"
                font-family="monospace" font-size="13" fill="#222">
                <tspan x="139" y="536.5">9: &apos;wxyz&apos;</tspan>
            </text>
                   
                   
                </g>
                <g>
                   <rect x="87" y="565"
            width="147" height="30"
            rx="3" ry="3"
            style="fill:#90caf9; stroke:#444; stroke-width:1" />
                   <title>let prefix = []</title>
            <text x="102" y="585"
                font-family="monospace" font-size="13" fill="#222">
                <tspan x="102" y="585">let prefix = []</tspan>
            </text>
                   
                   
                </g>
                <g>
                   <rect x="87" y="613.5"
            width="123.6" height="30"
            rx="3" ry="3"
            style="fill:#90caf9; stroke:#444; stroke-width:1" />
                   <title>let res = []</title>
            <text x="102" y="633.5"
                font-family="monospace" font-size="13" fill="#222">
                <tspan x="102" y="633.5">let res = []</tspan>
            </text>
                   
                   
                </g>
            <g>
                <rect x="87" y="677"
            width="167" height="30"
            style="fill:#a5d6a7; stroke:#444; stroke-width:1" />
                    
                <line x1="97" y1="677" x2="97" y2="707"
                style="fill:#a5d6a7; stroke:#444; stroke-width:1" />
                <line x1="244" y1="677" x2="244" y2="707"
                style="fill:#a5d6a7; stroke:#444; stroke-width:1" />
             
                <title>function dfs(i)</title>
            <text x="112" y="697"
                font-family="monospace" font-size="13" fill="#222">
                <tspan x="112" y="697">function dfs(i)</tspan>
            </text>
                
            </g><g>
            <rect x="154" y="740.5"
            width="223.79999999999998" height="30"
            rx="3" ry="3"
            style="fill:#ce93d8; stroke:#444; stroke-width:1" />                
            <polygon points="124,755.5 154,725.5 184,755.5 154,785.5"
            style="fill:#ce93d8; stroke:#444; stroke-width:1" />
            <title>(i === digits.length)</title>
            <text x="199" y="760.5"
                font-family="monospace" font-size="13" fill="#222">
                <tspan x="199" y="760.5">(i === digits.length)</tspan>
            </text>
            
            <text x="146.2" y="760.5"
        font-family="monospace" font-size="13" fill="#222">if</text> <text x="161.8" y="787.45"
        font-family="monospace" font-size="13" fill="#222">+</text> 
        </g>
            <g>
                <rect x="174" y="795.5"
            width="279.6" height="30"
            rx="3" ry="3"
            style="fill:#90caf9; stroke:#444; stroke-width:1" />
                
                <line x1="453.6" y1="805.5" x2="458.6" y2="805.5"
                style="fill:#a5d6a7; stroke:#444; stroke-width:1" />
                
                <line x1="453.6" y1="815.5" x2="458.6" y2="815.5"
                style="fill:#a5d6a7; stroke:#444; stroke-width:1" />

                <path d="M458.6, 799.5 L474.6, 810.5 L458.6, 821.5 Z" 
        fill="#a5d6a7" stroke="#444" stroke-width="1" />
                             
                <title>return res.push(prefix.join(&apos;&apos;))</title>
            <text x="189" y="815.5"
                font-family="monospace" font-size="13" fill="#222">
                <tspan x="189" y="815.5">return res.push(prefix.join(&apos;&apos;))</tspan>
            </text>
                
            </g><g>

            <rect x="154" y="880.5"
            width="247.2" height="30"
            rx="3" ry="3"
            style="fill:#b39ddb; stroke:#444; stroke-width:1" />
            <polygon points="124,895.5 154,865.5 184,895.5 154,925.5"
            style="fill:#b39ddb; stroke:#444; stroke-width:1" />
                
            <title> c of letters[digits[i]]</title>
            <text x="199" y="900.5"
                font-family="monospace" font-size="13" fill="#222">
                <tspan x="199" y="900.5"> c of letters[digits[i]]</tspan>
            </text>
            
            <text x="142.3" y="900.5"
        font-family="monospace" font-size="13" fill="#222">for</text>
        </g>
                <g>
                   <rect x="174" y="935.5"
            width="139.2" height="30"
            rx="2" ry="2"
            style="fill:#C5E1A5; stroke:#444; stroke-width:1" />
                   <title>prefix.push(c)</title>
            <text x="189" y="955.5"
                font-family="monospace" font-size="13" fill="#222">
                <tspan x="189" y="955.5">prefix.push(c)</tspan>
            </text>
                   
                   
                </g>
                <g>
                   <rect x="174" y="984"
            width="108" height="30"
            rx="2" ry="2"
            style="fill:#C5E1A5; stroke:#444; stroke-width:1" />
                   <title>dfs(i + 1)</title>
            <text x="189" y="1004"
                font-family="monospace" font-size="13" fill="#222">
                <tspan x="189" y="1004">dfs(i + 1)</tspan>
            </text>
                   
                   
                </g>
                <g>
                   <rect x="174" y="1032.5"
            width="123.6" height="30"
            rx="2" ry="2"
            style="fill:#C5E1A5; stroke:#444; stroke-width:1" />
                   <title>prefix.pop()</title>
            <text x="189" y="1052.5"
                font-family="monospace" font-size="13" fill="#222">
                <tspan x="189" y="1052.5">prefix.pop()</tspan>
            </text>
                   
                   
                </g><g>
            <rect x="117" y="1096"
            width="177" height="30"
            rx="3" ry="3"
            style="fill:#ce93d8; stroke:#444; stroke-width:1" />                
            <polygon points="87,1111 117,1081 147,1111 117,1141"
            style="fill:#ce93d8; stroke:#444; stroke-width:1" />
            <title>(digits.length)</title>
            <text x="162" y="1116"
                font-family="monospace" font-size="13" fill="#222">
                <tspan x="162" y="1116">(digits.length)</tspan>
            </text>
            
            <text x="109.2" y="1116"
        font-family="monospace" font-size="13" fill="#222">if</text> <text x="124.8" y="1142.95"
        font-family="monospace" font-size="13" fill="#222">+</text> 
        </g>
                <g>
                   <rect x="137" y="1151"
            width="76.8" height="30"
            rx="2" ry="2"
            style="fill:#C5E1A5; stroke:#444; stroke-width:1" />
                   <title>dfs(0)</title>
            <text x="152" y="1171"
                font-family="monospace" font-size="13" fill="#222">
                <tspan x="152" y="1171">dfs(0)</tspan>
            </text>
                   
                   
                </g>
            <g>
                <rect x="87" y="1201"
            width="108" height="30"
            rx="3" ry="3"
            style="fill:#90caf9; stroke:#444; stroke-width:1" />
                
                <line x1="195" y1="1211" x2="200" y2="1211"
                style="fill:#a5d6a7; stroke:#444; stroke-width:1" />
                
                <line x1="195" y1="1221" x2="200" y2="1221"
                style="fill:#a5d6a7; stroke:#444; stroke-width:1" />

                <path d="M200, 1205 L216, 1216 L200, 1227 Z" 
        fill="#a5d6a7" stroke="#444" stroke-width="1" />
                             
                <title>return res</title>
            <text x="102" y="1221"
                font-family="monospace" font-size="13" fill="#222">
                <tspan x="102" y="1221">return res</tspan>
            </text>
                
            </g>
                <g>
                   <rect x="50" y="1249.5"
            width="318.59999999999997" height="30"
            rx="2" ry="2"
            style="fill:#C5E1A5; stroke:#444; stroke-width:1" />
                   <title>console.log(letterCombinations(&apos;23&apos;))</title>
            <text x="65" y="1269.5"
                font-family="monospace" font-size="13" fill="#222">
                <tspan x="65" y="1269.5">console.log(letterCombinations(&apos;23&apos;))</tspan>
            </text>
                   
                   
                </g>
            <g>
               <rect x="25" y="13.75"
            width="216.6" height="24"
            style="fill:#fff59d; stroke:#444; stroke-width:1" />
               <circle cx="25" cy="25" r="15"
        style="fill:#fff59d; stroke:#444; stroke-width:1" />
               <title>Program: source module</title>
            <text x="55" y="30"
                font-family="monospace" font-size="13" fill="#222">
                <tspan x="55" y="30">Program: source module</tspan>
            </text>
            </g>
            <g>
               <path d="M25, 40 L25 91 Q25 95
                29 95
                L42 95 "
        style="fill:none; stroke:#444; stroke-width:1" />
               <path d="M42, 92 L50, 95 L42, 98 Z" 
        fill="#333" />
            </g>
            <g>
               <path d="M68.5, 110 L68.5 139.5 Q68.5 143.5
                72.5 143.5
                L79 143.5 "
        style="fill:none; stroke:#444; stroke-width:1" />
               <path d="M79, 140.5 L87, 143.5 L79, 146.5 Z" 
        fill="#333" />
            </g>
            <g>
               <path d="M105.5, 158.5 L105.5 188 Q105.5 192
                109.5 192
                L124 192 "
        style="fill:none; stroke:#444; stroke-width:1" />
               false
            </g>
            <g>
               <path d="M105.5, 158.5 L105.5 236.5 Q105.5 240.5
                109.5 240.5
                L124 240.5 "
        style="fill:none; stroke:#444; stroke-width:1" />
               false
            </g>
            <g>
               <path d="M105.5, 158.5 L105.5 285 Q105.5 289
                109.5 289
                L124 289 "
        style="fill:none; stroke:#444; stroke-width:1" />
               false
            </g>
            <g>
               <path d="M105.5, 158.5 L105.5 333.5 Q105.5 337.5
                109.5 337.5
                L124 337.5 "
        style="fill:none; stroke:#444; stroke-width:1" />
               false
            </g>
            <g>
               <path d="M105.5, 158.5 L105.5 382 Q105.5 386
                109.5 386
                L124 386 "
        style="fill:none; stroke:#444; stroke-width:1" />
               false
            </g>
            <g>
               <path d="M105.5, 158.5 L105.5 430.5 Q105.5 434.5
                109.5 434.5
                L124 434.5 "
        style="fill:none; stroke:#444; stroke-width:1" />
               false
            </g>
            <g>
               <path d="M105.5, 158.5 L105.5 479 Q105.5 483
                109.5 483
                L124 483 "
        style="fill:none; stroke:#444; stroke-width:1" />
               false
            </g>
            <g>
               <path d="M105.5, 158.5 L105.5 527.5 Q105.5 531.5
                109.5 531.5
                L124 531.5 "
        style="fill:none; stroke:#444; stroke-width:1" />
               false
            </g>
            <g>
               <path d="M68.5, 110 L68.5 576 Q68.5 580
                72.5 580
                L79 580 "
        style="fill:none; stroke:#444; stroke-width:1" />
               <path d="M79, 577 L87, 580 L79, 583 Z" 
        fill="#333" />
            </g>
            <g>
               <path d="M68.5, 110 L68.5 624.5 Q68.5 628.5
                72.5 628.5
                L79 628.5 "
        style="fill:none; stroke:#444; stroke-width:1" />
               <path d="M79, 625.5 L87, 628.5 L79, 631.5 Z" 
        fill="#333" />
            </g>
            <g>
               <path d="M68.5, 110 L68.5 688 Q68.5 692
                72.5 692
                L79 692 "
        style="fill:none; stroke:#444; stroke-width:1" />
               <path d="M79, 689 L87, 692 L79, 695 Z" 
        fill="#333" />
            </g>
            <g>
               <path d="M105.5, 707 L105.5 751.5 Q105.5 755.5
                109.5 755.5
                L116 755.5 "
        style="fill:none; stroke:#444; stroke-width:1" />
               <path d="M116, 752.5 L124, 755.5 L116, 758.5 Z" 
        fill="#333" />
            </g>
            <g>
               <path d="M154, 785.5 L154 806.5 Q154 810.5
                158 810.5
                L166 810.5 "
        style="fill:none; stroke:#444; stroke-width:1" />
               <path d="M166, 807.5 L174, 810.5 L166, 813.5 Z" 
        fill="#333" />
            </g>
            <g>
               <path d="M105.5, 707 L105.5 891.5 Q105.5 895.5
                109.5 895.5
                L116 895.5 "
        style="fill:none; stroke:#444; stroke-width:1" />
               <path d="M116, 892.5 L124, 895.5 L116, 898.5 Z" 
        fill="#333" />
            </g>
            <g>
               <path d="M154, 925.5 L154 946.5 Q154 950.5
                158 950.5
                L166 950.5 "
        style="fill:none; stroke:#444; stroke-width:1" />
               <path d="M166, 947.5 L174, 950.5 L166, 953.5 Z" 
        fill="#333" />
            </g>
            <g>
               <path d="M154, 925.5 L154 995 Q154 999
                158 999
                L166 999 "
        style="fill:none; stroke:#444; stroke-width:1" />
               <path d="M166, 996 L174, 999 L166, 1002 Z" 
        fill="#333" />
            </g>
            <g>
               <path d="M154, 925.5 L154 1043.5 Q154 1047.5
                158 1047.5
                L166 1047.5 "
        style="fill:none; stroke:#444; stroke-width:1" />
               <path d="M166, 1044.5 L174, 1047.5 L166, 1050.5 Z" 
        fill="#333" />
            </g>
            <g>
               <path d="M297.6, 1047.5 L417.2 1047.5  Q421.2 1047.5
                421.2 1043.5
                L421.2 853.5 Q421.2 845.5
                417.2 845.5
                L162 845.5  Q154 845.5
                154 849.5
                L154 857.5"
        style="fill:none; stroke:#444; stroke-width:1" />
               <path d="M151, 857.5 L154, 865.5 L157, 857.5 Z" 
        fill="#333" />
            </g>
            <g>
               <path d="M68.5, 110 L68.5 1107 Q68.5 1111
                72.5 1111
                L79 1111 "
        style="fill:none; stroke:#444; stroke-width:1" />
               <path d="M79, 1108 L87, 1111 L79, 1114 Z" 
        fill="#333" />
            </g>
            <g>
               <path d="M117, 1141 L117 1162 Q117 1166
                121 1166
                L129 1166 "
        style="fill:none; stroke:#444; stroke-width:1" />
               <path d="M129, 1163 L137, 1166 L129, 1169 Z" 
        fill="#333" />
            </g>
            <g>
               <path d="M68.5, 110 L68.5 1212 Q68.5 1216
                72.5 1216
                L79 1216 "
        style="fill:none; stroke:#444; stroke-width:1" />
               <path d="M79, 1213 L87, 1216 L79, 1219 Z" 
        fill="#333" />
            </g>
            <g>
               <path d="M25, 40 L25 1260.5 Q25 1264.5
                29 1264.5
                L42 1264.5 "
        style="fill:none; stroke:#444; stroke-width:1" />
               <path d="M42, 1261.5 L50, 1264.5 L42, 1267.5 Z" 
        fill="#333" />
            </g>
            </svg>