<!DOCTYPE svg PUBLIC "-//W3C//DTD SVG 1.1//EN" "http://www.w3.org/Graphics/SVG/1.1/DTD/svg11.dtd">
                <svg xmlns="http://www.w3.org/2000/svg" xmlns:xlink="http://www.w3.org/1999/xlink" 
                width="500" height="1402">
                
            <g>
                <rect x="50" y="80"
            width="323" height="30"
            style="fill:#a5d6a7; stroke:#444; stroke-width:1" />
                    
                <line x1="60" y1="80" x2="60" y2="110"
                style="fill:#a5d6a7; stroke:#444; stroke-width:1" />
                <line x1="363" y1="80" x2="363" y2="110"
                style="fill:#a5d6a7; stroke:#444; stroke-width:1" />
             
                <title>function letterCombinations(digits)</title>
            <text x="75" y="100"
                font-family="monospace" font-size="13" fill="#222">
                <tspan x="75" y="100">function letterCombinations(digits)</tspan>
            </text>
                
            </g>
                <g>
                   <rect x="87" y="128.5"
            width="178.2" height="30"
            rx="3" ry="3"
            style="fill:#90caf9; stroke:#444; stroke-width:1" />
                   <title>const letters = {*}</title>
            <text x="102" y="148.5"
                font-family="monospace" font-size="13" fill="#222">
                <tspan x="102" y="148.5">const letters = {*}</tspan>
            </text>
                   
                   
                </g>
                <g>
                   <rect x="124" y="177"
            width="69" height="30"
            rx="2" ry="2"
            style="fill:#90caf9; stroke:#444; stroke-width:1" />
                   <title>1: &apos;&apos;</title>
            <text x="139" y="197"
                font-family="monospace" font-size="13" fill="#222">
                <tspan x="139" y="197">1: &apos;&apos;</tspan>
            </text>
                   
                   
                </g>
                <g>
                   <rect x="124" y="225.5"
            width="92.4" height="30"
            rx="2" ry="2"
            style="fill:#90caf9; stroke:#444; stroke-width:1" />
                   <title>2: &apos;abc&apos;</title>
            <text x="139" y="245.5"
                font-family="monospace" font-size="13" fill="#222">
                <tspan x="139" y="245.5">2: &apos;abc&apos;</tspan>
            </text>
                   
                   
                </g>
                <g>
                   <rect x="124" y="274"
            width="92.4" height="30"
            rx="2" ry="2"
            style="fill:#90caf9; stroke:#444; stroke-width:1" />
                   <title>3: &apos;def&apos;</title>
            <text x="139" y="294"
                font-family="monospace" font-size="13" fill="#222">
                <tspan x="139" y="294">3: &apos;def&apos;</tspan>
            </text>
                   
                   
                </g>
                <g>
                   <rect x="124" y="322.5"
            width="92.4" height="30"
            rx="2" ry="2"
            style="fill:#90caf9; stroke:#444; stroke-width:1" />
                   <title>4: &apos;ghi&apos;</title>
            <text x="139" y="342.5"
                font-family="monospace" font-size="13" fill="#222">
                <tspan x="139" y="342.5">4: &apos;ghi&apos;</tspan>
            </text>
                   
                   
                </g>
                <g>
                   <rect x="124" y="371"
            width="92.4" height="30"
            rx="2" ry="2"
            style="fill:#90caf9; stroke:#444; stroke-width:1" />
                   <title>5: &apos;jkl&apos;</title>
            <text x="139" y="391"
                font-family="monospace" font-size="13" fill="#222">
                <tspan x="139" y="391">5: &apos;jkl&apos;</tspan>
            </text>
                   
                   
                </g>
                <g>
                   <rect x="124" y="419.5"
            width="92.4" height="30"
            rx="2" ry="2"
            style="fill:#90caf9; stroke:#444; stroke-width:1" />
                   <title>6: &apos;mno&apos;</title>
            <text x="139" y="439.5"
                font-family="monospace" font-size="13" fill="#222">
                <tspan x="139" y="439.5">6: &apos;mno&apos;</tspan>
            </text>
                   
                   
                </g>
                <g>
                   <rect x="124" y="468"
            width="100.2" height="30"
            rx="2" ry="2"
            style="fill:#90caf9; stroke:#444; stroke-width:1" />
                   <title>7: &apos;pqrs&apos;</title>
            <text x="139" y="488"
                font-family="monospace" font-size="13" fill="#222">
                <tspan x="139" y="488">7: &apos;pqrs&apos;</tspan>
            </text>
                   
                   
                </g>
                <g>
                   <rect x="124" y="516.5"
            width="92.4" height="30"
            rx="2" ry="2"
            style="fill:#90caf9; stroke:#444; stroke-width:1" />
                   <title>8: &apos;tuv&apos;</title>
            <text x="139" y="536.5"
                font-family="monospace" font-size="13" fill="#222">
                <tspan x="139" y="536.5">8: &apos;tuv&apos;</tspan>
            </text>
                   
                   
                </g>
                <g>
                   <rect x="124" y="565"
            width="100.2" height="30"
            rx="2" ry="2"
            style="fill:#90caf9; stroke:#444; stroke-width:1" />
                   <title>9: &apos;wxyz&apos;</title>
            <text x="139" y="585"
                font-family="monospace" font-size="13" fill="#222">
                <tspan x="139" y="585">9: &apos;wxyz&apos;</tspan>
            </text>
                   
                   
                </g>
                <g>
                   <rect x="87" y="613.5"
            width="147" height="30"
            rx="3" ry="3"
            style="fill:#90caf9; stroke:#444; stroke-width:1" />
                   <title>let prefix = []</title>
            <text x="102" y="633.5"
                font-family="monospace" font-size="13" fill="#222">
                <tspan x="102" y="633.5">let prefix = []</tspan>
            </text>
                   
                   
                </g>
                <g>
                   <rect x="87" y="662"
            width="123.6" height="30"
            rx="3" ry="3"
            style="fill:#90caf9; stroke:#444; stroke-width:1" />
                   <title>let res = []</title>
            <text x="102" y="682"
                font-family="monospace" font-size="13" fill="#222">
                <tspan x="102" y="682">let res = []</tspan>
            </text>
                   
                   
                </g>
            <g>
                <rect x="87" y="725.5"
            width="167" height="30"
            style="fill:#a5d6a7; stroke:#444; stroke-width:1" />
                    
                <line x1="97" y1="725.5" x2="97" y2="755.5"
                style="fill:#a5d6a7; stroke:#444; stroke-width:1" />
                <line x1="244" y1="725.5" x2="244" y2="755.5"
                style="fill:#a5d6a7; stroke:#444; stroke-width:1" />
             
                <title>function dfs(i)</title>
            <text x="112" y="745.5"
                font-family="monospace" font-size="13" fill="#222">
                <tspan x="112" y="745.5">function dfs(i)</tspan>
            </text>
                
            </g><g>
            <rect x="154" y="789"
            width="223.79999999999998" height="30"
            rx="3" ry="3"
            style="fill:#ce93d8; stroke:#444; stroke-width:1" />                
            <polygon points="124,804 154,774 184,804 154,834"
            style="fill:#ce93d8; stroke:#444; stroke-width:1" />
            <title>(i === digits.length)</title>
            <text x="199" y="809"
                font-family="monospace" font-size="13" fill="#222">
                <tspan x="199" y="809">(i === digits.length)</tspan>
            </text>
            
            <text x="146.2" y="809"
        font-family="monospace" font-size="13" fill="#222">if</text> <text x="161.8" y="835.95"
        font-family="monospace" font-size="13" fill="#222">+</text> 
        </g>
            <g>
                <rect x="174" y="844"
            width="279.6" height="30"
            rx="3" ry="3"
            style="fill:#90caf9; stroke:#444; stroke-width:1" />
                
                <line x1="453.6" y1="854" x2="458.6" y2="854"
                style="fill:#a5d6a7; stroke:#444; stroke-width:1" />
                
                <line x1="453.6" y1="864" x2="458.6" y2="864"
                style="fill:#a5d6a7; stroke:#444; stroke-width:1" />

                <path d="M458.6, 848 L474.6, 859 L458.6, 870 Z" 
        fill="#a5d6a7" stroke="#444" stroke-width="1" />
                             
                <title>return res.push(prefix.join(&apos;&apos;))</title>
            <text x="189" y="864"
                font-family="monospace" font-size="13" fill="#222">
                <tspan x="189" y="864">return res.push(prefix.join(&apos;&apos;))</tspan>
            </text>
                
            </g><g>

            <rect x="154" y="929"
            width="247.2" height="30"
            rx="3" ry="3"
            style="fill:#b39ddb; stroke:#444; stroke-width:1" />
            <polygon points="124,944 154,914 184,944 154,974"
            style="fill:#b39ddb; stroke:#444; stroke-width:1" />
                
            <title> c of letters[digits[i]]</title>
            <text x="199" y="949"
                font-family="monospace" font-size="13" fill="#222">
                <tspan x="199" y="949"> c of letters[digits[i]]</tspan>
            </text>
            
            <text x="142.3" y="949"
        font-family="monospace" font-size="13" fill="#222">for</text>
        </g>
                <g>
                   <rect x="174" y="984"
            width="139.2" height="30"
            rx="2" ry="2"
            style="fill:#C5E1A5; stroke:#444; stroke-width:1" />
                   <title>prefix.push(c)</title>
            <text x="189" y="1004"
                font-family="monospace" font-size="13" fill="#222">
                <tspan x="189" y="1004">prefix.push(c)</tspan>
            </text>
                   
                   
                </g>
                <g>
                   <rect x="174" y="1032.5"
            width="108" height="30"
            rx="2" ry="2"
            style="fill:#C5E1A5; stroke:#444; stroke-width:1" />
                   <title>dfs(i + 1)</title>
            <text x="189" y="1052.5"
                font-family="monospace" font-size="13" fill="#222">
                <tspan x="189" y="1052.5">dfs(i + 1)</tspan>
            </text>
                   
                   
                </g>
                <g>
                   <rect x="174" y="1081"
            width="123.6" height="30"
            rx="2" ry="2"
            style="fill:#C5E1A5; stroke:#444; stroke-width:1" />
                   <title>prefix.pop()</title>
            <text x="189" y="1101"
                font-family="monospace" font-size="13" fill="#222">
                <tspan x="189" y="1101">prefix.pop()</tspan>
            </text>
                   
                   
                </g><g>
            <rect x="117" y="1144.5"
            width="177" height="30"
            rx="3" ry="3"
            style="fill:#ce93d8; stroke:#444; stroke-width:1" />                
            <polygon points="87,1159.5 117,1129.5 147,1159.5 117,1189.5"
            style="fill:#ce93d8; stroke:#444; stroke-width:1" />
            <title>(digits.length)</title>
            <text x="162" y="1164.5"
                font-family="monospace" font-size="13" fill="#222">
                <tspan x="162" y="1164.5">(digits.length)</tspan>
            </text>
            
            <text x="109.2" y="1164.5"
        font-family="monospace" font-size="13" fill="#222">if</text> <text x="124.8" y="1191.45"
        font-family="monospace" font-size="13" fill="#222">+</text> 
        </g>
                <g>
                   <rect x="137" y="1199.5"
            width="76.8" height="30"
            rx="2" ry="2"
            style="fill:#C5E1A5; stroke:#444; stroke-width:1" />
                   <title>dfs(0)</title>
            <text x="152" y="1219.5"
                font-family="monospace" font-size="13" fill="#222">
                <tspan x="152" y="1219.5">dfs(0)</tspan>
            </text>
                   
                   
                </g>
            <g>
                <rect x="87" y="1249.5"
            width="108" height="30"
            rx="3" ry="3"
            style="fill:#90caf9; stroke:#444; stroke-width:1" />
                
                <line x1="195" y1="1259.5" x2="200" y2="1259.5"
                style="fill:#a5d6a7; stroke:#444; stroke-width:1" />
                
                <line x1="195" y1="1269.5" x2="200" y2="1269.5"
                style="fill:#a5d6a7; stroke:#444; stroke-width:1" />

                <path d="M200, 1253.5 L216, 1264.5 L200, 1275.5 Z" 
        fill="#a5d6a7" stroke="#444" stroke-width="1" />
                             
                <title>return res</title>
            <text x="102" y="1269.5"
                font-family="monospace" font-size="13" fill="#222">
                <tspan x="102" y="1269.5">return res</tspan>
            </text>
                
            </g>
                <g>
                   <rect x="50" y="1298"
            width="318.59999999999997" height="30"
            rx="2" ry="2"
            style="fill:#C5E1A5; stroke:#444; stroke-width:1" />
                   <title>console.log(letterCombinations(&apos;23&apos;))</title>
            <text x="65" y="1318"
                font-family="monospace" font-size="13" fill="#222">
                <tspan x="65" y="1318">console.log(letterCombinations(&apos;23&apos;))</tspan>
            </text>
                   
                   
                </g>
                <g>
                   <rect x="50" y="1346.5"
            width="326.4" height="30"
            rx="2" ry="2"
            style="fill:#C5E1A5; stroke:#444; stroke-width:1" />
                   <title>console.log(letterCombinations(&apos;123&apos;))</title>
            <text x="65" y="1366.5"
                font-family="monospace" font-size="13" fill="#222">
                <tspan x="65" y="1366.5">console.log(letterCombinations(&apos;123&apos;))</tspan>
            </text>
                   
                   
                </g>
            <g>
               <rect x="25" y="13.75"
            width="216.6" height="24"
            style="fill:#fff59d; stroke:#444; stroke-width:1" />
               <circle cx="25" cy="25" r="15"
        style="fill:#fff59d; stroke:#444; stroke-width:1" />
               <title>Program: source module</title>
            <text x="55" y="30"
                font-family="monospace" font-size="13" fill="#222">
                <tspan x="55" y="30">Program: source module</tspan>
            </text>
            </g>
            <g>
               <path d="M25, 40 L25 91 Q25 95
                29 95
                L42 95 "
        style="fill:none; stroke:#444; stroke-width:1" />
               <path d="M42, 92 L50, 95 L42, 98 Z" 
        fill="#333" />
            </g>
            <g>
               <path d="M68.5, 110 L68.5 139.5 Q68.5 143.5
                72.5 143.5
                L79 143.5 "
        style="fill:none; stroke:#444; stroke-width:1" />
               <path d="M79, 140.5 L87, 143.5 L79, 146.5 Z" 
        fill="#333" />
            </g>
            <g>
               <path d="M105.5, 158.5 L105.5 188 Q105.5 192
                109.5 192
                L124 192 "
        style="fill:none; stroke:#444; stroke-width:1" />
               false
            </g>
            <g>
               <path d="M105.5, 158.5 L105.5 236.5 Q105.5 240.5
                109.5 240.5
                L124 240.5 "
        style="fill:none; stroke:#444; stroke-width:1" />
               false
            </g>
            <g>
               <path d="M105.5, 158.5 L105.5 285 Q105.5 289
                109.5 289
                L124 289 "
        style="fill:none; stroke:#444; stroke-width:1" />
               false
            </g>
            <g>
               <path d="M105.5, 158.5 L105.5 333.5 Q105.5 337.5
                109.5 337.5
                L124 337.5 "
        style="fill:none; stroke:#444; stroke-width:1" />
               false
            </g>
            <g>
               <path d="M105.5, 158.5 L105.5 382 Q105.5 386
                109.5 386
                L124 386 "
        style="fill:none; stroke:#444; stroke-width:1" />
               false
            </g>
            <g>
               <path d="M105.5, 158.5 L105.5 430.5 Q105.5 434.5
                109.5 434.5
                L124 434.5 "
        style="fill:none; stroke:#444; stroke-width:1" />
               false
            </g>
            <g>
               <path d="M105.5, 158.5 L105.5 479 Q105.5 483
                109.5 483
                L124 483 "
        style="fill:none; stroke:#444; stroke-width:1" />
               false
            </g>
            <g>
               <path d="M105.5, 158.5 L105.5 527.5 Q105.5 531.5
                109.5 531.5
                L124 531.5 "
        style="fill:none; stroke:#444; stroke-width:1" />
               false
            </g>
            <g>
               <path d="M105.5, 158.5 L105.5 576 Q105.5 580
                109.5 580
                L124 580 "
        style="fill:none; stroke:#444; stroke-width:1" />
               false
            </g>
            <g>
               <path d="M68.5, 110 L68.5 624.5 Q68.5 628.5
                72.5 628.5
                L79 628.5 "
        style="fill:none; stroke:#444; stroke-width:1" />
               <path d="M79, 625.5 L87, 628.5 L79, 631.5 Z" 
        fill="#333" />
            </g>
            <g>
               <path d="M68.5, 110 L68.5 673 Q68.5 677
                72.5 677
                L79 677 "
        style="fill:none; stroke:#444; stroke-width:1" />
               <path d="M79, 674 L87, 677 L79, 680 Z" 
        fill="#333" />
            </g>
            <g>
               <path d="M68.5, 110 L68.5 736.5 Q68.5 740.5
                72.5 740.5
                L79 740.5 "
        style="fill:none; stroke:#444; stroke-width:1" />
               <path d="M79, 737.5 L87, 740.5 L79, 743.5 Z" 
        fill="#333" />
            </g>
            <g>
               <path d="M105.5, 755.5 L105.5 800 Q105.5 804
                109.5 804
                L116 804 "
        style="fill:none; stroke:#444; stroke-width:1" />
               <path d="M116, 801 L124, 804 L116, 807 Z" 
        fill="#333" />
            </g>
            <g>
               <path d="M154, 834 L154 855 Q154 859
                158 859
                L166 859 "
        style="fill:none; stroke:#444; stroke-width:1" />
               <path d="M166, 856 L174, 859 L166, 862 Z" 
        fill="#333" />
            </g>
            <g>
               <path d="M105.5, 755.5 L105.5 940 Q105.5 944
                109.5 944
                L116 944 "
        style="fill:none; stroke:#444; stroke-width:1" />
               <path d="M116, 941 L124, 944 L116, 947 Z" 
        fill="#333" />
            </g>
            <g>
               <path d="M154, 974 L154 995 Q154 999
                158 999
                L166 999 "
        style="fill:none; stroke:#444; stroke-width:1" />
               <path d="M166, 996 L174, 999 L166, 1002 Z" 
        fill="#333" />
            </g>
            <g>
               <path d="M154, 974 L154 1043.5 Q154 1047.5
                158 1047.5
                L166 1047.5 "
        style="fill:none; stroke:#444; stroke-width:1" />
               <path d="M166, 1044.5 L174, 1047.5 L166, 1050.5 Z" 
        fill="#333" />
            </g>
            <g>
               <path d="M154, 974 L154 1092 Q154 1096
                158 1096
                L166 1096 "
        style="fill:none; stroke:#444; stroke-width:1" />
               <path d="M166, 1093 L174, 1096 L166, 1099 Z" 
        fill="#333" />
            </g>
            <g>
               <path d="M297.6, 1096 L417.2 1096  Q421.2 1096
                421.2 1092
                L421.2 902 Q421.2 894
                417.2 894
                L162 894  Q154 894
                154 898
                L154 906"
        style="fill:none; stroke:#444; stroke-width:1" />
               <path d="M151, 906 L154, 914 L157, 906 Z" 
        fill="#333" />
            </g>
            <g>
               <path d="M68.5, 110 L68.5 1155.5 Q68.5 1159.5
                72.5 1159.5
                L79 1159.5 "
        style="fill:none; stroke:#444; stroke-width:1" />
               <path d="M79, 1156.5 L87, 1159.5 L79, 1162.5 Z" 
        fill="#333" />
            </g>
            <g>
               <path d="M117, 1189.5 L117 1210.5 Q117 1214.5
                121 1214.5
                L129 1214.5 "
        style="fill:none; stroke:#444; stroke-width:1" />
               <path d="M129, 1211.5 L137, 1214.5 L129, 1217.5 Z" 
        fill="#333" />
            </g>
            <g>
               <path d="M68.5, 110 L68.5 1260.5 Q68.5 1264.5
                72.5 1264.5
                L79 1264.5 "
        style="fill:none; stroke:#444; stroke-width:1" />
               <path d="M79, 1261.5 L87, 1264.5 L79, 1267.5 Z" 
        fill="#333" />
            </g>
            <g>
               <path d="M25, 40 L25 1309 Q25 1313
                29 1313
                L42 1313 "
        style="fill:none; stroke:#444; stroke-width:1" />
               <path d="M42, 1310 L50, 1313 L42, 1316 Z" 
        fill="#333" />
            </g>
            <g>
               <path d="M25, 40 L25 1357.5 Q25 1361.5
                29 1361.5
                L42 1361.5 "
        style="fill:none; stroke:#444; stroke-width:1" />
               <path d="M42, 1358.5 L50, 1361.5 L42, 1364.5 Z" 
        fill="#333" />
            </g>
            </svg>