<!DOCTYPE svg PUBLIC "-//W3C//DTD SVG 1.1//EN" "http://www.w3.org/Graphics/SVG/1.1/DTD/svg11.dtd">
                <svg xmlns="http://www.w3.org/2000/svg" xmlns:xlink="http://www.w3.org/1999/xlink" 
                width="369" height="828">
                
            <g>
                <rect x="50" y="80"
            width="229.4" height="30"
            style="fill:#a5d6a7; stroke:#444; stroke-width:1" />
                    
                <line x1="60" y1="80" x2="60" y2="110"
                style="fill:#a5d6a7; stroke:#444; stroke-width:1" />
                <line x1="269.4" y1="80" x2="269.4" y2="110"
                style="fill:#a5d6a7; stroke:#444; stroke-width:1" />
             
                <title>function hasCycle(head)</title>
            <text x="75" y="100"
                font-family="monospace" font-size="13" fill="#222">
                <tspan x="75" y="100">function hasCycle(head)</tspan>
            </text>
                
            </g><g>
            <rect x="117" y="143.5"
            width="114.6" height="30"
            rx="3" ry="3"
            style="fill:#ce93d8; stroke:#444; stroke-width:1" />                
            <polygon points="87,158.5 117,128.5 147,158.5 117,188.5"
            style="fill:#ce93d8; stroke:#444; stroke-width:1" />
            <title>(!head)</title>
            <text x="162" y="163.5"
                font-family="monospace" font-size="13" fill="#222">
                <tspan x="162" y="163.5">(!head)</tspan>
            </text>
            
            <text x="109.2" y="163.5"
        font-family="monospace" font-size="13" fill="#222">if</text> <text x="124.8" y="190.45"
        font-family="monospace" font-size="13" fill="#222">+</text> 
        </g>
            <g>
                <rect x="137" y="198.5"
            width="123.6" height="30"
            rx="3" ry="3"
            style="fill:#90caf9; stroke:#444; stroke-width:1" />
                
                <line x1="260.6" y1="208.5" x2="265.6" y2="208.5"
                style="fill:#a5d6a7; stroke:#444; stroke-width:1" />
                
                <line x1="260.6" y1="218.5" x2="265.6" y2="218.5"
                style="fill:#a5d6a7; stroke:#444; stroke-width:1" />

                <path d="M265.6, 202.5 L281.6, 213.5 L265.6, 224.5 Z" 
        fill="#a5d6a7" stroke="#444" stroke-width="1" />
                             
                <title>return false</title>
            <text x="152" y="218.5"
                font-family="monospace" font-size="13" fill="#222">
                <tspan x="152" y="218.5">return false</tspan>
            </text>
                
            </g>
                <g>
                   <rect x="87" y="248.5"
            width="147" height="30"
            rx="3" ry="3"
            style="fill:#90caf9; stroke:#444; stroke-width:1" />
                   <title>let slow = head</title>
            <text x="102" y="268.5"
                font-family="monospace" font-size="13" fill="#222">
                <tspan x="102" y="268.5">let slow = head</tspan>
            </text>
                   
                   
                </g>
                <g>
                   <rect x="87" y="297"
            width="186" height="30"
            rx="3" ry="3"
            style="fill:#90caf9; stroke:#444; stroke-width:1" />
                   <title>let fast = head.next</title>
            <text x="102" y="317"
                font-family="monospace" font-size="13" fill="#222">
                <tspan x="102" y="317">let fast = head.next</tspan>
            </text>
                   
                   
                </g><g>

            <rect x="117" y="380.5"
            width="91.2" height="30"
            rx="3" ry="3"
            style="fill:#b39ddb; stroke:#444; stroke-width:1" />
            <polygon points="87,395.5 117,365.5 147,395.5 117,425.5"
            style="fill:#b39ddb; stroke:#444; stroke-width:1" />
                
            <title>fast</title>
            <text x="162" y="400.5"
                font-family="monospace" font-size="13" fill="#222">
                <tspan x="162" y="400.5">fast</tspan>
            </text>
            
            <text x="97.5" y="400.5"
        font-family="monospace" font-size="13" fill="#222">while</text>
        </g><g>
            <rect x="167" y="450.5"
            width="153.6" height="30"
            rx="3" ry="3"
            style="fill:#ce93d8; stroke:#444; stroke-width:1" />                
            <polygon points="137,465.5 167,435.5 197,465.5 167,495.5"
            style="fill:#ce93d8; stroke:#444; stroke-width:1" />
            <title>(!fast.next)</title>
            <text x="212" y="470.5"
                font-family="monospace" font-size="13" fill="#222">
                <tspan x="212" y="470.5">(!fast.next)</tspan>
            </text>
            
            <text x="159.2" y="470.5"
        font-family="monospace" font-size="13" fill="#222">if</text> <text x="174.8" y="497.45"
        font-family="monospace" font-size="13" fill="#222">+</text> 
        </g>
            <g>
                <rect x="187" y="505.5"
            width="123.6" height="30"
            rx="3" ry="3"
            style="fill:#90caf9; stroke:#444; stroke-width:1" />
                
                <line x1="310.6" y1="515.5" x2="315.6" y2="515.5"
                style="fill:#a5d6a7; stroke:#444; stroke-width:1" />
                
                <line x1="310.6" y1="525.5" x2="315.6" y2="525.5"
                style="fill:#a5d6a7; stroke:#444; stroke-width:1" />

                <path d="M315.6, 509.5 L331.6, 520.5 L315.6, 531.5 Z" 
        fill="#a5d6a7" stroke="#444" stroke-width="1" />
                             
                <title>return false</title>
            <text x="202" y="525.5"
                font-family="monospace" font-size="13" fill="#222">
                <tspan x="202" y="525.5">return false</tspan>
            </text>
                
            </g><g>
            <rect x="167" y="570.5"
            width="177" height="30"
            rx="3" ry="3"
            style="fill:#ce93d8; stroke:#444; stroke-width:1" />                
            <polygon points="137,585.5 167,555.5 197,585.5 167,615.5"
            style="fill:#ce93d8; stroke:#444; stroke-width:1" />
            <title>(slow === fast)</title>
            <text x="212" y="590.5"
                font-family="monospace" font-size="13" fill="#222">
                <tspan x="212" y="590.5">(slow === fast)</tspan>
            </text>
            
            <text x="159.2" y="590.5"
        font-family="monospace" font-size="13" fill="#222">if</text> <text x="174.8" y="617.45"
        font-family="monospace" font-size="13" fill="#222">+</text> 
        </g>
            <g>
                <rect x="187" y="625.5"
            width="115.80000000000001" height="30"
            rx="3" ry="3"
            style="fill:#90caf9; stroke:#444; stroke-width:1" />
                
                <line x1="302.8" y1="635.5" x2="307.8" y2="635.5"
                style="fill:#a5d6a7; stroke:#444; stroke-width:1" />
                
                <line x1="302.8" y1="645.5" x2="307.8" y2="645.5"
                style="fill:#a5d6a7; stroke:#444; stroke-width:1" />

                <path d="M307.8, 629.5 L323.8, 640.5 L307.8, 651.5 Z" 
        fill="#a5d6a7" stroke="#444" stroke-width="1" />
                             
                <title>return true</title>
            <text x="202" y="645.5"
                font-family="monospace" font-size="13" fill="#222">
                <tspan x="202" y="645.5">return true</tspan>
            </text>
                
            </g>
                <g>
                   <rect x="137" y="675.5"
            width="154.8" height="30"
            rx="3" ry="3"
            style="fill:#90caf9; stroke:#444; stroke-width:1" />
                   <title>slow = slow.next</title>
            <text x="152" y="695.5"
                font-family="monospace" font-size="13" fill="#222">
                <tspan x="152" y="695.5">slow = slow.next</tspan>
            </text>
                   
                   
                </g>
                <g>
                   <rect x="137" y="724"
            width="193.79999999999998" height="30"
            rx="3" ry="3"
            style="fill:#90caf9; stroke:#444; stroke-width:1" />
                   <title>fast = fast.next.next</title>
            <text x="152" y="744"
                font-family="monospace" font-size="13" fill="#222">
                <tspan x="152" y="744">fast = fast.next.next</tspan>
            </text>
                   
                   
                </g>
            <g>
                <rect x="87" y="772.5"
            width="123.6" height="30"
            rx="3" ry="3"
            style="fill:#90caf9; stroke:#444; stroke-width:1" />
                
                <line x1="210.6" y1="782.5" x2="215.6" y2="782.5"
                style="fill:#a5d6a7; stroke:#444; stroke-width:1" />
                
                <line x1="210.6" y1="792.5" x2="215.6" y2="792.5"
                style="fill:#a5d6a7; stroke:#444; stroke-width:1" />

                <path d="M215.6, 776.5 L231.6, 787.5 L215.6, 798.5 Z" 
        fill="#a5d6a7" stroke="#444" stroke-width="1" />
                             
                <title>return false</title>
            <text x="102" y="792.5"
                font-family="monospace" font-size="13" fill="#222">
                <tspan x="102" y="792.5">return false</tspan>
            </text>
                
            </g>
            <g>
               <rect x="25" y="13.75"
            width="216.6" height="24"
            style="fill:#fff59d; stroke:#444; stroke-width:1" />
               <circle cx="25" cy="25" r="15"
        style="fill:#fff59d; stroke:#444; stroke-width:1" />
               <title>Program: source module</title>
            <text x="55" y="30"
                font-family="monospace" font-size="13" fill="#222">
                <tspan x="55" y="30">Program: source module</tspan>
            </text>
            </g>
            <g>
               <path d="M25, 40 L25 91 Q25 95
                29 95
                L42 95 "
        style="fill:none; stroke:#444; stroke-width:1" />
               <path d="M42, 92 L50, 95 L42, 98 Z" 
        fill="#333" />
            </g>
            <g>
               <path d="M68.5, 110 L68.5 154.5 Q68.5 158.5
                72.5 158.5
                L79 158.5 "
        style="fill:none; stroke:#444; stroke-width:1" />
               <path d="M79, 155.5 L87, 158.5 L79, 161.5 Z" 
        fill="#333" />
            </g>
            <g>
               <path d="M117, 188.5 L117 209.5 Q117 213.5
                121 213.5
                L129 213.5 "
        style="fill:none; stroke:#444; stroke-width:1" />
               <path d="M129, 210.5 L137, 213.5 L129, 216.5 Z" 
        fill="#333" />
            </g>
            <g>
               <path d="M68.5, 110 L68.5 259.5 Q68.5 263.5
                72.5 263.5
                L79 263.5 "
        style="fill:none; stroke:#444; stroke-width:1" />
               <path d="M79, 260.5 L87, 263.5 L79, 266.5 Z" 
        fill="#333" />
            </g>
            <g>
               <path d="M68.5, 110 L68.5 308 Q68.5 312
                72.5 312
                L79 312 "
        style="fill:none; stroke:#444; stroke-width:1" />
               <path d="M79, 309 L87, 312 L79, 315 Z" 
        fill="#333" />
            </g>
            <g>
               <path d="M68.5, 110 L68.5 391.5 Q68.5 395.5
                72.5 395.5
                L79 395.5 "
        style="fill:none; stroke:#444; stroke-width:1" />
               <path d="M79, 392.5 L87, 395.5 L79, 398.5 Z" 
        fill="#333" />
            </g>
            <g>
               <path d="M117, 425.5 L117 461.5 Q117 465.5
                121 465.5
                L129 465.5 "
        style="fill:none; stroke:#444; stroke-width:1" />
               <path d="M129, 462.5 L137, 465.5 L129, 468.5 Z" 
        fill="#333" />
            </g>
            <g>
               <path d="M167, 495.5 L167 516.5 Q167 520.5
                171 520.5
                L179 520.5 "
        style="fill:none; stroke:#444; stroke-width:1" />
               <path d="M179, 517.5 L187, 520.5 L179, 523.5 Z" 
        fill="#333" />
            </g>
            <g>
               <path d="M117, 425.5 L117 581.5 Q117 585.5
                121 585.5
                L129 585.5 "
        style="fill:none; stroke:#444; stroke-width:1" />
               <path d="M129, 582.5 L137, 585.5 L129, 588.5 Z" 
        fill="#333" />
            </g>
            <g>
               <path d="M167, 615.5 L167 636.5 Q167 640.5
                171 640.5
                L179 640.5 "
        style="fill:none; stroke:#444; stroke-width:1" />
               <path d="M179, 637.5 L187, 640.5 L179, 643.5 Z" 
        fill="#333" />
            </g>
            <g>
               <path d="M117, 425.5 L117 686.5 Q117 690.5
                121 690.5
                L129 690.5 "
        style="fill:none; stroke:#444; stroke-width:1" />
               <path d="M129, 687.5 L137, 690.5 L129, 693.5 Z" 
        fill="#333" />
            </g>
            <g>
               <path d="M117, 425.5 L117 735 Q117 739
                121 739
                L129 739 "
        style="fill:none; stroke:#444; stroke-width:1" />
               <path d="M129, 736 L137, 739 L129, 742 Z" 
        fill="#333" />
            </g>
            <g>
               <path d="M330.79999999999995, 739 L360 739  Q364 739
                364 735
                L364 353.5 Q364 345.5
                360 345.5
                L125 345.5  Q117 345.5
                117 349.5
                L117 357.5"
        style="fill:none; stroke:#444; stroke-width:1" />
               <path d="M114, 357.5 L117, 365.5 L120, 357.5 Z" 
        fill="#333" />
            </g>
            <g>
               <path d="M68.5, 110 L68.5 783.5 Q68.5 787.5
                72.5 787.5
                L79 787.5 "
        style="fill:none; stroke:#444; stroke-width:1" />
               <path d="M79, 784.5 L87, 787.5 L79, 790.5 Z" 
        fill="#333" />
            </g>
            </svg>