<!DOCTYPE svg PUBLIC "-//W3C//DTD SVG 1.1//EN" "http://www.w3.org/Graphics/SVG/1.1/DTD/svg11.dtd">
                <svg xmlns="http://www.w3.org/2000/svg" xmlns:xlink="http://www.w3.org/1999/xlink" 
                width="546" height="811">
                
            <g>
                <rect x="50" y="80"
            width="291.79999999999995" height="30"
            style="fill:#a5d6a7; stroke:#444; stroke-width:1" />
                    
                <line x1="60" y1="80" x2="60" y2="110"
                style="fill:#a5d6a7; stroke:#444; stroke-width:1" />
                <line x1="331.79999999999995" y1="80" x2="331.79999999999995" y2="110"
                style="fill:#a5d6a7; stroke:#444; stroke-width:1" />
             
                <title>longestPalindrome = function(s)</title>
            <text x="75" y="100"
                font-family="monospace" font-size="13" fill="#222">
                <tspan x="75" y="100">longestPalindrome = function(s)</tspan>
            </text>
                
            </g>
                <g>
                   <rect x="87" y="128.5"
            width="139.2" height="30"
            rx="2" ry="2"
            style="fill:#C5E1A5; stroke:#444; stroke-width:1" />
                   <title>console.log(s)</title>
            <text x="102" y="148.5"
                font-family="monospace" font-size="13" fill="#222">
                <tspan x="102" y="148.5">console.log(s)</tspan>
            </text>
                   
                   
                </g>
            <g>
                <rect x="50" y="192"
            width="260.6" height="30"
            style="fill:#a5d6a7; stroke:#444; stroke-width:1" />
                    
                <line x1="60" y1="192" x2="60" y2="222"
                style="fill:#a5d6a7; stroke:#444; stroke-width:1" />
                <line x1="300.6" y1="192" x2="300.6" y2="222"
                style="fill:#a5d6a7; stroke:#444; stroke-width:1" />
             
                <title>function isPalindrome(word)</title>
            <text x="75" y="212"
                font-family="monospace" font-size="13" fill="#222">
                <tspan x="75" y="212">function isPalindrome(word)</tspan>
            </text>
                
            </g>
            <g>
                <rect x="87" y="240.5"
            width="412.2" height="30"
            rx="3" ry="3"
            style="fill:#90caf9; stroke:#444; stroke-width:1" />
                
                <line x1="499.2" y1="250.5" x2="504.2" y2="250.5"
                style="fill:#a5d6a7; stroke:#444; stroke-width:1" />
                
                <line x1="499.2" y1="260.5" x2="504.2" y2="260.5"
                style="fill:#a5d6a7; stroke:#444; stroke-width:1" />

                <path d="M504.2, 244.5 L520.2, 255.5 L504.2, 266.5 Z" 
        fill="#a5d6a7" stroke="#444" stroke-width="1" />
                             
                <title>return word === word.split(&apos;&apos;).reverse().join(&apos;&apos;)</title>
            <text x="102" y="260.5"
                font-family="monospace" font-size="13" fill="#222">
                <tspan x="102" y="260.5">return word === word.split(&apos;&apos;).reverse().join(&apos;&apos;)</tspan>
            </text>
                
            </g>
                <g>
                   <rect x="124" y="289"
            width="139.2" height="30"
            rx="2" ry="2"
            style="fill:#C5E1A5; stroke:#444; stroke-width:1" />
                   <title>word.split(&apos;&apos;)</title>
            <text x="139" y="309"
                font-family="monospace" font-size="13" fill="#222">
                <tspan x="139" y="309">word.split(&apos;&apos;)</tspan>
            </text>
                   
                   
                </g>
                <g>
                   <rect x="124" y="337.5"
            width="108" height="30"
            rx="2" ry="2"
            style="fill:#C5E1A5; stroke:#444; stroke-width:1" />
                   <title>.reverse()</title>
            <text x="139" y="357.5"
                font-family="monospace" font-size="13" fill="#222">
                <tspan x="139" y="357.5">.reverse()</tspan>
            </text>
                   <circle cx="130" cy="361.5" r="4"
        style="fill:#ede7f6; stroke:#444; stroke-width:1" />
                   
                </g>
            <g>
                <rect x="50" y="401"
            width="167" height="30"
            style="fill:#a5d6a7; stroke:#444; stroke-width:1" />
                    
                <line x1="60" y1="401" x2="60" y2="431"
                style="fill:#a5d6a7; stroke:#444; stroke-width:1" />
                <line x1="207" y1="401" x2="207" y2="431"
                style="fill:#a5d6a7; stroke:#444; stroke-width:1" />
             
                <title>isEven = (n) =&gt;</title>
            <text x="75" y="421"
                font-family="monospace" font-size="13" fill="#222">
                <tspan x="75" y="421">isEven = (n) =&gt;</tspan>
            </text>
                
            </g>
            <g>
                <rect x="87" y="449.5"
            width="170.4" height="30"
            rx="3" ry="3"
            style="fill:#90caf9; stroke:#444; stroke-width:1" />
                
                <line x1="257.4" y1="459.5" x2="262.4" y2="459.5"
                style="fill:#a5d6a7; stroke:#444; stroke-width:1" />
                
                <line x1="257.4" y1="469.5" x2="262.4" y2="469.5"
                style="fill:#a5d6a7; stroke:#444; stroke-width:1" />

                <path d="M262.4, 453.5 L278.4, 464.5 L262.4, 475.5 Z" 
        fill="#a5d6a7" stroke="#444" stroke-width="1" />
                             
                <title>return n % 2 !== 1</title>
            <text x="102" y="469.5"
                font-family="monospace" font-size="13" fill="#222">
                <tspan x="102" y="469.5">return n % 2 !== 1</tspan>
            </text>
                
            </g>
            <g>
                <rect x="50" y="513"
            width="159.2" height="30"
            style="fill:#a5d6a7; stroke:#444; stroke-width:1" />
                    
                <line x1="60" y1="513" x2="60" y2="543"
                style="fill:#a5d6a7; stroke:#444; stroke-width:1" />
                <line x1="199.2" y1="513" x2="199.2" y2="543"
                style="fill:#a5d6a7; stroke:#444; stroke-width:1" />
             
                <title>isOdd = (n) =&gt;</title>
            <text x="75" y="533"
                font-family="monospace" font-size="13" fill="#222">
                <tspan x="75" y="533">isOdd = (n) =&gt;</tspan>
            </text>
                
            </g>
            <g>
                <rect x="87" y="561.5"
            width="170.4" height="30"
            rx="3" ry="3"
            style="fill:#90caf9; stroke:#444; stroke-width:1" />
                
                <line x1="257.4" y1="571.5" x2="262.4" y2="571.5"
                style="fill:#a5d6a7; stroke:#444; stroke-width:1" />
                
                <line x1="257.4" y1="581.5" x2="262.4" y2="581.5"
                style="fill:#a5d6a7; stroke:#444; stroke-width:1" />

                <path d="M262.4, 565.5 L278.4, 576.5 L262.4, 587.5 Z" 
        fill="#a5d6a7" stroke="#444" stroke-width="1" />
                             
                <title>return n % 2 === 1</title>
            <text x="102" y="581.5"
                font-family="monospace" font-size="13" fill="#222">
                <tspan x="102" y="581.5">return n % 2 === 1</tspan>
            </text>
                
            </g>
                <g>
                   <rect x="50" y="610"
            width="279.6" height="30"
            rx="2" ry="2"
            style="fill:#C5E1A5; stroke:#444; stroke-width:1" />
                   <title>[1, 3, 5, 7, 9, 11, 13].map(*())</title>
            <text x="65" y="630"
                font-family="monospace" font-size="13" fill="#222">
                <tspan x="65" y="630">[1, 3, 5, 7, 9, 11, 13].map(*())</tspan>
            </text>
                   
                   
                </g>
            <g>
                <rect x="87" y="658.5"
            width="112.4" height="30"
            style="fill:#a5d6a7; stroke:#444; stroke-width:1" />
                    
                <line x1="97" y1="658.5" x2="97" y2="688.5"
                style="fill:#a5d6a7; stroke:#444; stroke-width:1" />
                <line x1="189.4" y1="658.5" x2="189.4" y2="688.5"
                style="fill:#a5d6a7; stroke:#444; stroke-width:1" />
             
                <title>(val) =&gt;</title>
            <text x="112" y="678.5"
                font-family="monospace" font-size="13" fill="#222">
                <tspan x="112" y="678.5">(val) =&gt;</tspan>
            </text>
                
            </g>
            <g>
                <rect x="124" y="707"
            width="264" height="30"
            rx="3" ry="3"
            style="fill:#90caf9; stroke:#444; stroke-width:1" />
                
                <line x1="388" y1="717" x2="393" y2="717"
                style="fill:#a5d6a7; stroke:#444; stroke-width:1" />
                
                <line x1="388" y1="727" x2="393" y2="727"
                style="fill:#a5d6a7; stroke:#444; stroke-width:1" />

                <path d="M393, 711 L409, 722 L393, 733 Z" 
        fill="#a5d6a7" stroke="#444" stroke-width="1" />
                             
                <title>return console.log(isOdd(val))</title>
            <text x="139" y="727"
                font-family="monospace" font-size="13" fill="#222">
                <tspan x="139" y="727">return console.log(isOdd(val))</tspan>
            </text>
                
            </g>
                <g>
                   <rect x="50" y="755.5"
            width="334.2" height="30"
            rx="2" ry="2"
            style="fill:#C5E1A5; stroke:#444; stroke-width:1" />
                   <title>console.log(longestPalindrome(&apos;babad&apos;))</title>
            <text x="65" y="775.5"
                font-family="monospace" font-size="13" fill="#222">
                <tspan x="65" y="775.5">console.log(longestPalindrome(&apos;babad&apos;))</tspan>
            </text>
                   
                   
                </g>
            <g>
               <rect x="25" y="13.75"
            width="216.6" height="24"
            style="fill:#fff59d; stroke:#444; stroke-width:1" />
               <circle cx="25" cy="25" r="15"
        style="fill:#fff59d; stroke:#444; stroke-width:1" />
               <title>Program: source module</title>
            <text x="55" y="30"
                font-family="monospace" font-size="13" fill="#222">
                <tspan x="55" y="30">Program: source module</tspan>
            </text>
            </g>
            <g>
               <path d="M25, 40 L25 91 Q25 95
                29 95
                L42 95 "
        style="fill:none; stroke:#444; stroke-width:1" />
               <path d="M42, 92 L50, 95 L42, 98 Z" 
        fill="#333" />
            </g>
            <g>
               <path d="M68.5, 110 L68.5 139.5 Q68.5 143.5
                72.5 143.5
                L79 143.5 "
        style="fill:none; stroke:#444; stroke-width:1" />
               <path d="M79, 140.5 L87, 143.5 L79, 146.5 Z" 
        fill="#333" />
            </g>
            <g>
               <path d="M25, 40 L25 203 Q25 207
                29 207
                L42 207 "
        style="fill:none; stroke:#444; stroke-width:1" />
               <path d="M42, 204 L50, 207 L42, 210 Z" 
        fill="#333" />
            </g>
            <g>
               <path d="M68.5, 222 L68.5 251.5 Q68.5 255.5
                72.5 255.5
                L79 255.5 "
        style="fill:none; stroke:#444; stroke-width:1" />
               <path d="M79, 252.5 L87, 255.5 L79, 258.5 Z" 
        fill="#333" />
            </g>
            <g>
               <path d="M105.5, 270.5 L105.5 300 Q105.5 304
                109.5 304
                L116 304 "
        style="fill:none; stroke:#444; stroke-width:1" />
               <path d="M116, 301 L124, 304 L116, 307 Z" 
        fill="#333" />
            </g>
            <g>
               <path d="M105.5, 270.5 L105.5 348.5 Q105.5 352.5
                109.5 352.5
                L116 352.5 "
        style="fill:none; stroke:#444; stroke-width:1" />
               <path d="M116, 349.5 L124, 352.5 L116, 355.5 Z" 
        fill="#333" />
            </g>
            <g>
               <path d="M25, 40 L25 412 Q25 416
                29 416
                L42 416 "
        style="fill:none; stroke:#444; stroke-width:1" />
               <path d="M42, 413 L50, 416 L42, 419 Z" 
        fill="#333" />
            </g>
            <g>
               <path d="M68.5, 431 L68.5 460.5 Q68.5 464.5
                72.5 464.5
                L79 464.5 "
        style="fill:none; stroke:#444; stroke-width:1" />
               <path d="M79, 461.5 L87, 464.5 L79, 467.5 Z" 
        fill="#333" />
            </g>
            <g>
               <path d="M25, 40 L25 524 Q25 528
                29 528
                L42 528 "
        style="fill:none; stroke:#444; stroke-width:1" />
               <path d="M42, 525 L50, 528 L42, 531 Z" 
        fill="#333" />
            </g>
            <g>
               <path d="M68.5, 543 L68.5 572.5 Q68.5 576.5
                72.5 576.5
                L79 576.5 "
        style="fill:none; stroke:#444; stroke-width:1" />
               <path d="M79, 573.5 L87, 576.5 L79, 579.5 Z" 
        fill="#333" />
            </g>
            <g>
               <path d="M25, 40 L25 621 Q25 625
                29 625
                L42 625 "
        style="fill:none; stroke:#444; stroke-width:1" />
               <path d="M42, 622 L50, 625 L42, 628 Z" 
        fill="#333" />
            </g>
            <g>
               <path d="M68.5, 640 L68.5 669.5 Q68.5 673.5
                72.5 673.5
                L87 673.5 "
        style="fill:none; stroke:#444; stroke-width:1" />
               false
            </g>
            <g>
               <path d="M105.5, 688.5 L105.5 718 Q105.5 722
                109.5 722
                L116 722 "
        style="fill:none; stroke:#444; stroke-width:1" />
               <path d="M116, 719 L124, 722 L116, 725 Z" 
        fill="#333" />
            </g>
            <g>
               <path d="M25, 40 L25 766.5 Q25 770.5
                29 770.5
                L42 770.5 "
        style="fill:none; stroke:#444; stroke-width:1" />
               <path d="M42, 767.5 L50, 770.5 L42, 773.5 Z" 
        fill="#333" />
            </g>
            </svg>