<!DOCTYPE svg PUBLIC "-//W3C//DTD SVG 1.1//EN" "http://www.w3.org/Graphics/SVG/1.1/DTD/svg11.dtd">
                <svg xmlns="http://www.w3.org/2000/svg" xmlns:xlink="http://www.w3.org/1999/xlink" 
                width="520" height="1167">
                
            <g>
                <rect x="50" y="80"
            width="330.8" height="30"
            style="fill:#a5d6a7; stroke:#444; stroke-width:1" />
                    
                <line x1="60" y1="80" x2="60" y2="110"
                style="fill:#a5d6a7; stroke:#444; stroke-width:1" />
                <line x1="370.8" y1="80" x2="370.8" y2="110"
                style="fill:#a5d6a7; stroke:#444; stroke-width:1" />
             
                <title>longestCommonPrefix = function(strs)</title>
            <text x="75" y="100"
                font-family="monospace" font-size="13" fill="#222">
                <tspan x="75" y="100">longestCommonPrefix = function(strs)</tspan>
            </text>
                
            </g><g>
            <rect x="117" y="143.5"
            width="270.6" height="30"
            rx="3" ry="3"
            style="fill:#ce93d8; stroke:#444; stroke-width:1" />                
            <polygon points="87,158.5 117,128.5 147,158.5 117,188.5"
            style="fill:#ce93d8; stroke:#444; stroke-width:1" />
            <title>(strs &amp;&amp; strs.length === 0)</title>
            <text x="162" y="163.5"
                font-family="monospace" font-size="13" fill="#222">
                <tspan x="162" y="163.5">(strs &amp;&amp; strs.length === 0)</tspan>
            </text>
            
            <text x="109.2" y="163.5"
        font-family="monospace" font-size="13" fill="#222">if</text> <text x="124.8" y="190.45"
        font-family="monospace" font-size="13" fill="#222">+</text> 
        </g>
            <g>
                <rect x="137" y="198.5"
            width="100.2" height="30"
            rx="3" ry="3"
            style="fill:#90caf9; stroke:#444; stroke-width:1" />
                
                <line x1="237.2" y1="208.5" x2="242.2" y2="208.5"
                style="fill:#a5d6a7; stroke:#444; stroke-width:1" />
                
                <line x1="237.2" y1="218.5" x2="242.2" y2="218.5"
                style="fill:#a5d6a7; stroke:#444; stroke-width:1" />

                <path d="M242.2, 202.5 L258.2, 213.5 L242.2, 224.5 Z" 
        fill="#a5d6a7" stroke="#444" stroke-width="1" />
                             
                <title>return &apos;&apos;</title>
            <text x="152" y="218.5"
                font-family="monospace" font-size="13" fill="#222">
                <tspan x="152" y="218.5">return &apos;&apos;</tspan>
            </text>
                
            </g>
                <g>
                   <rect x="87" y="248.5"
            width="139.2" height="30"
            rx="2" ry="2"
            style="fill:#C5E1A5; stroke:#444; stroke-width:1" />
                   <title>strs.sort(*())</title>
            <text x="102" y="268.5"
                font-family="monospace" font-size="13" fill="#222">
                <tspan x="102" y="268.5">strs.sort(*())</tspan>
            </text>
                   
                   
                </g>
            <g>
                <rect x="124" y="297"
            width="167" height="30"
            style="fill:#a5d6a7; stroke:#444; stroke-width:1" />
                    
                <line x1="134" y1="297" x2="134" y2="327"
                style="fill:#a5d6a7; stroke:#444; stroke-width:1" />
                <line x1="281" y1="297" x2="281" y2="327"
                style="fill:#a5d6a7; stroke:#444; stroke-width:1" />
             
                <title>(prev, next) =&gt;</title>
            <text x="149" y="317"
                font-family="monospace" font-size="13" fill="#222">
                <tspan x="149" y="317">(prev, next) =&gt;</tspan>
            </text>
                
            </g>
            <g>
                <rect x="161" y="345.5"
            width="279.6" height="30"
            rx="3" ry="3"
            style="fill:#90caf9; stroke:#444; stroke-width:1" />
                
                <line x1="440.6" y1="355.5" x2="445.6" y2="355.5"
                style="fill:#a5d6a7; stroke:#444; stroke-width:1" />
                
                <line x1="440.6" y1="365.5" x2="445.6" y2="365.5"
                style="fill:#a5d6a7; stroke:#444; stroke-width:1" />

                <path d="M445.6, 349.5 L461.6, 360.5 L445.6, 371.5 Z" 
        fill="#a5d6a7" stroke="#444" stroke-width="1" />
                             
                <title>return prev.length - next.length</title>
            <text x="176" y="365.5"
                font-family="monospace" font-size="13" fill="#222">
                <tspan x="176" y="365.5">return prev.length - next.length</tspan>
            </text>
                
            </g>
                <g>
                   <rect x="87" y="394"
            width="193.79999999999998" height="30"
            rx="3" ry="3"
            style="fill:#90caf9; stroke:#444; stroke-width:1" />
                   <title>shortestStr = strs[0]</title>
            <text x="102" y="414"
                font-family="monospace" font-size="13" fill="#222">
                <tspan x="102" y="414">shortestStr = strs[0]</tspan>
            </text>
                   
                   
                </g>
                <g>
                   <rect x="87" y="442.5"
            width="357.59999999999997" height="30"
            rx="3" ry="3"
            style="fill:#90caf9; stroke:#444; stroke-width:1" />
                   <title>length = shortestStr &amp;&amp; shortestStr.length</title>
            <text x="102" y="462.5"
                font-family="monospace" font-size="13" fill="#222">
                <tspan x="102" y="462.5">length = shortestStr &amp;&amp; shortestStr.length</tspan>
            </text>
                   
                   
                </g><g>
            <rect x="117" y="506"
            width="130.2" height="30"
            rx="3" ry="3"
            style="fill:#ce93d8; stroke:#444; stroke-width:1" />                
            <polygon points="87,521 117,491 147,521 117,551"
            style="fill:#ce93d8; stroke:#444; stroke-width:1" />
            <title>(!length)</title>
            <text x="162" y="526"
                font-family="monospace" font-size="13" fill="#222">
                <tspan x="162" y="526">(!length)</tspan>
            </text>
            
            <text x="109.2" y="526"
        font-family="monospace" font-size="13" fill="#222">if</text> <text x="124.8" y="552.95"
        font-family="monospace" font-size="13" fill="#222">+</text> 
        </g>
            <g>
                <rect x="137" y="561"
            width="100.2" height="30"
            rx="3" ry="3"
            style="fill:#90caf9; stroke:#444; stroke-width:1" />
                
                <line x1="237.2" y1="571" x2="242.2" y2="571"
                style="fill:#a5d6a7; stroke:#444; stroke-width:1" />
                
                <line x1="237.2" y1="581" x2="242.2" y2="581"
                style="fill:#a5d6a7; stroke:#444; stroke-width:1" />

                <path d="M242.2, 565 L258.2, 576 L242.2, 587 Z" 
        fill="#a5d6a7" stroke="#444" stroke-width="1" />
                             
                <title>return &apos;&apos;</title>
            <text x="152" y="581"
                font-family="monospace" font-size="13" fill="#222">
                <tspan x="152" y="581">return &apos;&apos;</tspan>
            </text>
                
            </g><g>

            <rect x="117" y="646"
            width="99" height="30"
            rx="3" ry="3"
            style="fill:#b39ddb; stroke:#444; stroke-width:1" />
            <polygon points="87,661 117,631 147,661 117,691"
            style="fill:#b39ddb; stroke:#444; stroke-width:1" />
                
            <title>i &gt; 0</title>
            <text x="162" y="666"
                font-family="monospace" font-size="13" fill="#222">
                <tspan x="162" y="666">i &gt; 0</tspan>
            </text>
            
            <text x="105.3" y="666"
        font-family="monospace" font-size="13" fill="#222">for</text>
        </g>
                <g>
                   <rect x="137" y="701"
            width="53.4" height="30"
            rx="3" ry="3"
            style="fill:#90caf9; stroke:#444; stroke-width:1" />
                   <title>i--</title>
            <text x="152" y="721"
                font-family="monospace" font-size="13" fill="#222">
                <tspan x="152" y="721">i--</tspan>
            </text>
                   
                   
                </g>
                <g>
                   <rect x="137" y="749.5"
            width="357.59999999999997" height="30"
            rx="3" ry="3"
            style="fill:#90caf9; stroke:#444; stroke-width:1" />
                   <title>const searchStr = shortestStr.substr(0, i)</title>
            <text x="152" y="769.5"
                font-family="monospace" font-size="13" fill="#222">
                <tspan x="152" y="769.5">const searchStr = shortestStr.substr(0, i)</tspan>
            </text>
                   
                   
                </g>
                <g>
                   <rect x="137" y="798"
            width="201.6" height="30"
            rx="3" ry="3"
            style="fill:#90caf9; stroke:#444; stroke-width:1" />
                   <title>flag = strs.every(*())</title>
            <text x="152" y="818"
                font-family="monospace" font-size="13" fill="#222">
                <tspan x="152" y="818">flag = strs.every(*())</tspan>
            </text>
                   
                   
                </g>
            <g>
                <rect x="174" y="846.5"
            width="120.2" height="30"
            style="fill:#a5d6a7; stroke:#444; stroke-width:1" />
                    
                <line x1="184" y1="846.5" x2="184" y2="876.5"
                style="fill:#a5d6a7; stroke:#444; stroke-width:1" />
                <line x1="284.2" y1="846.5" x2="284.2" y2="876.5"
                style="fill:#a5d6a7; stroke:#444; stroke-width:1" />
             
                <title>(item) =&gt;</title>
            <text x="199" y="866.5"
                font-family="monospace" font-size="13" fill="#222">
                <tspan x="199" y="866.5">(item) =&gt;</tspan>
            </text>
                
            </g>
                <g>
                   <rect x="211" y="895"
            width="232.79999999999998" height="30"
            rx="2" ry="2"
            style="fill:#C5E1A5; stroke:#444; stroke-width:1" />
                   <title>item.startsWith(searchStr)</title>
            <text x="226" y="915"
                font-family="monospace" font-size="13" fill="#222">
                <tspan x="226" y="915">item.startsWith(searchStr)</tspan>
            </text>
                   
                   
                </g><g>
            <rect x="167" y="958.5"
            width="106.80000000000001" height="30"
            rx="3" ry="3"
            style="fill:#ce93d8; stroke:#444; stroke-width:1" />                
            <polygon points="137,973.5 167,943.5 197,973.5 167,1003.5"
            style="fill:#ce93d8; stroke:#444; stroke-width:1" />
            <title>(flag)</title>
            <text x="212" y="978.5"
                font-family="monospace" font-size="13" fill="#222">
                <tspan x="212" y="978.5">(flag)</tspan>
            </text>
            
            <text x="159.2" y="978.5"
        font-family="monospace" font-size="13" fill="#222">if</text> <text x="174.8" y="1005.45"
        font-family="monospace" font-size="13" fill="#222">+</text> 
        </g>
            <g>
                <rect x="187" y="1013.5"
            width="154.8" height="30"
            rx="3" ry="3"
            style="fill:#90caf9; stroke:#444; stroke-width:1" />
                
                <line x1="341.8" y1="1023.5" x2="346.8" y2="1023.5"
                style="fill:#a5d6a7; stroke:#444; stroke-width:1" />
                
                <line x1="341.8" y1="1033.5" x2="346.8" y2="1033.5"
                style="fill:#a5d6a7; stroke:#444; stroke-width:1" />

                <path d="M346.8, 1017.5 L362.8, 1028.5 L346.8, 1039.5 Z" 
        fill="#a5d6a7" stroke="#444" stroke-width="1" />
                             
                <title>return searchStr</title>
            <text x="202" y="1033.5"
                font-family="monospace" font-size="13" fill="#222">
                <tspan x="202" y="1033.5">return searchStr</tspan>
            </text>
                
            </g>
            <g>
                <rect x="187" y="1062"
            width="69" height="30"
            rx="2" ry="2"
            style="fill:#90caf9; stroke:#444; stroke-width:1" />
                
                <line x1="256" y1="1072" x2="261" y2="1072"
                style="fill:#ce93d8; stroke:#444; stroke-width:1" />
                
                <line x1="256" y1="1082" x2="261" y2="1082"
                style="fill:#ce93d8; stroke:#444; stroke-width:1" />

                <path d="M261, 1063 L277, 1077 L261, 1091 Z" 
        fill="#ce93d8" stroke="#444" stroke-width="1" />
                             
                <title>break</title>
            <text x="202" y="1082"
                font-family="monospace" font-size="13" fill="#222">
                <tspan x="202" y="1082">break</tspan>
            </text>
                
            </g>
            <g>
                <rect x="87" y="1112"
            width="100.2" height="30"
            rx="3" ry="3"
            style="fill:#90caf9; stroke:#444; stroke-width:1" />
                
                <line x1="187.2" y1="1122" x2="192.2" y2="1122"
                style="fill:#a5d6a7; stroke:#444; stroke-width:1" />
                
                <line x1="187.2" y1="1132" x2="192.2" y2="1132"
                style="fill:#a5d6a7; stroke:#444; stroke-width:1" />

                <path d="M192.2, 1116 L208.2, 1127 L192.2, 1138 Z" 
        fill="#a5d6a7" stroke="#444" stroke-width="1" />
                             
                <title>return &apos;&apos;</title>
            <text x="102" y="1132"
                font-family="monospace" font-size="13" fill="#222">
                <tspan x="102" y="1132">return &apos;&apos;</tspan>
            </text>
                
            </g>
            <g>
               <rect x="25" y="13.75"
            width="216.6" height="24"
            style="fill:#fff59d; stroke:#444; stroke-width:1" />
               <circle cx="25" cy="25" r="15"
        style="fill:#fff59d; stroke:#444; stroke-width:1" />
               <title>Program: source module</title>
            <text x="55" y="30"
                font-family="monospace" font-size="13" fill="#222">
                <tspan x="55" y="30">Program: source module</tspan>
            </text>
            </g>
            <g>
               <path d="M25, 40 L25 91 Q25 95
                29 95
                L42 95 "
        style="fill:none; stroke:#444; stroke-width:1" />
               <path d="M42, 92 L50, 95 L42, 98 Z" 
        fill="#333" />
            </g>
            <g>
               <path d="M68.5, 110 L68.5 154.5 Q68.5 158.5
                72.5 158.5
                L79 158.5 "
        style="fill:none; stroke:#444; stroke-width:1" />
               <path d="M79, 155.5 L87, 158.5 L79, 161.5 Z" 
        fill="#333" />
            </g>
            <g>
               <path d="M117, 188.5 L117 209.5 Q117 213.5
                121 213.5
                L129 213.5 "
        style="fill:none; stroke:#444; stroke-width:1" />
               <path d="M129, 210.5 L137, 213.5 L129, 216.5 Z" 
        fill="#333" />
            </g>
            <g>
               <path d="M68.5, 110 L68.5 259.5 Q68.5 263.5
                72.5 263.5
                L79 263.5 "
        style="fill:none; stroke:#444; stroke-width:1" />
               <path d="M79, 260.5 L87, 263.5 L79, 266.5 Z" 
        fill="#333" />
            </g>
            <g>
               <path d="M105.5, 278.5 L105.5 308 Q105.5 312
                109.5 312
                L124 312 "
        style="fill:none; stroke:#444; stroke-width:1" />
               false
            </g>
            <g>
               <path d="M142.5, 327 L142.5 356.5 Q142.5 360.5
                146.5 360.5
                L153 360.5 "
        style="fill:none; stroke:#444; stroke-width:1" />
               <path d="M153, 357.5 L161, 360.5 L153, 363.5 Z" 
        fill="#333" />
            </g>
            <g>
               <path d="M68.5, 110 L68.5 405 Q68.5 409
                72.5 409
                L79 409 "
        style="fill:none; stroke:#444; stroke-width:1" />
               <path d="M79, 406 L87, 409 L79, 412 Z" 
        fill="#333" />
            </g>
            <g>
               <path d="M68.5, 110 L68.5 453.5 Q68.5 457.5
                72.5 457.5
                L79 457.5 "
        style="fill:none; stroke:#444; stroke-width:1" />
               <path d="M79, 454.5 L87, 457.5 L79, 460.5 Z" 
        fill="#333" />
            </g>
            <g>
               <path d="M68.5, 110 L68.5 517 Q68.5 521
                72.5 521
                L79 521 "
        style="fill:none; stroke:#444; stroke-width:1" />
               <path d="M79, 518 L87, 521 L79, 524 Z" 
        fill="#333" />
            </g>
            <g>
               <path d="M117, 551 L117 572 Q117 576
                121 576
                L129 576 "
        style="fill:none; stroke:#444; stroke-width:1" />
               <path d="M129, 573 L137, 576 L129, 579 Z" 
        fill="#333" />
            </g>
            <g>
               <path d="M68.5, 110 L68.5 657 Q68.5 661
                72.5 661
                L79 661 "
        style="fill:none; stroke:#444; stroke-width:1" />
               <path d="M79, 658 L87, 661 L79, 664 Z" 
        fill="#333" />
            </g>
            <g>
               <path d="M117, 691 L117 712 Q117 716
                121 716
                L129 716 "
        style="fill:none; stroke:#444; stroke-width:1" />
               <path d="M129, 713 L137, 716 L129, 719 Z" 
        fill="#333" />
            </g>
            <g>
               <path d="M117, 691 L117 760.5 Q117 764.5
                121 764.5
                L129 764.5 "
        style="fill:none; stroke:#444; stroke-width:1" />
               <path d="M129, 761.5 L137, 764.5 L129, 767.5 Z" 
        fill="#333" />
            </g>
            <g>
               <path d="M117, 691 L117 809 Q117 813
                121 813
                L129 813 "
        style="fill:none; stroke:#444; stroke-width:1" />
               <path d="M129, 810 L137, 813 L129, 816 Z" 
        fill="#333" />
            </g>
            <g>
               <path d="M155.5, 828 L155.5 857.5 Q155.5 861.5
                159.5 861.5
                L174 861.5 "
        style="fill:none; stroke:#444; stroke-width:1" />
               false
            </g>
            <g>
               <path d="M192.5, 876.5 L192.5 906 Q192.5 910
                196.5 910
                L203 910 "
        style="fill:none; stroke:#444; stroke-width:1" />
               <path d="M203, 907 L211, 910 L203, 913 Z" 
        fill="#333" />
            </g>
            <g>
               <path d="M117, 691 L117 969.5 Q117 973.5
                121 973.5
                L129 973.5 "
        style="fill:none; stroke:#444; stroke-width:1" />
               <path d="M129, 970.5 L137, 973.5 L129, 976.5 Z" 
        fill="#333" />
            </g>
            <g>
               <path d="M167, 1003.5 L167 1024.5 Q167 1028.5
                171 1028.5
                L179 1028.5 "
        style="fill:none; stroke:#444; stroke-width:1" />
               <path d="M179, 1025.5 L187, 1028.5 L179, 1031.5 Z" 
        fill="#333" />
            </g>
            <g>
               <path d="M167, 1003.5 L167 1073 Q167 1077
                171 1077
                L179 1077 "
        style="fill:none; stroke:#444; stroke-width:1" />
               <path d="M179, 1074 L187, 1077 L179, 1080 Z" 
        fill="#333" />
            </g>
            <g>
               <path d="M277, 1077 L510.5999999999999 1077  Q514.5999999999999 1077
                514.5999999999999 1073
                L514.5999999999999 619 Q514.5999999999999 611
                510.5999999999999 611
                L125 611  Q117 611
                117 615
                L117 623"
        style="fill:none; stroke:#444; stroke-width:1" />
               <path d="M114, 623 L117, 631 L120, 623 Z" 
        fill="#333" />
            </g>
            <g>
               <path d="M68.5, 110 L68.5 1123 Q68.5 1127
                72.5 1127
                L79 1127 "
        style="fill:none; stroke:#444; stroke-width:1" />
               <path d="M79, 1124 L87, 1127 L79, 1130 Z" 
        fill="#333" />
            </g>
            </svg>