<!DOCTYPE svg PUBLIC "-//W3C//DTD SVG 1.1//EN" "http://www.w3.org/Graphics/SVG/1.1/DTD/svg11.dtd">
                <svg xmlns="http://www.w3.org/2000/svg" xmlns:xlink="http://www.w3.org/1999/xlink" 
                width="680" height="812">
                
            <g>
                <rect x="50" y="80"
            width="315.2" height="30"
            style="fill:#a5d6a7; stroke:#444; stroke-width:1" />
                    
                <line x1="60" y1="80" x2="60" y2="110"
                style="fill:#a5d6a7; stroke:#444; stroke-width:1" />
                <line x1="355.2" y1="80" x2="355.2" y2="110"
                style="fill:#a5d6a7; stroke:#444; stroke-width:1" />
             
                <title>maxSubArrayLen = function(nums, k)</title>
            <text x="75" y="100"
                font-family="monospace" font-size="13" fill="#222">
                <tspan x="75" y="100">maxSubArrayLen = function(nums, k)</tspan>
            </text>
                
            </g>
                <g>
                   <rect x="87" y="128.5"
            width="201.6" height="30"
            rx="3" ry="3"
            style="fill:#90caf9; stroke:#444; stroke-width:1" />
                   <title>let subarrayLength = 0</title>
            <text x="102" y="148.5"
                font-family="monospace" font-size="13" fill="#222">
                <tspan x="102" y="148.5">let subarrayLength = 0</tspan>
            </text>
                   
                   
                </g>
                <g>
                   <rect x="87" y="177"
            width="115.8" height="30"
            rx="3" ry="3"
            style="fill:#90caf9; stroke:#444; stroke-width:1" />
                   <title>let sum = 0</title>
            <text x="102" y="197"
                font-family="monospace" font-size="13" fill="#222">
                <tspan x="102" y="197">let sum = 0</tspan>
            </text>
                   
                   
                </g>
                <g>
                   <rect x="87" y="225.5"
            width="131.39999999999998" height="30"
            rx="3" ry="3"
            style="fill:#90caf9; stroke:#444; stroke-width:1" />
                   <title>let map = {*}</title>
            <text x="102" y="245.5"
                font-family="monospace" font-size="13" fill="#222">
                <tspan x="102" y="245.5">let map = {*}</tspan>
            </text>
                   
                   
                </g>
                <g>
                   <rect x="124" y="274"
            width="69" height="30"
            rx="2" ry="2"
            style="fill:#90caf9; stroke:#444; stroke-width:1" />
                   <title>0: -1</title>
            <text x="139" y="294"
                font-family="monospace" font-size="13" fill="#222">
                <tspan x="139" y="294">0: -1</tspan>
            </text>
                   
                   
                </g>
                <g>
                   <rect x="87" y="322.5"
            width="162.6" height="30"
            rx="2" ry="2"
            style="fill:#C5E1A5; stroke:#444; stroke-width:1" />
                   <title>nums.forEach(*())</title>
            <text x="102" y="342.5"
                font-family="monospace" font-size="13" fill="#222">
                <tspan x="102" y="342.5">nums.forEach(*())</tspan>
            </text>
                   
                   
                </g>
            <g>
                <rect x="124" y="371"
            width="159.2" height="30"
            style="fill:#a5d6a7; stroke:#444; stroke-width:1" />
                    
                <line x1="134" y1="371" x2="134" y2="401"
                style="fill:#a5d6a7; stroke:#444; stroke-width:1" />
                <line x1="273.2" y1="371" x2="273.2" y2="401"
                style="fill:#a5d6a7; stroke:#444; stroke-width:1" />
             
                <title>(number, i) =&gt;</title>
            <text x="149" y="391"
                font-family="monospace" font-size="13" fill="#222">
                <tspan x="149" y="391">(number, i) =&gt;</tspan>
            </text>
                
            </g>
                <g>
                   <rect x="161" y="419.5"
            width="131.39999999999998" height="30"
            rx="3" ry="3"
            style="fill:#90caf9; stroke:#444; stroke-width:1" />
                   <title>sum += number</title>
            <text x="176" y="439.5"
                font-family="monospace" font-size="13" fill="#222">
                <tspan x="176" y="439.5">sum += number</tspan>
            </text>
                   
                   
                </g><g>
            <rect x="191" y="483"
            width="262.79999999999995" height="30"
            rx="3" ry="3"
            style="fill:#ce93d8; stroke:#444; stroke-width:1" />                
            <polygon points="161,498 191,468 221,498 191,528"
            style="fill:#ce93d8; stroke:#444; stroke-width:1" />
            <title>(!map.hasOwnProperty(sum))</title>
            <text x="236" y="503"
                font-family="monospace" font-size="13" fill="#222">
                <tspan x="236" y="503">(!map.hasOwnProperty(sum))</tspan>
            </text>
            
            <text x="183.2" y="503"
        font-family="monospace" font-size="13" fill="#222">if</text> <text x="198.8" y="529.95"
        font-family="monospace" font-size="13" fill="#222">+</text> 
        </g>
                <g>
                   <rect x="211" y="538"
            width="123.6" height="30"
            rx="3" ry="3"
            style="fill:#90caf9; stroke:#444; stroke-width:1" />
                   <title>map[sum] = i</title>
            <text x="226" y="558"
                font-family="monospace" font-size="13" fill="#222">
                <tspan x="226" y="558">map[sum] = i</tspan>
            </text>
                   
                   
                </g><g>
            <rect x="191" y="603"
            width="286.2" height="30"
            rx="3" ry="3"
            style="fill:#ce93d8; stroke:#444; stroke-width:1" />                
            <polygon points="161,618 191,588 221,618 191,648"
            style="fill:#ce93d8; stroke:#444; stroke-width:1" />
            <title>(map.hasOwnProperty(sum - k))</title>
            <text x="236" y="623"
                font-family="monospace" font-size="13" fill="#222">
                <tspan x="236" y="623">(map.hasOwnProperty(sum - k))</tspan>
            </text>
            
            <text x="183.2" y="623"
        font-family="monospace" font-size="13" fill="#222">if</text> <text x="198.8" y="649.95"
        font-family="monospace" font-size="13" fill="#222">+</text> 
        </g>
                <g>
                   <rect x="211" y="658"
            width="443.4" height="30"
            rx="3" ry="3"
            style="fill:#90caf9; stroke:#444; stroke-width:1" />
                   <title>subarrayLength = Math.max(subarrayLength, i - map[sum - k])</title>
            <text x="226" y="678"
                font-family="monospace" font-size="13" fill="#222">
                <tspan x="226" y="678">subarrayLength = Math.max(subarrayLength, i - map[...</tspan>
            </text>
                   
                   
                </g>
            <g>
                <rect x="87" y="708"
            width="193.79999999999998" height="30"
            rx="3" ry="3"
            style="fill:#90caf9; stroke:#444; stroke-width:1" />
                
                <line x1="280.79999999999995" y1="718" x2="285.79999999999995" y2="718"
                style="fill:#a5d6a7; stroke:#444; stroke-width:1" />
                
                <line x1="280.79999999999995" y1="728" x2="285.79999999999995" y2="728"
                style="fill:#a5d6a7; stroke:#444; stroke-width:1" />

                <path d="M285.79999999999995, 712 L301.79999999999995, 723 L285.79999999999995, 734 Z" 
        fill="#a5d6a7" stroke="#444" stroke-width="1" />
                             
                <title>return subarrayLength</title>
            <text x="102" y="728"
                font-family="monospace" font-size="13" fill="#222">
                <tspan x="102" y="728">return subarrayLength</tspan>
            </text>
                
            </g>
                <g>
                   <rect x="50" y="756.5"
            width="412.2" height="30"
            rx="2" ry="2"
            style="fill:#C5E1A5; stroke:#444; stroke-width:1" />
                   <title>console.log(maxSubArrayLen([1, -1, 5, -2, 3], 3))</title>
            <text x="65" y="776.5"
                font-family="monospace" font-size="13" fill="#222">
                <tspan x="65" y="776.5">console.log(maxSubArrayLen([1, -1, 5, -2, 3], 3))</tspan>
            </text>
                   
                   
                </g>
            <g>
               <rect x="25" y="13.75"
            width="216.6" height="24"
            style="fill:#fff59d; stroke:#444; stroke-width:1" />
               <circle cx="25" cy="25" r="15"
        style="fill:#fff59d; stroke:#444; stroke-width:1" />
               <title>Program: source module</title>
            <text x="55" y="30"
                font-family="monospace" font-size="13" fill="#222">
                <tspan x="55" y="30">Program: source module</tspan>
            </text>
            </g>
            <g>
               <path d="M25, 40 L25 91 Q25 95
                29 95
                L42 95 "
        style="fill:none; stroke:#444; stroke-width:1" />
               <path d="M42, 92 L50, 95 L42, 98 Z" 
        fill="#333" />
            </g>
            <g>
               <path d="M68.5, 110 L68.5 139.5 Q68.5 143.5
                72.5 143.5
                L79 143.5 "
        style="fill:none; stroke:#444; stroke-width:1" />
               <path d="M79, 140.5 L87, 143.5 L79, 146.5 Z" 
        fill="#333" />
            </g>
            <g>
               <path d="M68.5, 110 L68.5 188 Q68.5 192
                72.5 192
                L79 192 "
        style="fill:none; stroke:#444; stroke-width:1" />
               <path d="M79, 189 L87, 192 L79, 195 Z" 
        fill="#333" />
            </g>
            <g>
               <path d="M68.5, 110 L68.5 236.5 Q68.5 240.5
                72.5 240.5
                L79 240.5 "
        style="fill:none; stroke:#444; stroke-width:1" />
               <path d="M79, 237.5 L87, 240.5 L79, 243.5 Z" 
        fill="#333" />
            </g>
            <g>
               <path d="M105.5, 255.5 L105.5 285 Q105.5 289
                109.5 289
                L124 289 "
        style="fill:none; stroke:#444; stroke-width:1" />
               false
            </g>
            <g>
               <path d="M68.5, 110 L68.5 333.5 Q68.5 337.5
                72.5 337.5
                L79 337.5 "
        style="fill:none; stroke:#444; stroke-width:1" />
               <path d="M79, 334.5 L87, 337.5 L79, 340.5 Z" 
        fill="#333" />
            </g>
            <g>
               <path d="M105.5, 352.5 L105.5 382 Q105.5 386
                109.5 386
                L124 386 "
        style="fill:none; stroke:#444; stroke-width:1" />
               false
            </g>
            <g>
               <path d="M142.5, 401 L142.5 430.5 Q142.5 434.5
                146.5 434.5
                L153 434.5 "
        style="fill:none; stroke:#444; stroke-width:1" />
               <path d="M153, 431.5 L161, 434.5 L153, 437.5 Z" 
        fill="#333" />
            </g>
            <g>
               <path d="M142.5, 401 L142.5 494 Q142.5 498
                146.5 498
                L153 498 "
        style="fill:none; stroke:#444; stroke-width:1" />
               <path d="M153, 495 L161, 498 L153, 501 Z" 
        fill="#333" />
            </g>
            <g>
               <path d="M191, 528 L191 549 Q191 553
                195 553
                L203 553 "
        style="fill:none; stroke:#444; stroke-width:1" />
               <path d="M203, 550 L211, 553 L203, 556 Z" 
        fill="#333" />
            </g>
            <g>
               <path d="M142.5, 401 L142.5 614 Q142.5 618
                146.5 618
                L153 618 "
        style="fill:none; stroke:#444; stroke-width:1" />
               <path d="M153, 615 L161, 618 L153, 621 Z" 
        fill="#333" />
            </g>
            <g>
               <path d="M191, 648 L191 669 Q191 673
                195 673
                L203 673 "
        style="fill:none; stroke:#444; stroke-width:1" />
               <path d="M203, 670 L211, 673 L203, 676 Z" 
        fill="#333" />
            </g>
            <g>
               <path d="M68.5, 110 L68.5 719 Q68.5 723
                72.5 723
                L79 723 "
        style="fill:none; stroke:#444; stroke-width:1" />
               <path d="M79, 720 L87, 723 L79, 726 Z" 
        fill="#333" />
            </g>
            <g>
               <path d="M25, 40 L25 767.5 Q25 771.5
                29 771.5
                L42 771.5 "
        style="fill:none; stroke:#444; stroke-width:1" />
               <path d="M42, 768.5 L50, 771.5 L42, 774.5 Z" 
        fill="#333" />
            </g>
            </svg>