<!DOCTYPE svg PUBLIC "-//W3C//DTD SVG 1.1//EN" "http://www.w3.org/Graphics/SVG/1.1/DTD/svg11.dtd">
                <svg xmlns="http://www.w3.org/2000/svg" xmlns:xlink="http://www.w3.org/1999/xlink" 
                width="507" height="401">
                
            <g>
                <rect x="50" y="80"
            width="245" height="30"
            style="fill:#a5d6a7; stroke:#444; stroke-width:1" />
                    
                <line x1="60" y1="80" x2="60" y2="110"
                style="fill:#a5d6a7; stroke:#444; stroke-width:1" />
                <line x1="285" y1="80" x2="285" y2="110"
                style="fill:#a5d6a7; stroke:#444; stroke-width:1" />
             
                <title>maxDepth = function(root)</title>
            <text x="75" y="100"
                font-family="monospace" font-size="13" fill="#222">
                <tspan x="75" y="100">maxDepth = function(root)</tspan>
            </text>
                
            </g><g>
            <rect x="117" y="143.5"
            width="177" height="30"
            rx="3" ry="3"
            style="fill:#ce93d8; stroke:#444; stroke-width:1" />                
            <polygon points="87,158.5 117,128.5 147,158.5 117,188.5"
            style="fill:#ce93d8; stroke:#444; stroke-width:1" />
            <title>(root === null)</title>
            <text x="162" y="163.5"
                font-family="monospace" font-size="13" fill="#222">
                <tspan x="162" y="163.5">(root === null)</tspan>
            </text>
            
            <text x="109.2" y="163.5"
        font-family="monospace" font-size="13" fill="#222">if</text> <text x="124.8" y="190.45"
        font-family="monospace" font-size="13" fill="#222">+</text> 
        </g>
            <g>
                <rect x="137" y="198.5"
            width="92.4" height="30"
            rx="3" ry="3"
            style="fill:#90caf9; stroke:#444; stroke-width:1" />
                
                <line x1="229.4" y1="208.5" x2="234.4" y2="208.5"
                style="fill:#a5d6a7; stroke:#444; stroke-width:1" />
                
                <line x1="229.4" y1="218.5" x2="234.4" y2="218.5"
                style="fill:#a5d6a7; stroke:#444; stroke-width:1" />

                <path d="M234.4, 202.5 L250.4, 213.5 L234.4, 224.5 Z" 
        fill="#a5d6a7" stroke="#444" stroke-width="1" />
                             
                <title>return 0</title>
            <text x="152" y="218.5"
                font-family="monospace" font-size="13" fill="#222">
                <tspan x="152" y="218.5">return 0</tspan>
            </text>
                
            </g>
                <g>
                   <rect x="87" y="248.5"
            width="310.8" height="30"
            rx="3" ry="3"
            style="fill:#90caf9; stroke:#444; stroke-width:1" />
                   <title>let left_depth = maxDepth(root.left)</title>
            <text x="102" y="268.5"
                font-family="monospace" font-size="13" fill="#222">
                <tspan x="102" y="268.5">let left_depth = maxDepth(root.left)</tspan>
            </text>
                   
                   
                </g>
                <g>
                   <rect x="87" y="297"
            width="326.4" height="30"
            rx="3" ry="3"
            style="fill:#90caf9; stroke:#444; stroke-width:1" />
                   <title>let right_depth = maxDepth(root.right)</title>
            <text x="102" y="317"
                font-family="monospace" font-size="13" fill="#222">
                <tspan x="102" y="317">let right_depth = maxDepth(root.right)</tspan>
            </text>
                   
                   
                </g>
            <g>
                <rect x="87" y="345.5"
            width="373.2" height="30"
            rx="3" ry="3"
            style="fill:#90caf9; stroke:#444; stroke-width:1" />
                
                <line x1="460.2" y1="355.5" x2="465.2" y2="355.5"
                style="fill:#a5d6a7; stroke:#444; stroke-width:1" />
                
                <line x1="460.2" y1="365.5" x2="465.2" y2="365.5"
                style="fill:#a5d6a7; stroke:#444; stroke-width:1" />

                <path d="M465.2, 349.5 L481.2, 360.5 L465.2, 371.5 Z" 
        fill="#a5d6a7" stroke="#444" stroke-width="1" />
                             
                <title>return Math.max(left_depth, right_depth) + 1</title>
            <text x="102" y="365.5"
                font-family="monospace" font-size="13" fill="#222">
                <tspan x="102" y="365.5">return Math.max(left_depth, right_depth) + 1</tspan>
            </text>
                
            </g>
            <g>
               <rect x="25" y="13.75"
            width="216.6" height="24"
            style="fill:#fff59d; stroke:#444; stroke-width:1" />
               <circle cx="25" cy="25" r="15"
        style="fill:#fff59d; stroke:#444; stroke-width:1" />
               <title>Program: source module</title>
            <text x="55" y="30"
                font-family="monospace" font-size="13" fill="#222">
                <tspan x="55" y="30">Program: source module</tspan>
            </text>
            </g>
            <g>
               <path d="M25, 40 L25 91 Q25 95
                29 95
                L42 95 "
        style="fill:none; stroke:#444; stroke-width:1" />
               <path d="M42, 92 L50, 95 L42, 98 Z" 
        fill="#333" />
            </g>
            <g>
               <path d="M68.5, 110 L68.5 154.5 Q68.5 158.5
                72.5 158.5
                L79 158.5 "
        style="fill:none; stroke:#444; stroke-width:1" />
               <path d="M79, 155.5 L87, 158.5 L79, 161.5 Z" 
        fill="#333" />
            </g>
            <g>
               <path d="M117, 188.5 L117 209.5 Q117 213.5
                121 213.5
                L129 213.5 "
        style="fill:none; stroke:#444; stroke-width:1" />
               <path d="M129, 210.5 L137, 213.5 L129, 216.5 Z" 
        fill="#333" />
            </g>
            <g>
               <path d="M68.5, 110 L68.5 259.5 Q68.5 263.5
                72.5 263.5
                L79 263.5 "
        style="fill:none; stroke:#444; stroke-width:1" />
               <path d="M79, 260.5 L87, 263.5 L79, 266.5 Z" 
        fill="#333" />
            </g>
            <g>
               <path d="M68.5, 110 L68.5 308 Q68.5 312
                72.5 312
                L79 312 "
        style="fill:none; stroke:#444; stroke-width:1" />
               <path d="M79, 309 L87, 312 L79, 315 Z" 
        fill="#333" />
            </g>
            <g>
               <path d="M68.5, 110 L68.5 356.5 Q68.5 360.5
                72.5 360.5
                L79 360.5 "
        style="fill:none; stroke:#444; stroke-width:1" />
               <path d="M79, 357.5 L87, 360.5 L79, 363.5 Z" 
        fill="#333" />
            </g>
            </svg>