<!DOCTYPE svg PUBLIC "-//W3C//DTD SVG 1.1//EN" "http://www.w3.org/Graphics/SVG/1.1/DTD/svg11.dtd">
                <svg xmlns="http://www.w3.org/2000/svg" xmlns:xlink="http://www.w3.org/1999/xlink" 
                width="551" height="516">
                
            <g>
                <rect x="50" y="80"
            width="268.4" height="30"
            style="fill:#a5d6a7; stroke:#444; stroke-width:1" />
                    
                <line x1="60" y1="80" x2="60" y2="110"
                style="fill:#a5d6a7; stroke:#444; stroke-width:1" />
                <line x1="308.4" y1="80" x2="308.4" y2="110"
                style="fill:#a5d6a7; stroke:#444; stroke-width:1" />
             
                <title>maxSubArray = function(nums)</title>
            <text x="75" y="100"
                font-family="monospace" font-size="13" fill="#222">
                <tspan x="75" y="100">maxSubArray = function(nums)</tspan>
            </text>
                
            </g>
                <g>
                   <rect x="87" y="128.5"
            width="217.2" height="30"
            rx="3" ry="3"
            style="fill:#90caf9; stroke:#444; stroke-width:1" />
                   <title>let currentMax = nums[0]</title>
            <text x="102" y="148.5"
                font-family="monospace" font-size="13" fill="#222">
                <tspan x="102" y="148.5">let currentMax = nums[0]</tspan>
            </text>
                   
                   
                </g>
                <g>
                   <rect x="87" y="177"
            width="240.6" height="30"
            rx="3" ry="3"
            style="fill:#90caf9; stroke:#444; stroke-width:1" />
                   <title>let previousSum = -Infinity</title>
            <text x="102" y="197"
                font-family="monospace" font-size="13" fill="#222">
                <tspan x="102" y="197">let previousSum = -Infinity</tspan>
            </text>
                   
                   
                </g><g>

            <rect x="117" y="260.5"
            width="153.6" height="30"
            rx="3" ry="3"
            style="fill:#b39ddb; stroke:#444; stroke-width:1" />
            <polygon points="87,275.5 117,245.5 147,275.5 117,305.5"
            style="fill:#b39ddb; stroke:#444; stroke-width:1" />
                
            <title> num of nums</title>
            <text x="162" y="280.5"
                font-family="monospace" font-size="13" fill="#222">
                <tspan x="162" y="280.5"> num of nums</tspan>
            </text>
            
            <text x="105.3" y="280.5"
        font-family="monospace" font-size="13" fill="#222">for</text>
        </g>
                <g>
                   <rect x="137" y="315.5"
            width="388.8" height="30"
            rx="3" ry="3"
            style="fill:#90caf9; stroke:#444; stroke-width:1" />
                   <title>previousSum = Math.max(num, num + previousSum)</title>
            <text x="152" y="335.5"
                font-family="monospace" font-size="13" fill="#222">
                <tspan x="152" y="335.5">previousSum = Math.max(num, num + previousSum)</tspan>
            </text>
                   
                   
                </g>
                <g>
                   <rect x="137" y="364"
            width="388.8" height="30"
            rx="3" ry="3"
            style="fill:#90caf9; stroke:#444; stroke-width:1" />
                   <title>currentMax = Math.max(previousSum, currentMax)</title>
            <text x="152" y="384"
                font-family="monospace" font-size="13" fill="#222">
                <tspan x="152" y="384">currentMax = Math.max(previousSum, currentMax)</tspan>
            </text>
                   
                   
                </g>
            <g>
                <rect x="87" y="412.5"
            width="162.6" height="30"
            rx="3" ry="3"
            style="fill:#90caf9; stroke:#444; stroke-width:1" />
                
                <line x1="249.6" y1="422.5" x2="254.6" y2="422.5"
                style="fill:#a5d6a7; stroke:#444; stroke-width:1" />
                
                <line x1="249.6" y1="432.5" x2="254.6" y2="432.5"
                style="fill:#a5d6a7; stroke:#444; stroke-width:1" />

                <path d="M254.6, 416.5 L270.6, 427.5 L254.6, 438.5 Z" 
        fill="#a5d6a7" stroke="#444" stroke-width="1" />
                             
                <title>return currentMax</title>
            <text x="102" y="432.5"
                font-family="monospace" font-size="13" fill="#222">
                <tspan x="102" y="432.5">return currentMax</tspan>
            </text>
                
            </g>
                <g>
                   <rect x="50" y="461"
            width="443.4" height="30"
            rx="2" ry="2"
            style="fill:#C5E1A5; stroke:#444; stroke-width:1" />
                   <title>console.log(maxSubArray([-2, 1, -3, 4, -1, 2, 1, -5, 4]))</title>
            <text x="65" y="481"
                font-family="monospace" font-size="13" fill="#222">
                <tspan x="65" y="481">console.log(maxSubArray([-2, 1, -3, 4, -1, 2, 1, -...</tspan>
            </text>
                   
                   
                </g>
            <g>
               <rect x="25" y="13.75"
            width="216.6" height="24"
            style="fill:#fff59d; stroke:#444; stroke-width:1" />
               <circle cx="25" cy="25" r="15"
        style="fill:#fff59d; stroke:#444; stroke-width:1" />
               <title>Program: source module</title>
            <text x="55" y="30"
                font-family="monospace" font-size="13" fill="#222">
                <tspan x="55" y="30">Program: source module</tspan>
            </text>
            </g>
            <g>
               <path d="M25, 40 L25 91 Q25 95
                29 95
                L42 95 "
        style="fill:none; stroke:#444; stroke-width:1" />
               <path d="M42, 92 L50, 95 L42, 98 Z" 
        fill="#333" />
            </g>
            <g>
               <path d="M68.5, 110 L68.5 139.5 Q68.5 143.5
                72.5 143.5
                L79 143.5 "
        style="fill:none; stroke:#444; stroke-width:1" />
               <path d="M79, 140.5 L87, 143.5 L79, 146.5 Z" 
        fill="#333" />
            </g>
            <g>
               <path d="M68.5, 110 L68.5 188 Q68.5 192
                72.5 192
                L79 192 "
        style="fill:none; stroke:#444; stroke-width:1" />
               <path d="M79, 189 L87, 192 L79, 195 Z" 
        fill="#333" />
            </g>
            <g>
               <path d="M68.5, 110 L68.5 271.5 Q68.5 275.5
                72.5 275.5
                L79 275.5 "
        style="fill:none; stroke:#444; stroke-width:1" />
               <path d="M79, 272.5 L87, 275.5 L79, 278.5 Z" 
        fill="#333" />
            </g>
            <g>
               <path d="M117, 305.5 L117 326.5 Q117 330.5
                121 330.5
                L129 330.5 "
        style="fill:none; stroke:#444; stroke-width:1" />
               <path d="M129, 327.5 L137, 330.5 L129, 333.5 Z" 
        fill="#333" />
            </g>
            <g>
               <path d="M117, 305.5 L117 375 Q117 379
                121 379
                L129 379 "
        style="fill:none; stroke:#444; stroke-width:1" />
               <path d="M129, 376 L137, 379 L129, 382 Z" 
        fill="#333" />
            </g>
            <g>
               <path d="M525.8, 379 L541.8 379  Q545.8 379
                545.8 375
                L545.8 233.5 Q545.8 225.5
                541.8 225.5
                L125 225.5  Q117 225.5
                117 229.5
                L117 237.5"
        style="fill:none; stroke:#444; stroke-width:1" />
               <path d="M114, 237.5 L117, 245.5 L120, 237.5 Z" 
        fill="#333" />
            </g>
            <g>
               <path d="M68.5, 110 L68.5 423.5 Q68.5 427.5
                72.5 427.5
                L79 427.5 "
        style="fill:none; stroke:#444; stroke-width:1" />
               <path d="M79, 424.5 L87, 427.5 L79, 430.5 Z" 
        fill="#333" />
            </g>
            <g>
               <path d="M25, 40 L25 472 Q25 476
                29 476
                L42 476 "
        style="fill:none; stroke:#444; stroke-width:1" />
               <path d="M42, 473 L50, 476 L42, 479 Z" 
        fill="#333" />
            </g>
            </svg>