<!DOCTYPE svg PUBLIC "-//W3C//DTD SVG 1.1//EN" "http://www.w3.org/Graphics/SVG/1.1/DTD/svg11.dtd">
                <svg xmlns="http://www.w3.org/2000/svg" xmlns:xlink="http://www.w3.org/1999/xlink" 
                width="844" height="774">
                
            <g>
                <rect x="50" y="80"
            width="299.6" height="30"
            style="fill:#a5d6a7; stroke:#444; stroke-width:1" />
                    
                <line x1="60" y1="80" x2="60" y2="110"
                style="fill:#a5d6a7; stroke:#444; stroke-width:1" />
                <line x1="339.6" y1="80" x2="339.6" y2="110"
                style="fill:#a5d6a7; stroke:#444; stroke-width:1" />
             
                <title>mergeTwoLists = function(l1, l2)</title>
            <text x="75" y="100"
                font-family="monospace" font-size="13" fill="#222">
                <tspan x="75" y="100">mergeTwoLists = function(l1, l2)</tspan>
            </text>
                
            </g><g>
            <rect x="117" y="143.5"
            width="153.6" height="30"
            rx="3" ry="3"
            style="fill:#ce93d8; stroke:#444; stroke-width:1" />                
            <polygon points="87,158.5 117,128.5 147,158.5 117,188.5"
            style="fill:#ce93d8; stroke:#444; stroke-width:1" />
            <title>(!l1 || !l2)</title>
            <text x="162" y="163.5"
                font-family="monospace" font-size="13" fill="#222">
                <tspan x="162" y="163.5">(!l1 || !l2)</tspan>
            </text>
            
            <text x="109.2" y="163.5"
        font-family="monospace" font-size="13" fill="#222">if</text> <text x="124.8" y="190.45"
        font-family="monospace" font-size="13" fill="#222">+</text> 
        </g>
            <g>
                <rect x="137" y="198.5"
            width="147" height="30"
            rx="3" ry="3"
            style="fill:#90caf9; stroke:#444; stroke-width:1" />
                
                <line x1="284" y1="208.5" x2="289" y2="208.5"
                style="fill:#a5d6a7; stroke:#444; stroke-width:1" />
                
                <line x1="284" y1="218.5" x2="289" y2="218.5"
                style="fill:#a5d6a7; stroke:#444; stroke-width:1" />

                <path d="M289, 202.5 L305, 213.5 L289, 224.5 Z" 
        fill="#a5d6a7" stroke="#444" stroke-width="1" />
                             
                <title>return l1 || l2</title>
            <text x="152" y="218.5"
                font-family="monospace" font-size="13" fill="#222">
                <tspan x="152" y="218.5">return l1 || l2</tspan>
            </text>
                
            </g><g>
            <rect x="117" y="263.5"
            width="192.6" height="30"
            rx="3" ry="3"
            style="fill:#ce93d8; stroke:#444; stroke-width:1" />                
            <polygon points="87,278.5 117,248.5 147,278.5 117,308.5"
            style="fill:#ce93d8; stroke:#444; stroke-width:1" />
            <title>(l1.val &lt; l2.val)</title>
            <text x="162" y="283.5"
                font-family="monospace" font-size="13" fill="#222">
                <tspan x="162" y="283.5">(l1.val &lt; l2.val)</tspan>
            </text>
            
            <text x="109.2" y="283.5"
        font-family="monospace" font-size="13" fill="#222">if</text> <text x="124.8" y="310.45"
        font-family="monospace" font-size="13" fill="#222">+</text> <text x="313.5" y="276.55"
        font-family="monospace" font-size="13" fill="#222">-</text>
        </g>
                <g>
                   <rect x="137" y="318.5"
            width="310.8" height="30"
            rx="3" ry="3"
            style="fill:#90caf9; stroke:#444; stroke-width:1" />
                   <title>l1.next = mergeTwoLists(l1.next, l2)</title>
            <text x="152" y="338.5"
                font-family="monospace" font-size="13" fill="#222">
                <tspan x="152" y="338.5">l1.next = mergeTwoLists(l1.next, l2)</tspan>
            </text>
                   
                   
                </g>
            <g>
                <rect x="137" y="367"
            width="100.2" height="30"
            rx="3" ry="3"
            style="fill:#90caf9; stroke:#444; stroke-width:1" />
                
                <line x1="237.2" y1="377" x2="242.2" y2="377"
                style="fill:#a5d6a7; stroke:#444; stroke-width:1" />
                
                <line x1="237.2" y1="387" x2="242.2" y2="387"
                style="fill:#a5d6a7; stroke:#444; stroke-width:1" />

                <path d="M242.2, 371 L258.2, 382 L242.2, 393 Z" 
        fill="#a5d6a7" stroke="#444" stroke-width="1" />
                             
                <title>return l1</title>
            <text x="152" y="387"
                font-family="monospace" font-size="13" fill="#222">
                <tspan x="152" y="387">return l1</tspan>
            </text>
                
            </g>
                <g>
                   <rect x="507.8" y="318.5"
            width="310.8" height="30"
            rx="3" ry="3"
            style="fill:#90caf9; stroke:#444; stroke-width:1" />
                   <title>l2.next = mergeTwoLists(l1, l2.next)</title>
            <text x="522.8" y="338.5"
                font-family="monospace" font-size="13" fill="#222">
                <tspan x="522.8" y="338.5">l2.next = mergeTwoLists(l1, l2.next)</tspan>
            </text>
                   
                   
                </g>
            <g>
                <rect x="507.8" y="367"
            width="100.2" height="30"
            rx="3" ry="3"
            style="fill:#90caf9; stroke:#444; stroke-width:1" />
                
                <line x1="608" y1="377" x2="613" y2="377"
                style="fill:#a5d6a7; stroke:#444; stroke-width:1" />
                
                <line x1="608" y1="387" x2="613" y2="387"
                style="fill:#a5d6a7; stroke:#444; stroke-width:1" />

                <path d="M613, 371 L629, 382 L613, 393 Z" 
        fill="#a5d6a7" stroke="#444" stroke-width="1" />
                             
                <title>return l2</title>
            <text x="522.8" y="387"
                font-family="monospace" font-size="13" fill="#222">
                <tspan x="522.8" y="387">return l2</tspan>
            </text>
                
            </g>
            <g>
                <rect x="50" y="432"
            width="284" height="30"
            style="fill:#a5d6a7; stroke:#444; stroke-width:1" />
                    
                <line x1="60" y1="432" x2="60" y2="462"
                style="fill:#a5d6a7; stroke:#444; stroke-width:1" />
                <line x1="324" y1="432" x2="324" y2="462"
                style="fill:#a5d6a7; stroke:#444; stroke-width:1" />
             
                <title>function mergeTwoLists(l1, l2)</title>
            <text x="75" y="452"
                font-family="monospace" font-size="13" fill="#222">
                <tspan x="75" y="452">function mergeTwoLists(l1, l2)</tspan>
            </text>
                
            </g><g>
            <rect x="117" y="495.5"
            width="153.6" height="30"
            rx="3" ry="3"
            style="fill:#ce93d8; stroke:#444; stroke-width:1" />                
            <polygon points="87,510.5 117,480.5 147,510.5 117,540.5"
            style="fill:#ce93d8; stroke:#444; stroke-width:1" />
            <title>(!l1 || !l2)</title>
            <text x="162" y="515.5"
                font-family="monospace" font-size="13" fill="#222">
                <tspan x="162" y="515.5">(!l1 || !l2)</tspan>
            </text>
            
            <text x="109.2" y="515.5"
        font-family="monospace" font-size="13" fill="#222">if</text> <text x="124.8" y="542.45"
        font-family="monospace" font-size="13" fill="#222">+</text> 
        </g>
            <g>
                <rect x="137" y="550.5"
            width="147" height="30"
            rx="3" ry="3"
            style="fill:#90caf9; stroke:#444; stroke-width:1" />
                
                <line x1="284" y1="560.5" x2="289" y2="560.5"
                style="fill:#a5d6a7; stroke:#444; stroke-width:1" />
                
                <line x1="284" y1="570.5" x2="289" y2="570.5"
                style="fill:#a5d6a7; stroke:#444; stroke-width:1" />

                <path d="M289, 554.5 L305, 565.5 L289, 576.5 Z" 
        fill="#a5d6a7" stroke="#444" stroke-width="1" />
                             
                <title>return l1 || l2</title>
            <text x="152" y="570.5"
                font-family="monospace" font-size="13" fill="#222">
                <tspan x="152" y="570.5">return l1 || l2</tspan>
            </text>
                
            </g><g>
            <rect x="117" y="615.5"
            width="192.6" height="30"
            rx="3" ry="3"
            style="fill:#ce93d8; stroke:#444; stroke-width:1" />                
            <polygon points="87,630.5 117,600.5 147,630.5 117,660.5"
            style="fill:#ce93d8; stroke:#444; stroke-width:1" />
            <title>(l1.val &lt; l2.val)</title>
            <text x="162" y="635.5"
                font-family="monospace" font-size="13" fill="#222">
                <tspan x="162" y="635.5">(l1.val &lt; l2.val)</tspan>
            </text>
            
            <text x="109.2" y="635.5"
        font-family="monospace" font-size="13" fill="#222">if</text> <text x="124.8" y="662.45"
        font-family="monospace" font-size="13" fill="#222">+</text> <text x="313.5" y="628.55"
        font-family="monospace" font-size="13" fill="#222">-</text>
        </g>
                <g>
                   <rect x="137" y="670.5"
            width="310.8" height="30"
            rx="3" ry="3"
            style="fill:#90caf9; stroke:#444; stroke-width:1" />
                   <title>l1.next = mergeTwoLists(l1.next, l2)</title>
            <text x="152" y="690.5"
                font-family="monospace" font-size="13" fill="#222">
                <tspan x="152" y="690.5">l1.next = mergeTwoLists(l1.next, l2)</tspan>
            </text>
                   
                   
                </g>
            <g>
                <rect x="137" y="719"
            width="100.2" height="30"
            rx="3" ry="3"
            style="fill:#90caf9; stroke:#444; stroke-width:1" />
                
                <line x1="237.2" y1="729" x2="242.2" y2="729"
                style="fill:#a5d6a7; stroke:#444; stroke-width:1" />
                
                <line x1="237.2" y1="739" x2="242.2" y2="739"
                style="fill:#a5d6a7; stroke:#444; stroke-width:1" />

                <path d="M242.2, 723 L258.2, 734 L242.2, 745 Z" 
        fill="#a5d6a7" stroke="#444" stroke-width="1" />
                             
                <title>return l1</title>
            <text x="152" y="739"
                font-family="monospace" font-size="13" fill="#222">
                <tspan x="152" y="739">return l1</tspan>
            </text>
                
            </g>
                <g>
                   <rect x="507.8" y="670.5"
            width="310.8" height="30"
            rx="3" ry="3"
            style="fill:#90caf9; stroke:#444; stroke-width:1" />
                   <title>l2.next = mergeTwoLists(l1, l2.next)</title>
            <text x="522.8" y="690.5"
                font-family="monospace" font-size="13" fill="#222">
                <tspan x="522.8" y="690.5">l2.next = mergeTwoLists(l1, l2.next)</tspan>
            </text>
                   
                   
                </g>
            <g>
                <rect x="507.8" y="719"
            width="100.2" height="30"
            rx="3" ry="3"
            style="fill:#90caf9; stroke:#444; stroke-width:1" />
                
                <line x1="608" y1="729" x2="613" y2="729"
                style="fill:#a5d6a7; stroke:#444; stroke-width:1" />
                
                <line x1="608" y1="739" x2="613" y2="739"
                style="fill:#a5d6a7; stroke:#444; stroke-width:1" />

                <path d="M613, 723 L629, 734 L613, 745 Z" 
        fill="#a5d6a7" stroke="#444" stroke-width="1" />
                             
                <title>return l2</title>
            <text x="522.8" y="739"
                font-family="monospace" font-size="13" fill="#222">
                <tspan x="522.8" y="739">return l2</tspan>
            </text>
                
            </g>
            <g>
               <rect x="25" y="13.75"
            width="216.6" height="24"
            style="fill:#fff59d; stroke:#444; stroke-width:1" />
               <circle cx="25" cy="25" r="15"
        style="fill:#fff59d; stroke:#444; stroke-width:1" />
               <title>Program: source module</title>
            <text x="55" y="30"
                font-family="monospace" font-size="13" fill="#222">
                <tspan x="55" y="30">Program: source module</tspan>
            </text>
            </g>
            <g>
               <path d="M25, 40 L25 91 Q25 95
                29 95
                L42 95 "
        style="fill:none; stroke:#444; stroke-width:1" />
               <path d="M42, 92 L50, 95 L42, 98 Z" 
        fill="#333" />
            </g>
            <g>
               <path d="M68.5, 110 L68.5 154.5 Q68.5 158.5
                72.5 158.5
                L79 158.5 "
        style="fill:none; stroke:#444; stroke-width:1" />
               <path d="M79, 155.5 L87, 158.5 L79, 161.5 Z" 
        fill="#333" />
            </g>
            <g>
               <path d="M117, 188.5 L117 209.5 Q117 213.5
                121 213.5
                L129 213.5 "
        style="fill:none; stroke:#444; stroke-width:1" />
               <path d="M129, 210.5 L137, 213.5 L129, 216.5 Z" 
        fill="#333" />
            </g>
            <g>
               <path d="M68.5, 110 L68.5 274.5 Q68.5 278.5
                72.5 278.5
                L79 278.5 "
        style="fill:none; stroke:#444; stroke-width:1" />
               <path d="M79, 275.5 L87, 278.5 L79, 281.5 Z" 
        fill="#333" />
            </g>
            <g>
               <path d="M117, 308.5 L117 329.5 Q117 333.5
                121 333.5
                L129 333.5 "
        style="fill:none; stroke:#444; stroke-width:1" />
               <path d="M129, 330.5 L137, 333.5 L129, 336.5 Z" 
        fill="#333" />
            </g>
            <g>
               <path d="M117, 308.5 L117 378 Q117 382
                121 382
                L129 382 "
        style="fill:none; stroke:#444; stroke-width:1" />
               <path d="M129, 379 L137, 382 L129, 385 Z" 
        fill="#333" />
            </g>
            <g>
               <path d="M309.6, 278.5 L483.8 278.5  Q487.8 278.5
                487.8 282.5
                L487.8 325.5 Q487.8 333.5
                491.8 333.5
                L499.8 333.5 "
        style="fill:none; stroke:#444; stroke-width:1" />
               <path d="M499.8, 330.5 L507.8, 333.5 L499.8, 336.5 Z" 
        fill="#333" />
            </g>
            <g>
               <path d="M309.6, 278.5 L483.8 278.5  Q487.8 278.5
                487.8 282.5
                L487.8 374 Q487.8 382
                491.8 382
                L499.8 382 "
        style="fill:none; stroke:#444; stroke-width:1" />
               <path d="M499.8, 379 L507.8, 382 L499.8, 385 Z" 
        fill="#333" />
            </g>
            <g>
               <path d="M25, 40 L25 443 Q25 447
                29 447
                L42 447 "
        style="fill:none; stroke:#444; stroke-width:1" />
               <path d="M42, 444 L50, 447 L42, 450 Z" 
        fill="#333" />
            </g>
            <g>
               <path d="M68.5, 462 L68.5 506.5 Q68.5 510.5
                72.5 510.5
                L79 510.5 "
        style="fill:none; stroke:#444; stroke-width:1" />
               <path d="M79, 507.5 L87, 510.5 L79, 513.5 Z" 
        fill="#333" />
            </g>
            <g>
               <path d="M117, 540.5 L117 561.5 Q117 565.5
                121 565.5
                L129 565.5 "
        style="fill:none; stroke:#444; stroke-width:1" />
               <path d="M129, 562.5 L137, 565.5 L129, 568.5 Z" 
        fill="#333" />
            </g>
            <g>
               <path d="M68.5, 462 L68.5 626.5 Q68.5 630.5
                72.5 630.5
                L79 630.5 "
        style="fill:none; stroke:#444; stroke-width:1" />
               <path d="M79, 627.5 L87, 630.5 L79, 633.5 Z" 
        fill="#333" />
            </g>
            <g>
               <path d="M117, 660.5 L117 681.5 Q117 685.5
                121 685.5
                L129 685.5 "
        style="fill:none; stroke:#444; stroke-width:1" />
               <path d="M129, 682.5 L137, 685.5 L129, 688.5 Z" 
        fill="#333" />
            </g>
            <g>
               <path d="M117, 660.5 L117 730 Q117 734
                121 734
                L129 734 "
        style="fill:none; stroke:#444; stroke-width:1" />
               <path d="M129, 731 L137, 734 L129, 737 Z" 
        fill="#333" />
            </g>
            <g>
               <path d="M309.6, 630.5 L483.8 630.5  Q487.8 630.5
                487.8 634.5
                L487.8 677.5 Q487.8 685.5
                491.8 685.5
                L499.8 685.5 "
        style="fill:none; stroke:#444; stroke-width:1" />
               <path d="M499.8, 682.5 L507.8, 685.5 L499.8, 688.5 Z" 
        fill="#333" />
            </g>
            <g>
               <path d="M309.6, 630.5 L483.8 630.5  Q487.8 630.5
                487.8 634.5
                L487.8 726 Q487.8 734
                491.8 734
                L499.8 734 "
        style="fill:none; stroke:#444; stroke-width:1" />
               <path d="M499.8, 731 L507.8, 734 L499.8, 737 Z" 
        fill="#333" />
            </g>
            </svg>