<!DOCTYPE svg PUBLIC "-//W3C//DTD SVG 1.1//EN" "http://www.w3.org/Graphics/SVG/1.1/DTD/svg11.dtd">
                <svg xmlns="http://www.w3.org/2000/svg" xmlns:xlink="http://www.w3.org/1999/xlink" 
                width="519" height="961">
                
            <g>
                <rect x="50" y="80"
            width="291.79999999999995" height="30"
            style="fill:#a5d6a7; stroke:#444; stroke-width:1" />
                    
                <line x1="60" y1="80" x2="60" y2="110"
                style="fill:#a5d6a7; stroke:#444; stroke-width:1" />
                <line x1="331.79999999999995" y1="80" x2="331.79999999999995" y2="110"
                style="fill:#a5d6a7; stroke:#444; stroke-width:1" />
             
                <title>mergeArrays_ = function(arrays)</title>
            <text x="75" y="100"
                font-family="monospace" font-size="13" fill="#222">
                <tspan x="75" y="100">mergeArrays_ = function(arrays)</tspan>
            </text>
                
            </g>
                <g>
                   <rect x="87" y="128.5"
            width="225" height="30"
            rx="3" ry="3"
            style="fill:#90caf9; stroke:#444; stroke-width:1" />
                   <title>let count = arrays.length</title>
            <text x="102" y="148.5"
                font-family="monospace" font-size="13" fill="#222">
                <tspan x="102" y="148.5">let count = arrays.length</tspan>
            </text>
                   
                   
                </g>
                <g>
                   <rect x="87" y="177"
            width="162.6" height="30"
            rx="3" ry="3"
            style="fill:#90caf9; stroke:#444; stroke-width:1" />
                   <title>let newArray = []</title>
            <text x="102" y="197"
                font-family="monospace" font-size="13" fill="#222">
                <tspan x="102" y="197">let newArray = []</tspan>
            </text>
                   
                   
                </g>
                <g>
                   <rect x="87" y="225.5"
            width="100.2" height="30"
            rx="3" ry="3"
            style="fill:#90caf9; stroke:#444; stroke-width:1" />
                   <title>let k = 0</title>
            <text x="102" y="245.5"
                font-family="monospace" font-size="13" fill="#222">
                <tspan x="102" y="245.5">let k = 0</tspan>
            </text>
                   
                   
                </g><g>

            <rect x="117" y="309"
            width="130.2" height="30"
            rx="3" ry="3"
            style="fill:#b39ddb; stroke:#444; stroke-width:1" />
            <polygon points="87,324 117,294 147,324 117,354"
            style="fill:#b39ddb; stroke:#444; stroke-width:1" />
                
            <title>i &lt; count</title>
            <text x="162" y="329"
                font-family="monospace" font-size="13" fill="#222">
                <tspan x="162" y="329">i &lt; count</tspan>
            </text>
            
            <text x="105.3" y="329"
        font-family="monospace" font-size="13" fill="#222">for</text>
        </g>
                <g>
                   <rect x="137" y="364"
            width="53.4" height="30"
            rx="3" ry="3"
            style="fill:#90caf9; stroke:#444; stroke-width:1" />
                   <title>i++</title>
            <text x="152" y="384"
                font-family="monospace" font-size="13" fill="#222">
                <tspan x="152" y="384">i++</tspan>
            </text>
                   
                   
                </g><g>

            <rect x="167" y="447.5"
            width="216" height="30"
            rx="3" ry="3"
            style="fill:#b39ddb; stroke:#444; stroke-width:1" />
            <polygon points="137,462.5 167,432.5 197,462.5 167,492.5"
            style="fill:#b39ddb; stroke:#444; stroke-width:1" />
                
            <title>j &lt; arrays[i].length</title>
            <text x="212" y="467.5"
                font-family="monospace" font-size="13" fill="#222">
                <tspan x="212" y="467.5">j &lt; arrays[i].length</tspan>
            </text>
            
            <text x="155.3" y="467.5"
        font-family="monospace" font-size="13" fill="#222">for</text>
        </g>
                <g>
                   <rect x="187" y="502.5"
            width="53.4" height="30"
            rx="3" ry="3"
            style="fill:#90caf9; stroke:#444; stroke-width:1" />
                   <title>j++</title>
            <text x="202" y="522.5"
                font-family="monospace" font-size="13" fill="#222">
                <tspan x="202" y="522.5">j++</tspan>
            </text>
                   
                   
                </g>
                <g>
                   <rect x="187" y="551"
            width="248.4" height="30"
            rx="3" ry="3"
            style="fill:#90caf9; stroke:#444; stroke-width:1" />
                   <title>newArray[k++] = arrays[i][j]</title>
            <text x="202" y="571"
                font-family="monospace" font-size="13" fill="#222">
                <tspan x="202" y="571">newArray[k++] = arrays[i][j]</tspan>
            </text>
                   
                   
                </g>
                <g>
                   <rect x="224" y="599.5"
            width="53.4" height="30"
            rx="3" ry="3"
            style="fill:#90caf9; stroke:#444; stroke-width:1" />
                   <title>k++</title>
            <text x="239" y="619.5"
                font-family="monospace" font-size="13" fill="#222">
                <tspan x="239" y="619.5">k++</tspan>
            </text>
                   
                   
                </g>
            <g>
                <rect x="87" y="648"
            width="147" height="30"
            rx="3" ry="3"
            style="fill:#90caf9; stroke:#444; stroke-width:1" />
                
                <line x1="234" y1="658" x2="239" y2="658"
                style="fill:#a5d6a7; stroke:#444; stroke-width:1" />
                
                <line x1="234" y1="668" x2="239" y2="668"
                style="fill:#a5d6a7; stroke:#444; stroke-width:1" />

                <path d="M239, 652 L255, 663 L239, 674 Z" 
        fill="#a5d6a7" stroke="#444" stroke-width="1" />
                             
                <title>return newArray</title>
            <text x="102" y="668"
                font-family="monospace" font-size="13" fill="#222">
                <tspan x="102" y="668">return newArray</tspan>
            </text>
                
            </g>
                <g>
                   <rect x="50" y="696.5"
            width="443.4" height="30"
            rx="2" ry="2"
            style="fill:#C5E1A5; stroke:#444; stroke-width:1" />
                   <title>console.log(mergeArrays_([[1, 2, 3], [4, 5], [6]]))</title>
            <text x="65" y="716.5"
                font-family="monospace" font-size="13" fill="#222">
                <tspan x="65" y="716.5">console.log(mergeArrays_([[1, 2, 3], [4, 5], [6]])...</tspan>
            </text>
                   
                   
                </g>
            <g>
                <rect x="50" y="760"
            width="268.4" height="30"
            style="fill:#a5d6a7; stroke:#444; stroke-width:1" />
                    
                <line x1="60" y1="760" x2="60" y2="790"
                style="fill:#a5d6a7; stroke:#444; stroke-width:1" />
                <line x1="308.4" y1="760" x2="308.4" y2="790"
                style="fill:#a5d6a7; stroke:#444; stroke-width:1" />
             
                <title>mergeArrays = (...arrays) =&gt;</title>
            <text x="75" y="780"
                font-family="monospace" font-size="13" fill="#222">
                <tspan x="75" y="780">mergeArrays = (...arrays) =&gt;</tspan>
            </text>
                
            </g>
                <g>
                   <rect x="87" y="808.5"
            width="76.8" height="30"
            rx="3" ry="3"
            style="fill:#90caf9; stroke:#444; stroke-width:1" />
                   <title>arrays</title>
            <text x="102" y="828.5"
                font-family="monospace" font-size="13" fill="#222">
                <tspan x="102" y="828.5">arrays</tspan>
            </text>
                   
                   
                </g>
            <g>
                <rect x="87" y="857"
            width="240.60000000000002" height="30"
            rx="3" ry="3"
            style="fill:#90caf9; stroke:#444; stroke-width:1" />
                
                <line x1="327.6" y1="867" x2="332.6" y2="867"
                style="fill:#a5d6a7; stroke:#444; stroke-width:1" />
                
                <line x1="327.6" y1="877" x2="332.6" y2="877"
                style="fill:#a5d6a7; stroke:#444; stroke-width:1" />

                <path d="M332.6, 861 L348.6, 872 L332.6, 883 Z" 
        fill="#a5d6a7" stroke="#444" stroke-width="1" />
                             
                <title>return [].concat(...arrays)</title>
            <text x="102" y="877"
                font-family="monospace" font-size="13" fill="#222">
                <tspan x="102" y="877">return [].concat(...arrays)</tspan>
            </text>
                
            </g>
                <g>
                   <rect x="50" y="905.5"
            width="404.4" height="30"
            rx="2" ry="2"
            style="fill:#C5E1A5; stroke:#444; stroke-width:1" />
                   <title>console.log(mergeArrays([1, 2, 3], [4, 5], [6]))</title>
            <text x="65" y="925.5"
                font-family="monospace" font-size="13" fill="#222">
                <tspan x="65" y="925.5">console.log(mergeArrays([1, 2, 3], [4, 5], [6]))</tspan>
            </text>
                   
                   
                </g>
            <g>
               <rect x="25" y="13.75"
            width="216.6" height="24"
            style="fill:#fff59d; stroke:#444; stroke-width:1" />
               <circle cx="25" cy="25" r="15"
        style="fill:#fff59d; stroke:#444; stroke-width:1" />
               <title>Program: source module</title>
            <text x="55" y="30"
                font-family="monospace" font-size="13" fill="#222">
                <tspan x="55" y="30">Program: source module</tspan>
            </text>
            </g>
            <g>
               <path d="M25, 40 L25 91 Q25 95
                29 95
                L42 95 "
        style="fill:none; stroke:#444; stroke-width:1" />
               <path d="M42, 92 L50, 95 L42, 98 Z" 
        fill="#333" />
            </g>
            <g>
               <path d="M68.5, 110 L68.5 139.5 Q68.5 143.5
                72.5 143.5
                L79 143.5 "
        style="fill:none; stroke:#444; stroke-width:1" />
               <path d="M79, 140.5 L87, 143.5 L79, 146.5 Z" 
        fill="#333" />
            </g>
            <g>
               <path d="M68.5, 110 L68.5 188 Q68.5 192
                72.5 192
                L79 192 "
        style="fill:none; stroke:#444; stroke-width:1" />
               <path d="M79, 189 L87, 192 L79, 195 Z" 
        fill="#333" />
            </g>
            <g>
               <path d="M68.5, 110 L68.5 236.5 Q68.5 240.5
                72.5 240.5
                L79 240.5 "
        style="fill:none; stroke:#444; stroke-width:1" />
               <path d="M79, 237.5 L87, 240.5 L79, 243.5 Z" 
        fill="#333" />
            </g>
            <g>
               <path d="M68.5, 110 L68.5 320 Q68.5 324
                72.5 324
                L79 324 "
        style="fill:none; stroke:#444; stroke-width:1" />
               <path d="M79, 321 L87, 324 L79, 327 Z" 
        fill="#333" />
            </g>
            <g>
               <path d="M117, 354 L117 375 Q117 379
                121 379
                L129 379 "
        style="fill:none; stroke:#444; stroke-width:1" />
               <path d="M129, 376 L137, 379 L129, 382 Z" 
        fill="#333" />
            </g>
            <g>
               <path d="M117, 354 L117 458.5 Q117 462.5
                121 462.5
                L129 462.5 "
        style="fill:none; stroke:#444; stroke-width:1" />
               <path d="M129, 459.5 L137, 462.5 L129, 465.5 Z" 
        fill="#333" />
            </g>
            <g>
               <path d="M167, 492.5 L167 513.5 Q167 517.5
                171 517.5
                L179 517.5 "
        style="fill:none; stroke:#444; stroke-width:1" />
               <path d="M179, 514.5 L187, 517.5 L179, 520.5 Z" 
        fill="#333" />
            </g>
            <g>
               <path d="M167, 492.5 L167 562 Q167 566
                171 566
                L179 566 "
        style="fill:none; stroke:#444; stroke-width:1" />
               <path d="M179, 563 L187, 566 L179, 569 Z" 
        fill="#333" />
            </g>
            <g>
               <path d="M205.5, 581 L205.5 610.5 Q205.5 614.5
                209.5 614.5
                L216 614.5 "
        style="fill:none; stroke:#444; stroke-width:1" />
               <path d="M216, 611.5 L224, 614.5 L216, 617.5 Z" 
        fill="#333" />
            </g>
            <g>
               <path d="M277.4, 614.5 L451.4 614.5  Q455.4 614.5
                455.4 610.5
                L455.4 420.5 Q455.4 412.5
                451.4 412.5
                L175 412.5  Q167 412.5
                167 416.5
                L167 424.5"
        style="fill:none; stroke:#444; stroke-width:1" />
               <path d="M164, 424.5 L167, 432.5 L170, 424.5 Z" 
        fill="#333" />
            </g>
            <g>
               <path d="M277.4, 614.5 L451.4 614.5  Q455.4 614.5
                455.4 610.5
                L455.4 282 Q455.4 274
                451.4 274
                L125 274  Q117 274
                117 278
                L117 286"
        style="fill:none; stroke:#444; stroke-width:1" />
               <path d="M114, 286 L117, 294 L120, 286 Z" 
        fill="#333" />
            </g>
            <g>
               <path d="M68.5, 110 L68.5 659 Q68.5 663
                72.5 663
                L79 663 "
        style="fill:none; stroke:#444; stroke-width:1" />
               <path d="M79, 660 L87, 663 L79, 666 Z" 
        fill="#333" />
            </g>
            <g>
               <path d="M25, 40 L25 707.5 Q25 711.5
                29 711.5
                L42 711.5 "
        style="fill:none; stroke:#444; stroke-width:1" />
               <path d="M42, 708.5 L50, 711.5 L42, 714.5 Z" 
        fill="#333" />
            </g>
            <g>
               <path d="M25, 40 L25 771 Q25 775
                29 775
                L42 775 "
        style="fill:none; stroke:#444; stroke-width:1" />
               <path d="M42, 772 L50, 775 L42, 778 Z" 
        fill="#333" />
            </g>
            <g>
               <path d="M68.5, 790 L68.5 819.5 Q68.5 823.5
                72.5 823.5
                L79 823.5 "
        style="fill:none; stroke:#444; stroke-width:1" />
               <path d="M79, 820.5 L87, 823.5 L79, 826.5 Z" 
        fill="#333" />
            </g>
            <g>
               <path d="M68.5, 790 L68.5 868 Q68.5 872
                72.5 872
                L79 872 "
        style="fill:none; stroke:#444; stroke-width:1" />
               <path d="M79, 869 L87, 872 L79, 875 Z" 
        fill="#333" />
            </g>
            <g>
               <path d="M25, 40 L25 916.5 Q25 920.5
                29 920.5
                L42 920.5 "
        style="fill:none; stroke:#444; stroke-width:1" />
               <path d="M42, 917.5 L50, 920.5 L42, 923.5 Z" 
        fill="#333" />
            </g>
            </svg>