<!DOCTYPE svg PUBLIC "-//W3C//DTD SVG 1.1//EN" "http://www.w3.org/Graphics/SVG/1.1/DTD/svg11.dtd">
                <svg xmlns="http://www.w3.org/2000/svg" xmlns:xlink="http://www.w3.org/1999/xlink" 
                width="693" height="708">
                
            <g>
                <rect x="50" y="80"
            width="315.2" height="30"
            style="fill:#a5d6a7; stroke:#444; stroke-width:1" />
                    
                <line x1="60" y1="80" x2="60" y2="110"
                style="fill:#a5d6a7; stroke:#444; stroke-width:1" />
                <line x1="355.2" y1="80" x2="355.2" y2="110"
                style="fill:#a5d6a7; stroke:#444; stroke-width:1" />
             
                <title>minSubArrayLen = function(s, nums)</title>
            <text x="75" y="100"
                font-family="monospace" font-size="13" fill="#222">
                <tspan x="75" y="100">minSubArrayLen = function(s, nums)</tspan>
            </text>
                
            </g>
                <g>
                   <rect x="87" y="128.5"
            width="170.4" height="30"
            rx="3" ry="3"
            style="fill:#90caf9; stroke:#444; stroke-width:1" />
                   <title>let ret = Infinity</title>
            <text x="102" y="148.5"
                font-family="monospace" font-size="13" fill="#222">
                <tspan x="102" y="148.5">let ret = Infinity</tspan>
            </text>
                   
                   
                </g><g>

            <rect x="117" y="212"
            width="184.8" height="30"
            rx="3" ry="3"
            style="fill:#b39ddb; stroke:#444; stroke-width:1" />
            <polygon points="87,227 117,197 147,227 117,257"
            style="fill:#b39ddb; stroke:#444; stroke-width:1" />
                
            <title>j &lt;= nums.length</title>
            <text x="162" y="232"
                font-family="monospace" font-size="13" fill="#222">
                <tspan x="162" y="232">j &lt;= nums.length</tspan>
            </text>
            
            <text x="105.3" y="232"
        font-family="monospace" font-size="13" fill="#222">for</text>
        </g><g>
            <rect x="167" y="282"
            width="208.2" height="30"
            rx="3" ry="3"
            style="fill:#ce93d8; stroke:#444; stroke-width:1" />                
            <polygon points="137,297 167,267 197,297 167,327"
            style="fill:#ce93d8; stroke:#444; stroke-width:1" />
            <title>(sum &lt; s || i &gt;= j)</title>
            <text x="212" y="302"
                font-family="monospace" font-size="13" fill="#222">
                <tspan x="212" y="302">(sum &lt; s || i &gt;= j)</tspan>
            </text>
            
            <text x="159.2" y="302"
        font-family="monospace" font-size="13" fill="#222">if</text> <text x="174.8" y="328.95"
        font-family="monospace" font-size="13" fill="#222">+</text> <text x="379.09999999999997" y="295.05"
        font-family="monospace" font-size="13" fill="#222">-</text>
        </g>
                <g>
                   <rect x="187" y="337"
            width="154.8" height="30"
            rx="3" ry="3"
            style="fill:#90caf9; stroke:#444; stroke-width:1" />
                   <title>sum += nums[j++]</title>
            <text x="202" y="357"
                font-family="monospace" font-size="13" fill="#222">
                <tspan x="202" y="357">sum += nums[j++]</tspan>
            </text>
                   
                   
                </g>
                <g>
                   <rect x="224" y="385.5"
            width="53.4" height="30"
            rx="3" ry="3"
            style="fill:#90caf9; stroke:#444; stroke-width:1" />
                   <title>j++</title>
            <text x="239" y="405.5"
                font-family="monospace" font-size="13" fill="#222">
                <tspan x="239" y="405.5">j++</tspan>
            </text>
                   
                   
                </g>
                <g>
                   <rect x="435.2" y="337"
            width="232.79999999999998" height="30"
            rx="3" ry="3"
            style="fill:#90caf9; stroke:#444; stroke-width:1" />
                   <title>ret = Math.min(ret, j - i)</title>
            <text x="450.2" y="357"
                font-family="monospace" font-size="13" fill="#222">
                <tspan x="450.2" y="357">ret = Math.min(ret, j - i)</tspan>
            </text>
                   
                   
                </g>
                <g>
                   <rect x="435.2" y="385.5"
            width="154.8" height="30"
            rx="3" ry="3"
            style="fill:#90caf9; stroke:#444; stroke-width:1" />
                   <title>sum -= nums[i++]</title>
            <text x="450.2" y="405.5"
                font-family="monospace" font-size="13" fill="#222">
                <tspan x="450.2" y="405.5">sum -= nums[i++]</tspan>
            </text>
                   
                   
                </g>
                <g>
                   <rect x="472.2" y="434"
            width="53.4" height="30"
            rx="3" ry="3"
            style="fill:#90caf9; stroke:#444; stroke-width:1" />
                   <title>i++</title>
            <text x="487.2" y="454"
                font-family="monospace" font-size="13" fill="#222">
                <tspan x="487.2" y="454">i++</tspan>
            </text>
                   
                   
                </g>
            <g>
                <rect x="87" y="484"
            width="76.8" height="30"
            rx="3" ry="3"
            style="fill:#90caf9; stroke:#444; stroke-width:1" />
                
                <line x1="163.8" y1="494" x2="168.8" y2="494"
                style="fill:#a5d6a7; stroke:#444; stroke-width:1" />
                
                <line x1="163.8" y1="504" x2="168.8" y2="504"
                style="fill:#a5d6a7; stroke:#444; stroke-width:1" />

                <path d="M168.8, 488 L184.8, 499 L168.8, 510 Z" 
        fill="#a5d6a7" stroke="#444" stroke-width="1" />
                             
                <title>return</title>
            <text x="102" y="504"
                font-family="monospace" font-size="13" fill="#222">
                <tspan x="102" y="504">return</tspan>
            </text>
                
            </g><g>
            <rect x="154" y="547.5"
            width="200.4" height="30"
            rx="3" ry="3"
            style="fill:#ce93d8; stroke:#444; stroke-width:1" />                
            <polygon points="124,562.5 154,532.5 184,562.5 154,592.5"
            style="fill:#ce93d8; stroke:#444; stroke-width:1" />
            <title>(ret === Infinity)</title>
            <text x="199" y="567.5"
                font-family="monospace" font-size="13" fill="#222">
                <tspan x="199" y="567.5">(ret === Infinity)</tspan>
            </text>
            
            <text x="150.1" y="567.5"
        font-family="monospace" font-size="13" fill="#222">?</text> <text x="161.8" y="594.45"
        font-family="monospace" font-size="13" fill="#222">+</text> <text x="358.29999999999995" y="560.55"
        font-family="monospace" font-size="13" fill="#222">-</text>
        </g>
                <g>
                   <rect x="174" y="602.5"
            width="37.8" height="30"
            rx="3" ry="3"
            style="fill:#90caf9; stroke:#444; stroke-width:1" />
                   <title>0</title>
            <text x="189" y="622.5"
                font-family="monospace" font-size="13" fill="#222">
                <tspan x="189" y="622.5">0</tspan>
            </text>
                   
                   
                </g>
                <g>
                   <rect x="414.4" y="602.5"
            width="53.4" height="30"
            rx="3" ry="3"
            style="fill:#90caf9; stroke:#444; stroke-width:1" />
                   <title>ret</title>
            <text x="429.4" y="622.5"
                font-family="monospace" font-size="13" fill="#222">
                <tspan x="429.4" y="622.5">ret</tspan>
            </text>
                   
                   
                </g>
                <g>
                   <rect x="50" y="652.5"
            width="318.59999999999997" height="30"
            rx="2" ry="2"
            style="fill:#C5E1A5; stroke:#444; stroke-width:1" />
                   <title>minSubArrayLen(7, [2, 3, 1, 2, 4, 3])</title>
            <text x="65" y="672.5"
                font-family="monospace" font-size="13" fill="#222">
                <tspan x="65" y="672.5">minSubArrayLen(7, [2, 3, 1, 2, 4, 3])</tspan>
            </text>
                   
                   
                </g>
            <g>
               <rect x="25" y="13.75"
            width="216.6" height="24"
            style="fill:#fff59d; stroke:#444; stroke-width:1" />
               <circle cx="25" cy="25" r="15"
        style="fill:#fff59d; stroke:#444; stroke-width:1" />
               <title>Program: source module</title>
            <text x="55" y="30"
                font-family="monospace" font-size="13" fill="#222">
                <tspan x="55" y="30">Program: source module</tspan>
            </text>
            </g>
            <g>
               <path d="M25, 40 L25 91 Q25 95
                29 95
                L42 95 "
        style="fill:none; stroke:#444; stroke-width:1" />
               <path d="M42, 92 L50, 95 L42, 98 Z" 
        fill="#333" />
            </g>
            <g>
               <path d="M68.5, 110 L68.5 139.5 Q68.5 143.5
                72.5 143.5
                L79 143.5 "
        style="fill:none; stroke:#444; stroke-width:1" />
               <path d="M79, 140.5 L87, 143.5 L79, 146.5 Z" 
        fill="#333" />
            </g>
            <g>
               <path d="M68.5, 110 L68.5 223 Q68.5 227
                72.5 227
                L79 227 "
        style="fill:none; stroke:#444; stroke-width:1" />
               <path d="M79, 224 L87, 227 L79, 230 Z" 
        fill="#333" />
            </g>
            <g>
               <path d="M117, 257 L117 293 Q117 297
                121 297
                L129 297 "
        style="fill:none; stroke:#444; stroke-width:1" />
               <path d="M129, 294 L137, 297 L129, 300 Z" 
        fill="#333" />
            </g>
            <g>
               <path d="M167, 327 L167 348 Q167 352
                171 352
                L179 352 "
        style="fill:none; stroke:#444; stroke-width:1" />
               <path d="M179, 349 L187, 352 L179, 355 Z" 
        fill="#333" />
            </g>
            <g>
               <path d="M205.5, 367 L205.5 396.5 Q205.5 400.5
                209.5 400.5
                L216 400.5 "
        style="fill:none; stroke:#444; stroke-width:1" />
               <path d="M216, 397.5 L224, 400.5 L216, 403.5 Z" 
        fill="#333" />
            </g>
            <g>
               <path d="M375.2, 297 L411.2 297  Q415.2 297
                415.2 301
                L415.2 344 Q415.2 352
                419.2 352
                L427.2 352 "
        style="fill:none; stroke:#444; stroke-width:1" />
               <path d="M427.2, 349 L435.2, 352 L427.2, 355 Z" 
        fill="#333" />
            </g>
            <g>
               <path d="M375.2, 297 L411.2 297  Q415.2 297
                415.2 301
                L415.2 392.5 Q415.2 400.5
                419.2 400.5
                L427.2 400.5 "
        style="fill:none; stroke:#444; stroke-width:1" />
               <path d="M427.2, 397.5 L435.2, 400.5 L427.2, 403.5 Z" 
        fill="#333" />
            </g>
            <g>
               <path d="M453.7, 415.5 L453.7 445 Q453.7 449
                457.7 449
                L464.2 449 "
        style="fill:none; stroke:#444; stroke-width:1" />
               <path d="M464.2, 446 L472.2, 449 L464.2, 452 Z" 
        fill="#333" />
            </g>
            <g>
               <path d="M525.6, 449 L684 449  Q688 449
                688 445
                L688 185 Q688 177
                684 177
                L125 177  Q117 177
                117 181
                L117 189"
        style="fill:none; stroke:#444; stroke-width:1" />
               <path d="M114, 189 L117, 197 L120, 189 Z" 
        fill="#333" />
            </g>
            <g>
               <path d="M68.5, 110 L68.5 495 Q68.5 499
                72.5 499
                L79 499 "
        style="fill:none; stroke:#444; stroke-width:1" />
               <path d="M79, 496 L87, 499 L79, 502 Z" 
        fill="#333" />
            </g>
            <g>
               <path d="M105.5, 514 L105.5 558.5 Q105.5 562.5
                109.5 562.5
                L116 562.5 "
        style="fill:none; stroke:#444; stroke-width:1" />
               <path d="M116, 559.5 L124, 562.5 L116, 565.5 Z" 
        fill="#333" />
            </g>
            <g>
               <path d="M154, 592.5 L154 613.5 Q154 617.5
                158 617.5
                L166 617.5 "
        style="fill:none; stroke:#444; stroke-width:1" />
               <path d="M166, 614.5 L174, 617.5 L166, 620.5 Z" 
        fill="#333" />
            </g>
            <g>
               <path d="M354.4, 562.5 L390.4 562.5  Q394.4 562.5
                394.4 566.5
                L394.4 609.5 Q394.4 617.5
                398.4 617.5
                L406.4 617.5 "
        style="fill:none; stroke:#444; stroke-width:1" />
               <path d="M406.4, 614.5 L414.4, 617.5 L406.4, 620.5 Z" 
        fill="#333" />
            </g>
            <g>
               <path d="M25, 40 L25 663.5 Q25 667.5
                29 667.5
                L42 667.5 "
        style="fill:none; stroke:#444; stroke-width:1" />
               <path d="M42, 664.5 L50, 667.5 L42, 670.5 Z" 
        fill="#333" />
            </g>
            </svg>