<!DOCTYPE svg PUBLIC "-//W3C//DTD SVG 1.1//EN" "http://www.w3.org/Graphics/SVG/1.1/DTD/svg11.dtd">
                <svg xmlns="http://www.w3.org/2000/svg" xmlns:xlink="http://www.w3.org/1999/xlink" 
                width="538" height="1984">
                
            <g>
                <rect x="50" y="80"
            width="284" height="30"
            style="fill:#a5d6a7; stroke:#444; stroke-width:1" />
                    
                <line x1="60" y1="80" x2="60" y2="110"
                style="fill:#a5d6a7; stroke:#444; stroke-width:1" />
                <line x1="324" y1="80" x2="324" y2="110"
                style="fill:#a5d6a7; stroke:#444; stroke-width:1" />
             
                <title>missingNumber = function(nums)</title>
            <text x="75" y="100"
                font-family="monospace" font-size="13" fill="#222">
                <tspan x="75" y="100">missingNumber = function(nums)</tspan>
            </text>
                
            </g>
                <g>
                   <rect x="87" y="128.5"
            width="139.2" height="30"
            rx="2" ry="2"
            style="fill:#C5E1A5; stroke:#444; stroke-width:1" />
                   <title>nums.sort(*())</title>
            <text x="102" y="148.5"
                font-family="monospace" font-size="13" fill="#222">
                <tspan x="102" y="148.5">nums.sort(*())</tspan>
            </text>
                   
                   
                </g>
            <g>
                <rect x="124" y="177"
            width="120.2" height="30"
            style="fill:#a5d6a7; stroke:#444; stroke-width:1" />
                    
                <line x1="134" y1="177" x2="134" y2="207"
                style="fill:#a5d6a7; stroke:#444; stroke-width:1" />
                <line x1="234.2" y1="177" x2="234.2" y2="207"
                style="fill:#a5d6a7; stroke:#444; stroke-width:1" />
             
                <title>(a, b) =&gt;</title>
            <text x="149" y="197"
                font-family="monospace" font-size="13" fill="#222">
                <tspan x="149" y="197">(a, b) =&gt;</tspan>
            </text>
                
            </g>
            <g>
                <rect x="161" y="225.5"
            width="123.6" height="30"
            rx="3" ry="3"
            style="fill:#90caf9; stroke:#444; stroke-width:1" />
                
                <line x1="284.6" y1="235.5" x2="289.6" y2="235.5"
                style="fill:#a5d6a7; stroke:#444; stroke-width:1" />
                
                <line x1="284.6" y1="245.5" x2="289.6" y2="245.5"
                style="fill:#a5d6a7; stroke:#444; stroke-width:1" />

                <path d="M289.6, 229.5 L305.6, 240.5 L289.6, 251.5 Z" 
        fill="#a5d6a7" stroke="#444" stroke-width="1" />
                             
                <title>return a - b</title>
            <text x="176" y="245.5"
                font-family="monospace" font-size="13" fill="#222">
                <tspan x="176" y="245.5">return a - b</tspan>
            </text>
                
            </g>
                <g>
                   <rect x="87" y="274"
            width="115.8" height="30"
            rx="3" ry="3"
            style="fill:#90caf9; stroke:#444; stroke-width:1" />
                   <title>let num = 0</title>
            <text x="102" y="294"
                font-family="monospace" font-size="13" fill="#222">
                <tspan x="102" y="294">let num = 0</tspan>
            </text>
                   
                   
                </g><g>

            <rect x="117" y="357.5"
            width="177" height="30"
            rx="3" ry="3"
            style="fill:#b39ddb; stroke:#444; stroke-width:1" />
            <polygon points="87,372.5 117,342.5 147,372.5 117,402.5"
            style="fill:#b39ddb; stroke:#444; stroke-width:1" />
                
            <title>i &lt; nums.length</title>
            <text x="162" y="377.5"
                font-family="monospace" font-size="13" fill="#222">
                <tspan x="162" y="377.5">i &lt; nums.length</tspan>
            </text>
            
            <text x="105.3" y="377.5"
        font-family="monospace" font-size="13" fill="#222">for</text>
        </g>
                <g>
                   <rect x="137" y="412.5"
            width="53.4" height="30"
            rx="3" ry="3"
            style="fill:#90caf9; stroke:#444; stroke-width:1" />
                   <title>i++</title>
            <text x="152" y="432.5"
                font-family="monospace" font-size="13" fill="#222">
                <tspan x="152" y="432.5">i++</tspan>
            </text>
                   
                   
                </g><g>
            <rect x="167" y="476"
            width="177" height="30"
            rx="3" ry="3"
            style="fill:#ce93d8; stroke:#444; stroke-width:1" />                
            <polygon points="137,491 167,461 197,491 167,521"
            style="fill:#ce93d8; stroke:#444; stroke-width:1" />
            <title>(nums[i] === i)</title>
            <text x="212" y="496"
                font-family="monospace" font-size="13" fill="#222">
                <tspan x="212" y="496">(nums[i] === i)</tspan>
            </text>
            
            <text x="159.2" y="496"
        font-family="monospace" font-size="13" fill="#222">if</text> <text x="174.8" y="522.95"
        font-family="monospace" font-size="13" fill="#222">+</text> 
        </g>
                <g>
                   <rect x="187" y="531"
            width="69" height="30"
            rx="3" ry="3"
            style="fill:#90caf9; stroke:#444; stroke-width:1" />
                   <title>num++</title>
            <text x="202" y="551"
                font-family="monospace" font-size="13" fill="#222">
                <tspan x="202" y="551">num++</tspan>
            </text>
                   
                   
                </g>
            <g>
                <rect x="87" y="581"
            width="108" height="30"
            rx="3" ry="3"
            style="fill:#90caf9; stroke:#444; stroke-width:1" />
                
                <line x1="195" y1="591" x2="200" y2="591"
                style="fill:#a5d6a7; stroke:#444; stroke-width:1" />
                
                <line x1="195" y1="601" x2="200" y2="601"
                style="fill:#a5d6a7; stroke:#444; stroke-width:1" />

                <path d="M200, 585 L216, 596 L200, 607 Z" 
        fill="#a5d6a7" stroke="#444" stroke-width="1" />
                             
                <title>return num</title>
            <text x="102" y="601"
                font-family="monospace" font-size="13" fill="#222">
                <tspan x="102" y="601">return num</tspan>
            </text>
                
            </g>
            <g>
                <rect x="50" y="644.5"
            width="291.79999999999995" height="30"
            style="fill:#a5d6a7; stroke:#444; stroke-width:1" />
                    
                <line x1="60" y1="644.5" x2="60" y2="674.5"
                style="fill:#a5d6a7; stroke:#444; stroke-width:1" />
                <line x1="331.79999999999995" y1="644.5" x2="331.79999999999995" y2="674.5"
                style="fill:#a5d6a7; stroke:#444; stroke-width:1" />
             
                <title>missingNumber2 = function(nums)</title>
            <text x="75" y="664.5"
                font-family="monospace" font-size="13" fill="#222">
                <tspan x="75" y="664.5">missingNumber2 = function(nums)</tspan>
            </text>
                
            </g>
                <g>
                   <rect x="87" y="693"
            width="115.8" height="30"
            rx="3" ry="3"
            style="fill:#90caf9; stroke:#444; stroke-width:1" />
                   <title>var sum = 0</title>
            <text x="102" y="713"
                font-family="monospace" font-size="13" fill="#222">
                <tspan x="102" y="713">var sum = 0</tspan>
            </text>
                   
                   
                </g><g>

            <rect x="117" y="776.5"
            width="177" height="30"
            rx="3" ry="3"
            style="fill:#b39ddb; stroke:#444; stroke-width:1" />
            <polygon points="87,791.5 117,761.5 147,791.5 117,821.5"
            style="fill:#b39ddb; stroke:#444; stroke-width:1" />
                
            <title>i &lt; nums.length</title>
            <text x="162" y="796.5"
                font-family="monospace" font-size="13" fill="#222">
                <tspan x="162" y="796.5">i &lt; nums.length</tspan>
            </text>
            
            <text x="105.3" y="796.5"
        font-family="monospace" font-size="13" fill="#222">for</text>
        </g>
                <g>
                   <rect x="137" y="831.5"
            width="53.4" height="30"
            rx="3" ry="3"
            style="fill:#90caf9; stroke:#444; stroke-width:1" />
                   <title>i++</title>
            <text x="152" y="851.5"
                font-family="monospace" font-size="13" fill="#222">
                <tspan x="152" y="851.5">i++</tspan>
            </text>
                   
                   
                </g>
                <g>
                   <rect x="137" y="880"
            width="178.2" height="30"
            rx="3" ry="3"
            style="fill:#90caf9; stroke:#444; stroke-width:1" />
                   <title>sum = sum + nums[i]</title>
            <text x="152" y="900"
                font-family="monospace" font-size="13" fill="#222">
                <tspan x="152" y="900">sum = sum + nums[i]</tspan>
            </text>
                   
                   
                </g>
                <g>
                   <rect x="87" y="928.5"
            width="420" height="30"
            rx="3" ry="3"
            style="fill:#90caf9; stroke:#444; stroke-width:1" />
                   <title>var expected = (nums.length + 1) * nums.length / 2</title>
            <text x="102" y="948.5"
                font-family="monospace" font-size="13" fill="#222">
                <tspan x="102" y="948.5">var expected = (nums.length + 1) * nums.length / 2</tspan>
            </text>
                   
                   
                </g>
            <g>
                <rect x="87" y="977"
            width="193.79999999999998" height="30"
            rx="3" ry="3"
            style="fill:#90caf9; stroke:#444; stroke-width:1" />
                
                <line x1="280.79999999999995" y1="987" x2="285.79999999999995" y2="987"
                style="fill:#a5d6a7; stroke:#444; stroke-width:1" />
                
                <line x1="280.79999999999995" y1="997" x2="285.79999999999995" y2="997"
                style="fill:#a5d6a7; stroke:#444; stroke-width:1" />

                <path d="M285.79999999999995, 981 L301.79999999999995, 992 L285.79999999999995, 1003 Z" 
        fill="#a5d6a7" stroke="#444" stroke-width="1" />
                             
                <title>return expected - sum</title>
            <text x="102" y="997"
                font-family="monospace" font-size="13" fill="#222">
                <tspan x="102" y="997">return expected - sum</tspan>
            </text>
                
            </g>
            <g>
                <rect x="50" y="1040.5"
            width="291.79999999999995" height="30"
            style="fill:#a5d6a7; stroke:#444; stroke-width:1" />
                    
                <line x1="60" y1="1040.5" x2="60" y2="1070.5"
                style="fill:#a5d6a7; stroke:#444; stroke-width:1" />
                <line x1="331.79999999999995" y1="1040.5" x2="331.79999999999995" y2="1070.5"
                style="fill:#a5d6a7; stroke:#444; stroke-width:1" />
             
                <title>missingNumber3 = function(nums)</title>
            <text x="75" y="1060.5"
                font-family="monospace" font-size="13" fill="#222">
                <tspan x="75" y="1060.5">missingNumber3 = function(nums)</tspan>
            </text>
                
            </g>
                <g>
                   <rect x="87" y="1089"
            width="256.2" height="30"
            rx="3" ry="3"
            style="fill:#90caf9; stroke:#444; stroke-width:1" />
                   <title>let sum = nums.reduce(*(), 0)</title>
            <text x="102" y="1109"
                font-family="monospace" font-size="13" fill="#222">
                <tspan x="102" y="1109">let sum = nums.reduce(*(), 0)</tspan>
            </text>
                   
                   
                </g>
            <g>
                <rect x="124" y="1137.5"
            width="120.2" height="30"
            style="fill:#a5d6a7; stroke:#444; stroke-width:1" />
                    
                <line x1="134" y1="1137.5" x2="134" y2="1167.5"
                style="fill:#a5d6a7; stroke:#444; stroke-width:1" />
                <line x1="234.2" y1="1137.5" x2="234.2" y2="1167.5"
                style="fill:#a5d6a7; stroke:#444; stroke-width:1" />
             
                <title>(s, n) =&gt;</title>
            <text x="149" y="1157.5"
                font-family="monospace" font-size="13" fill="#222">
                <tspan x="149" y="1157.5">(s, n) =&gt;</tspan>
            </text>
                
            </g>
            <g>
                <rect x="161" y="1186"
            width="123.6" height="30"
            rx="3" ry="3"
            style="fill:#90caf9; stroke:#444; stroke-width:1" />
                
                <line x1="284.6" y1="1196" x2="289.6" y2="1196"
                style="fill:#a5d6a7; stroke:#444; stroke-width:1" />
                
                <line x1="284.6" y1="1206" x2="289.6" y2="1206"
                style="fill:#a5d6a7; stroke:#444; stroke-width:1" />

                <path d="M289.6, 1190 L305.6, 1201 L289.6, 1212 Z" 
        fill="#a5d6a7" stroke="#444" stroke-width="1" />
                             
                <title>return s + n</title>
            <text x="176" y="1206"
                font-family="monospace" font-size="13" fill="#222">
                <tspan x="176" y="1206">return s + n</tspan>
            </text>
                
            </g>
                <g>
                   <rect x="87" y="1234.5"
            width="178.2" height="30"
            rx="3" ry="3"
            style="fill:#90caf9; stroke:#444; stroke-width:1" />
                   <title>let n = nums.length</title>
            <text x="102" y="1254.5"
                font-family="monospace" font-size="13" fill="#222">
                <tspan x="102" y="1254.5">let n = nums.length</tspan>
            </text>
                   
                   
                </g>
                <g>
                   <rect x="87" y="1283"
            width="209.4" height="30"
            rx="3" ry="3"
            style="fill:#90caf9; stroke:#444; stroke-width:1" />
                   <title>let w = n * (n + 1) / 2</title>
            <text x="102" y="1303"
                font-family="monospace" font-size="13" fill="#222">
                <tspan x="102" y="1303">let w = n * (n + 1) / 2</tspan>
            </text>
                   
                   
                </g>
            <g>
                <rect x="87" y="1331.5"
            width="139.2" height="30"
            rx="3" ry="3"
            style="fill:#90caf9; stroke:#444; stroke-width:1" />
                
                <line x1="226.2" y1="1341.5" x2="231.2" y2="1341.5"
                style="fill:#a5d6a7; stroke:#444; stroke-width:1" />
                
                <line x1="226.2" y1="1351.5" x2="231.2" y2="1351.5"
                style="fill:#a5d6a7; stroke:#444; stroke-width:1" />

                <path d="M231.2, 1335.5 L247.2, 1346.5 L231.2, 1357.5 Z" 
        fill="#a5d6a7" stroke="#444" stroke-width="1" />
                             
                <title>return w - sum</title>
            <text x="102" y="1351.5"
                font-family="monospace" font-size="13" fill="#222">
                <tspan x="102" y="1351.5">return w - sum</tspan>
            </text>
                
            </g>
            <g>
                <rect x="50" y="1395"
            width="268.4" height="30"
            style="fill:#a5d6a7; stroke:#444; stroke-width:1" />
                    
                <line x1="60" y1="1395" x2="60" y2="1425"
                style="fill:#a5d6a7; stroke:#444; stroke-width:1" />
                <line x1="308.4" y1="1395" x2="308.4" y2="1425"
                style="fill:#a5d6a7; stroke:#444; stroke-width:1" />
             
                <title>function missingNumber(nums)</title>
            <text x="75" y="1415"
                font-family="monospace" font-size="13" fill="#222">
                <tspan x="75" y="1415">function missingNumber(nums)</tspan>
            </text>
                
            </g>
                <g>
                   <rect x="87" y="1443.5"
            width="248.4" height="30"
            rx="3" ry="3"
            style="fill:#90caf9; stroke:#444; stroke-width:1" />
                   <title>const sum = nums.reduce(*())</title>
            <text x="102" y="1463.5"
                font-family="monospace" font-size="13" fill="#222">
                <tspan x="102" y="1463.5">const sum = nums.reduce(*())</tspan>
            </text>
                   
                   
                </g>
            <g>
                <rect x="124" y="1492"
            width="120.2" height="30"
            style="fill:#a5d6a7; stroke:#444; stroke-width:1" />
                    
                <line x1="134" y1="1492" x2="134" y2="1522"
                style="fill:#a5d6a7; stroke:#444; stroke-width:1" />
                <line x1="234.2" y1="1492" x2="234.2" y2="1522"
                style="fill:#a5d6a7; stroke:#444; stroke-width:1" />
             
                <title>(a, b) =&gt;</title>
            <text x="149" y="1512"
                font-family="monospace" font-size="13" fill="#222">
                <tspan x="149" y="1512">(a, b) =&gt;</tspan>
            </text>
                
            </g>
            <g>
                <rect x="161" y="1540.5"
            width="123.6" height="30"
            rx="3" ry="3"
            style="fill:#90caf9; stroke:#444; stroke-width:1" />
                
                <line x1="284.6" y1="1550.5" x2="289.6" y2="1550.5"
                style="fill:#a5d6a7; stroke:#444; stroke-width:1" />
                
                <line x1="284.6" y1="1560.5" x2="289.6" y2="1560.5"
                style="fill:#a5d6a7; stroke:#444; stroke-width:1" />

                <path d="M289.6, 1544.5 L305.6, 1555.5 L289.6, 1566.5 Z" 
        fill="#a5d6a7" stroke="#444" stroke-width="1" />
                             
                <title>return a + b</title>
            <text x="176" y="1560.5"
                font-family="monospace" font-size="13" fill="#222">
                <tspan x="176" y="1560.5">return a + b</tspan>
            </text>
                
            </g>
            <g>
                <rect x="87" y="1589"
            width="404.4" height="30"
            rx="3" ry="3"
            style="fill:#90caf9; stroke:#444; stroke-width:1" />
                
                <line x1="491.4" y1="1599" x2="496.4" y2="1599"
                style="fill:#a5d6a7; stroke:#444; stroke-width:1" />
                
                <line x1="491.4" y1="1609" x2="496.4" y2="1609"
                style="fill:#a5d6a7; stroke:#444; stroke-width:1" />

                <path d="M496.4, 1593 L512.4, 1604 L496.4, 1615 Z" 
        fill="#a5d6a7" stroke="#444" stroke-width="1" />
                             
                <title>return (1 + nums.length) * nums.length / 2 - sum</title>
            <text x="102" y="1609"
                font-family="monospace" font-size="13" fill="#222">
                <tspan x="102" y="1609">return (1 + nums.length) * nums.length / 2 - sum</tspan>
            </text>
                
            </g>
                <g>
                   <rect x="50" y="1637.5"
            width="295.2" height="30"
            rx="2" ry="2"
            style="fill:#C5E1A5; stroke:#444; stroke-width:1" />
                   <title>console.log(missingNumber([1, 0]))</title>
            <text x="65" y="1657.5"
                font-family="monospace" font-size="13" fill="#222">
                <tspan x="65" y="1657.5">console.log(missingNumber([1, 0]))</tspan>
            </text>
                   
                   
                </g>
                <g>
                   <rect x="50" y="1686"
            width="303" height="30"
            rx="2" ry="2"
            style="fill:#C5E1A5; stroke:#444; stroke-width:1" />
                   <title>console.log(missingNumber2([1, 0]))</title>
            <text x="65" y="1706"
                font-family="monospace" font-size="13" fill="#222">
                <tspan x="65" y="1706">console.log(missingNumber2([1, 0]))</tspan>
            </text>
                   
                   
                </g>
                <g>
                   <rect x="50" y="1734.5"
            width="303" height="30"
            rx="2" ry="2"
            style="fill:#C5E1A5; stroke:#444; stroke-width:1" />
                   <title>console.log(missingNumber3([1, 0]))</title>
            <text x="65" y="1754.5"
                font-family="monospace" font-size="13" fill="#222">
                <tspan x="65" y="1754.5">console.log(missingNumber3([1, 0]))</tspan>
            </text>
                   
                   
                </g>
                <g>
                   <rect x="50" y="1783"
            width="271.79999999999995" height="30"
            rx="2" ry="2"
            style="fill:#C5E1A5; stroke:#444; stroke-width:1" />
                   <title>console.log(missingNumber([0]))</title>
            <text x="65" y="1803"
                font-family="monospace" font-size="13" fill="#222">
                <tspan x="65" y="1803">console.log(missingNumber([0]))</tspan>
            </text>
                   
                   
                </g>
                <g>
                   <rect x="50" y="1831.5"
            width="318.59999999999997" height="30"
            rx="2" ry="2"
            style="fill:#C5E1A5; stroke:#444; stroke-width:1" />
                   <title>console.log(missingNumber([3, 0, 1]))</title>
            <text x="65" y="1851.5"
                font-family="monospace" font-size="13" fill="#222">
                <tspan x="65" y="1851.5">console.log(missingNumber([3, 0, 1]))</tspan>
            </text>
                   
                   
                </g>
                <g>
                   <rect x="50" y="1880"
            width="443.4" height="30"
            rx="2" ry="2"
            style="fill:#C5E1A5; stroke:#444; stroke-width:1" />
                   <title>console.log(missingNumber([9, 6, 4, 2, 3, 5, 7, 0, 1]))</title>
            <text x="65" y="1900"
                font-family="monospace" font-size="13" fill="#222">
                <tspan x="65" y="1900">console.log(missingNumber([9, 6, 4, 2, 3, 5, 7, 0,...</tspan>
            </text>
                   
                   
                </g>
                <g>
                   <rect x="50" y="1928.5"
            width="443.4" height="30"
            rx="2" ry="2"
            style="fill:#C5E1A5; stroke:#444; stroke-width:1" />
                   <title>console.log(missingNumber([45, 35, 38, 13, 12, 23, 48, 15, 44, 21, 43, 26, 6, 37, 1, 19, 22, 3, 11, 32, 4, 16, 28, 49, 29, 36, 33, 8, 9, 39, 46, 17, 41, 7, 2, 5, 27, 20, 40, 34, 30, 25, 47, 0, 31, 42, 24, 10, 14]))</title>
            <text x="65" y="1948.5"
                font-family="monospace" font-size="13" fill="#222">
                <tspan x="65" y="1948.5">console.log(missingNumber([45, 35, 38, 13, 12, 23,...</tspan>
            </text>
                   
                   
                </g>
            <g>
               <rect x="25" y="13.75"
            width="216.6" height="24"
            style="fill:#fff59d; stroke:#444; stroke-width:1" />
               <circle cx="25" cy="25" r="15"
        style="fill:#fff59d; stroke:#444; stroke-width:1" />
               <title>Program: source module</title>
            <text x="55" y="30"
                font-family="monospace" font-size="13" fill="#222">
                <tspan x="55" y="30">Program: source module</tspan>
            </text>
            </g>
            <g>
               <path d="M25, 40 L25 91 Q25 95
                29 95
                L42 95 "
        style="fill:none; stroke:#444; stroke-width:1" />
               <path d="M42, 92 L50, 95 L42, 98 Z" 
        fill="#333" />
            </g>
            <g>
               <path d="M68.5, 110 L68.5 139.5 Q68.5 143.5
                72.5 143.5
                L79 143.5 "
        style="fill:none; stroke:#444; stroke-width:1" />
               <path d="M79, 140.5 L87, 143.5 L79, 146.5 Z" 
        fill="#333" />
            </g>
            <g>
               <path d="M105.5, 158.5 L105.5 188 Q105.5 192
                109.5 192
                L124 192 "
        style="fill:none; stroke:#444; stroke-width:1" />
               false
            </g>
            <g>
               <path d="M142.5, 207 L142.5 236.5 Q142.5 240.5
                146.5 240.5
                L153 240.5 "
        style="fill:none; stroke:#444; stroke-width:1" />
               <path d="M153, 237.5 L161, 240.5 L153, 243.5 Z" 
        fill="#333" />
            </g>
            <g>
               <path d="M68.5, 110 L68.5 285 Q68.5 289
                72.5 289
                L79 289 "
        style="fill:none; stroke:#444; stroke-width:1" />
               <path d="M79, 286 L87, 289 L79, 292 Z" 
        fill="#333" />
            </g>
            <g>
               <path d="M68.5, 110 L68.5 368.5 Q68.5 372.5
                72.5 372.5
                L79 372.5 "
        style="fill:none; stroke:#444; stroke-width:1" />
               <path d="M79, 369.5 L87, 372.5 L79, 375.5 Z" 
        fill="#333" />
            </g>
            <g>
               <path d="M117, 402.5 L117 423.5 Q117 427.5
                121 427.5
                L129 427.5 "
        style="fill:none; stroke:#444; stroke-width:1" />
               <path d="M129, 424.5 L137, 427.5 L129, 430.5 Z" 
        fill="#333" />
            </g>
            <g>
               <path d="M117, 402.5 L117 487 Q117 491
                121 491
                L129 491 "
        style="fill:none; stroke:#444; stroke-width:1" />
               <path d="M129, 488 L137, 491 L129, 494 Z" 
        fill="#333" />
            </g>
            <g>
               <path d="M167, 521 L167 542 Q167 546
                171 546
                L179 546 "
        style="fill:none; stroke:#444; stroke-width:1" />
               <path d="M179, 543 L187, 546 L179, 549 Z" 
        fill="#333" />
            </g>
            <g>
               <path d="M256, 546 L360 546  Q364 546
                364 542
                L364 330.5 Q364 322.5
                360 322.5
                L125 322.5  Q117 322.5
                117 326.5
                L117 334.5"
        style="fill:none; stroke:#444; stroke-width:1" />
               <path d="M114, 334.5 L117, 342.5 L120, 334.5 Z" 
        fill="#333" />
            </g>
            <g>
               <path d="M68.5, 110 L68.5 592 Q68.5 596
                72.5 596
                L79 596 "
        style="fill:none; stroke:#444; stroke-width:1" />
               <path d="M79, 593 L87, 596 L79, 599 Z" 
        fill="#333" />
            </g>
            <g>
               <path d="M25, 40 L25 655.5 Q25 659.5
                29 659.5
                L42 659.5 "
        style="fill:none; stroke:#444; stroke-width:1" />
               <path d="M42, 656.5 L50, 659.5 L42, 662.5 Z" 
        fill="#333" />
            </g>
            <g>
               <path d="M68.5, 674.5 L68.5 704 Q68.5 708
                72.5 708
                L79 708 "
        style="fill:none; stroke:#444; stroke-width:1" />
               <path d="M79, 705 L87, 708 L79, 711 Z" 
        fill="#333" />
            </g>
            <g>
               <path d="M68.5, 674.5 L68.5 787.5 Q68.5 791.5
                72.5 791.5
                L79 791.5 "
        style="fill:none; stroke:#444; stroke-width:1" />
               <path d="M79, 788.5 L87, 791.5 L79, 794.5 Z" 
        fill="#333" />
            </g>
            <g>
               <path d="M117, 821.5 L117 842.5 Q117 846.5
                121 846.5
                L129 846.5 "
        style="fill:none; stroke:#444; stroke-width:1" />
               <path d="M129, 843.5 L137, 846.5 L129, 849.5 Z" 
        fill="#333" />
            </g>
            <g>
               <path d="M117, 821.5 L117 891 Q117 895
                121 895
                L129 895 "
        style="fill:none; stroke:#444; stroke-width:1" />
               <path d="M129, 892 L137, 895 L129, 898 Z" 
        fill="#333" />
            </g>
            <g>
               <path d="M315.2, 895 L331.2 895  Q335.2 895
                335.2 891
                L335.2 749.5 Q335.2 741.5
                331.2 741.5
                L125 741.5  Q117 741.5
                117 745.5
                L117 753.5"
        style="fill:none; stroke:#444; stroke-width:1" />
               <path d="M114, 753.5 L117, 761.5 L120, 753.5 Z" 
        fill="#333" />
            </g>
            <g>
               <path d="M68.5, 674.5 L68.5 939.5 Q68.5 943.5
                72.5 943.5
                L79 943.5 "
        style="fill:none; stroke:#444; stroke-width:1" />
               <path d="M79, 940.5 L87, 943.5 L79, 946.5 Z" 
        fill="#333" />
            </g>
            <g>
               <path d="M68.5, 674.5 L68.5 988 Q68.5 992
                72.5 992
                L79 992 "
        style="fill:none; stroke:#444; stroke-width:1" />
               <path d="M79, 989 L87, 992 L79, 995 Z" 
        fill="#333" />
            </g>
            <g>
               <path d="M25, 40 L25 1051.5 Q25 1055.5
                29 1055.5
                L42 1055.5 "
        style="fill:none; stroke:#444; stroke-width:1" />
               <path d="M42, 1052.5 L50, 1055.5 L42, 1058.5 Z" 
        fill="#333" />
            </g>
            <g>
               <path d="M68.5, 1070.5 L68.5 1100 Q68.5 1104
                72.5 1104
                L79 1104 "
        style="fill:none; stroke:#444; stroke-width:1" />
               <path d="M79, 1101 L87, 1104 L79, 1107 Z" 
        fill="#333" />
            </g>
            <g>
               <path d="M105.5, 1119 L105.5 1148.5 Q105.5 1152.5
                109.5 1152.5
                L124 1152.5 "
        style="fill:none; stroke:#444; stroke-width:1" />
               false
            </g>
            <g>
               <path d="M142.5, 1167.5 L142.5 1197 Q142.5 1201
                146.5 1201
                L153 1201 "
        style="fill:none; stroke:#444; stroke-width:1" />
               <path d="M153, 1198 L161, 1201 L153, 1204 Z" 
        fill="#333" />
            </g>
            <g>
               <path d="M68.5, 1070.5 L68.5 1245.5 Q68.5 1249.5
                72.5 1249.5
                L79 1249.5 "
        style="fill:none; stroke:#444; stroke-width:1" />
               <path d="M79, 1246.5 L87, 1249.5 L79, 1252.5 Z" 
        fill="#333" />
            </g>
            <g>
               <path d="M68.5, 1070.5 L68.5 1294 Q68.5 1298
                72.5 1298
                L79 1298 "
        style="fill:none; stroke:#444; stroke-width:1" />
               <path d="M79, 1295 L87, 1298 L79, 1301 Z" 
        fill="#333" />
            </g>
            <g>
               <path d="M68.5, 1070.5 L68.5 1342.5 Q68.5 1346.5
                72.5 1346.5
                L79 1346.5 "
        style="fill:none; stroke:#444; stroke-width:1" />
               <path d="M79, 1343.5 L87, 1346.5 L79, 1349.5 Z" 
        fill="#333" />
            </g>
            <g>
               <path d="M25, 40 L25 1406 Q25 1410
                29 1410
                L42 1410 "
        style="fill:none; stroke:#444; stroke-width:1" />
               <path d="M42, 1407 L50, 1410 L42, 1413 Z" 
        fill="#333" />
            </g>
            <g>
               <path d="M68.5, 1425 L68.5 1454.5 Q68.5 1458.5
                72.5 1458.5
                L79 1458.5 "
        style="fill:none; stroke:#444; stroke-width:1" />
               <path d="M79, 1455.5 L87, 1458.5 L79, 1461.5 Z" 
        fill="#333" />
            </g>
            <g>
               <path d="M105.5, 1473.5 L105.5 1503 Q105.5 1507
                109.5 1507
                L124 1507 "
        style="fill:none; stroke:#444; stroke-width:1" />
               false
            </g>
            <g>
               <path d="M142.5, 1522 L142.5 1551.5 Q142.5 1555.5
                146.5 1555.5
                L153 1555.5 "
        style="fill:none; stroke:#444; stroke-width:1" />
               <path d="M153, 1552.5 L161, 1555.5 L153, 1558.5 Z" 
        fill="#333" />
            </g>
            <g>
               <path d="M68.5, 1425 L68.5 1600 Q68.5 1604
                72.5 1604
                L79 1604 "
        style="fill:none; stroke:#444; stroke-width:1" />
               <path d="M79, 1601 L87, 1604 L79, 1607 Z" 
        fill="#333" />
            </g>
            <g>
               <path d="M25, 40 L25 1648.5 Q25 1652.5
                29 1652.5
                L42 1652.5 "
        style="fill:none; stroke:#444; stroke-width:1" />
               <path d="M42, 1649.5 L50, 1652.5 L42, 1655.5 Z" 
        fill="#333" />
            </g>
            <g>
               <path d="M25, 40 L25 1697 Q25 1701
                29 1701
                L42 1701 "
        style="fill:none; stroke:#444; stroke-width:1" />
               <path d="M42, 1698 L50, 1701 L42, 1704 Z" 
        fill="#333" />
            </g>
            <g>
               <path d="M25, 40 L25 1745.5 Q25 1749.5
                29 1749.5
                L42 1749.5 "
        style="fill:none; stroke:#444; stroke-width:1" />
               <path d="M42, 1746.5 L50, 1749.5 L42, 1752.5 Z" 
        fill="#333" />
            </g>
            <g>
               <path d="M25, 40 L25 1794 Q25 1798
                29 1798
                L42 1798 "
        style="fill:none; stroke:#444; stroke-width:1" />
               <path d="M42, 1795 L50, 1798 L42, 1801 Z" 
        fill="#333" />
            </g>
            <g>
               <path d="M25, 40 L25 1842.5 Q25 1846.5
                29 1846.5
                L42 1846.5 "
        style="fill:none; stroke:#444; stroke-width:1" />
               <path d="M42, 1843.5 L50, 1846.5 L42, 1849.5 Z" 
        fill="#333" />
            </g>
            <g>
               <path d="M25, 40 L25 1891 Q25 1895
                29 1895
                L42 1895 "
        style="fill:none; stroke:#444; stroke-width:1" />
               <path d="M42, 1892 L50, 1895 L42, 1898 Z" 
        fill="#333" />
            </g>
            <g>
               <path d="M25, 40 L25 1939.5 Q25 1943.5
                29 1943.5
                L42 1943.5 "
        style="fill:none; stroke:#444; stroke-width:1" />
               <path d="M42, 1940.5 L50, 1943.5 L42, 1946.5 Z" 
        fill="#333" />
            </g>
            </svg>