<!DOCTYPE svg PUBLIC "-//W3C//DTD SVG 1.1//EN" "http://www.w3.org/Graphics/SVG/1.1/DTD/svg11.dtd">
                <svg xmlns="http://www.w3.org/2000/svg" xmlns:xlink="http://www.w3.org/1999/xlink" 
                width="910" height="2218">
                
            <g>
                <rect x="50" y="80"
            width="330.8" height="30"
            style="fill:#a5d6a7; stroke:#444; stroke-width:1" />
                    
                <line x1="60" y1="80" x2="60" y2="110"
                style="fill:#a5d6a7; stroke:#444; stroke-width:1" />
                <line x1="370.8" y1="80" x2="370.8" y2="110"
                style="fill:#a5d6a7; stroke:#444; stroke-width:1" />
             
                <title>function depthSumHelper(list, depth)</title>
            <text x="75" y="100"
                font-family="monospace" font-size="13" fill="#222">
                <tspan x="75" y="100">function depthSumHelper(list, depth)</tspan>
            </text>
                
            </g>
                <g>
                   <rect x="87" y="128.5"
            width="115.8" height="30"
            rx="3" ry="3"
            style="fill:#90caf9; stroke:#444; stroke-width:1" />
                   <title>let sum = 0</title>
            <text x="102" y="148.5"
                font-family="monospace" font-size="13" fill="#222">
                <tspan x="102" y="148.5">let sum = 0</tspan>
            </text>
                   
                   
                </g><g>

            <rect x="117" y="212"
            width="138" height="30"
            rx="3" ry="3"
            style="fill:#b39ddb; stroke:#444; stroke-width:1" />
            <polygon points="87,227 117,197 147,227 117,257"
            style="fill:#b39ddb; stroke:#444; stroke-width:1" />
                
            <title> n in list</title>
            <text x="162" y="232"
                font-family="monospace" font-size="13" fill="#222">
                <tspan x="162" y="232"> n in list</tspan>
            </text>
            
            <text x="105.3" y="232"
        font-family="monospace" font-size="13" fill="#222">for</text>
        </g>
                <g>
                   <rect x="137" y="267"
            width="139.2" height="30"
            rx="2" ry="2"
            style="fill:#C5E1A5; stroke:#444; stroke-width:1" />
                   <title>console.log(n)</title>
            <text x="152" y="287"
                font-family="monospace" font-size="13" fill="#222">
                <tspan x="152" y="287">console.log(n)</tspan>
            </text>
                   
                   
                </g><g>
            <rect x="167" y="330.5"
            width="177" height="30"
            rx="3" ry="3"
            style="fill:#ce93d8; stroke:#444; stroke-width:1" />                
            <polygon points="137,345.5 167,315.5 197,345.5 167,375.5"
            style="fill:#ce93d8; stroke:#444; stroke-width:1" />
            <title>(n.isInteger())</title>
            <text x="212" y="350.5"
                font-family="monospace" font-size="13" fill="#222">
                <tspan x="212" y="350.5">(n.isInteger())</tspan>
            </text>
            
            <text x="159.2" y="350.5"
        font-family="monospace" font-size="13" fill="#222">if</text> <text x="174.8" y="377.45"
        font-family="monospace" font-size="13" fill="#222">+</text> <text x="347.9" y="343.55"
        font-family="monospace" font-size="13" fill="#222">-</text>
        </g>
                <g>
                   <rect x="187" y="385.5"
            width="256.2" height="30"
            rx="3" ry="3"
            style="fill:#90caf9; stroke:#444; stroke-width:1" />
                   <title>sum += n.getInteger() * depth</title>
            <text x="202" y="405.5"
                font-family="monospace" font-size="13" fill="#222">
                <tspan x="202" y="405.5">sum += n.getInteger() * depth</tspan>
            </text>
                   
                   
                </g>
                <g>
                   <rect x="503.2" y="385.5"
            width="381" height="30"
            rx="3" ry="3"
            style="fill:#90caf9; stroke:#444; stroke-width:1" />
                   <title>sum += depthSumHelper(n.getList(), depth + 1)</title>
            <text x="518.2" y="405.5"
                font-family="monospace" font-size="13" fill="#222">
                <tspan x="518.2" y="405.5">sum += depthSumHelper(n.getList(), depth + 1)</tspan>
            </text>
                   
                   
                </g>
            <g>
                <rect x="87" y="435.5"
            width="108" height="30"
            rx="3" ry="3"
            style="fill:#90caf9; stroke:#444; stroke-width:1" />
                
                <line x1="195" y1="445.5" x2="200" y2="445.5"
                style="fill:#a5d6a7; stroke:#444; stroke-width:1" />
                
                <line x1="195" y1="455.5" x2="200" y2="455.5"
                style="fill:#a5d6a7; stroke:#444; stroke-width:1" />

                <path d="M200, 439.5 L216, 450.5 L200, 461.5 Z" 
        fill="#a5d6a7" stroke="#444" stroke-width="1" />
                             
                <title>return sum</title>
            <text x="102" y="455.5"
                font-family="monospace" font-size="13" fill="#222">
                <tspan x="102" y="455.5">return sum</tspan>
            </text>
                
            </g>
            <g>
                <rect x="50" y="499"
            width="276.2" height="30"
            style="fill:#a5d6a7; stroke:#444; stroke-width:1" />
                    
                <line x1="60" y1="499" x2="60" y2="529"
                style="fill:#a5d6a7; stroke:#444; stroke-width:1" />
                <line x1="316.2" y1="499" x2="316.2" y2="529"
                style="fill:#a5d6a7; stroke:#444; stroke-width:1" />
             
                <title>function depthSum(nestedList)</title>
            <text x="75" y="519"
                font-family="monospace" font-size="13" fill="#222">
                <tspan x="75" y="519">function depthSum(nestedList)</tspan>
            </text>
                
            </g>
            <g>
                <rect x="87" y="547.5"
            width="310.8" height="30"
            rx="3" ry="3"
            style="fill:#90caf9; stroke:#444; stroke-width:1" />
                
                <line x1="397.8" y1="557.5" x2="402.8" y2="557.5"
                style="fill:#a5d6a7; stroke:#444; stroke-width:1" />
                
                <line x1="397.8" y1="567.5" x2="402.8" y2="567.5"
                style="fill:#a5d6a7; stroke:#444; stroke-width:1" />

                <path d="M402.8, 551.5 L418.8, 562.5 L402.8, 573.5 Z" 
        fill="#a5d6a7" stroke="#444" stroke-width="1" />
                             
                <title>return depthSumHelper(nestedList, 1)</title>
            <text x="102" y="567.5"
                font-family="monospace" font-size="13" fill="#222">
                <tspan x="102" y="567.5">return depthSumHelper(nestedList, 1)</tspan>
            </text>
                
            </g>
            <g>
                <rect x="50" y="611"
            width="330.8" height="30"
            style="fill:#a5d6a7; stroke:#444; stroke-width:1" />
                    
                <line x1="60" y1="611" x2="60" y2="641"
                style="fill:#a5d6a7; stroke:#444; stroke-width:1" />
                <line x1="370.8" y1="611" x2="370.8" y2="641"
                style="fill:#a5d6a7; stroke:#444; stroke-width:1" />
             
                <title>function swap(array, index1, index2)</title>
            <text x="75" y="631"
                font-family="monospace" font-size="13" fill="#222">
                <tspan x="75" y="631">function swap(array, index1, index2)</tspan>
            </text>
                
            </g>
                <g>
                   <rect x="87" y="659.5"
            width="209.4" height="30"
            rx="3" ry="3"
            style="fill:#90caf9; stroke:#444; stroke-width:1" />
                   <title>var aux = array[index1]</title>
            <text x="102" y="679.5"
                font-family="monospace" font-size="13" fill="#222">
                <tspan x="102" y="679.5">var aux = array[index1]</tspan>
            </text>
                   
                   
                </g>
                <g>
                   <rect x="87" y="708"
            width="256.2" height="30"
            rx="3" ry="3"
            style="fill:#90caf9; stroke:#444; stroke-width:1" />
                   <title>array[index1] = array[index2]</title>
            <text x="102" y="728"
                font-family="monospace" font-size="13" fill="#222">
                <tspan x="102" y="728">array[index1] = array[index2]</tspan>
            </text>
                   
                   
                </g>
                <g>
                   <rect x="87" y="756.5"
            width="178.2" height="30"
            rx="3" ry="3"
            style="fill:#90caf9; stroke:#444; stroke-width:1" />
                   <title>array[index2] = aux</title>
            <text x="102" y="776.5"
                font-family="monospace" font-size="13" fill="#222">
                <tspan x="102" y="776.5">array[index2] = aux</tspan>
            </text>
                   
                   
                </g>
            <g>
                <rect x="50" y="820"
            width="252.79999999999998" height="30"
            style="fill:#a5d6a7; stroke:#444; stroke-width:1" />
                    
                <line x1="60" y1="820" x2="60" y2="850"
                style="fill:#a5d6a7; stroke:#444; stroke-width:1" />
                <line x1="292.79999999999995" y1="820" x2="292.79999999999995" y2="850"
                style="fill:#a5d6a7; stroke:#444; stroke-width:1" />
             
                <title>function bubbleSort(array)</title>
            <text x="75" y="840"
                font-family="monospace" font-size="13" fill="#222">
                <tspan x="75" y="840">function bubbleSort(array)</tspan>
            </text>
                
            </g>
                <g>
                   <rect x="87" y="868.5"
            width="225" height="30"
            rx="3" ry="3"
            style="fill:#90caf9; stroke:#444; stroke-width:1" />
                   <title>let length = array.length</title>
            <text x="102" y="888.5"
                font-family="monospace" font-size="13" fill="#222">
                <tspan x="102" y="888.5">let length = array.length</tspan>
            </text>
                   
                   
                </g><g>

            <rect x="117" y="952"
            width="138" height="30"
            rx="3" ry="3"
            style="fill:#b39ddb; stroke:#444; stroke-width:1" />
            <polygon points="87,967 117,937 147,967 117,997"
            style="fill:#b39ddb; stroke:#444; stroke-width:1" />
                
            <title>i &lt; length</title>
            <text x="162" y="972"
                font-family="monospace" font-size="13" fill="#222">
                <tspan x="162" y="972">i &lt; length</tspan>
            </text>
            
            <text x="105.3" y="972"
        font-family="monospace" font-size="13" fill="#222">for</text>
        </g>
                <g>
                   <rect x="137" y="1007"
            width="53.4" height="30"
            rx="3" ry="3"
            style="fill:#90caf9; stroke:#444; stroke-width:1" />
                   <title>i++</title>
            <text x="152" y="1027"
                font-family="monospace" font-size="13" fill="#222">
                <tspan x="152" y="1027">i++</tspan>
            </text>
                   
                   
                </g>
                <g>
                   <rect x="137" y="1055.5"
            width="193.79999999999998" height="30"
            rx="2" ry="2"
            style="fill:#C5E1A5; stroke:#444; stroke-width:1" />
                   <title>console.log(i, array)</title>
            <text x="152" y="1075.5"
                font-family="monospace" font-size="13" fill="#222">
                <tspan x="152" y="1075.5">console.log(i, array)</tspan>
            </text>
                   
                   
                </g><g>

            <rect x="167" y="1139"
            width="169.2" height="30"
            rx="3" ry="3"
            style="fill:#b39ddb; stroke:#444; stroke-width:1" />
            <polygon points="137,1154 167,1124 197,1154 167,1184"
            style="fill:#b39ddb; stroke:#444; stroke-width:1" />
                
            <title>j &lt; length - 1</title>
            <text x="212" y="1159"
                font-family="monospace" font-size="13" fill="#222">
                <tspan x="212" y="1159">j &lt; length - 1</tspan>
            </text>
            
            <text x="155.3" y="1159"
        font-family="monospace" font-size="13" fill="#222">for</text>
        </g>
                <g>
                   <rect x="187" y="1194"
            width="53.4" height="30"
            rx="3" ry="3"
            style="fill:#90caf9; stroke:#444; stroke-width:1" />
                   <title>j++</title>
            <text x="202" y="1214"
                font-family="monospace" font-size="13" fill="#222">
                <tspan x="202" y="1214">j++</tspan>
            </text>
                   
                   
                </g><g>
            <rect x="217" y="1257.5"
            width="255" height="30"
            rx="3" ry="3"
            style="fill:#ce93d8; stroke:#444; stroke-width:1" />                
            <polygon points="187,1272.5 217,1242.5 247,1272.5 217,1302.5"
            style="fill:#ce93d8; stroke:#444; stroke-width:1" />
            <title>(array[j] &gt; array[j + 1])</title>
            <text x="262" y="1277.5"
                font-family="monospace" font-size="13" fill="#222">
                <tspan x="262" y="1277.5">(array[j] &gt; array[j + 1])</tspan>
            </text>
            
            <text x="209.2" y="1277.5"
        font-family="monospace" font-size="13" fill="#222">if</text> <text x="224.8" y="1304.45"
        font-family="monospace" font-size="13" fill="#222">+</text> 
        </g>
                <g>
                   <rect x="237" y="1312.5"
            width="193.79999999999998" height="30"
            rx="2" ry="2"
            style="fill:#C5E1A5; stroke:#444; stroke-width:1" />
                   <title>swap(array, j, j + 1)</title>
            <text x="252" y="1332.5"
                font-family="monospace" font-size="13" fill="#222">
                <tspan x="252" y="1332.5">swap(array, j, j + 1)</tspan>
            </text>
                   
                   
                </g>
            <g>
                <rect x="87" y="1362.5"
            width="123.6" height="30"
            rx="3" ry="3"
            style="fill:#90caf9; stroke:#444; stroke-width:1" />
                
                <line x1="210.6" y1="1372.5" x2="215.6" y2="1372.5"
                style="fill:#a5d6a7; stroke:#444; stroke-width:1" />
                
                <line x1="210.6" y1="1382.5" x2="215.6" y2="1382.5"
                style="fill:#a5d6a7; stroke:#444; stroke-width:1" />

                <path d="M215.6, 1366.5 L231.6, 1377.5 L215.6, 1388.5 Z" 
        fill="#a5d6a7" stroke="#444" stroke-width="1" />
                             
                <title>return array</title>
            <text x="102" y="1382.5"
                font-family="monospace" font-size="13" fill="#222">
                <tspan x="102" y="1382.5">return array</tspan>
            </text>
                
            </g>
            <g>
                <rect x="50" y="1426"
            width="260.6" height="30"
            style="fill:#a5d6a7; stroke:#444; stroke-width:1" />
                    
                <line x1="60" y1="1426" x2="60" y2="1456"
                style="fill:#a5d6a7; stroke:#444; stroke-width:1" />
                <line x1="300.6" y1="1426" x2="300.6" y2="1456"
                style="fill:#a5d6a7; stroke:#444; stroke-width:1" />
             
                <title>function bubbleSort2(array)</title>
            <text x="75" y="1446"
                font-family="monospace" font-size="13" fill="#222">
                <tspan x="75" y="1446">function bubbleSort2(array)</tspan>
            </text>
                
            </g>
                <g>
                   <rect x="87" y="1474.5"
            width="225" height="30"
            rx="3" ry="3"
            style="fill:#90caf9; stroke:#444; stroke-width:1" />
                   <title>var length = array.length</title>
            <text x="102" y="1494.5"
                font-family="monospace" font-size="13" fill="#222">
                <tspan x="102" y="1494.5">var length = array.length</tspan>
            </text>
                   
                   
                </g>
                <g>
                   <rect x="87" y="1523"
            width="123.6" height="30"
            rx="3" ry="3"
            style="fill:#90caf9; stroke:#444; stroke-width:1" />
                   <title>var cost = 0</title>
            <text x="102" y="1543"
                font-family="monospace" font-size="13" fill="#222">
                <tspan x="102" y="1543">var cost = 0</tspan>
            </text>
                   
                   
                </g><g>

            <rect x="117" y="1606.5"
            width="138" height="30"
            rx="3" ry="3"
            style="fill:#b39ddb; stroke:#444; stroke-width:1" />
            <polygon points="87,1621.5 117,1591.5 147,1621.5 117,1651.5"
            style="fill:#b39ddb; stroke:#444; stroke-width:1" />
                
            <title>i &lt; length</title>
            <text x="162" y="1626.5"
                font-family="monospace" font-size="13" fill="#222">
                <tspan x="162" y="1626.5">i &lt; length</tspan>
            </text>
            
            <text x="105.3" y="1626.5"
        font-family="monospace" font-size="13" fill="#222">for</text>
        </g>
                <g>
                   <rect x="137" y="1661.5"
            width="53.4" height="30"
            rx="3" ry="3"
            style="fill:#90caf9; stroke:#444; stroke-width:1" />
                   <title>i++</title>
            <text x="152" y="1681.5"
                font-family="monospace" font-size="13" fill="#222">
                <tspan x="152" y="1681.5">i++</tspan>
            </text>
                   
                   
                </g>
                <g>
                   <rect x="137" y="1710"
            width="76.8" height="30"
            rx="3" ry="3"
            style="fill:#90caf9; stroke:#444; stroke-width:1" />
                   <title>cost++</title>
            <text x="152" y="1730"
                font-family="monospace" font-size="13" fill="#222">
                <tspan x="152" y="1730">cost++</tspan>
            </text>
                   
                   
                </g><g>

            <rect x="167" y="1793.5"
            width="169.2" height="30"
            rx="3" ry="3"
            style="fill:#b39ddb; stroke:#444; stroke-width:1" />
            <polygon points="137,1808.5 167,1778.5 197,1808.5 167,1838.5"
            style="fill:#b39ddb; stroke:#444; stroke-width:1" />
                
            <title>j &lt; length - 1</title>
            <text x="212" y="1813.5"
                font-family="monospace" font-size="13" fill="#222">
                <tspan x="212" y="1813.5">j &lt; length - 1</tspan>
            </text>
            
            <text x="155.3" y="1813.5"
        font-family="monospace" font-size="13" fill="#222">for</text>
        </g>
                <g>
                   <rect x="187" y="1848.5"
            width="53.4" height="30"
            rx="3" ry="3"
            style="fill:#90caf9; stroke:#444; stroke-width:1" />
                   <title>j++</title>
            <text x="202" y="1868.5"
                font-family="monospace" font-size="13" fill="#222">
                <tspan x="202" y="1868.5">j++</tspan>
            </text>
                   
                   
                </g>
                <g>
                   <rect x="187" y="1897"
            width="76.8" height="30"
            rx="3" ry="3"
            style="fill:#90caf9; stroke:#444; stroke-width:1" />
                   <title>cost++</title>
            <text x="202" y="1917"
                font-family="monospace" font-size="13" fill="#222">
                <tspan x="202" y="1917">cost++</tspan>
            </text>
                   
                   
                </g><g>
            <rect x="217" y="1960.5"
            width="255" height="30"
            rx="3" ry="3"
            style="fill:#ce93d8; stroke:#444; stroke-width:1" />                
            <polygon points="187,1975.5 217,1945.5 247,1975.5 217,2005.5"
            style="fill:#ce93d8; stroke:#444; stroke-width:1" />
            <title>(array[j] &gt; array[j + 1])</title>
            <text x="262" y="1980.5"
                font-family="monospace" font-size="13" fill="#222">
                <tspan x="262" y="1980.5">(array[j] &gt; array[j + 1])</tspan>
            </text>
            
            <text x="209.2" y="1980.5"
        font-family="monospace" font-size="13" fill="#222">if</text> <text x="224.8" y="2007.45"
        font-family="monospace" font-size="13" fill="#222">+</text> 
        </g>
                <g>
                   <rect x="237" y="2015.5"
            width="193.79999999999998" height="30"
            rx="2" ry="2"
            style="fill:#C5E1A5; stroke:#444; stroke-width:1" />
                   <title>swap(array, j, j + 1)</title>
            <text x="252" y="2035.5"
                font-family="monospace" font-size="13" fill="#222">
                <tspan x="252" y="2035.5">swap(array, j, j + 1)</tspan>
            </text>
                   
                   
                </g>
                <g>
                   <rect x="87" y="2065.5"
            width="76.8" height="30"
            rx="3" ry="3"
            style="fill:#90caf9; stroke:#444; stroke-width:1" />
                   <title>length</title>
            <text x="102" y="2085.5"
                font-family="monospace" font-size="13" fill="#222">
                <tspan x="102" y="2085.5">length</tspan>
            </text>
                   
                   
                </g>
                <g>
                   <rect x="87" y="2114"
            width="61.2" height="30"
            rx="3" ry="3"
            style="fill:#90caf9; stroke:#444; stroke-width:1" />
                   <title>cost</title>
            <text x="102" y="2134"
                font-family="monospace" font-size="13" fill="#222">
                <tspan x="102" y="2134">cost</tspan>
            </text>
                   
                   
                </g>
                <g>
                   <rect x="87" y="2162.5"
            width="443.4" height="30"
            rx="2" ry="2"
            style="fill:#C5E1A5; stroke:#444; stroke-width:1" />
                   <title>console.log(`cost for bubbleSort with input size ${length} is ${cost}`)</title>
            <text x="102" y="2182.5"
                font-family="monospace" font-size="13" fill="#222">
                <tspan x="102" y="2182.5">console.log(`cost for bubbleSort with input size $...</tspan>
            </text>
                   
                   
                </g>
            <g>
               <rect x="25" y="13.75"
            width="216.6" height="24"
            style="fill:#fff59d; stroke:#444; stroke-width:1" />
               <circle cx="25" cy="25" r="15"
        style="fill:#fff59d; stroke:#444; stroke-width:1" />
               <title>Program: source module</title>
            <text x="55" y="30"
                font-family="monospace" font-size="13" fill="#222">
                <tspan x="55" y="30">Program: source module</tspan>
            </text>
            </g>
            <g>
               <path d="M25, 40 L25 91 Q25 95
                29 95
                L42 95 "
        style="fill:none; stroke:#444; stroke-width:1" />
               <path d="M42, 92 L50, 95 L42, 98 Z" 
        fill="#333" />
            </g>
            <g>
               <path d="M68.5, 110 L68.5 139.5 Q68.5 143.5
                72.5 143.5
                L79 143.5 "
        style="fill:none; stroke:#444; stroke-width:1" />
               <path d="M79, 140.5 L87, 143.5 L79, 146.5 Z" 
        fill="#333" />
            </g>
            <g>
               <path d="M68.5, 110 L68.5 223 Q68.5 227
                72.5 227
                L79 227 "
        style="fill:none; stroke:#444; stroke-width:1" />
               <path d="M79, 224 L87, 227 L79, 230 Z" 
        fill="#333" />
            </g>
            <g>
               <path d="M117, 257 L117 278 Q117 282
                121 282
                L129 282 "
        style="fill:none; stroke:#444; stroke-width:1" />
               <path d="M129, 279 L137, 282 L129, 285 Z" 
        fill="#333" />
            </g>
            <g>
               <path d="M117, 257 L117 341.5 Q117 345.5
                121 345.5
                L129 345.5 "
        style="fill:none; stroke:#444; stroke-width:1" />
               <path d="M129, 342.5 L137, 345.5 L129, 348.5 Z" 
        fill="#333" />
            </g>
            <g>
               <path d="M167, 375.5 L167 396.5 Q167 400.5
                171 400.5
                L179 400.5 "
        style="fill:none; stroke:#444; stroke-width:1" />
               <path d="M179, 397.5 L187, 400.5 L179, 403.5 Z" 
        fill="#333" />
            </g>
            <g>
               <path d="M344, 345.5 L479.2 345.5  Q483.2 345.5
                483.2 349.5
                L483.2 392.5 Q483.2 400.5
                487.2 400.5
                L495.2 400.5 "
        style="fill:none; stroke:#444; stroke-width:1" />
               <path d="M495.2, 397.5 L503.2, 400.5 L495.2, 403.5 Z" 
        fill="#333" />
            </g>
            <g>
               <path d="M884.2, 400.5 L900.2 400.5  Q904.2 400.5
                904.2 396.5
                L904.2 185 Q904.2 177
                900.2 177
                L125 177  Q117 177
                117 181
                L117 189"
        style="fill:none; stroke:#444; stroke-width:1" />
               <path d="M114, 189 L117, 197 L120, 189 Z" 
        fill="#333" />
            </g>
            <g>
               <path d="M68.5, 110 L68.5 446.5 Q68.5 450.5
                72.5 450.5
                L79 450.5 "
        style="fill:none; stroke:#444; stroke-width:1" />
               <path d="M79, 447.5 L87, 450.5 L79, 453.5 Z" 
        fill="#333" />
            </g>
            <g>
               <path d="M25, 40 L25 510 Q25 514
                29 514
                L42 514 "
        style="fill:none; stroke:#444; stroke-width:1" />
               <path d="M42, 511 L50, 514 L42, 517 Z" 
        fill="#333" />
            </g>
            <g>
               <path d="M68.5, 529 L68.5 558.5 Q68.5 562.5
                72.5 562.5
                L79 562.5 "
        style="fill:none; stroke:#444; stroke-width:1" />
               <path d="M79, 559.5 L87, 562.5 L79, 565.5 Z" 
        fill="#333" />
            </g>
            <g>
               <path d="M25, 40 L25 622 Q25 626
                29 626
                L42 626 "
        style="fill:none; stroke:#444; stroke-width:1" />
               <path d="M42, 623 L50, 626 L42, 629 Z" 
        fill="#333" />
            </g>
            <g>
               <path d="M68.5, 641 L68.5 670.5 Q68.5 674.5
                72.5 674.5
                L79 674.5 "
        style="fill:none; stroke:#444; stroke-width:1" />
               <path d="M79, 671.5 L87, 674.5 L79, 677.5 Z" 
        fill="#333" />
            </g>
            <g>
               <path d="M68.5, 641 L68.5 719 Q68.5 723
                72.5 723
                L79 723 "
        style="fill:none; stroke:#444; stroke-width:1" />
               <path d="M79, 720 L87, 723 L79, 726 Z" 
        fill="#333" />
            </g>
            <g>
               <path d="M68.5, 641 L68.5 767.5 Q68.5 771.5
                72.5 771.5
                L79 771.5 "
        style="fill:none; stroke:#444; stroke-width:1" />
               <path d="M79, 768.5 L87, 771.5 L79, 774.5 Z" 
        fill="#333" />
            </g>
            <g>
               <path d="M25, 40 L25 831 Q25 835
                29 835
                L42 835 "
        style="fill:none; stroke:#444; stroke-width:1" />
               <path d="M42, 832 L50, 835 L42, 838 Z" 
        fill="#333" />
            </g>
            <g>
               <path d="M68.5, 850 L68.5 879.5 Q68.5 883.5
                72.5 883.5
                L79 883.5 "
        style="fill:none; stroke:#444; stroke-width:1" />
               <path d="M79, 880.5 L87, 883.5 L79, 886.5 Z" 
        fill="#333" />
            </g>
            <g>
               <path d="M68.5, 850 L68.5 963 Q68.5 967
                72.5 967
                L79 967 "
        style="fill:none; stroke:#444; stroke-width:1" />
               <path d="M79, 964 L87, 967 L79, 970 Z" 
        fill="#333" />
            </g>
            <g>
               <path d="M117, 997 L117 1018 Q117 1022
                121 1022
                L129 1022 "
        style="fill:none; stroke:#444; stroke-width:1" />
               <path d="M129, 1019 L137, 1022 L129, 1025 Z" 
        fill="#333" />
            </g>
            <g>
               <path d="M117, 997 L117 1066.5 Q117 1070.5
                121 1070.5
                L129 1070.5 "
        style="fill:none; stroke:#444; stroke-width:1" />
               <path d="M129, 1067.5 L137, 1070.5 L129, 1073.5 Z" 
        fill="#333" />
            </g>
            <g>
               <path d="M117, 997 L117 1150 Q117 1154
                121 1154
                L129 1154 "
        style="fill:none; stroke:#444; stroke-width:1" />
               <path d="M129, 1151 L137, 1154 L129, 1157 Z" 
        fill="#333" />
            </g>
            <g>
               <path d="M167, 1184 L167 1205 Q167 1209
                171 1209
                L179 1209 "
        style="fill:none; stroke:#444; stroke-width:1" />
               <path d="M179, 1206 L187, 1209 L179, 1212 Z" 
        fill="#333" />
            </g>
            <g>
               <path d="M167, 1184 L167 1268.5 Q167 1272.5
                171 1272.5
                L179 1272.5 "
        style="fill:none; stroke:#444; stroke-width:1" />
               <path d="M179, 1269.5 L187, 1272.5 L179, 1275.5 Z" 
        fill="#333" />
            </g>
            <g>
               <path d="M217, 1302.5 L217 1323.5 Q217 1327.5
                221 1327.5
                L229 1327.5 "
        style="fill:none; stroke:#444; stroke-width:1" />
               <path d="M229, 1324.5 L237, 1327.5 L229, 1330.5 Z" 
        fill="#333" />
            </g>
            <g>
               <path d="M430.79999999999995, 1327.5 L488 1327.5  Q492 1327.5
                492 1323.5
                L492 1112 Q492 1104
                488 1104
                L175 1104  Q167 1104
                167 1108
                L167 1116"
        style="fill:none; stroke:#444; stroke-width:1" />
               <path d="M164, 1116 L167, 1124 L170, 1116 Z" 
        fill="#333" />
            </g>
            <g>
               <path d="M430.79999999999995, 1327.5 L488 1327.5  Q492 1327.5
                492 1323.5
                L492 925 Q492 917
                488 917
                L125 917  Q117 917
                117 921
                L117 929"
        style="fill:none; stroke:#444; stroke-width:1" />
               <path d="M114, 929 L117, 937 L120, 929 Z" 
        fill="#333" />
            </g>
            <g>
               <path d="M68.5, 850 L68.5 1373.5 Q68.5 1377.5
                72.5 1377.5
                L79 1377.5 "
        style="fill:none; stroke:#444; stroke-width:1" />
               <path d="M79, 1374.5 L87, 1377.5 L79, 1380.5 Z" 
        fill="#333" />
            </g>
            <g>
               <path d="M25, 40 L25 1437 Q25 1441
                29 1441
                L42 1441 "
        style="fill:none; stroke:#444; stroke-width:1" />
               <path d="M42, 1438 L50, 1441 L42, 1444 Z" 
        fill="#333" />
            </g>
            <g>
               <path d="M68.5, 1456 L68.5 1485.5 Q68.5 1489.5
                72.5 1489.5
                L79 1489.5 "
        style="fill:none; stroke:#444; stroke-width:1" />
               <path d="M79, 1486.5 L87, 1489.5 L79, 1492.5 Z" 
        fill="#333" />
            </g>
            <g>
               <path d="M68.5, 1456 L68.5 1534 Q68.5 1538
                72.5 1538
                L79 1538 "
        style="fill:none; stroke:#444; stroke-width:1" />
               <path d="M79, 1535 L87, 1538 L79, 1541 Z" 
        fill="#333" />
            </g>
            <g>
               <path d="M68.5, 1456 L68.5 1617.5 Q68.5 1621.5
                72.5 1621.5
                L79 1621.5 "
        style="fill:none; stroke:#444; stroke-width:1" />
               <path d="M79, 1618.5 L87, 1621.5 L79, 1624.5 Z" 
        fill="#333" />
            </g>
            <g>
               <path d="M117, 1651.5 L117 1672.5 Q117 1676.5
                121 1676.5
                L129 1676.5 "
        style="fill:none; stroke:#444; stroke-width:1" />
               <path d="M129, 1673.5 L137, 1676.5 L129, 1679.5 Z" 
        fill="#333" />
            </g>
            <g>
               <path d="M117, 1651.5 L117 1721 Q117 1725
                121 1725
                L129 1725 "
        style="fill:none; stroke:#444; stroke-width:1" />
               <path d="M129, 1722 L137, 1725 L129, 1728 Z" 
        fill="#333" />
            </g>
            <g>
               <path d="M117, 1651.5 L117 1804.5 Q117 1808.5
                121 1808.5
                L129 1808.5 "
        style="fill:none; stroke:#444; stroke-width:1" />
               <path d="M129, 1805.5 L137, 1808.5 L129, 1811.5 Z" 
        fill="#333" />
            </g>
            <g>
               <path d="M167, 1838.5 L167 1859.5 Q167 1863.5
                171 1863.5
                L179 1863.5 "
        style="fill:none; stroke:#444; stroke-width:1" />
               <path d="M179, 1860.5 L187, 1863.5 L179, 1866.5 Z" 
        fill="#333" />
            </g>
            <g>
               <path d="M167, 1838.5 L167 1908 Q167 1912
                171 1912
                L179 1912 "
        style="fill:none; stroke:#444; stroke-width:1" />
               <path d="M179, 1909 L187, 1912 L179, 1915 Z" 
        fill="#333" />
            </g>
            <g>
               <path d="M167, 1838.5 L167 1971.5 Q167 1975.5
                171 1975.5
                L179 1975.5 "
        style="fill:none; stroke:#444; stroke-width:1" />
               <path d="M179, 1972.5 L187, 1975.5 L179, 1978.5 Z" 
        fill="#333" />
            </g>
            <g>
               <path d="M217, 2005.5 L217 2026.5 Q217 2030.5
                221 2030.5
                L229 2030.5 "
        style="fill:none; stroke:#444; stroke-width:1" />
               <path d="M229, 2027.5 L237, 2030.5 L229, 2033.5 Z" 
        fill="#333" />
            </g>
            <g>
               <path d="M430.79999999999995, 2030.5 L488 2030.5  Q492 2030.5
                492 2026.5
                L492 1766.5 Q492 1758.5
                488 1758.5
                L175 1758.5  Q167 1758.5
                167 1762.5
                L167 1770.5"
        style="fill:none; stroke:#444; stroke-width:1" />
               <path d="M164, 1770.5 L167, 1778.5 L170, 1770.5 Z" 
        fill="#333" />
            </g>
            <g>
               <path d="M430.79999999999995, 2030.5 L488 2030.5  Q492 2030.5
                492 2026.5
                L492 1579.5 Q492 1571.5
                488 1571.5
                L125 1571.5  Q117 1571.5
                117 1575.5
                L117 1583.5"
        style="fill:none; stroke:#444; stroke-width:1" />
               <path d="M114, 1583.5 L117, 1591.5 L120, 1583.5 Z" 
        fill="#333" />
            </g>
            <g>
               <path d="M68.5, 1456 L68.5 2076.5 Q68.5 2080.5
                72.5 2080.5
                L79 2080.5 "
        style="fill:none; stroke:#444; stroke-width:1" />
               <path d="M79, 2077.5 L87, 2080.5 L79, 2083.5 Z" 
        fill="#333" />
            </g>
            <g>
               <path d="M68.5, 1456 L68.5 2125 Q68.5 2129
                72.5 2129
                L79 2129 "
        style="fill:none; stroke:#444; stroke-width:1" />
               <path d="M79, 2126 L87, 2129 L79, 2132 Z" 
        fill="#333" />
            </g>
            <g>
               <path d="M68.5, 1456 L68.5 2173.5 Q68.5 2177.5
                72.5 2177.5
                L79 2177.5 "
        style="fill:none; stroke:#444; stroke-width:1" />
               <path d="M79, 2174.5 L87, 2177.5 L79, 2180.5 Z" 
        fill="#333" />
            </g>
            </svg>