<!DOCTYPE svg PUBLIC "-//W3C//DTD SVG 1.1//EN" "http://www.w3.org/Graphics/SVG/1.1/DTD/svg11.dtd">
                <svg xmlns="http://www.w3.org/2000/svg" xmlns:xlink="http://www.w3.org/1999/xlink" 
                width="519" height="1388">
                
            <g>
                <rect x="50" y="80"
            width="245" height="30"
            style="fill:#a5d6a7; stroke:#444; stroke-width:1" />
                    
                <line x1="60" y1="80" x2="60" y2="110"
                style="fill:#a5d6a7; stroke:#444; stroke-width:1" />
                <line x1="285" y1="80" x2="285" y2="110"
                style="fill:#a5d6a7; stroke:#444; stroke-width:1" />
             
                <title>function numIslands(grid)</title>
            <text x="75" y="100"
                font-family="monospace" font-size="13" fill="#222">
                <tspan x="75" y="100">function numIslands(grid)</tspan>
            </text>
                
            </g>
                <g>
                   <rect x="87" y="128.5"
            width="131.39999999999998" height="30"
            rx="3" ry="3"
            style="fill:#90caf9; stroke:#444; stroke-width:1" />
                   <title>let count = 0</title>
            <text x="102" y="148.5"
                font-family="monospace" font-size="13" fill="#222">
                <tspan x="102" y="148.5">let count = 0</tspan>
            </text>
                   
                   
                </g><g>

            <rect x="117" y="212"
            width="177" height="30"
            rx="3" ry="3"
            style="fill:#b39ddb; stroke:#444; stroke-width:1" />
            <polygon points="87,227 117,197 147,227 117,257"
            style="fill:#b39ddb; stroke:#444; stroke-width:1" />
                
            <title>i &lt; grid.length</title>
            <text x="162" y="232"
                font-family="monospace" font-size="13" fill="#222">
                <tspan x="162" y="232">i &lt; grid.length</tspan>
            </text>
            
            <text x="105.3" y="232"
        font-family="monospace" font-size="13" fill="#222">for</text>
        </g>
                <g>
                   <rect x="137" y="267"
            width="53.4" height="30"
            rx="3" ry="3"
            style="fill:#90caf9; stroke:#444; stroke-width:1" />
                   <title>i++</title>
            <text x="152" y="287"
                font-family="monospace" font-size="13" fill="#222">
                <tspan x="152" y="287">i++</tspan>
            </text>
                   
                   
                </g><g>

            <rect x="167" y="350.5"
            width="200.4" height="30"
            rx="3" ry="3"
            style="fill:#b39ddb; stroke:#444; stroke-width:1" />
            <polygon points="137,365.5 167,335.5 197,365.5 167,395.5"
            style="fill:#b39ddb; stroke:#444; stroke-width:1" />
                
            <title>j &lt; grid[i].length</title>
            <text x="212" y="370.5"
                font-family="monospace" font-size="13" fill="#222">
                <tspan x="212" y="370.5">j &lt; grid[i].length</tspan>
            </text>
            
            <text x="155.3" y="370.5"
        font-family="monospace" font-size="13" fill="#222">for</text>
        </g>
                <g>
                   <rect x="187" y="405.5"
            width="53.4" height="30"
            rx="3" ry="3"
            style="fill:#90caf9; stroke:#444; stroke-width:1" />
                   <title>j++</title>
            <text x="202" y="425.5"
                font-family="monospace" font-size="13" fill="#222">
                <tspan x="202" y="425.5">j++</tspan>
            </text>
                   
                   
                </g><g>
            <rect x="217" y="469"
            width="216" height="30"
            rx="3" ry="3"
            style="fill:#ce93d8; stroke:#444; stroke-width:1" />                
            <polygon points="187,484 217,454 247,484 217,514"
            style="fill:#ce93d8; stroke:#444; stroke-width:1" />
            <title>(grid[i][j] === &apos;1&apos;)</title>
            <text x="262" y="489"
                font-family="monospace" font-size="13" fill="#222">
                <tspan x="262" y="489">(grid[i][j] === &apos;1&apos;)</tspan>
            </text>
            
            <text x="209.2" y="489"
        font-family="monospace" font-size="13" fill="#222">if</text> <text x="224.8" y="515.95"
        font-family="monospace" font-size="13" fill="#222">+</text> 
        </g>
                <g>
                   <rect x="237" y="524"
            width="147" height="30"
            rx="2" ry="2"
            style="fill:#C5E1A5; stroke:#444; stroke-width:1" />
                   <title>dfs(grid, i, j)</title>
            <text x="252" y="544"
                font-family="monospace" font-size="13" fill="#222">
                <tspan x="252" y="544">dfs(grid, i, j)</tspan>
            </text>
                   
                   
                </g>
                <g>
                   <rect x="237" y="572.5"
            width="84.6" height="30"
            rx="3" ry="3"
            style="fill:#90caf9; stroke:#444; stroke-width:1" />
                   <title>count++</title>
            <text x="252" y="592.5"
                font-family="monospace" font-size="13" fill="#222">
                <tspan x="252" y="592.5">count++</tspan>
            </text>
                   
                   
                </g>
            <g>
                <rect x="87" y="622.5"
            width="123.6" height="30"
            rx="3" ry="3"
            style="fill:#90caf9; stroke:#444; stroke-width:1" />
                
                <line x1="210.6" y1="632.5" x2="215.6" y2="632.5"
                style="fill:#a5d6a7; stroke:#444; stroke-width:1" />
                
                <line x1="210.6" y1="642.5" x2="215.6" y2="642.5"
                style="fill:#a5d6a7; stroke:#444; stroke-width:1" />

                <path d="M215.6, 626.5 L231.6, 637.5 L215.6, 648.5 Z" 
        fill="#a5d6a7" stroke="#444" stroke-width="1" />
                             
                <title>return count</title>
            <text x="102" y="642.5"
                font-family="monospace" font-size="13" fill="#222">
                <tspan x="102" y="642.5">return count</tspan>
            </text>
                
            </g>
            <g>
                <rect x="50" y="686"
            width="268.4" height="30"
            style="fill:#a5d6a7; stroke:#444; stroke-width:1" />
                    
                <line x1="60" y1="686" x2="60" y2="716"
                style="fill:#a5d6a7; stroke:#444; stroke-width:1" />
                <line x1="308.4" y1="686" x2="308.4" y2="716"
                style="fill:#a5d6a7; stroke:#444; stroke-width:1" />
             
                <title>function dfs(grid, row, col)</title>
            <text x="75" y="706"
                font-family="monospace" font-size="13" fill="#222">
                <tspan x="75" y="706">function dfs(grid, row, col)</tspan>
            </text>
                
            </g><g>
            <rect x="117" y="749.5"
            width="247.2" height="30"
            rx="3" ry="3"
            style="fill:#ce93d8; stroke:#444; stroke-width:1" />                
            <polygon points="87,764.5 117,734.5 147,764.5 117,794.5"
            style="fill:#ce93d8; stroke:#444; stroke-width:1" />
            <title>(grid[row][col] === &apos;1&apos;)</title>
            <text x="162" y="769.5"
                font-family="monospace" font-size="13" fill="#222">
                <tspan x="162" y="769.5">(grid[row][col] === &apos;1&apos;)</tspan>
            </text>
            
            <text x="109.2" y="769.5"
        font-family="monospace" font-size="13" fill="#222">if</text> <text x="124.8" y="796.45"
        font-family="monospace" font-size="13" fill="#222">+</text> 
        </g>
                <g>
                   <rect x="137" y="804.5"
            width="186" height="30"
            rx="3" ry="3"
            style="fill:#90caf9; stroke:#444; stroke-width:1" />
                   <title>grid[row][col] = &apos;*&apos;</title>
            <text x="152" y="824.5"
                font-family="monospace" font-size="13" fill="#222">
                <tspan x="152" y="824.5">grid[row][col] = &apos;*&apos;</tspan>
            </text>
                   
                   
                </g><g>
            <rect x="167" y="868"
            width="130.2" height="30"
            rx="3" ry="3"
            style="fill:#ce93d8; stroke:#444; stroke-width:1" />                
            <polygon points="137,883 167,853 197,883 167,913"
            style="fill:#ce93d8; stroke:#444; stroke-width:1" />
            <title>(row &gt; 0)</title>
            <text x="212" y="888"
                font-family="monospace" font-size="13" fill="#222">
                <tspan x="212" y="888">(row &gt; 0)</tspan>
            </text>
            
            <text x="159.2" y="888"
        font-family="monospace" font-size="13" fill="#222">if</text> <text x="174.8" y="914.95"
        font-family="monospace" font-size="13" fill="#222">+</text> 
        </g>
                <g>
                   <rect x="187" y="923"
            width="209.4" height="30"
            rx="2" ry="2"
            style="fill:#C5E1A5; stroke:#444; stroke-width:1" />
                   <title>dfs(grid, row - 1, col)</title>
            <text x="202" y="943"
                font-family="monospace" font-size="13" fill="#222">
                <tspan x="202" y="943">dfs(grid, row - 1, col)</tspan>
            </text>
                   
                   
                </g><g>
            <rect x="167" y="988"
            width="239.39999999999998" height="30"
            rx="3" ry="3"
            style="fill:#ce93d8; stroke:#444; stroke-width:1" />                
            <polygon points="137,1003 167,973 197,1003 167,1033"
            style="fill:#ce93d8; stroke:#444; stroke-width:1" />
            <title>(row &lt; grid.length - 1)</title>
            <text x="212" y="1008"
                font-family="monospace" font-size="13" fill="#222">
                <tspan x="212" y="1008">(row &lt; grid.length - 1)</tspan>
            </text>
            
            <text x="159.2" y="1008"
        font-family="monospace" font-size="13" fill="#222">if</text> <text x="174.8" y="1034.95"
        font-family="monospace" font-size="13" fill="#222">+</text> 
        </g>
                <g>
                   <rect x="187" y="1043"
            width="209.4" height="30"
            rx="2" ry="2"
            style="fill:#C5E1A5; stroke:#444; stroke-width:1" />
                   <title>dfs(grid, row + 1, col)</title>
            <text x="202" y="1063"
                font-family="monospace" font-size="13" fill="#222">
                <tspan x="202" y="1063">dfs(grid, row + 1, col)</tspan>
            </text>
                   
                   
                </g><g>
            <rect x="167" y="1108"
            width="130.2" height="30"
            rx="3" ry="3"
            style="fill:#ce93d8; stroke:#444; stroke-width:1" />                
            <polygon points="137,1123 167,1093 197,1123 167,1153"
            style="fill:#ce93d8; stroke:#444; stroke-width:1" />
            <title>(col &gt; 0)</title>
            <text x="212" y="1128"
                font-family="monospace" font-size="13" fill="#222">
                <tspan x="212" y="1128">(col &gt; 0)</tspan>
            </text>
            
            <text x="159.2" y="1128"
        font-family="monospace" font-size="13" fill="#222">if</text> <text x="174.8" y="1154.95"
        font-family="monospace" font-size="13" fill="#222">+</text> 
        </g>
                <g>
                   <rect x="187" y="1163"
            width="209.4" height="30"
            rx="2" ry="2"
            style="fill:#C5E1A5; stroke:#444; stroke-width:1" />
                   <title>dfs(grid, row, col - 1)</title>
            <text x="202" y="1183"
                font-family="monospace" font-size="13" fill="#222">
                <tspan x="202" y="1183">dfs(grid, row, col - 1)</tspan>
            </text>
                   
                   
                </g><g>
            <rect x="167" y="1228"
            width="278.4" height="30"
            rx="3" ry="3"
            style="fill:#ce93d8; stroke:#444; stroke-width:1" />                
            <polygon points="137,1243 167,1213 197,1243 167,1273"
            style="fill:#ce93d8; stroke:#444; stroke-width:1" />
            <title>(col &lt; grid[row].length - 1)</title>
            <text x="212" y="1248"
                font-family="monospace" font-size="13" fill="#222">
                <tspan x="212" y="1248">(col &lt; grid[row].length - 1)</tspan>
            </text>
            
            <text x="159.2" y="1248"
        font-family="monospace" font-size="13" fill="#222">if</text> <text x="174.8" y="1274.95"
        font-family="monospace" font-size="13" fill="#222">+</text> 
        </g>
                <g>
                   <rect x="187" y="1283"
            width="209.4" height="30"
            rx="2" ry="2"
            style="fill:#C5E1A5; stroke:#444; stroke-width:1" />
                   <title>dfs(grid, row, col + 1)</title>
            <text x="202" y="1303"
                font-family="monospace" font-size="13" fill="#222">
                <tspan x="202" y="1303">dfs(grid, row, col + 1)</tspan>
            </text>
                   
                   
                </g>
                <g>
                   <rect x="50" y="1333"
            width="443.4" height="30"
            rx="2" ry="2"
            style="fill:#C5E1A5; stroke:#444; stroke-width:1" />
                   <title>console.log(numIslands([[1, 1, 0, 0, 0], [1, 1, 1, 0, 0], [0, 0, 1, 0, 0], [0, 0, 0, 1, 1]]))</title>
            <text x="65" y="1353"
                font-family="monospace" font-size="13" fill="#222">
                <tspan x="65" y="1353">console.log(numIslands([[1, 1, 0, 0, 0], [1, 1, 1,...</tspan>
            </text>
                   
                   
                </g>
            <g>
               <rect x="25" y="13.75"
            width="216.6" height="24"
            style="fill:#fff59d; stroke:#444; stroke-width:1" />
               <circle cx="25" cy="25" r="15"
        style="fill:#fff59d; stroke:#444; stroke-width:1" />
               <title>Program: source module</title>
            <text x="55" y="30"
                font-family="monospace" font-size="13" fill="#222">
                <tspan x="55" y="30">Program: source module</tspan>
            </text>
            </g>
            <g>
               <path d="M25, 40 L25 91 Q25 95
                29 95
                L42 95 "
        style="fill:none; stroke:#444; stroke-width:1" />
               <path d="M42, 92 L50, 95 L42, 98 Z" 
        fill="#333" />
            </g>
            <g>
               <path d="M68.5, 110 L68.5 139.5 Q68.5 143.5
                72.5 143.5
                L79 143.5 "
        style="fill:none; stroke:#444; stroke-width:1" />
               <path d="M79, 140.5 L87, 143.5 L79, 146.5 Z" 
        fill="#333" />
            </g>
            <g>
               <path d="M68.5, 110 L68.5 223 Q68.5 227
                72.5 227
                L79 227 "
        style="fill:none; stroke:#444; stroke-width:1" />
               <path d="M79, 224 L87, 227 L79, 230 Z" 
        fill="#333" />
            </g>
            <g>
               <path d="M117, 257 L117 278 Q117 282
                121 282
                L129 282 "
        style="fill:none; stroke:#444; stroke-width:1" />
               <path d="M129, 279 L137, 282 L129, 285 Z" 
        fill="#333" />
            </g>
            <g>
               <path d="M117, 257 L117 361.5 Q117 365.5
                121 365.5
                L129 365.5 "
        style="fill:none; stroke:#444; stroke-width:1" />
               <path d="M129, 362.5 L137, 365.5 L129, 368.5 Z" 
        fill="#333" />
            </g>
            <g>
               <path d="M167, 395.5 L167 416.5 Q167 420.5
                171 420.5
                L179 420.5 "
        style="fill:none; stroke:#444; stroke-width:1" />
               <path d="M179, 417.5 L187, 420.5 L179, 423.5 Z" 
        fill="#333" />
            </g>
            <g>
               <path d="M167, 395.5 L167 480 Q167 484
                171 484
                L179 484 "
        style="fill:none; stroke:#444; stroke-width:1" />
               <path d="M179, 481 L187, 484 L179, 487 Z" 
        fill="#333" />
            </g>
            <g>
               <path d="M217, 514 L217 535 Q217 539
                221 539
                L229 539 "
        style="fill:none; stroke:#444; stroke-width:1" />
               <path d="M229, 536 L237, 539 L229, 542 Z" 
        fill="#333" />
            </g>
            <g>
               <path d="M217, 514 L217 583.5 Q217 587.5
                221 587.5
                L229 587.5 "
        style="fill:none; stroke:#444; stroke-width:1" />
               <path d="M229, 584.5 L237, 587.5 L229, 590.5 Z" 
        fill="#333" />
            </g>
            <g>
               <path d="M321.6, 587.5 L449 587.5  Q453 587.5
                453 583.5
                L453 323.5 Q453 315.5
                449 315.5
                L175 315.5  Q167 315.5
                167 319.5
                L167 327.5"
        style="fill:none; stroke:#444; stroke-width:1" />
               <path d="M164, 327.5 L167, 335.5 L170, 327.5 Z" 
        fill="#333" />
            </g>
            <g>
               <path d="M321.6, 587.5 L449 587.5  Q453 587.5
                453 583.5
                L453 185 Q453 177
                449 177
                L125 177  Q117 177
                117 181
                L117 189"
        style="fill:none; stroke:#444; stroke-width:1" />
               <path d="M114, 189 L117, 197 L120, 189 Z" 
        fill="#333" />
            </g>
            <g>
               <path d="M68.5, 110 L68.5 633.5 Q68.5 637.5
                72.5 637.5
                L79 637.5 "
        style="fill:none; stroke:#444; stroke-width:1" />
               <path d="M79, 634.5 L87, 637.5 L79, 640.5 Z" 
        fill="#333" />
            </g>
            <g>
               <path d="M25, 40 L25 697 Q25 701
                29 701
                L42 701 "
        style="fill:none; stroke:#444; stroke-width:1" />
               <path d="M42, 698 L50, 701 L42, 704 Z" 
        fill="#333" />
            </g>
            <g>
               <path d="M68.5, 716 L68.5 760.5 Q68.5 764.5
                72.5 764.5
                L79 764.5 "
        style="fill:none; stroke:#444; stroke-width:1" />
               <path d="M79, 761.5 L87, 764.5 L79, 767.5 Z" 
        fill="#333" />
            </g>
            <g>
               <path d="M117, 794.5 L117 815.5 Q117 819.5
                121 819.5
                L129 819.5 "
        style="fill:none; stroke:#444; stroke-width:1" />
               <path d="M129, 816.5 L137, 819.5 L129, 822.5 Z" 
        fill="#333" />
            </g>
            <g>
               <path d="M117, 794.5 L117 879 Q117 883
                121 883
                L129 883 "
        style="fill:none; stroke:#444; stroke-width:1" />
               <path d="M129, 880 L137, 883 L129, 886 Z" 
        fill="#333" />
            </g>
            <g>
               <path d="M167, 913 L167 934 Q167 938
                171 938
                L179 938 "
        style="fill:none; stroke:#444; stroke-width:1" />
               <path d="M179, 935 L187, 938 L179, 941 Z" 
        fill="#333" />
            </g>
            <g>
               <path d="M117, 794.5 L117 999 Q117 1003
                121 1003
                L129 1003 "
        style="fill:none; stroke:#444; stroke-width:1" />
               <path d="M129, 1000 L137, 1003 L129, 1006 Z" 
        fill="#333" />
            </g>
            <g>
               <path d="M167, 1033 L167 1054 Q167 1058
                171 1058
                L179 1058 "
        style="fill:none; stroke:#444; stroke-width:1" />
               <path d="M179, 1055 L187, 1058 L179, 1061 Z" 
        fill="#333" />
            </g>
            <g>
               <path d="M117, 794.5 L117 1119 Q117 1123
                121 1123
                L129 1123 "
        style="fill:none; stroke:#444; stroke-width:1" />
               <path d="M129, 1120 L137, 1123 L129, 1126 Z" 
        fill="#333" />
            </g>
            <g>
               <path d="M167, 1153 L167 1174 Q167 1178
                171 1178
                L179 1178 "
        style="fill:none; stroke:#444; stroke-width:1" />
               <path d="M179, 1175 L187, 1178 L179, 1181 Z" 
        fill="#333" />
            </g>
            <g>
               <path d="M117, 794.5 L117 1239 Q117 1243
                121 1243
                L129 1243 "
        style="fill:none; stroke:#444; stroke-width:1" />
               <path d="M129, 1240 L137, 1243 L129, 1246 Z" 
        fill="#333" />
            </g>
            <g>
               <path d="M167, 1273 L167 1294 Q167 1298
                171 1298
                L179 1298 "
        style="fill:none; stroke:#444; stroke-width:1" />
               <path d="M179, 1295 L187, 1298 L179, 1301 Z" 
        fill="#333" />
            </g>
            <g>
               <path d="M25, 40 L25 1344 Q25 1348
                29 1348
                L42 1348 "
        style="fill:none; stroke:#444; stroke-width:1" />
               <path d="M42, 1345 L50, 1348 L42, 1351 Z" 
        fill="#333" />
            </g>
            </svg>