<!DOCTYPE svg PUBLIC "-//W3C//DTD SVG 1.1//EN" "http://www.w3.org/Graphics/SVG/1.1/DTD/svg11.dtd">
                <svg xmlns="http://www.w3.org/2000/svg" xmlns:xlink="http://www.w3.org/1999/xlink" 
                width="703" height="1485">
                
            <g>
                <rect x="50" y="80"
            width="260.6" height="30"
            style="fill:#a5d6a7; stroke:#444; stroke-width:1" />
                    
                <line x1="60" y1="80" x2="60" y2="110"
                style="fill:#a5d6a7; stroke:#444; stroke-width:1" />
                <line x1="300.6" y1="80" x2="300.6" y2="110"
                style="fill:#a5d6a7; stroke:#444; stroke-width:1" />
             
                <title>numIslands = function(grid)</title>
            <text x="75" y="100"
                font-family="monospace" font-size="13" fill="#222">
                <tspan x="75" y="100">numIslands = function(grid)</tspan>
            </text>
                
            </g>
                <g>
                   <rect x="87" y="128.5"
            width="131.39999999999998" height="30"
            rx="3" ry="3"
            style="fill:#90caf9; stroke:#444; stroke-width:1" />
                   <title>let count = 0</title>
            <text x="102" y="148.5"
                font-family="monospace" font-size="13" fill="#222">
                <tspan x="102" y="148.5">let count = 0</tspan>
            </text>
                   
                   
                </g>
                <g>
                   <rect x="87" y="177"
            width="232.79999999999998" height="30"
            rx="3" ry="3"
            style="fill:#90caf9; stroke:#444; stroke-width:1" />
                   <title>const height = grid.length</title>
            <text x="102" y="197"
                font-family="monospace" font-size="13" fill="#222">
                <tspan x="102" y="197">const height = grid.length</tspan>
            </text>
                   
                   
                </g>
                <g>
                   <rect x="87" y="225.5"
            width="248.4" height="30"
            rx="3" ry="3"
            style="fill:#90caf9; stroke:#444; stroke-width:1" />
                   <title>const width = grid[0].length</title>
            <text x="102" y="245.5"
                font-family="monospace" font-size="13" fill="#222">
                <tspan x="102" y="245.5">const width = grid[0].length</tspan>
            </text>
                   
                   
                </g>
                <g>
                   <rect x="87" y="274"
            width="271.79999999999995" height="30"
            rx="3" ry="3"
            style="fill:#90caf9; stroke:#444; stroke-width:1" />
                   <title>const visited = [object Object]</title>
            <text x="102" y="294"
                font-family="monospace" font-size="13" fill="#222">
                <tspan x="102" y="294">const visited = [object Object]</tspan>
            </text>
                   
                   
                </g><g>

            <rect x="117" y="357.5"
            width="138" height="30"
            rx="3" ry="3"
            style="fill:#b39ddb; stroke:#444; stroke-width:1" />
            <polygon points="87,372.5 117,342.5 147,372.5 117,402.5"
            style="fill:#b39ddb; stroke:#444; stroke-width:1" />
                
            <title>i &lt; height</title>
            <text x="162" y="377.5"
                font-family="monospace" font-size="13" fill="#222">
                <tspan x="162" y="377.5">i &lt; height</tspan>
            </text>
            
            <text x="105.3" y="377.5"
        font-family="monospace" font-size="13" fill="#222">for</text>
        </g>
                <g>
                   <rect x="137" y="412.5"
            width="53.4" height="30"
            rx="3" ry="3"
            style="fill:#90caf9; stroke:#444; stroke-width:1" />
                   <title>i++</title>
            <text x="152" y="432.5"
                font-family="monospace" font-size="13" fill="#222">
                <tspan x="152" y="432.5">i++</tspan>
            </text>
                   
                   
                </g><g>

            <rect x="167" y="496"
            width="130.2" height="30"
            rx="3" ry="3"
            style="fill:#b39ddb; stroke:#444; stroke-width:1" />
            <polygon points="137,511 167,481 197,511 167,541"
            style="fill:#b39ddb; stroke:#444; stroke-width:1" />
                
            <title>j &lt; width</title>
            <text x="212" y="516"
                font-family="monospace" font-size="13" fill="#222">
                <tspan x="212" y="516">j &lt; width</tspan>
            </text>
            
            <text x="155.3" y="516"
        font-family="monospace" font-size="13" fill="#222">for</text>
        </g>
                <g>
                   <rect x="187" y="551"
            width="53.4" height="30"
            rx="3" ry="3"
            style="fill:#90caf9; stroke:#444; stroke-width:1" />
                   <title>j++</title>
            <text x="202" y="571"
                font-family="monospace" font-size="13" fill="#222">
                <tspan x="202" y="571">j++</tspan>
            </text>
                   
                   
                </g>
                <g>
                   <rect x="187" y="599.5"
            width="201.6" height="30"
            rx="3" ry="3"
            style="fill:#90caf9; stroke:#444; stroke-width:1" />
                   <title>const col = grid[i][j]</title>
            <text x="202" y="619.5"
                font-family="monospace" font-size="13" fill="#222">
                <tspan x="202" y="619.5">const col = grid[i][j]</tspan>
            </text>
                   
                   
                </g><g>
            <rect x="217" y="663"
            width="411" height="30"
            rx="3" ry="3"
            style="fill:#ce93d8; stroke:#444; stroke-width:1" />                
            <polygon points="187,678 217,648 247,678 217,708"
            style="fill:#ce93d8; stroke:#444; stroke-width:1" />
            <title>(!visited[i * width + j] &amp;&amp; grid[i][j] === 1)</title>
            <text x="262" y="683"
                font-family="monospace" font-size="13" fill="#222">
                <tspan x="262" y="683">(!visited[i * width + j] &amp;&amp; grid[i][j] === 1)</tspan>
            </text>
            
            <text x="209.2" y="683"
        font-family="monospace" font-size="13" fill="#222">if</text> <text x="224.8" y="709.95"
        font-family="monospace" font-size="13" fill="#222">+</text> 
        </g>
                <g>
                   <rect x="237" y="718"
            width="84.6" height="30"
            rx="3" ry="3"
            style="fill:#90caf9; stroke:#444; stroke-width:1" />
                   <title>count++</title>
            <text x="252" y="738"
                font-family="monospace" font-size="13" fill="#222">
                <tspan x="252" y="738">count++</tspan>
            </text>
                   
                   
                </g>
                <g>
                   <rect x="237" y="766.5"
            width="100.2" height="30"
            rx="2" ry="2"
            style="fill:#C5E1A5; stroke:#444; stroke-width:1" />
                   <title>dfs(i, j)</title>
            <text x="252" y="786.5"
                font-family="monospace" font-size="13" fill="#222">
                <tspan x="252" y="786.5">dfs(i, j)</tspan>
            </text>
                   
                   
                </g>
            <g>
                <rect x="87" y="831.5"
            width="190.4" height="30"
            style="fill:#a5d6a7; stroke:#444; stroke-width:1" />
                    
                <line x1="97" y1="831.5" x2="97" y2="861.5"
                style="fill:#a5d6a7; stroke:#444; stroke-width:1" />
                <line x1="267.4" y1="831.5" x2="267.4" y2="861.5"
                style="fill:#a5d6a7; stroke:#444; stroke-width:1" />
             
                <title>function dfs(r, c)</title>
            <text x="112" y="851.5"
                font-family="monospace" font-size="13" fill="#222">
                <tspan x="112" y="851.5">function dfs(r, c)</tspan>
            </text>
                
            </g>
                <g>
                   <rect x="124" y="880"
            width="256.2" height="30"
            rx="3" ry="3"
            style="fill:#90caf9; stroke:#444; stroke-width:1" />
                   <title>visited[r * width + c] = true</title>
            <text x="139" y="900"
                font-family="monospace" font-size="13" fill="#222">
                <tspan x="139" y="900">visited[r * width + c] = true</tspan>
            </text>
                   
                   
                </g>
                <g>
                   <rect x="124" y="928.5"
            width="256.2" height="30"
            rx="3" ry="3"
            style="fill:#90caf9; stroke:#444; stroke-width:1" />
                   <title>let dr = [r - 1, r + 1, r, r]</title>
            <text x="139" y="948.5"
                font-family="monospace" font-size="13" fill="#222">
                <tspan x="139" y="948.5">let dr = [r - 1, r + 1, r, r]</tspan>
            </text>
                   
                   
                </g>
                <g>
                   <rect x="124" y="977"
            width="256.2" height="30"
            rx="3" ry="3"
            style="fill:#90caf9; stroke:#444; stroke-width:1" />
                   <title>let dc = [c, c, c - 1, c + 1]</title>
            <text x="139" y="997"
                font-family="monospace" font-size="13" fill="#222">
                <tspan x="139" y="997">let dc = [c, c, c - 1, c + 1]</tspan>
            </text>
                   
                   
                </g><g>

            <rect x="154" y="1060.5"
            width="99" height="30"
            rx="3" ry="3"
            style="fill:#b39ddb; stroke:#444; stroke-width:1" />
            <polygon points="124,1075.5 154,1045.5 184,1075.5 154,1105.5"
            style="fill:#b39ddb; stroke:#444; stroke-width:1" />
                
            <title>i &lt; 4</title>
            <text x="199" y="1080.5"
                font-family="monospace" font-size="13" fill="#222">
                <tspan x="199" y="1080.5">i &lt; 4</tspan>
            </text>
            
            <text x="142.3" y="1080.5"
        font-family="monospace" font-size="13" fill="#222">for</text>
        </g>
                <g>
                   <rect x="174" y="1115.5"
            width="53.4" height="30"
            rx="3" ry="3"
            style="fill:#90caf9; stroke:#444; stroke-width:1" />
                   <title>i++</title>
            <text x="189" y="1135.5"
                font-family="monospace" font-size="13" fill="#222">
                <tspan x="189" y="1135.5">i++</tspan>
            </text>
                   
                   
                </g><g>
            <rect x="204" y="1179"
            width="473.4" height="30"
            rx="3" ry="3"
            style="fill:#ce93d8; stroke:#444; stroke-width:1" />                
            <polygon points="174,1194 204,1164 234,1194 204,1224"
            style="fill:#ce93d8; stroke:#444; stroke-width:1" />
            <title>(dr[i] &gt;= 0 &amp;&amp; dr[i] &lt; height &amp;&amp; dc[i] &gt;= 0 &amp;&amp; dc[i] &lt; width &amp;&amp; grid[dr[i]][dc[i]] === 1 &amp;&amp; !visited[dr[i] * width + dc[i]])</title>
            <text x="249" y="1199"
                font-family="monospace" font-size="13" fill="#222">
                <tspan x="249" y="1199">(dr[i] &gt;= 0 &amp;&amp; dr[i] &lt; height &amp;&amp; dc[i] &gt;= 0 &amp;&amp; dc[...</tspan>
            </text>
            
            <text x="196.2" y="1199"
        font-family="monospace" font-size="13" fill="#222">if</text> <text x="211.8" y="1225.95"
        font-family="monospace" font-size="13" fill="#222">+</text> 
        </g>
                <g>
                   <rect x="224" y="1234"
            width="162.6" height="30"
            rx="2" ry="2"
            style="fill:#C5E1A5; stroke:#444; stroke-width:1" />
                   <title>dfs(dr[i], dc[i])</title>
            <text x="239" y="1254"
                font-family="monospace" font-size="13" fill="#222">
                <tspan x="239" y="1254">dfs(dr[i], dc[i])</tspan>
            </text>
                   
                   
                </g>
            <g>
                <rect x="124" y="1284"
            width="76.8" height="30"
            rx="3" ry="3"
            style="fill:#90caf9; stroke:#444; stroke-width:1" />
                
                <line x1="200.8" y1="1294" x2="205.8" y2="1294"
                style="fill:#a5d6a7; stroke:#444; stroke-width:1" />
                
                <line x1="200.8" y1="1304" x2="205.8" y2="1304"
                style="fill:#a5d6a7; stroke:#444; stroke-width:1" />

                <path d="M205.8, 1288 L221.8, 1299 L205.8, 1310 Z" 
        fill="#a5d6a7" stroke="#444" stroke-width="1" />
                             
                <title>return</title>
            <text x="139" y="1304"
                font-family="monospace" font-size="13" fill="#222">
                <tspan x="139" y="1304">return</tspan>
            </text>
                
            </g>
            <g>
                <rect x="87" y="1332.5"
            width="123.6" height="30"
            rx="3" ry="3"
            style="fill:#90caf9; stroke:#444; stroke-width:1" />
                
                <line x1="210.6" y1="1342.5" x2="215.6" y2="1342.5"
                style="fill:#a5d6a7; stroke:#444; stroke-width:1" />
                
                <line x1="210.6" y1="1352.5" x2="215.6" y2="1352.5"
                style="fill:#a5d6a7; stroke:#444; stroke-width:1" />

                <path d="M215.6, 1336.5 L231.6, 1347.5 L215.6, 1358.5 Z" 
        fill="#a5d6a7" stroke="#444" stroke-width="1" />
                             
                <title>return count</title>
            <text x="102" y="1352.5"
                font-family="monospace" font-size="13" fill="#222">
                <tspan x="102" y="1352.5">return count</tspan>
            </text>
                
            </g>
                <g>
                   <rect x="50" y="1381"
            width="256.2" height="30"
            rx="2" ry="2"
            style="fill:#C5E1A5; stroke:#444; stroke-width:1" />
                   <title>console.log(numIslands([[]]))</title>
            <text x="65" y="1401"
                font-family="monospace" font-size="13" fill="#222">
                <tspan x="65" y="1401">console.log(numIslands([[]]))</tspan>
            </text>
                   
                   
                </g>
                <g>
                   <rect x="50" y="1429.5"
            width="443.4" height="30"
            rx="2" ry="2"
            style="fill:#C5E1A5; stroke:#444; stroke-width:1" />
                   <title>console.log(numIslands([[1, 1, 1, 0, 0], [0, 0, 1, 0, 0], [0, 0, 0, 1, 1]]))</title>
            <text x="65" y="1449.5"
                font-family="monospace" font-size="13" fill="#222">
                <tspan x="65" y="1449.5">console.log(numIslands([[1, 1, 1, 0, 0], [0, 0, 1,...</tspan>
            </text>
                   
                   
                </g>
            <g>
               <rect x="25" y="13.75"
            width="216.6" height="24"
            style="fill:#fff59d; stroke:#444; stroke-width:1" />
               <circle cx="25" cy="25" r="15"
        style="fill:#fff59d; stroke:#444; stroke-width:1" />
               <title>Program: source module</title>
            <text x="55" y="30"
                font-family="monospace" font-size="13" fill="#222">
                <tspan x="55" y="30">Program: source module</tspan>
            </text>
            </g>
            <g>
               <path d="M25, 40 L25 91 Q25 95
                29 95
                L42 95 "
        style="fill:none; stroke:#444; stroke-width:1" />
               <path d="M42, 92 L50, 95 L42, 98 Z" 
        fill="#333" />
            </g>
            <g>
               <path d="M68.5, 110 L68.5 139.5 Q68.5 143.5
                72.5 143.5
                L79 143.5 "
        style="fill:none; stroke:#444; stroke-width:1" />
               <path d="M79, 140.5 L87, 143.5 L79, 146.5 Z" 
        fill="#333" />
            </g>
            <g>
               <path d="M68.5, 110 L68.5 188 Q68.5 192
                72.5 192
                L79 192 "
        style="fill:none; stroke:#444; stroke-width:1" />
               <path d="M79, 189 L87, 192 L79, 195 Z" 
        fill="#333" />
            </g>
            <g>
               <path d="M68.5, 110 L68.5 236.5 Q68.5 240.5
                72.5 240.5
                L79 240.5 "
        style="fill:none; stroke:#444; stroke-width:1" />
               <path d="M79, 237.5 L87, 240.5 L79, 243.5 Z" 
        fill="#333" />
            </g>
            <g>
               <path d="M68.5, 110 L68.5 285 Q68.5 289
                72.5 289
                L79 289 "
        style="fill:none; stroke:#444; stroke-width:1" />
               <path d="M79, 286 L87, 289 L79, 292 Z" 
        fill="#333" />
            </g>
            <g>
               <path d="M68.5, 110 L68.5 368.5 Q68.5 372.5
                72.5 372.5
                L79 372.5 "
        style="fill:none; stroke:#444; stroke-width:1" />
               <path d="M79, 369.5 L87, 372.5 L79, 375.5 Z" 
        fill="#333" />
            </g>
            <g>
               <path d="M117, 402.5 L117 423.5 Q117 427.5
                121 427.5
                L129 427.5 "
        style="fill:none; stroke:#444; stroke-width:1" />
               <path d="M129, 424.5 L137, 427.5 L129, 430.5 Z" 
        fill="#333" />
            </g>
            <g>
               <path d="M117, 402.5 L117 507 Q117 511
                121 511
                L129 511 "
        style="fill:none; stroke:#444; stroke-width:1" />
               <path d="M129, 508 L137, 511 L129, 514 Z" 
        fill="#333" />
            </g>
            <g>
               <path d="M167, 541 L167 562 Q167 566
                171 566
                L179 566 "
        style="fill:none; stroke:#444; stroke-width:1" />
               <path d="M179, 563 L187, 566 L179, 569 Z" 
        fill="#333" />
            </g>
            <g>
               <path d="M167, 541 L167 610.5 Q167 614.5
                171 614.5
                L179 614.5 "
        style="fill:none; stroke:#444; stroke-width:1" />
               <path d="M179, 611.5 L187, 614.5 L179, 617.5 Z" 
        fill="#333" />
            </g>
            <g>
               <path d="M167, 541 L167 674 Q167 678
                171 678
                L179 678 "
        style="fill:none; stroke:#444; stroke-width:1" />
               <path d="M179, 675 L187, 678 L179, 681 Z" 
        fill="#333" />
            </g>
            <g>
               <path d="M217, 708 L217 729 Q217 733
                221 733
                L229 733 "
        style="fill:none; stroke:#444; stroke-width:1" />
               <path d="M229, 730 L237, 733 L229, 736 Z" 
        fill="#333" />
            </g>
            <g>
               <path d="M217, 708 L217 777.5 Q217 781.5
                221 781.5
                L229 781.5 "
        style="fill:none; stroke:#444; stroke-width:1" />
               <path d="M229, 778.5 L237, 781.5 L229, 784.5 Z" 
        fill="#333" />
            </g>
            <g>
               <path d="M337.2, 781.5 L644 781.5  Q648 781.5
                648 777.5
                L648 469 Q648 461
                644 461
                L175 461  Q167 461
                167 465
                L167 473"
        style="fill:none; stroke:#444; stroke-width:1" />
               <path d="M164, 473 L167, 481 L170, 473 Z" 
        fill="#333" />
            </g>
            <g>
               <path d="M337.2, 781.5 L644 781.5  Q648 781.5
                648 777.5
                L648 330.5 Q648 322.5
                644 322.5
                L125 322.5  Q117 322.5
                117 326.5
                L117 334.5"
        style="fill:none; stroke:#444; stroke-width:1" />
               <path d="M114, 334.5 L117, 342.5 L120, 334.5 Z" 
        fill="#333" />
            </g>
            <g>
               <path d="M68.5, 110 L68.5 842.5 Q68.5 846.5
                72.5 846.5
                L79 846.5 "
        style="fill:none; stroke:#444; stroke-width:1" />
               <path d="M79, 843.5 L87, 846.5 L79, 849.5 Z" 
        fill="#333" />
            </g>
            <g>
               <path d="M105.5, 861.5 L105.5 891 Q105.5 895
                109.5 895
                L116 895 "
        style="fill:none; stroke:#444; stroke-width:1" />
               <path d="M116, 892 L124, 895 L116, 898 Z" 
        fill="#333" />
            </g>
            <g>
               <path d="M105.5, 861.5 L105.5 939.5 Q105.5 943.5
                109.5 943.5
                L116 943.5 "
        style="fill:none; stroke:#444; stroke-width:1" />
               <path d="M116, 940.5 L124, 943.5 L116, 946.5 Z" 
        fill="#333" />
            </g>
            <g>
               <path d="M105.5, 861.5 L105.5 988 Q105.5 992
                109.5 992
                L116 992 "
        style="fill:none; stroke:#444; stroke-width:1" />
               <path d="M116, 989 L124, 992 L116, 995 Z" 
        fill="#333" />
            </g>
            <g>
               <path d="M105.5, 861.5 L105.5 1071.5 Q105.5 1075.5
                109.5 1075.5
                L116 1075.5 "
        style="fill:none; stroke:#444; stroke-width:1" />
               <path d="M116, 1072.5 L124, 1075.5 L116, 1078.5 Z" 
        fill="#333" />
            </g>
            <g>
               <path d="M154, 1105.5 L154 1126.5 Q154 1130.5
                158 1130.5
                L166 1130.5 "
        style="fill:none; stroke:#444; stroke-width:1" />
               <path d="M166, 1127.5 L174, 1130.5 L166, 1133.5 Z" 
        fill="#333" />
            </g>
            <g>
               <path d="M154, 1105.5 L154 1190 Q154 1194
                158 1194
                L166 1194 "
        style="fill:none; stroke:#444; stroke-width:1" />
               <path d="M166, 1191 L174, 1194 L166, 1197 Z" 
        fill="#333" />
            </g>
            <g>
               <path d="M204, 1224 L204 1245 Q204 1249
                208 1249
                L216 1249 "
        style="fill:none; stroke:#444; stroke-width:1" />
               <path d="M216, 1246 L224, 1249 L216, 1252 Z" 
        fill="#333" />
            </g>
            <g>
               <path d="M386.6, 1249 L693.4 1249  Q697.4 1249
                697.4 1245
                L697.4 1033.5 Q697.4 1025.5
                693.4 1025.5
                L162 1025.5  Q154 1025.5
                154 1029.5
                L154 1037.5"
        style="fill:none; stroke:#444; stroke-width:1" />
               <path d="M151, 1037.5 L154, 1045.5 L157, 1037.5 Z" 
        fill="#333" />
            </g>
            <g>
               <path d="M105.5, 861.5 L105.5 1295 Q105.5 1299
                109.5 1299
                L116 1299 "
        style="fill:none; stroke:#444; stroke-width:1" />
               <path d="M116, 1296 L124, 1299 L116, 1302 Z" 
        fill="#333" />
            </g>
            <g>
               <path d="M68.5, 110 L68.5 1343.5 Q68.5 1347.5
                72.5 1347.5
                L79 1347.5 "
        style="fill:none; stroke:#444; stroke-width:1" />
               <path d="M79, 1344.5 L87, 1347.5 L79, 1350.5 Z" 
        fill="#333" />
            </g>
            <g>
               <path d="M25, 40 L25 1392 Q25 1396
                29 1396
                L42 1396 "
        style="fill:none; stroke:#444; stroke-width:1" />
               <path d="M42, 1393 L50, 1396 L42, 1399 Z" 
        fill="#333" />
            </g>
            <g>
               <path d="M25, 40 L25 1440.5 Q25 1444.5
                29 1444.5
                L42 1444.5 "
        style="fill:none; stroke:#444; stroke-width:1" />
               <path d="M42, 1441.5 L50, 1444.5 L42, 1447.5 Z" 
        fill="#333" />
            </g>
            </svg>