<!DOCTYPE svg PUBLIC "-//W3C//DTD SVG 1.1//EN" "http://www.w3.org/Graphics/SVG/1.1/DTD/svg11.dtd">
                <svg xmlns="http://www.w3.org/2000/svg" xmlns:xlink="http://www.w3.org/1999/xlink" 
                width="469" height="872">
                
            <g>
                <rect x="50" y="80"
            width="237.2" height="30"
            style="fill:#a5d6a7; stroke:#444; stroke-width:1" />
                    
                <line x1="60" y1="80" x2="60" y2="110"
                style="fill:#a5d6a7; stroke:#444; stroke-width:1" />
                <line x1="277.2" y1="80" x2="277.2" y2="110"
                style="fill:#a5d6a7; stroke:#444; stroke-width:1" />
             
                <title>permute = function(nums)</title>
            <text x="75" y="100"
                font-family="monospace" font-size="13" fill="#222">
                <tspan x="75" y="100">permute = function(nums)</tspan>
            </text>
                
            </g><g>
            <rect x="117" y="143.5"
            width="200.4" height="30"
            rx="3" ry="3"
            style="fill:#ce93d8; stroke:#444; stroke-width:1" />                
            <polygon points="87,158.5 117,128.5 147,158.5 117,188.5"
            style="fill:#ce93d8; stroke:#444; stroke-width:1" />
            <title>(nums.length &lt;= 1)</title>
            <text x="162" y="163.5"
                font-family="monospace" font-size="13" fill="#222">
                <tspan x="162" y="163.5">(nums.length &lt;= 1)</tspan>
            </text>
            
            <text x="109.2" y="163.5"
        font-family="monospace" font-size="13" fill="#222">if</text> <text x="124.8" y="190.45"
        font-family="monospace" font-size="13" fill="#222">+</text> 
        </g>
            <g>
                <rect x="137" y="198.5"
            width="131.39999999999998" height="30"
            rx="3" ry="3"
            style="fill:#90caf9; stroke:#444; stroke-width:1" />
                
                <line x1="268.4" y1="208.5" x2="273.4" y2="208.5"
                style="fill:#a5d6a7; stroke:#444; stroke-width:1" />
                
                <line x1="268.4" y1="218.5" x2="273.4" y2="218.5"
                style="fill:#a5d6a7; stroke:#444; stroke-width:1" />

                <path d="M273.4, 202.5 L289.4, 213.5 L273.4, 224.5 Z" 
        fill="#a5d6a7" stroke="#444" stroke-width="1" />
                             
                <title>return [nums]</title>
            <text x="152" y="218.5"
                font-family="monospace" font-size="13" fill="#222">
                <tspan x="152" y="218.5">return [nums]</tspan>
            </text>
                
            </g>
                <g>
                   <rect x="87" y="248.5"
            width="123.6" height="30"
            rx="3" ry="3"
            style="fill:#90caf9; stroke:#444; stroke-width:1" />
                   <title>let res = []</title>
            <text x="102" y="268.5"
                font-family="monospace" font-size="13" fill="#222">
                <tspan x="102" y="268.5">let res = []</tspan>
            </text>
                   
                   
                </g>
                <g>
                   <rect x="87" y="297"
            width="193.79999999999998" height="30"
            rx="3" ry="3"
            style="fill:#90caf9; stroke:#444; stroke-width:1" />
                   <title>let last = nums.pop()</title>
            <text x="102" y="317"
                font-family="monospace" font-size="13" fill="#222">
                <tspan x="102" y="317">let last = nums.pop()</tspan>
            </text>
                   
                   
                </g>
                <g>
                   <rect x="87" y="345.5"
            width="256.2" height="30"
            rx="3" ry="3"
            style="fill:#90caf9; stroke:#444; stroke-width:1" />
                   <title>let prevPerms = permute(nums)</title>
            <text x="102" y="365.5"
                font-family="monospace" font-size="13" fill="#222">
                <tspan x="102" y="365.5">let prevPerms = permute(nums)</tspan>
            </text>
                   
                   
                </g><g>

            <rect x="117" y="429"
            width="231.60000000000002" height="30"
            rx="3" ry="3"
            style="fill:#b39ddb; stroke:#444; stroke-width:1" />
            <polygon points="87,444 117,414 147,444 117,474"
            style="fill:#b39ddb; stroke:#444; stroke-width:1" />
                
            <title> prevPerm of prevPerms</title>
            <text x="162" y="449"
                font-family="monospace" font-size="13" fill="#222">
                <tspan x="162" y="449"> prevPerm of prevPerms</tspan>
            </text>
            
            <text x="105.3" y="449"
        font-family="monospace" font-size="13" fill="#222">for</text>
        </g><g>

            <rect x="167" y="519"
            width="216" height="30"
            rx="3" ry="3"
            style="fill:#b39ddb; stroke:#444; stroke-width:1" />
            <polygon points="137,534 167,504 197,534 167,564"
            style="fill:#b39ddb; stroke:#444; stroke-width:1" />
                
            <title>i &lt;= prevPerm.length</title>
            <text x="212" y="539"
                font-family="monospace" font-size="13" fill="#222">
                <tspan x="212" y="539">i &lt;= prevPerm.length</tspan>
            </text>
            
            <text x="155.3" y="539"
        font-family="monospace" font-size="13" fill="#222">for</text>
        </g>
                <g>
                   <rect x="187" y="574"
            width="53.4" height="30"
            rx="3" ry="3"
            style="fill:#90caf9; stroke:#444; stroke-width:1" />
                   <title>i++</title>
            <text x="202" y="594"
                font-family="monospace" font-size="13" fill="#222">
                <tspan x="202" y="594">i++</tspan>
            </text>
                   
                   
                </g>
                <g>
                   <rect x="187" y="622.5"
            width="256.2" height="30"
            rx="3" ry="3"
            style="fill:#90caf9; stroke:#444; stroke-width:1" />
                   <title>let clone = prevPerm.slice(0)</title>
            <text x="202" y="642.5"
                font-family="monospace" font-size="13" fill="#222">
                <tspan x="202" y="642.5">let clone = prevPerm.slice(0)</tspan>
            </text>
                   
                   
                </g>
                <g>
                   <rect x="187" y="671"
            width="217.2" height="30"
            rx="2" ry="2"
            style="fill:#C5E1A5; stroke:#444; stroke-width:1" />
                   <title>clone.splice(i, 0, last)</title>
            <text x="202" y="691"
                font-family="monospace" font-size="13" fill="#222">
                <tspan x="202" y="691">clone.splice(i, 0, last)</tspan>
            </text>
                   
                   
                </g>
                <g>
                   <rect x="187" y="719.5"
            width="147" height="30"
            rx="2" ry="2"
            style="fill:#C5E1A5; stroke:#444; stroke-width:1" />
                   <title>res.push(clone)</title>
            <text x="202" y="739.5"
                font-family="monospace" font-size="13" fill="#222">
                <tspan x="202" y="739.5">res.push(clone)</tspan>
            </text>
                   
                   
                </g>
            <g>
                <rect x="87" y="768"
            width="108" height="30"
            rx="3" ry="3"
            style="fill:#90caf9; stroke:#444; stroke-width:1" />
                
                <line x1="195" y1="778" x2="200" y2="778"
                style="fill:#a5d6a7; stroke:#444; stroke-width:1" />
                
                <line x1="195" y1="788" x2="200" y2="788"
                style="fill:#a5d6a7; stroke:#444; stroke-width:1" />

                <path d="M200, 772 L216, 783 L200, 794 Z" 
        fill="#a5d6a7" stroke="#444" stroke-width="1" />
                             
                <title>return res</title>
            <text x="102" y="788"
                font-family="monospace" font-size="13" fill="#222">
                <tspan x="102" y="788">return res</tspan>
            </text>
                
            </g>
                <g>
                   <rect x="50" y="816.5"
            width="271.79999999999995" height="30"
            rx="2" ry="2"
            style="fill:#C5E1A5; stroke:#444; stroke-width:1" />
                   <title>console.log(permute([1, 2, 3]))</title>
            <text x="65" y="836.5"
                font-family="monospace" font-size="13" fill="#222">
                <tspan x="65" y="836.5">console.log(permute([1, 2, 3]))</tspan>
            </text>
                   
                   
                </g>
            <g>
               <rect x="25" y="13.75"
            width="216.6" height="24"
            style="fill:#fff59d; stroke:#444; stroke-width:1" />
               <circle cx="25" cy="25" r="15"
        style="fill:#fff59d; stroke:#444; stroke-width:1" />
               <title>Program: source module</title>
            <text x="55" y="30"
                font-family="monospace" font-size="13" fill="#222">
                <tspan x="55" y="30">Program: source module</tspan>
            </text>
            </g>
            <g>
               <path d="M25, 40 L25 91 Q25 95
                29 95
                L42 95 "
        style="fill:none; stroke:#444; stroke-width:1" />
               <path d="M42, 92 L50, 95 L42, 98 Z" 
        fill="#333" />
            </g>
            <g>
               <path d="M68.5, 110 L68.5 154.5 Q68.5 158.5
                72.5 158.5
                L79 158.5 "
        style="fill:none; stroke:#444; stroke-width:1" />
               <path d="M79, 155.5 L87, 158.5 L79, 161.5 Z" 
        fill="#333" />
            </g>
            <g>
               <path d="M117, 188.5 L117 209.5 Q117 213.5
                121 213.5
                L129 213.5 "
        style="fill:none; stroke:#444; stroke-width:1" />
               <path d="M129, 210.5 L137, 213.5 L129, 216.5 Z" 
        fill="#333" />
            </g>
            <g>
               <path d="M68.5, 110 L68.5 259.5 Q68.5 263.5
                72.5 263.5
                L79 263.5 "
        style="fill:none; stroke:#444; stroke-width:1" />
               <path d="M79, 260.5 L87, 263.5 L79, 266.5 Z" 
        fill="#333" />
            </g>
            <g>
               <path d="M68.5, 110 L68.5 308 Q68.5 312
                72.5 312
                L79 312 "
        style="fill:none; stroke:#444; stroke-width:1" />
               <path d="M79, 309 L87, 312 L79, 315 Z" 
        fill="#333" />
            </g>
            <g>
               <path d="M68.5, 110 L68.5 356.5 Q68.5 360.5
                72.5 360.5
                L79 360.5 "
        style="fill:none; stroke:#444; stroke-width:1" />
               <path d="M79, 357.5 L87, 360.5 L79, 363.5 Z" 
        fill="#333" />
            </g>
            <g>
               <path d="M68.5, 110 L68.5 440 Q68.5 444
                72.5 444
                L79 444 "
        style="fill:none; stroke:#444; stroke-width:1" />
               <path d="M79, 441 L87, 444 L79, 447 Z" 
        fill="#333" />
            </g>
            <g>
               <path d="M117, 474 L117 530 Q117 534
                121 534
                L129 534 "
        style="fill:none; stroke:#444; stroke-width:1" />
               <path d="M129, 531 L137, 534 L129, 537 Z" 
        fill="#333" />
            </g>
            <g>
               <path d="M167, 564 L167 585 Q167 589
                171 589
                L179 589 "
        style="fill:none; stroke:#444; stroke-width:1" />
               <path d="M179, 586 L187, 589 L179, 592 Z" 
        fill="#333" />
            </g>
            <g>
               <path d="M167, 564 L167 633.5 Q167 637.5
                171 637.5
                L179 637.5 "
        style="fill:none; stroke:#444; stroke-width:1" />
               <path d="M179, 634.5 L187, 637.5 L179, 640.5 Z" 
        fill="#333" />
            </g>
            <g>
               <path d="M167, 564 L167 682 Q167 686
                171 686
                L179 686 "
        style="fill:none; stroke:#444; stroke-width:1" />
               <path d="M179, 683 L187, 686 L179, 689 Z" 
        fill="#333" />
            </g>
            <g>
               <path d="M167, 564 L167 730.5 Q167 734.5
                171 734.5
                L179 734.5 "
        style="fill:none; stroke:#444; stroke-width:1" />
               <path d="M179, 731.5 L187, 734.5 L179, 737.5 Z" 
        fill="#333" />
            </g>
            <g>
               <path d="M334, 734.5 L459.2 734.5  Q463.2 734.5
                463.2 730.5
                L463.2 492 Q463.2 484
                459.2 484
                L175 484  Q167 484
                167 488
                L167 496"
        style="fill:none; stroke:#444; stroke-width:1" />
               <path d="M164, 496 L167, 504 L170, 496 Z" 
        fill="#333" />
            </g>
            <g>
               <path d="M334, 734.5 L459.2 734.5  Q463.2 734.5
                463.2 730.5
                L463.2 402 Q463.2 394
                459.2 394
                L125 394  Q117 394
                117 398
                L117 406"
        style="fill:none; stroke:#444; stroke-width:1" />
               <path d="M114, 406 L117, 414 L120, 406 Z" 
        fill="#333" />
            </g>
            <g>
               <path d="M68.5, 110 L68.5 779 Q68.5 783
                72.5 783
                L79 783 "
        style="fill:none; stroke:#444; stroke-width:1" />
               <path d="M79, 780 L87, 783 L79, 786 Z" 
        fill="#333" />
            </g>
            <g>
               <path d="M25, 40 L25 827.5 Q25 831.5
                29 831.5
                L42 831.5 "
        style="fill:none; stroke:#444; stroke-width:1" />
               <path d="M42, 828.5 L50, 831.5 L42, 834.5 Z" 
        fill="#333" />
            </g>
            </svg>