<!DOCTYPE svg PUBLIC "-//W3C//DTD SVG 1.1//EN" "http://www.w3.org/Graphics/SVG/1.1/DTD/svg11.dtd">
                <svg xmlns="http://www.w3.org/2000/svg" xmlns:xlink="http://www.w3.org/1999/xlink" 
                width="732" height="588">
                
            <g>
                <rect x="50" y="80"
            width="291.79999999999995" height="30"
            style="fill:#a5d6a7; stroke:#444; stroke-width:1" />
                    
                <line x1="60" y1="80" x2="60" y2="110"
                style="fill:#a5d6a7; stroke:#444; stroke-width:1" />
                <line x1="331.79999999999995" y1="80" x2="331.79999999999995" y2="110"
                style="fill:#a5d6a7; stroke:#444; stroke-width:1" />
             
                <title>function removeDuplicates(nums)</title>
            <text x="75" y="100"
                font-family="monospace" font-size="13" fill="#222">
                <tspan x="75" y="100">function removeDuplicates(nums)</tspan>
            </text>
                
            </g>
                <g>
                   <rect x="87" y="128.5"
            width="123.6" height="30"
            rx="3" ry="3"
            style="fill:#90caf9; stroke:#444; stroke-width:1" />
                   <title>let slow = 0</title>
            <text x="102" y="148.5"
                font-family="monospace" font-size="13" fill="#222">
                <tspan x="102" y="148.5">let slow = 0</tspan>
            </text>
                   
                   
                </g>
                <g>
                   <rect x="87" y="177"
            width="123.6" height="30"
            rx="3" ry="3"
            style="fill:#90caf9; stroke:#444; stroke-width:1" />
                   <title>let fast = 0</title>
            <text x="102" y="197"
                font-family="monospace" font-size="13" fill="#222">
                <tspan x="102" y="197">let fast = 0</tspan>
            </text>
                   
                   
                </g><g>

            <rect x="117" y="260.5"
            width="200.4" height="30"
            rx="3" ry="3"
            style="fill:#b39ddb; stroke:#444; stroke-width:1" />
            <polygon points="87,275.5 117,245.5 147,275.5 117,305.5"
            style="fill:#b39ddb; stroke:#444; stroke-width:1" />
                
            <title>fast &lt; nums.length</title>
            <text x="162" y="280.5"
                font-family="monospace" font-size="13" fill="#222">
                <tspan x="162" y="280.5">fast &lt; nums.length</tspan>
            </text>
            
            <text x="97.5" y="280.5"
        font-family="monospace" font-size="13" fill="#222">while</text>
        </g><g>
            <rect x="167" y="330.5"
            width="270.6" height="30"
            rx="3" ry="3"
            style="fill:#ce93d8; stroke:#444; stroke-width:1" />                
            <polygon points="137,345.5 167,315.5 197,345.5 167,375.5"
            style="fill:#ce93d8; stroke:#444; stroke-width:1" />
            <title>(nums[slow] === nums[fast])</title>
            <text x="212" y="350.5"
                font-family="monospace" font-size="13" fill="#222">
                <tspan x="212" y="350.5">(nums[slow] === nums[fast])</tspan>
            </text>
            
            <text x="159.2" y="350.5"
        font-family="monospace" font-size="13" fill="#222">if</text> <text x="174.8" y="377.45"
        font-family="monospace" font-size="13" fill="#222">+</text> <text x="441.5" y="343.55"
        font-family="monospace" font-size="13" fill="#222">-</text>
        </g>
                <g>
                   <rect x="187" y="385.5"
            width="76.8" height="30"
            rx="3" ry="3"
            style="fill:#90caf9; stroke:#444; stroke-width:1" />
                   <title>fast++</title>
            <text x="202" y="405.5"
                font-family="monospace" font-size="13" fill="#222">
                <tspan x="202" y="405.5">fast++</tspan>
            </text>
                   
                   
                </g>
                <g>
                   <rect x="497.6" y="385.5"
            width="76.8" height="30"
            rx="3" ry="3"
            style="fill:#90caf9; stroke:#444; stroke-width:1" />
                   <title>slow++</title>
            <text x="512.6" y="405.5"
                font-family="monospace" font-size="13" fill="#222">
                <tspan x="512.6" y="405.5">slow++</tspan>
            </text>
                   
                   
                </g>
                <g>
                   <rect x="497.6" y="434"
            width="209.4" height="30"
            rx="3" ry="3"
            style="fill:#90caf9; stroke:#444; stroke-width:1" />
                   <title>nums[slow] = nums[fast]</title>
            <text x="512.6" y="454"
                font-family="monospace" font-size="13" fill="#222">
                <tspan x="512.6" y="454">nums[slow] = nums[fast]</tspan>
            </text>
                   
                   
                </g>
                <g>
                   <rect x="497.6" y="482.5"
            width="76.8" height="30"
            rx="3" ry="3"
            style="fill:#90caf9; stroke:#444; stroke-width:1" />
                   <title>fast++</title>
            <text x="512.6" y="502.5"
                font-family="monospace" font-size="13" fill="#222">
                <tspan x="512.6" y="502.5">fast++</tspan>
            </text>
                   
                   
                </g>
            <g>
                <rect x="87" y="532.5"
            width="147" height="30"
            rx="3" ry="3"
            style="fill:#90caf9; stroke:#444; stroke-width:1" />
                
                <line x1="234" y1="542.5" x2="239" y2="542.5"
                style="fill:#a5d6a7; stroke:#444; stroke-width:1" />
                
                <line x1="234" y1="552.5" x2="239" y2="552.5"
                style="fill:#a5d6a7; stroke:#444; stroke-width:1" />

                <path d="M239, 536.5 L255, 547.5 L239, 558.5 Z" 
        fill="#a5d6a7" stroke="#444" stroke-width="1" />
                             
                <title>return slow + 1</title>
            <text x="102" y="552.5"
                font-family="monospace" font-size="13" fill="#222">
                <tspan x="102" y="552.5">return slow + 1</tspan>
            </text>
                
            </g>
            <g>
               <rect x="25" y="13.75"
            width="216.6" height="24"
            style="fill:#fff59d; stroke:#444; stroke-width:1" />
               <circle cx="25" cy="25" r="15"
        style="fill:#fff59d; stroke:#444; stroke-width:1" />
               <title>Program: source module</title>
            <text x="55" y="30"
                font-family="monospace" font-size="13" fill="#222">
                <tspan x="55" y="30">Program: source module</tspan>
            </text>
            </g>
            <g>
               <path d="M25, 40 L25 91 Q25 95
                29 95
                L42 95 "
        style="fill:none; stroke:#444; stroke-width:1" />
               <path d="M42, 92 L50, 95 L42, 98 Z" 
        fill="#333" />
            </g>
            <g>
               <path d="M68.5, 110 L68.5 139.5 Q68.5 143.5
                72.5 143.5
                L79 143.5 "
        style="fill:none; stroke:#444; stroke-width:1" />
               <path d="M79, 140.5 L87, 143.5 L79, 146.5 Z" 
        fill="#333" />
            </g>
            <g>
               <path d="M68.5, 110 L68.5 188 Q68.5 192
                72.5 192
                L79 192 "
        style="fill:none; stroke:#444; stroke-width:1" />
               <path d="M79, 189 L87, 192 L79, 195 Z" 
        fill="#333" />
            </g>
            <g>
               <path d="M68.5, 110 L68.5 271.5 Q68.5 275.5
                72.5 275.5
                L79 275.5 "
        style="fill:none; stroke:#444; stroke-width:1" />
               <path d="M79, 272.5 L87, 275.5 L79, 278.5 Z" 
        fill="#333" />
            </g>
            <g>
               <path d="M117, 305.5 L117 341.5 Q117 345.5
                121 345.5
                L129 345.5 "
        style="fill:none; stroke:#444; stroke-width:1" />
               <path d="M129, 342.5 L137, 345.5 L129, 348.5 Z" 
        fill="#333" />
            </g>
            <g>
               <path d="M167, 375.5 L167 396.5 Q167 400.5
                171 400.5
                L179 400.5 "
        style="fill:none; stroke:#444; stroke-width:1" />
               <path d="M179, 397.5 L187, 400.5 L179, 403.5 Z" 
        fill="#333" />
            </g>
            <g>
               <path d="M437.6, 345.5 L473.6 345.5  Q477.6 345.5
                477.6 349.5
                L477.6 392.5 Q477.6 400.5
                481.6 400.5
                L489.6 400.5 "
        style="fill:none; stroke:#444; stroke-width:1" />
               <path d="M489.6, 397.5 L497.6, 400.5 L489.6, 403.5 Z" 
        fill="#333" />
            </g>
            <g>
               <path d="M437.6, 345.5 L473.6 345.5  Q477.6 345.5
                477.6 349.5
                L477.6 441 Q477.6 449
                481.6 449
                L489.6 449 "
        style="fill:none; stroke:#444; stroke-width:1" />
               <path d="M489.6, 446 L497.6, 449 L489.6, 452 Z" 
        fill="#333" />
            </g>
            <g>
               <path d="M437.6, 345.5 L473.6 345.5  Q477.6 345.5
                477.6 349.5
                L477.6 489.5 Q477.6 497.5
                481.6 497.5
                L489.6 497.5 "
        style="fill:none; stroke:#444; stroke-width:1" />
               <path d="M489.6, 494.5 L497.6, 497.5 L489.6, 500.5 Z" 
        fill="#333" />
            </g>
            <g>
               <path d="M574.4, 497.5 L723 497.5  Q727 497.5
                727 493.5
                L727 233.5 Q727 225.5
                723 225.5
                L125 225.5  Q117 225.5
                117 229.5
                L117 237.5"
        style="fill:none; stroke:#444; stroke-width:1" />
               <path d="M114, 237.5 L117, 245.5 L120, 237.5 Z" 
        fill="#333" />
            </g>
            <g>
               <path d="M68.5, 110 L68.5 543.5 Q68.5 547.5
                72.5 547.5
                L79 547.5 "
        style="fill:none; stroke:#444; stroke-width:1" />
               <path d="M79, 544.5 L87, 547.5 L79, 550.5 Z" 
        fill="#333" />
            </g>
            </svg>