<!DOCTYPE svg PUBLIC "-//W3C//DTD SVG 1.1//EN" "http://www.w3.org/Graphics/SVG/1.1/DTD/svg11.dtd">
                <svg xmlns="http://www.w3.org/2000/svg" xmlns:xlink="http://www.w3.org/1999/xlink" 
                width="519" height="849">
                
            <g>
                <rect x="50" y="80"
            width="276.2" height="30"
            style="fill:#a5d6a7; stroke:#444; stroke-width:1" />
                    
                <line x1="60" y1="80" x2="60" y2="110"
                style="fill:#a5d6a7; stroke:#444; stroke-width:1" />
                <line x1="316.2" y1="80" x2="316.2" y2="110"
                style="fill:#a5d6a7; stroke:#444; stroke-width:1" />
             
                <title>reverseWords2 = function(str)</title>
            <text x="75" y="100"
                font-family="monospace" font-size="13" fill="#222">
                <tspan x="75" y="100">reverseWords2 = function(str)</tspan>
            </text>
                
            </g>
                <g>
                   <rect x="87" y="128.5"
            width="147" height="30"
            rx="3" ry="3"
            style="fill:#90caf9; stroke:#444; stroke-width:1" />
                   <title>let output = []</title>
            <text x="102" y="148.5"
                font-family="monospace" font-size="13" fill="#222">
                <tspan x="102" y="148.5">let output = []</tspan>
            </text>
                   
                   
                </g>
                <g>
                   <rect x="87" y="177"
            width="232.79999999999998" height="30"
            rx="3" ry="3"
            style="fill:#90caf9; stroke:#444; stroke-width:1" />
                   <title>let words = str.split(&apos; &apos;)</title>
            <text x="102" y="197"
                font-family="monospace" font-size="13" fill="#222">
                <tspan x="102" y="197">let words = str.split(&apos; &apos;)</tspan>
            </text>
                   
                   
                </g><g>

            <rect x="117" y="260.5"
            width="216" height="30"
            rx="3" ry="3"
            style="fill:#b39ddb; stroke:#444; stroke-width:1" />
            <polygon points="87,275.5 117,245.5 147,275.5 117,305.5"
            style="fill:#b39ddb; stroke:#444; stroke-width:1" />
                
            <title>index &lt; words.length</title>
            <text x="162" y="280.5"
                font-family="monospace" font-size="13" fill="#222">
                <tspan x="162" y="280.5">index &lt; words.length</tspan>
            </text>
            
            <text x="105.3" y="280.5"
        font-family="monospace" font-size="13" fill="#222">for</text>
        </g>
                <g>
                   <rect x="137" y="315.5"
            width="84.6" height="30"
            rx="3" ry="3"
            style="fill:#90caf9; stroke:#444; stroke-width:1" />
                   <title>index++</title>
            <text x="152" y="335.5"
                font-family="monospace" font-size="13" fill="#222">
                <tspan x="152" y="335.5">index++</tspan>
            </text>
                   
                   
                </g>
                <g>
                   <rect x="137" y="364"
            width="209.4" height="30"
            rx="3" ry="3"
            style="fill:#90caf9; stroke:#444; stroke-width:1" />
                   <title>let word = words[index]</title>
            <text x="152" y="384"
                font-family="monospace" font-size="13" fill="#222">
                <tspan x="152" y="384">let word = words[index]</tspan>
            </text>
                   
                   
                </g>
                <g>
                   <rect x="137" y="412.5"
            width="131.39999999999998" height="30"
            rx="3" ry="3"
            style="fill:#90caf9; stroke:#444; stroke-width:1" />
                   <title>let temp = []</title>
            <text x="152" y="432.5"
                font-family="monospace" font-size="13" fill="#222">
                <tspan x="152" y="432.5">let temp = []</tspan>
            </text>
                   
                   
                </g><g>

            <rect x="167" y="496"
            width="138" height="30"
            rx="3" ry="3"
            style="fill:#b39ddb; stroke:#444; stroke-width:1" />
            <polygon points="137,511 167,481 197,511 167,541"
            style="fill:#b39ddb; stroke:#444; stroke-width:1" />
                
            <title>index &gt; -1</title>
            <text x="212" y="516"
                font-family="monospace" font-size="13" fill="#222">
                <tspan x="212" y="516">index &gt; -1</tspan>
            </text>
            
            <text x="155.3" y="516"
        font-family="monospace" font-size="13" fill="#222">for</text>
        </g>
                <g>
                   <rect x="187" y="551"
            width="84.6" height="30"
            rx="3" ry="3"
            style="fill:#90caf9; stroke:#444; stroke-width:1" />
                   <title>index--</title>
            <text x="202" y="571"
                font-family="monospace" font-size="13" fill="#222">
                <tspan x="202" y="571">index--</tspan>
            </text>
                   
                   
                </g>
                <g>
                   <rect x="187" y="599.5"
            width="178.2" height="30"
            rx="3" ry="3"
            style="fill:#90caf9; stroke:#444; stroke-width:1" />
                   <title>let w = word[index]</title>
            <text x="202" y="619.5"
                font-family="monospace" font-size="13" fill="#222">
                <tspan x="202" y="619.5">let w = word[index]</tspan>
            </text>
                   
                   
                </g>
                <g>
                   <rect x="187" y="648"
            width="123.6" height="30"
            rx="2" ry="2"
            style="fill:#C5E1A5; stroke:#444; stroke-width:1" />
                   <title>temp.push(w)</title>
            <text x="202" y="668"
                font-family="monospace" font-size="13" fill="#222">
                <tspan x="202" y="668">temp.push(w)</tspan>
            </text>
                   
                   
                </g>
                <g>
                   <rect x="137" y="696.5"
            width="232.79999999999998" height="30"
            rx="2" ry="2"
            style="fill:#C5E1A5; stroke:#444; stroke-width:1" />
                   <title>output.push(temp.join(&apos;&apos;))</title>
            <text x="152" y="716.5"
                font-family="monospace" font-size="13" fill="#222">
                <tspan x="152" y="716.5">output.push(temp.join(&apos;&apos;))</tspan>
            </text>
                   
                   
                </g>
            <g>
                <rect x="87" y="745"
            width="209.4" height="30"
            rx="3" ry="3"
            style="fill:#90caf9; stroke:#444; stroke-width:1" />
                
                <line x1="296.4" y1="755" x2="301.4" y2="755"
                style="fill:#a5d6a7; stroke:#444; stroke-width:1" />
                
                <line x1="296.4" y1="765" x2="301.4" y2="765"
                style="fill:#a5d6a7; stroke:#444; stroke-width:1" />

                <path d="M301.4, 749 L317.4, 760 L301.4, 771 Z" 
        fill="#a5d6a7" stroke="#444" stroke-width="1" />
                             
                <title>return output.join(&apos; &apos;)</title>
            <text x="102" y="765"
                font-family="monospace" font-size="13" fill="#222">
                <tspan x="102" y="765">return output.join(&apos; &apos;)</tspan>
            </text>
                
            </g>
                <g>
                   <rect x="50" y="793.5"
            width="443.4" height="30"
            rx="2" ry="2"
            style="fill:#C5E1A5; stroke:#444; stroke-width:1" />
                   <title>console.log(reverseWords2(&quot;Let&apos;s take LeetCode contest&quot;) === &quot;s&apos;teL ekat edoCteeL tsetnoc&quot;)</title>
            <text x="65" y="813.5"
                font-family="monospace" font-size="13" fill="#222">
                <tspan x="65" y="813.5">console.log(reverseWords2(&quot;Let&apos;s take LeetCode con...</tspan>
            </text>
                   
                   
                </g>
            <g>
               <rect x="25" y="13.75"
            width="216.6" height="24"
            style="fill:#fff59d; stroke:#444; stroke-width:1" />
               <circle cx="25" cy="25" r="15"
        style="fill:#fff59d; stroke:#444; stroke-width:1" />
               <title>Program: source module</title>
            <text x="55" y="30"
                font-family="monospace" font-size="13" fill="#222">
                <tspan x="55" y="30">Program: source module</tspan>
            </text>
            </g>
            <g>
               <path d="M25, 40 L25 91 Q25 95
                29 95
                L42 95 "
        style="fill:none; stroke:#444; stroke-width:1" />
               <path d="M42, 92 L50, 95 L42, 98 Z" 
        fill="#333" />
            </g>
            <g>
               <path d="M68.5, 110 L68.5 139.5 Q68.5 143.5
                72.5 143.5
                L79 143.5 "
        style="fill:none; stroke:#444; stroke-width:1" />
               <path d="M79, 140.5 L87, 143.5 L79, 146.5 Z" 
        fill="#333" />
            </g>
            <g>
               <path d="M68.5, 110 L68.5 188 Q68.5 192
                72.5 192
                L79 192 "
        style="fill:none; stroke:#444; stroke-width:1" />
               <path d="M79, 189 L87, 192 L79, 195 Z" 
        fill="#333" />
            </g>
            <g>
               <path d="M68.5, 110 L68.5 271.5 Q68.5 275.5
                72.5 275.5
                L79 275.5 "
        style="fill:none; stroke:#444; stroke-width:1" />
               <path d="M79, 272.5 L87, 275.5 L79, 278.5 Z" 
        fill="#333" />
            </g>
            <g>
               <path d="M117, 305.5 L117 326.5 Q117 330.5
                121 330.5
                L129 330.5 "
        style="fill:none; stroke:#444; stroke-width:1" />
               <path d="M129, 327.5 L137, 330.5 L129, 333.5 Z" 
        fill="#333" />
            </g>
            <g>
               <path d="M117, 305.5 L117 375 Q117 379
                121 379
                L129 379 "
        style="fill:none; stroke:#444; stroke-width:1" />
               <path d="M129, 376 L137, 379 L129, 382 Z" 
        fill="#333" />
            </g>
            <g>
               <path d="M117, 305.5 L117 423.5 Q117 427.5
                121 427.5
                L129 427.5 "
        style="fill:none; stroke:#444; stroke-width:1" />
               <path d="M129, 424.5 L137, 427.5 L129, 430.5 Z" 
        fill="#333" />
            </g>
            <g>
               <path d="M117, 305.5 L117 507 Q117 511
                121 511
                L129 511 "
        style="fill:none; stroke:#444; stroke-width:1" />
               <path d="M129, 508 L137, 511 L129, 514 Z" 
        fill="#333" />
            </g>
            <g>
               <path d="M167, 541 L167 562 Q167 566
                171 566
                L179 566 "
        style="fill:none; stroke:#444; stroke-width:1" />
               <path d="M179, 563 L187, 566 L179, 569 Z" 
        fill="#333" />
            </g>
            <g>
               <path d="M167, 541 L167 610.5 Q167 614.5
                171 614.5
                L179 614.5 "
        style="fill:none; stroke:#444; stroke-width:1" />
               <path d="M179, 611.5 L187, 614.5 L179, 617.5 Z" 
        fill="#333" />
            </g>
            <g>
               <path d="M167, 541 L167 659 Q167 663
                171 663
                L179 663 "
        style="fill:none; stroke:#444; stroke-width:1" />
               <path d="M179, 660 L187, 663 L179, 666 Z" 
        fill="#333" />
            </g>
            <g>
               <path d="M310.6, 663 L381.2 663  Q385.2 663
                385.2 659
                L385.2 469 Q385.2 461
                381.2 461
                L175 461  Q167 461
                167 465
                L167 473"
        style="fill:none; stroke:#444; stroke-width:1" />
               <path d="M164, 473 L167, 481 L170, 473 Z" 
        fill="#333" />
            </g>
            <g>
               <path d="M117, 305.5 L117 707.5 Q117 711.5
                121 711.5
                L129 711.5 "
        style="fill:none; stroke:#444; stroke-width:1" />
               <path d="M129, 708.5 L137, 711.5 L129, 714.5 Z" 
        fill="#333" />
            </g>
            <g>
               <path d="M369.79999999999995, 711.5 L385.79999999999995 711.5  Q389.79999999999995 711.5
                389.79999999999995 707.5
                L389.79999999999995 233.5 Q389.79999999999995 225.5
                385.79999999999995 225.5
                L125 225.5  Q117 225.5
                117 229.5
                L117 237.5"
        style="fill:none; stroke:#444; stroke-width:1" />
               <path d="M114, 237.5 L117, 245.5 L120, 237.5 Z" 
        fill="#333" />
            </g>
            <g>
               <path d="M68.5, 110 L68.5 756 Q68.5 760
                72.5 760
                L79 760 "
        style="fill:none; stroke:#444; stroke-width:1" />
               <path d="M79, 757 L87, 760 L79, 763 Z" 
        fill="#333" />
            </g>
            <g>
               <path d="M25, 40 L25 804.5 Q25 808.5
                29 808.5
                L42 808.5 "
        style="fill:none; stroke:#444; stroke-width:1" />
               <path d="M42, 805.5 L50, 808.5 L42, 811.5 Z" 
        fill="#333" />
            </g>
            </svg>