<!DOCTYPE svg PUBLIC "-//W3C//DTD SVG 1.1//EN" "http://www.w3.org/Graphics/SVG/1.1/DTD/svg11.dtd">
                <svg xmlns="http://www.w3.org/2000/svg" xmlns:xlink="http://www.w3.org/1999/xlink" 
                width="464" height="685">
                
            <g>
                <rect x="50" y="80"
            width="268.4" height="30"
            style="fill:#a5d6a7; stroke:#444; stroke-width:1" />
                    
                <line x1="60" y1="80" x2="60" y2="110"
                style="fill:#a5d6a7; stroke:#444; stroke-width:1" />
                <line x1="308.4" y1="80" x2="308.4" y2="110"
                style="fill:#a5d6a7; stroke:#444; stroke-width:1" />
             
                <title>reverseWords = function(str)</title>
            <text x="75" y="100"
                font-family="monospace" font-size="13" fill="#222">
                <tspan x="75" y="100">reverseWords = function(str)</tspan>
            </text>
                
            </g>
                <g>
                   <rect x="87" y="128.5"
            width="147" height="30"
            rx="3" ry="3"
            style="fill:#90caf9; stroke:#444; stroke-width:1" />
                   <title>let output = []</title>
            <text x="102" y="148.5"
                font-family="monospace" font-size="13" fill="#222">
                <tspan x="102" y="148.5">let output = []</tspan>
            </text>
                   
                   
                </g>
                <g>
                   <rect x="87" y="177"
            width="232.79999999999998" height="30"
            rx="3" ry="3"
            style="fill:#90caf9; stroke:#444; stroke-width:1" />
                   <title>let words = str.split(&apos; &apos;)</title>
            <text x="102" y="197"
                font-family="monospace" font-size="13" fill="#222">
                <tspan x="102" y="197">let words = str.split(&apos; &apos;)</tspan>
            </text>
                   
                   
                </g><g>

            <rect x="117" y="260.5"
            width="138" height="30"
            rx="3" ry="3"
            style="fill:#b39ddb; stroke:#444; stroke-width:1" />
            <polygon points="87,275.5 117,245.5 147,275.5 117,305.5"
            style="fill:#b39ddb; stroke:#444; stroke-width:1" />
                
            <title>index &gt; -1</title>
            <text x="162" y="280.5"
                font-family="monospace" font-size="13" fill="#222">
                <tspan x="162" y="280.5">index &gt; -1</tspan>
            </text>
            
            <text x="105.3" y="280.5"
        font-family="monospace" font-size="13" fill="#222">for</text>
        </g>
                <g>
                   <rect x="137" y="315.5"
            width="84.6" height="30"
            rx="3" ry="3"
            style="fill:#90caf9; stroke:#444; stroke-width:1" />
                   <title>index--</title>
            <text x="152" y="335.5"
                font-family="monospace" font-size="13" fill="#222">
                <tspan x="152" y="335.5">index--</tspan>
            </text>
                   
                   
                </g>
                <g>
                   <rect x="137" y="364"
            width="209.4" height="30"
            rx="3" ry="3"
            style="fill:#90caf9; stroke:#444; stroke-width:1" />
                   <title>let word = words[index]</title>
            <text x="152" y="384"
                font-family="monospace" font-size="13" fill="#222">
                <tspan x="152" y="384">let word = words[index]</tspan>
            </text>
                   
                   
                </g><g>
            <rect x="167" y="427.5"
            width="106.80000000000001" height="30"
            rx="3" ry="3"
            style="fill:#ce93d8; stroke:#444; stroke-width:1" />                
            <polygon points="137,442.5 167,412.5 197,442.5 167,472.5"
            style="fill:#ce93d8; stroke:#444; stroke-width:1" />
            <title>(word)</title>
            <text x="212" y="447.5"
                font-family="monospace" font-size="13" fill="#222">
                <tspan x="212" y="447.5">(word)</tspan>
            </text>
            
            <text x="159.2" y="447.5"
        font-family="monospace" font-size="13" fill="#222">if</text> <text x="174.8" y="474.45"
        font-family="monospace" font-size="13" fill="#222">+</text> 
        </g>
                <g>
                   <rect x="187" y="482.5"
            width="162.6" height="30"
            rx="2" ry="2"
            style="fill:#C5E1A5; stroke:#444; stroke-width:1" />
                   <title>output.push(word)</title>
            <text x="202" y="502.5"
                font-family="monospace" font-size="13" fill="#222">
                <tspan x="202" y="502.5">output.push(word)</tspan>
            </text>
                   
                   
                </g>
            <g>
                <rect x="87" y="532.5"
            width="209.4" height="30"
            rx="3" ry="3"
            style="fill:#90caf9; stroke:#444; stroke-width:1" />
                
                <line x1="296.4" y1="542.5" x2="301.4" y2="542.5"
                style="fill:#a5d6a7; stroke:#444; stroke-width:1" />
                
                <line x1="296.4" y1="552.5" x2="301.4" y2="552.5"
                style="fill:#a5d6a7; stroke:#444; stroke-width:1" />

                <path d="M301.4, 536.5 L317.4, 547.5 L301.4, 558.5 Z" 
        fill="#a5d6a7" stroke="#444" stroke-width="1" />
                             
                <title>return output.join(&apos; &apos;)</title>
            <text x="102" y="552.5"
                font-family="monospace" font-size="13" fill="#222">
                <tspan x="102" y="552.5">return output.join(&apos; &apos;)</tspan>
            </text>
                
            </g>
                <g>
                   <rect x="50" y="581"
            width="373.2" height="30"
            rx="2" ry="2"
            style="fill:#C5E1A5; stroke:#444; stroke-width:1" />
                   <title>console.log(reverseWords(&apos;the sky is blue&apos;))</title>
            <text x="65" y="601"
                font-family="monospace" font-size="13" fill="#222">
                <tspan x="65" y="601">console.log(reverseWords(&apos;the sky is blue&apos;))</tspan>
            </text>
                   
                   
                </g>
                <g>
                   <rect x="50" y="629.5"
            width="388.8" height="30"
            rx="2" ry="2"
            style="fill:#C5E1A5; stroke:#444; stroke-width:1" />
                   <title>console.log(reverseWords(&apos; the sky is blue &apos;))</title>
            <text x="65" y="649.5"
                font-family="monospace" font-size="13" fill="#222">
                <tspan x="65" y="649.5">console.log(reverseWords(&apos; the sky is blue &apos;))</tspan>
            </text>
                   
                   
                </g>
            <g>
               <rect x="25" y="13.75"
            width="216.6" height="24"
            style="fill:#fff59d; stroke:#444; stroke-width:1" />
               <circle cx="25" cy="25" r="15"
        style="fill:#fff59d; stroke:#444; stroke-width:1" />
               <title>Program: source module</title>
            <text x="55" y="30"
                font-family="monospace" font-size="13" fill="#222">
                <tspan x="55" y="30">Program: source module</tspan>
            </text>
            </g>
            <g>
               <path d="M25, 40 L25 91 Q25 95
                29 95
                L42 95 "
        style="fill:none; stroke:#444; stroke-width:1" />
               <path d="M42, 92 L50, 95 L42, 98 Z" 
        fill="#333" />
            </g>
            <g>
               <path d="M68.5, 110 L68.5 139.5 Q68.5 143.5
                72.5 143.5
                L79 143.5 "
        style="fill:none; stroke:#444; stroke-width:1" />
               <path d="M79, 140.5 L87, 143.5 L79, 146.5 Z" 
        fill="#333" />
            </g>
            <g>
               <path d="M68.5, 110 L68.5 188 Q68.5 192
                72.5 192
                L79 192 "
        style="fill:none; stroke:#444; stroke-width:1" />
               <path d="M79, 189 L87, 192 L79, 195 Z" 
        fill="#333" />
            </g>
            <g>
               <path d="M68.5, 110 L68.5 271.5 Q68.5 275.5
                72.5 275.5
                L79 275.5 "
        style="fill:none; stroke:#444; stroke-width:1" />
               <path d="M79, 272.5 L87, 275.5 L79, 278.5 Z" 
        fill="#333" />
            </g>
            <g>
               <path d="M117, 305.5 L117 326.5 Q117 330.5
                121 330.5
                L129 330.5 "
        style="fill:none; stroke:#444; stroke-width:1" />
               <path d="M129, 327.5 L137, 330.5 L129, 333.5 Z" 
        fill="#333" />
            </g>
            <g>
               <path d="M117, 305.5 L117 375 Q117 379
                121 379
                L129 379 "
        style="fill:none; stroke:#444; stroke-width:1" />
               <path d="M129, 376 L137, 379 L129, 382 Z" 
        fill="#333" />
            </g>
            <g>
               <path d="M117, 305.5 L117 438.5 Q117 442.5
                121 442.5
                L129 442.5 "
        style="fill:none; stroke:#444; stroke-width:1" />
               <path d="M129, 439.5 L137, 442.5 L129, 445.5 Z" 
        fill="#333" />
            </g>
            <g>
               <path d="M167, 472.5 L167 493.5 Q167 497.5
                171 497.5
                L179 497.5 "
        style="fill:none; stroke:#444; stroke-width:1" />
               <path d="M179, 494.5 L187, 497.5 L179, 500.5 Z" 
        fill="#333" />
            </g>
            <g>
               <path d="M349.6, 497.5 L365.6 497.5  Q369.6 497.5
                369.6 493.5
                L369.6 233.5 Q369.6 225.5
                365.6 225.5
                L125 225.5  Q117 225.5
                117 229.5
                L117 237.5"
        style="fill:none; stroke:#444; stroke-width:1" />
               <path d="M114, 237.5 L117, 245.5 L120, 237.5 Z" 
        fill="#333" />
            </g>
            <g>
               <path d="M68.5, 110 L68.5 543.5 Q68.5 547.5
                72.5 547.5
                L79 547.5 "
        style="fill:none; stroke:#444; stroke-width:1" />
               <path d="M79, 544.5 L87, 547.5 L79, 550.5 Z" 
        fill="#333" />
            </g>
            <g>
               <path d="M25, 40 L25 592 Q25 596
                29 596
                L42 596 "
        style="fill:none; stroke:#444; stroke-width:1" />
               <path d="M42, 593 L50, 596 L42, 599 Z" 
        fill="#333" />
            </g>
            <g>
               <path d="M25, 40 L25 640.5 Q25 644.5
                29 644.5
                L42 644.5 "
        style="fill:none; stroke:#444; stroke-width:1" />
               <path d="M42, 641.5 L50, 644.5 L42, 647.5 Z" 
        fill="#333" />
            </g>
            </svg>