<!DOCTYPE svg PUBLIC "-//W3C//DTD SVG 1.1//EN" "http://www.w3.org/Graphics/SVG/1.1/DTD/svg11.dtd">
                <svg xmlns="http://www.w3.org/2000/svg" xmlns:xlink="http://www.w3.org/1999/xlink" 
                width="684" height="1024">
                
            <g>
                <rect x="50" y="80"
            width="221.6" height="30"
            style="fill:#a5d6a7; stroke:#444; stroke-width:1" />
                    
                <line x1="60" y1="80" x2="60" y2="110"
                style="fill:#a5d6a7; stroke:#444; stroke-width:1" />
                <line x1="261.6" y1="80" x2="261.6" y2="110"
                style="fill:#a5d6a7; stroke:#444; stroke-width:1" />
             
                <title>function romanToInt(s)</title>
            <text x="75" y="100"
                font-family="monospace" font-size="13" fill="#222">
                <tspan x="75" y="100">function romanToInt(s)</tspan>
            </text>
                
            </g>
                <g>
                   <rect x="87" y="128.5"
            width="147" height="30"
            rx="3" ry="3"
            style="fill:#90caf9; stroke:#444; stroke-width:1" />
                   <title>const map = {*}</title>
            <text x="102" y="148.5"
                font-family="monospace" font-size="13" fill="#222">
                <tspan x="102" y="148.5">const map = {*}</tspan>
            </text>
                   
                   
                </g>
                <g>
                   <rect x="124" y="177"
            width="61.2" height="30"
            rx="2" ry="2"
            style="fill:#90caf9; stroke:#444; stroke-width:1" />
                   <title>I: 1</title>
            <text x="139" y="197"
                font-family="monospace" font-size="13" fill="#222">
                <tspan x="139" y="197">I: 1</tspan>
            </text>
                   
                   
                </g>
                <g>
                   <rect x="124" y="225.5"
            width="61.2" height="30"
            rx="2" ry="2"
            style="fill:#90caf9; stroke:#444; stroke-width:1" />
                   <title>V: 5</title>
            <text x="139" y="245.5"
                font-family="monospace" font-size="13" fill="#222">
                <tspan x="139" y="245.5">V: 5</tspan>
            </text>
                   
                   
                </g>
                <g>
                   <rect x="124" y="274"
            width="69" height="30"
            rx="2" ry="2"
            style="fill:#90caf9; stroke:#444; stroke-width:1" />
                   <title>X: 10</title>
            <text x="139" y="294"
                font-family="monospace" font-size="13" fill="#222">
                <tspan x="139" y="294">X: 10</tspan>
            </text>
                   
                   
                </g>
                <g>
                   <rect x="124" y="322.5"
            width="69" height="30"
            rx="2" ry="2"
            style="fill:#90caf9; stroke:#444; stroke-width:1" />
                   <title>L: 50</title>
            <text x="139" y="342.5"
                font-family="monospace" font-size="13" fill="#222">
                <tspan x="139" y="342.5">L: 50</tspan>
            </text>
                   
                   
                </g>
                <g>
                   <rect x="124" y="371"
            width="76.8" height="30"
            rx="2" ry="2"
            style="fill:#90caf9; stroke:#444; stroke-width:1" />
                   <title>C: 100</title>
            <text x="139" y="391"
                font-family="monospace" font-size="13" fill="#222">
                <tspan x="139" y="391">C: 100</tspan>
            </text>
                   
                   
                </g>
                <g>
                   <rect x="124" y="419.5"
            width="76.8" height="30"
            rx="2" ry="2"
            style="fill:#90caf9; stroke:#444; stroke-width:1" />
                   <title>D: 500</title>
            <text x="139" y="439.5"
                font-family="monospace" font-size="13" fill="#222">
                <tspan x="139" y="439.5">D: 500</tspan>
            </text>
                   
                   
                </g>
                <g>
                   <rect x="124" y="468"
            width="84.6" height="30"
            rx="2" ry="2"
            style="fill:#90caf9; stroke:#444; stroke-width:1" />
                   <title>M: 1000</title>
            <text x="139" y="488"
                font-family="monospace" font-size="13" fill="#222">
                <tspan x="139" y="488">M: 1000</tspan>
            </text>
                   
                   
                </g>
                <g>
                   <rect x="87" y="516.5"
            width="147" height="30"
            rx="3" ry="3"
            style="fill:#90caf9; stroke:#444; stroke-width:1" />
                   <title>let prevNum = 0</title>
            <text x="102" y="536.5"
                font-family="monospace" font-size="13" fill="#222">
                <tspan x="102" y="536.5">let prevNum = 0</tspan>
            </text>
                   
                   
                </g>
                <g>
                   <rect x="87" y="565"
            width="115.8" height="30"
            rx="3" ry="3"
            style="fill:#90caf9; stroke:#444; stroke-width:1" />
                   <title>let sum = 0</title>
            <text x="102" y="585"
                font-family="monospace" font-size="13" fill="#222">
                <tspan x="102" y="585">let sum = 0</tspan>
            </text>
                   
                   
                </g><g>

            <rect x="117" y="648.5"
            width="114.6" height="30"
            rx="3" ry="3"
            style="fill:#b39ddb; stroke:#444; stroke-width:1" />
            <polygon points="87,663.5 117,633.5 147,663.5 117,693.5"
            style="fill:#b39ddb; stroke:#444; stroke-width:1" />
                
            <title> c of s</title>
            <text x="162" y="668.5"
                font-family="monospace" font-size="13" fill="#222">
                <tspan x="162" y="668.5"> c of s</tspan>
            </text>
            
            <text x="105.3" y="668.5"
        font-family="monospace" font-size="13" fill="#222">for</text>
        </g>
                <g>
                   <rect x="137" y="703.5"
            width="170.4" height="30"
            rx="3" ry="3"
            style="fill:#90caf9; stroke:#444; stroke-width:1" />
                   <title>const num = map[c]</title>
            <text x="152" y="723.5"
                font-family="monospace" font-size="13" fill="#222">
                <tspan x="152" y="723.5">const num = map[c]</tspan>
            </text>
                   
                   
                </g>
                <g>
                   <rect x="137" y="752"
            width="76.8" height="30"
            rx="3" ry="3"
            style="fill:#90caf9; stroke:#444; stroke-width:1" />
                   <title>sum = </title>
            <text x="152" y="772"
                font-family="monospace" font-size="13" fill="#222">
                <tspan x="152" y="772">sum = </tspan>
            </text>
                   
                   
                </g><g>
            <rect x="204" y="815.5"
            width="184.8" height="30"
            rx="3" ry="3"
            style="fill:#ce93d8; stroke:#444; stroke-width:1" />                
            <polygon points="174,830.5 204,800.5 234,830.5 204,860.5"
            style="fill:#ce93d8; stroke:#444; stroke-width:1" />
            <title>(prevNum &gt;= num)</title>
            <text x="249" y="835.5"
                font-family="monospace" font-size="13" fill="#222">
                <tspan x="249" y="835.5">(prevNum &gt;= num)</tspan>
            </text>
            
            <text x="200.1" y="835.5"
        font-family="monospace" font-size="13" fill="#222">?</text> <text x="211.8" y="862.45"
        font-family="monospace" font-size="13" fill="#222">+</text> <text x="392.7" y="828.55"
        font-family="monospace" font-size="13" fill="#222">-</text>
        </g>
                <g>
                   <rect x="224" y="870.5"
            width="100.2" height="30"
            rx="3" ry="3"
            style="fill:#90caf9; stroke:#444; stroke-width:1" />
                   <title>sum + num</title>
            <text x="239" y="890.5"
                font-family="monospace" font-size="13" fill="#222">
                <tspan x="239" y="890.5">sum + num</tspan>
            </text>
                   
                   
                </g>
                <g>
                   <rect x="448.8" y="870.5"
            width="209.4" height="30"
            rx="3" ry="3"
            style="fill:#90caf9; stroke:#444; stroke-width:1" />
                   <title>sum + num - prevNum * 2</title>
            <text x="463.8" y="890.5"
                font-family="monospace" font-size="13" fill="#222">
                <tspan x="463.8" y="890.5">sum + num - prevNum * 2</tspan>
            </text>
                   
                   
                </g>
                <g>
                   <rect x="137" y="920.5"
            width="131.39999999999998" height="30"
            rx="3" ry="3"
            style="fill:#90caf9; stroke:#444; stroke-width:1" />
                   <title>prevNum = num</title>
            <text x="152" y="940.5"
                font-family="monospace" font-size="13" fill="#222">
                <tspan x="152" y="940.5">prevNum = num</tspan>
            </text>
                   
                   
                </g>
            <g>
                <rect x="87" y="969"
            width="108" height="30"
            rx="3" ry="3"
            style="fill:#90caf9; stroke:#444; stroke-width:1" />
                
                <line x1="195" y1="979" x2="200" y2="979"
                style="fill:#a5d6a7; stroke:#444; stroke-width:1" />
                
                <line x1="195" y1="989" x2="200" y2="989"
                style="fill:#a5d6a7; stroke:#444; stroke-width:1" />

                <path d="M200, 973 L216, 984 L200, 995 Z" 
        fill="#a5d6a7" stroke="#444" stroke-width="1" />
                             
                <title>return sum</title>
            <text x="102" y="989"
                font-family="monospace" font-size="13" fill="#222">
                <tspan x="102" y="989">return sum</tspan>
            </text>
                
            </g>
            <g>
               <rect x="25" y="13.75"
            width="216.6" height="24"
            style="fill:#fff59d; stroke:#444; stroke-width:1" />
               <circle cx="25" cy="25" r="15"
        style="fill:#fff59d; stroke:#444; stroke-width:1" />
               <title>Program: source module</title>
            <text x="55" y="30"
                font-family="monospace" font-size="13" fill="#222">
                <tspan x="55" y="30">Program: source module</tspan>
            </text>
            </g>
            <g>
               <path d="M25, 40 L25 91 Q25 95
                29 95
                L42 95 "
        style="fill:none; stroke:#444; stroke-width:1" />
               <path d="M42, 92 L50, 95 L42, 98 Z" 
        fill="#333" />
            </g>
            <g>
               <path d="M68.5, 110 L68.5 139.5 Q68.5 143.5
                72.5 143.5
                L79 143.5 "
        style="fill:none; stroke:#444; stroke-width:1" />
               <path d="M79, 140.5 L87, 143.5 L79, 146.5 Z" 
        fill="#333" />
            </g>
            <g>
               <path d="M105.5, 158.5 L105.5 188 Q105.5 192
                109.5 192
                L124 192 "
        style="fill:none; stroke:#444; stroke-width:1" />
               false
            </g>
            <g>
               <path d="M105.5, 158.5 L105.5 236.5 Q105.5 240.5
                109.5 240.5
                L124 240.5 "
        style="fill:none; stroke:#444; stroke-width:1" />
               false
            </g>
            <g>
               <path d="M105.5, 158.5 L105.5 285 Q105.5 289
                109.5 289
                L124 289 "
        style="fill:none; stroke:#444; stroke-width:1" />
               false
            </g>
            <g>
               <path d="M105.5, 158.5 L105.5 333.5 Q105.5 337.5
                109.5 337.5
                L124 337.5 "
        style="fill:none; stroke:#444; stroke-width:1" />
               false
            </g>
            <g>
               <path d="M105.5, 158.5 L105.5 382 Q105.5 386
                109.5 386
                L124 386 "
        style="fill:none; stroke:#444; stroke-width:1" />
               false
            </g>
            <g>
               <path d="M105.5, 158.5 L105.5 430.5 Q105.5 434.5
                109.5 434.5
                L124 434.5 "
        style="fill:none; stroke:#444; stroke-width:1" />
               false
            </g>
            <g>
               <path d="M105.5, 158.5 L105.5 479 Q105.5 483
                109.5 483
                L124 483 "
        style="fill:none; stroke:#444; stroke-width:1" />
               false
            </g>
            <g>
               <path d="M68.5, 110 L68.5 527.5 Q68.5 531.5
                72.5 531.5
                L79 531.5 "
        style="fill:none; stroke:#444; stroke-width:1" />
               <path d="M79, 528.5 L87, 531.5 L79, 534.5 Z" 
        fill="#333" />
            </g>
            <g>
               <path d="M68.5, 110 L68.5 576 Q68.5 580
                72.5 580
                L79 580 "
        style="fill:none; stroke:#444; stroke-width:1" />
               <path d="M79, 577 L87, 580 L79, 583 Z" 
        fill="#333" />
            </g>
            <g>
               <path d="M68.5, 110 L68.5 659.5 Q68.5 663.5
                72.5 663.5
                L79 663.5 "
        style="fill:none; stroke:#444; stroke-width:1" />
               <path d="M79, 660.5 L87, 663.5 L79, 666.5 Z" 
        fill="#333" />
            </g>
            <g>
               <path d="M117, 693.5 L117 714.5 Q117 718.5
                121 718.5
                L129 718.5 "
        style="fill:none; stroke:#444; stroke-width:1" />
               <path d="M129, 715.5 L137, 718.5 L129, 721.5 Z" 
        fill="#333" />
            </g>
            <g>
               <path d="M117, 693.5 L117 763 Q117 767
                121 767
                L129 767 "
        style="fill:none; stroke:#444; stroke-width:1" />
               <path d="M129, 764 L137, 767 L129, 770 Z" 
        fill="#333" />
            </g>
            <g>
               <path d="M155.5, 782 L155.5 826.5 Q155.5 830.5
                159.5 830.5
                L166 830.5 "
        style="fill:none; stroke:#444; stroke-width:1" />
               <path d="M166, 827.5 L174, 830.5 L166, 833.5 Z" 
        fill="#333" />
            </g>
            <g>
               <path d="M204, 860.5 L204 881.5 Q204 885.5
                208 885.5
                L216 885.5 "
        style="fill:none; stroke:#444; stroke-width:1" />
               <path d="M216, 882.5 L224, 885.5 L216, 888.5 Z" 
        fill="#333" />
            </g>
            <g>
               <path d="M388.8, 830.5 L424.8 830.5  Q428.8 830.5
                428.8 834.5
                L428.8 877.5 Q428.8 885.5
                432.8 885.5
                L440.8 885.5 "
        style="fill:none; stroke:#444; stroke-width:1" />
               <path d="M440.8, 882.5 L448.8, 885.5 L440.8, 888.5 Z" 
        fill="#333" />
            </g>
            <g>
               <path d="M117, 693.5 L117 931.5 Q117 935.5
                121 935.5
                L129 935.5 "
        style="fill:none; stroke:#444; stroke-width:1" />
               <path d="M129, 932.5 L137, 935.5 L129, 938.5 Z" 
        fill="#333" />
            </g>
            <g>
               <path d="M268.4, 935.5 L674.2 935.5  Q678.2 935.5
                678.2 931.5
                L678.2 621.5 Q678.2 613.5
                674.2 613.5
                L125 613.5  Q117 613.5
                117 617.5
                L117 625.5"
        style="fill:none; stroke:#444; stroke-width:1" />
               <path d="M114, 625.5 L117, 633.5 L120, 625.5 Z" 
        fill="#333" />
            </g>
            <g>
               <path d="M68.5, 110 L68.5 980 Q68.5 984
                72.5 984
                L79 984 "
        style="fill:none; stroke:#444; stroke-width:1" />
               <path d="M79, 981 L87, 984 L79, 987 Z" 
        fill="#333" />
            </g>
            </svg>