<!DOCTYPE svg PUBLIC "-//W3C//DTD SVG 1.1//EN" "http://www.w3.org/Graphics/SVG/1.1/DTD/svg11.dtd">
                <svg xmlns="http://www.w3.org/2000/svg" xmlns:xlink="http://www.w3.org/1999/xlink" 
                width="414" height="871">
                
            <g>
                <rect x="50" y="80"
            width="338.59999999999997" height="30"
            style="fill:#a5d6a7; stroke:#444; stroke-width:1" />
                    
                <line x1="60" y1="80" x2="60" y2="110"
                style="fill:#a5d6a7; stroke:#444; stroke-width:1" />
                <line x1="378.59999999999997" y1="80" x2="378.59999999999997" y2="110"
                style="fill:#a5d6a7; stroke:#444; stroke-width:1" />
             
                <title>function reverseArr(arr, left, right)</title>
            <text x="75" y="100"
                font-family="monospace" font-size="13" fill="#222">
                <tspan x="75" y="100">function reverseArr(arr, left, right)</tspan>
            </text>
                
            </g><g>

            <rect x="117" y="163.5"
            width="153.6" height="30"
            rx="3" ry="3"
            style="fill:#b39ddb; stroke:#444; stroke-width:1" />
            <polygon points="87,178.5 117,148.5 147,178.5 117,208.5"
            style="fill:#b39ddb; stroke:#444; stroke-width:1" />
                
            <title>left &lt; right</title>
            <text x="162" y="183.5"
                font-family="monospace" font-size="13" fill="#222">
                <tspan x="162" y="183.5">left &lt; right</tspan>
            </text>
            
            <text x="97.5" y="183.5"
        font-family="monospace" font-size="13" fill="#222">while</text>
        </g>
                <g>
                   <rect x="137" y="218.5"
            width="186" height="30"
            rx="3" ry="3"
            style="fill:#90caf9; stroke:#444; stroke-width:1" />
                   <title>var temp = arr[left]</title>
            <text x="152" y="238.5"
                font-family="monospace" font-size="13" fill="#222">
                <tspan x="152" y="238.5">var temp = arr[left]</tspan>
            </text>
                   
                   
                </g>
                <g>
                   <rect x="137" y="267"
            width="201.6" height="30"
            rx="3" ry="3"
            style="fill:#90caf9; stroke:#444; stroke-width:1" />
                   <title>arr[left] = arr[right]</title>
            <text x="152" y="287"
                font-family="monospace" font-size="13" fill="#222">
                <tspan x="152" y="287">arr[left] = arr[right]</tspan>
            </text>
                   
                   
                </g>
                <g>
                   <rect x="137" y="315.5"
            width="162.6" height="30"
            rx="3" ry="3"
            style="fill:#90caf9; stroke:#444; stroke-width:1" />
                   <title>arr[right] = temp</title>
            <text x="152" y="335.5"
                font-family="monospace" font-size="13" fill="#222">
                <tspan x="152" y="335.5">arr[right] = temp</tspan>
            </text>
                   
                   
                </g>
                <g>
                   <rect x="137" y="364"
            width="76.8" height="30"
            rx="3" ry="3"
            style="fill:#90caf9; stroke:#444; stroke-width:1" />
                   <title>left++</title>
            <text x="152" y="384"
                font-family="monospace" font-size="13" fill="#222">
                <tspan x="152" y="384">left++</tspan>
            </text>
                   
                   
                </g>
                <g>
                   <rect x="137" y="412.5"
            width="84.6" height="30"
            rx="3" ry="3"
            style="fill:#90caf9; stroke:#444; stroke-width:1" />
                   <title>right--</title>
            <text x="152" y="432.5"
                font-family="monospace" font-size="13" fill="#222">
                <tspan x="152" y="432.5">right--</tspan>
            </text>
                   
                   
                </g>
            <g>
                <rect x="87" y="461"
            width="108" height="30"
            rx="3" ry="3"
            style="fill:#90caf9; stroke:#444; stroke-width:1" />
                
                <line x1="195" y1="471" x2="200" y2="471"
                style="fill:#a5d6a7; stroke:#444; stroke-width:1" />
                
                <line x1="195" y1="481" x2="200" y2="481"
                style="fill:#a5d6a7; stroke:#444; stroke-width:1" />

                <path d="M200, 465 L216, 476 L200, 487 Z" 
        fill="#a5d6a7" stroke="#444" stroke-width="1" />
                             
                <title>return arr</title>
            <text x="102" y="481"
                font-family="monospace" font-size="13" fill="#222">
                <tspan x="102" y="481">return arr</tspan>
            </text>
                
            </g>
            <g>
                <rect x="50" y="524.5"
            width="229.4" height="30"
            style="fill:#a5d6a7; stroke:#444; stroke-width:1" />
                    
                <line x1="60" y1="524.5" x2="60" y2="554.5"
                style="fill:#a5d6a7; stroke:#444; stroke-width:1" />
                <line x1="269.4" y1="524.5" x2="269.4" y2="554.5"
                style="fill:#a5d6a7; stroke:#444; stroke-width:1" />
             
                <title>function rotate(arr, k)</title>
            <text x="75" y="544.5"
                font-family="monospace" font-size="13" fill="#222">
                <tspan x="75" y="544.5">function rotate(arr, k)</tspan>
            </text>
                
            </g>
                <g>
                   <rect x="87" y="573"
            width="170.4" height="30"
            rx="3" ry="3"
            style="fill:#90caf9; stroke:#444; stroke-width:1" />
                   <title>var l = arr.length</title>
            <text x="102" y="593"
                font-family="monospace" font-size="13" fill="#222">
                <tspan x="102" y="593">var l = arr.length</tspan>
            </text>
                   
                   
                </g>
                <g>
                   <rect x="87" y="621.5"
            width="271.79999999999995" height="30"
            rx="3" ry="3"
            style="fill:#90caf9; stroke:#444; stroke-width:1" />
                   <title>arr = reverseArr(arr, 0, l - 1)</title>
            <text x="102" y="641.5"
                font-family="monospace" font-size="13" fill="#222">
                <tspan x="102" y="641.5">arr = reverseArr(arr, 0, l - 1)</tspan>
            </text>
                   
                   
                </g>
                <g>
                   <rect x="87" y="670"
            width="271.79999999999995" height="30"
            rx="3" ry="3"
            style="fill:#90caf9; stroke:#444; stroke-width:1" />
                   <title>arr = reverseArr(arr, 0, k - 1)</title>
            <text x="102" y="690"
                font-family="monospace" font-size="13" fill="#222">
                <tspan x="102" y="690">arr = reverseArr(arr, 0, k - 1)</tspan>
            </text>
                   
                   
                </g>
                <g>
                   <rect x="87" y="718.5"
            width="271.79999999999995" height="30"
            rx="3" ry="3"
            style="fill:#90caf9; stroke:#444; stroke-width:1" />
                   <title>arr = reverseArr(arr, k, l - 1)</title>
            <text x="102" y="738.5"
                font-family="monospace" font-size="13" fill="#222">
                <tspan x="102" y="738.5">arr = reverseArr(arr, k, l - 1)</tspan>
            </text>
                   
                   
                </g>
                <g>
                   <rect x="87" y="767"
            width="154.8" height="30"
            rx="2" ry="2"
            style="fill:#C5E1A5; stroke:#444; stroke-width:1" />
                   <title>console.log(arr)</title>
            <text x="102" y="787"
                font-family="monospace" font-size="13" fill="#222">
                <tspan x="102" y="787">console.log(arr)</tspan>
            </text>
                   
                   
                </g>
            <g>
                <rect x="87" y="815.5"
            width="108" height="30"
            rx="3" ry="3"
            style="fill:#90caf9; stroke:#444; stroke-width:1" />
                
                <line x1="195" y1="825.5" x2="200" y2="825.5"
                style="fill:#a5d6a7; stroke:#444; stroke-width:1" />
                
                <line x1="195" y1="835.5" x2="200" y2="835.5"
                style="fill:#a5d6a7; stroke:#444; stroke-width:1" />

                <path d="M200, 819.5 L216, 830.5 L200, 841.5 Z" 
        fill="#a5d6a7" stroke="#444" stroke-width="1" />
                             
                <title>return arr</title>
            <text x="102" y="835.5"
                font-family="monospace" font-size="13" fill="#222">
                <tspan x="102" y="835.5">return arr</tspan>
            </text>
                
            </g>
            <g>
               <rect x="25" y="13.75"
            width="216.6" height="24"
            style="fill:#fff59d; stroke:#444; stroke-width:1" />
               <circle cx="25" cy="25" r="15"
        style="fill:#fff59d; stroke:#444; stroke-width:1" />
               <title>Program: source module</title>
            <text x="55" y="30"
                font-family="monospace" font-size="13" fill="#222">
                <tspan x="55" y="30">Program: source module</tspan>
            </text>
            </g>
            <g>
               <path d="M25, 40 L25 91 Q25 95
                29 95
                L42 95 "
        style="fill:none; stroke:#444; stroke-width:1" />
               <path d="M42, 92 L50, 95 L42, 98 Z" 
        fill="#333" />
            </g>
            <g>
               <path d="M68.5, 110 L68.5 174.5 Q68.5 178.5
                72.5 178.5
                L79 178.5 "
        style="fill:none; stroke:#444; stroke-width:1" />
               <path d="M79, 175.5 L87, 178.5 L79, 181.5 Z" 
        fill="#333" />
            </g>
            <g>
               <path d="M117, 208.5 L117 229.5 Q117 233.5
                121 233.5
                L129 233.5 "
        style="fill:none; stroke:#444; stroke-width:1" />
               <path d="M129, 230.5 L137, 233.5 L129, 236.5 Z" 
        fill="#333" />
            </g>
            <g>
               <path d="M117, 208.5 L117 278 Q117 282
                121 282
                L129 282 "
        style="fill:none; stroke:#444; stroke-width:1" />
               <path d="M129, 279 L137, 282 L129, 285 Z" 
        fill="#333" />
            </g>
            <g>
               <path d="M117, 208.5 L117 326.5 Q117 330.5
                121 330.5
                L129 330.5 "
        style="fill:none; stroke:#444; stroke-width:1" />
               <path d="M129, 327.5 L137, 330.5 L129, 333.5 Z" 
        fill="#333" />
            </g>
            <g>
               <path d="M117, 208.5 L117 375 Q117 379
                121 379
                L129 379 "
        style="fill:none; stroke:#444; stroke-width:1" />
               <path d="M129, 376 L137, 379 L129, 382 Z" 
        fill="#333" />
            </g>
            <g>
               <path d="M117, 208.5 L117 423.5 Q117 427.5
                121 427.5
                L129 427.5 "
        style="fill:none; stroke:#444; stroke-width:1" />
               <path d="M129, 424.5 L137, 427.5 L129, 430.5 Z" 
        fill="#333" />
            </g>
            <g>
               <path d="M221.6, 427.5 L354.6 427.5  Q358.6 427.5
                358.6 423.5
                L358.6 136.5 Q358.6 128.5
                354.6 128.5
                L125 128.5  Q117 128.5
                117 132.5
                L117 140.5"
        style="fill:none; stroke:#444; stroke-width:1" />
               <path d="M114, 140.5 L117, 148.5 L120, 140.5 Z" 
        fill="#333" />
            </g>
            <g>
               <path d="M68.5, 110 L68.5 472 Q68.5 476
                72.5 476
                L79 476 "
        style="fill:none; stroke:#444; stroke-width:1" />
               <path d="M79, 473 L87, 476 L79, 479 Z" 
        fill="#333" />
            </g>
            <g>
               <path d="M25, 40 L25 535.5 Q25 539.5
                29 539.5
                L42 539.5 "
        style="fill:none; stroke:#444; stroke-width:1" />
               <path d="M42, 536.5 L50, 539.5 L42, 542.5 Z" 
        fill="#333" />
            </g>
            <g>
               <path d="M68.5, 554.5 L68.5 584 Q68.5 588
                72.5 588
                L79 588 "
        style="fill:none; stroke:#444; stroke-width:1" />
               <path d="M79, 585 L87, 588 L79, 591 Z" 
        fill="#333" />
            </g>
            <g>
               <path d="M68.5, 554.5 L68.5 632.5 Q68.5 636.5
                72.5 636.5
                L79 636.5 "
        style="fill:none; stroke:#444; stroke-width:1" />
               <path d="M79, 633.5 L87, 636.5 L79, 639.5 Z" 
        fill="#333" />
            </g>
            <g>
               <path d="M68.5, 554.5 L68.5 681 Q68.5 685
                72.5 685
                L79 685 "
        style="fill:none; stroke:#444; stroke-width:1" />
               <path d="M79, 682 L87, 685 L79, 688 Z" 
        fill="#333" />
            </g>
            <g>
               <path d="M68.5, 554.5 L68.5 729.5 Q68.5 733.5
                72.5 733.5
                L79 733.5 "
        style="fill:none; stroke:#444; stroke-width:1" />
               <path d="M79, 730.5 L87, 733.5 L79, 736.5 Z" 
        fill="#333" />
            </g>
            <g>
               <path d="M68.5, 554.5 L68.5 778 Q68.5 782
                72.5 782
                L79 782 "
        style="fill:none; stroke:#444; stroke-width:1" />
               <path d="M79, 779 L87, 782 L79, 785 Z" 
        fill="#333" />
            </g>
            <g>
               <path d="M68.5, 554.5 L68.5 826.5 Q68.5 830.5
                72.5 830.5
                L79 830.5 "
        style="fill:none; stroke:#444; stroke-width:1" />
               <path d="M79, 827.5 L87, 830.5 L79, 833.5 Z" 
        fill="#333" />
            </g>
            </svg>