<!DOCTYPE svg PUBLIC "-//W3C//DTD SVG 1.1//EN" "http://www.w3.org/Graphics/SVG/1.1/DTD/svg11.dtd">
                <svg xmlns="http://www.w3.org/2000/svg" xmlns:xlink="http://www.w3.org/1999/xlink" 
                width="569" height="1274">
                
            <g>
                <rect x="50" y="80"
            width="252.79999999999998" height="30"
            style="fill:#a5d6a7; stroke:#444; stroke-width:1" />
                    
                <line x1="60" y1="80" x2="60" y2="110"
                style="fill:#a5d6a7; stroke:#444; stroke-width:1" />
                <line x1="292.79999999999995" y1="80" x2="292.79999999999995" y2="110"
                style="fill:#a5d6a7; stroke:#444; stroke-width:1" />
             
                <title>rotate = function(nums, k)</title>
            <text x="75" y="100"
                font-family="monospace" font-size="13" fill="#222">
                <tspan x="75" y="100">rotate = function(nums, k)</tspan>
            </text>
                
            </g>
                <g>
                   <rect x="87" y="128.5"
            width="443.4" height="30"
            rx="2" ry="2"
            style="fill:#C5E1A5; stroke:#444; stroke-width:1" />
                   <title>nums.unshift.apply(nums, nums.splice(nums.length - k, k))</title>
            <text x="102" y="148.5"
                font-family="monospace" font-size="13" fill="#222">
                <tspan x="102" y="148.5">nums.unshift.apply(nums, nums.splice(nums.length -...</tspan>
            </text>
                   
                   
                </g>
                <g>
                   <rect x="50" y="177"
            width="100.2" height="30"
            rx="3" ry="3"
            style="fill:#90caf9; stroke:#444; stroke-width:1" />
                   <title>let n = 0</title>
            <text x="65" y="197"
                font-family="monospace" font-size="13" fill="#222">
                <tspan x="65" y="197">let n = 0</tspan>
            </text>
                   
                   
                </g>
                <g>
                   <rect x="50" y="225.5"
            width="100.2" height="30"
            rx="3" ry="3"
            style="fill:#90caf9; stroke:#444; stroke-width:1" />
                   <title>let d = 0</title>
            <text x="65" y="245.5"
                font-family="monospace" font-size="13" fill="#222">
                <tspan x="65" y="245.5">let d = 0</tspan>
            </text>
                   
                   
                </g>
                <g>
                   <rect x="50" y="274"
            width="131.39999999999998" height="30"
            rx="3" ry="3"
            style="fill:#90caf9; stroke:#444; stroke-width:1" />
                   <title>let data = []</title>
            <text x="65" y="294"
                font-family="monospace" font-size="13" fill="#222">
                <tspan x="65" y="294">let data = []</tspan>
            </text>
                   
                   
                </g>
            <g>
                <rect x="50" y="337.5"
            width="385.4" height="30"
            style="fill:#a5d6a7; stroke:#444; stroke-width:1" />
                    
                <line x1="60" y1="337.5" x2="60" y2="367.5"
                style="fill:#a5d6a7; stroke:#444; stroke-width:1" />
                <line x1="425.4" y1="337.5" x2="425.4" y2="367.5"
                style="fill:#a5d6a7; stroke:#444; stroke-width:1" />
             
                <title>function getResultsUsingArrayShift(data, d)</title>
            <text x="75" y="357.5"
                font-family="monospace" font-size="13" fill="#222">
                <tspan x="75" y="357.5">function getResultsUsingArrayShift(data, d)</tspan>
            </text>
                
            </g>
                <g>
                   <rect x="87" y="386"
            width="217.2" height="30"
            rx="3" ry="3"
            style="fill:#90caf9; stroke:#444; stroke-width:1" />
                   <title>let temp = data.slice(0)</title>
            <text x="102" y="406"
                font-family="monospace" font-size="13" fill="#222">
                <tspan x="102" y="406">let temp = data.slice(0)</tspan>
            </text>
                   
                   
                </g><g>

            <rect x="117" y="469.5"
            width="130.2" height="30"
            rx="3" ry="3"
            style="fill:#b39ddb; stroke:#444; stroke-width:1" />
            <polygon points="87,484.5 117,454.5 147,484.5 117,514.5"
            style="fill:#b39ddb; stroke:#444; stroke-width:1" />
                
            <title>i &lt; d - 1</title>
            <text x="162" y="489.5"
                font-family="monospace" font-size="13" fill="#222">
                <tspan x="162" y="489.5">i &lt; d - 1</tspan>
            </text>
            
            <text x="105.3" y="489.5"
        font-family="monospace" font-size="13" fill="#222">for</text>
        </g>
                <g>
                   <rect x="137" y="524.5"
            width="53.4" height="30"
            rx="3" ry="3"
            style="fill:#90caf9; stroke:#444; stroke-width:1" />
                   <title>i++</title>
            <text x="152" y="544.5"
                font-family="monospace" font-size="13" fill="#222">
                <tspan x="152" y="544.5">i++</tspan>
            </text>
                   
                   
                </g>
                <g>
                   <rect x="137" y="573"
            width="217.2" height="30"
            rx="3" ry="3"
            style="fill:#90caf9; stroke:#444; stroke-width:1" />
                   <title>let first = temp.shift()</title>
            <text x="152" y="593"
                font-family="monospace" font-size="13" fill="#222">
                <tspan x="152" y="593">let first = temp.shift()</tspan>
            </text>
                   
                   
                </g>
                <g>
                   <rect x="137" y="621.5"
            width="154.8" height="30"
            rx="2" ry="2"
            style="fill:#C5E1A5; stroke:#444; stroke-width:1" />
                   <title>temp.push(first)</title>
            <text x="152" y="641.5"
                font-family="monospace" font-size="13" fill="#222">
                <tspan x="152" y="641.5">temp.push(first)</tspan>
            </text>
                   
                   
                </g>
            <g>
                <rect x="87" y="670"
            width="115.80000000000001" height="30"
            rx="3" ry="3"
            style="fill:#90caf9; stroke:#444; stroke-width:1" />
                
                <line x1="202.8" y1="680" x2="207.8" y2="680"
                style="fill:#a5d6a7; stroke:#444; stroke-width:1" />
                
                <line x1="202.8" y1="690" x2="207.8" y2="690"
                style="fill:#a5d6a7; stroke:#444; stroke-width:1" />

                <path d="M207.8, 674 L223.8, 685 L207.8, 696 Z" 
        fill="#a5d6a7" stroke="#444" stroke-width="1" />
                             
                <title>return temp</title>
            <text x="102" y="690"
                font-family="monospace" font-size="13" fill="#222">
                <tspan x="102" y="690">return temp</tspan>
            </text>
                
            </g>
            <g>
                <rect x="50" y="733.5"
            width="252.79999999999998" height="30"
            style="fill:#a5d6a7; stroke:#444; stroke-width:1" />
                    
                <line x1="60" y1="733.5" x2="60" y2="763.5"
                style="fill:#a5d6a7; stroke:#444; stroke-width:1" />
                <line x1="292.79999999999995" y1="733.5" x2="292.79999999999995" y2="763.5"
                style="fill:#a5d6a7; stroke:#444; stroke-width:1" />
             
                <title>function rotateArray(a, d)</title>
            <text x="75" y="753.5"
                font-family="monospace" font-size="13" fill="#222">
                <tspan x="75" y="753.5">function rotateArray(a, d)</tspan>
            </text>
                
            </g>
                <g>
                   <rect x="87" y="782"
            width="100.2" height="30"
            rx="3" ry="3"
            style="fill:#90caf9; stroke:#444; stroke-width:1" />
                   <title>let i = 0</title>
            <text x="102" y="802"
                font-family="monospace" font-size="13" fill="#222">
                <tspan x="102" y="802">let i = 0</tspan>
            </text>
                   
                   
                </g>
                <g>
                   <rect x="87" y="830.5"
            width="178.2" height="30"
            rx="3" ry="3"
            style="fill:#90caf9; stroke:#444; stroke-width:1" />
                   <title>let size = a.length</title>
            <text x="102" y="850.5"
                font-family="monospace" font-size="13" fill="#222">
                <tspan x="102" y="850.5">let size = a.length</tspan>
            </text>
                   
                   
                </g>
                <g>
                   <rect x="87" y="879"
            width="193.79999999999998" height="30"
            rx="3" ry="3"
            style="fill:#90caf9; stroke:#444; stroke-width:1" />
                   <title>let rotations = d - 1</title>
            <text x="102" y="899"
                font-family="monospace" font-size="13" fill="#222">
                <tspan x="102" y="899">let rotations = d - 1</tspan>
            </text>
                   
                   
                </g>
            <g>
                <rect x="87" y="927.5"
            width="435.59999999999997" height="30"
            rx="3" ry="3"
            style="fill:#90caf9; stroke:#444; stroke-width:1" />
                
                <line x1="522.5999999999999" y1="937.5" x2="527.5999999999999" y2="937.5"
                style="fill:#a5d6a7; stroke:#444; stroke-width:1" />
                
                <line x1="522.5999999999999" y1="947.5" x2="527.5999999999999" y2="947.5"
                style="fill:#a5d6a7; stroke:#444; stroke-width:1" />

                <path d="M527.5999999999999, 931.5 L543.5999999999999, 942.5 L527.5999999999999, 953.5 Z" 
        fill="#a5d6a7" stroke="#444" stroke-width="1" />
                             
                <title>return a.reduce((arr, number) =&gt; {
  arr[(i + (size - rotations)) % size] = number;
  i++;
  return arr;
}, [])</title>
            <text x="102" y="947.5"
                font-family="monospace" font-size="13" fill="#222">
                <tspan x="102" y="947.5">return a.reduce((arr, number) =&gt; {
  arr[(i + (siz...</tspan>
            </text>
                
            </g>
            <g>
                <rect x="124" y="976"
            width="174.8" height="30"
            style="fill:#a5d6a7; stroke:#444; stroke-width:1" />
                    
                <line x1="134" y1="976" x2="134" y2="1006"
                style="fill:#a5d6a7; stroke:#444; stroke-width:1" />
                <line x1="288.8" y1="976" x2="288.8" y2="1006"
                style="fill:#a5d6a7; stroke:#444; stroke-width:1" />
             
                <title>(arr, number) =&gt;</title>
            <text x="149" y="996"
                font-family="monospace" font-size="13" fill="#222">
                <tspan x="149" y="996">(arr, number) =&gt;</tspan>
            </text>
                
            </g>
                <g>
                   <rect x="161" y="1024.5"
            width="381" height="30"
            rx="3" ry="3"
            style="fill:#90caf9; stroke:#444; stroke-width:1" />
                   <title>arr[(i + (size - rotations)) % size] = number</title>
            <text x="176" y="1044.5"
                font-family="monospace" font-size="13" fill="#222">
                <tspan x="176" y="1044.5">arr[(i + (size - rotations)) % size] = number</tspan>
            </text>
                   
                   
                </g>
                <g>
                   <rect x="161" y="1073"
            width="53.4" height="30"
            rx="3" ry="3"
            style="fill:#90caf9; stroke:#444; stroke-width:1" />
                   <title>i++</title>
            <text x="176" y="1093"
                font-family="monospace" font-size="13" fill="#222">
                <tspan x="176" y="1093">i++</tspan>
            </text>
                   
                   
                </g>
            <g>
                <rect x="161" y="1121.5"
            width="108" height="30"
            rx="3" ry="3"
            style="fill:#90caf9; stroke:#444; stroke-width:1" />
                
                <line x1="269" y1="1131.5" x2="274" y2="1131.5"
                style="fill:#a5d6a7; stroke:#444; stroke-width:1" />
                
                <line x1="269" y1="1141.5" x2="274" y2="1141.5"
                style="fill:#a5d6a7; stroke:#444; stroke-width:1" />

                <path d="M274, 1125.5 L290, 1136.5 L274, 1147.5 Z" 
        fill="#a5d6a7" stroke="#444" stroke-width="1" />
                             
                <title>return arr</title>
            <text x="176" y="1141.5"
                font-family="monospace" font-size="13" fill="#222">
                <tspan x="176" y="1141.5">return arr</tspan>
            </text>
                
            </g>
                <g>
                   <rect x="50" y="1170"
            width="373.2" height="30"
            rx="2" ry="2"
            style="fill:#C5E1A5; stroke:#444; stroke-width:1" />
                   <title>console.log(rotateArray([1, 2, 3, 4, 5], 5))</title>
            <text x="65" y="1190"
                font-family="monospace" font-size="13" fill="#222">
                <tspan x="65" y="1190">console.log(rotateArray([1, 2, 3, 4, 5], 5))</tspan>
            </text>
                   
                   
                </g>
                <g>
                   <rect x="50" y="1218.5"
            width="303" height="30"
            rx="2" ry="2"
            style="fill:#C5E1A5; stroke:#444; stroke-width:1" />
                   <title>console.log(rotateArray([1, 2], 2))</title>
            <text x="65" y="1238.5"
                font-family="monospace" font-size="13" fill="#222">
                <tspan x="65" y="1238.5">console.log(rotateArray([1, 2], 2))</tspan>
            </text>
                   
                   
                </g>
            <g>
               <rect x="25" y="13.75"
            width="216.6" height="24"
            style="fill:#fff59d; stroke:#444; stroke-width:1" />
               <circle cx="25" cy="25" r="15"
        style="fill:#fff59d; stroke:#444; stroke-width:1" />
               <title>Program: source module</title>
            <text x="55" y="30"
                font-family="monospace" font-size="13" fill="#222">
                <tspan x="55" y="30">Program: source module</tspan>
            </text>
            </g>
            <g>
               <path d="M25, 40 L25 91 Q25 95
                29 95
                L42 95 "
        style="fill:none; stroke:#444; stroke-width:1" />
               <path d="M42, 92 L50, 95 L42, 98 Z" 
        fill="#333" />
            </g>
            <g>
               <path d="M68.5, 110 L68.5 139.5 Q68.5 143.5
                72.5 143.5
                L79 143.5 "
        style="fill:none; stroke:#444; stroke-width:1" />
               <path d="M79, 140.5 L87, 143.5 L79, 146.5 Z" 
        fill="#333" />
            </g>
            <g>
               <path d="M25, 40 L25 188 Q25 192
                29 192
                L42 192 "
        style="fill:none; stroke:#444; stroke-width:1" />
               <path d="M42, 189 L50, 192 L42, 195 Z" 
        fill="#333" />
            </g>
            <g>
               <path d="M25, 40 L25 236.5 Q25 240.5
                29 240.5
                L42 240.5 "
        style="fill:none; stroke:#444; stroke-width:1" />
               <path d="M42, 237.5 L50, 240.5 L42, 243.5 Z" 
        fill="#333" />
            </g>
            <g>
               <path d="M25, 40 L25 285 Q25 289
                29 289
                L42 289 "
        style="fill:none; stroke:#444; stroke-width:1" />
               <path d="M42, 286 L50, 289 L42, 292 Z" 
        fill="#333" />
            </g>
            <g>
               <path d="M25, 40 L25 348.5 Q25 352.5
                29 352.5
                L42 352.5 "
        style="fill:none; stroke:#444; stroke-width:1" />
               <path d="M42, 349.5 L50, 352.5 L42, 355.5 Z" 
        fill="#333" />
            </g>
            <g>
               <path d="M68.5, 367.5 L68.5 397 Q68.5 401
                72.5 401
                L79 401 "
        style="fill:none; stroke:#444; stroke-width:1" />
               <path d="M79, 398 L87, 401 L79, 404 Z" 
        fill="#333" />
            </g>
            <g>
               <path d="M68.5, 367.5 L68.5 480.5 Q68.5 484.5
                72.5 484.5
                L79 484.5 "
        style="fill:none; stroke:#444; stroke-width:1" />
               <path d="M79, 481.5 L87, 484.5 L79, 487.5 Z" 
        fill="#333" />
            </g>
            <g>
               <path d="M117, 514.5 L117 535.5 Q117 539.5
                121 539.5
                L129 539.5 "
        style="fill:none; stroke:#444; stroke-width:1" />
               <path d="M129, 536.5 L137, 539.5 L129, 542.5 Z" 
        fill="#333" />
            </g>
            <g>
               <path d="M117, 514.5 L117 584 Q117 588
                121 588
                L129 588 "
        style="fill:none; stroke:#444; stroke-width:1" />
               <path d="M129, 585 L137, 588 L129, 591 Z" 
        fill="#333" />
            </g>
            <g>
               <path d="M117, 514.5 L117 632.5 Q117 636.5
                121 636.5
                L129 636.5 "
        style="fill:none; stroke:#444; stroke-width:1" />
               <path d="M129, 633.5 L137, 636.5 L129, 639.5 Z" 
        fill="#333" />
            </g>
            <g>
               <path d="M291.8, 636.5 L370.2 636.5  Q374.2 636.5
                374.2 632.5
                L374.2 442.5 Q374.2 434.5
                370.2 434.5
                L125 434.5  Q117 434.5
                117 438.5
                L117 446.5"
        style="fill:none; stroke:#444; stroke-width:1" />
               <path d="M114, 446.5 L117, 454.5 L120, 446.5 Z" 
        fill="#333" />
            </g>
            <g>
               <path d="M68.5, 367.5 L68.5 681 Q68.5 685
                72.5 685
                L79 685 "
        style="fill:none; stroke:#444; stroke-width:1" />
               <path d="M79, 682 L87, 685 L79, 688 Z" 
        fill="#333" />
            </g>
            <g>
               <path d="M25, 40 L25 744.5 Q25 748.5
                29 748.5
                L42 748.5 "
        style="fill:none; stroke:#444; stroke-width:1" />
               <path d="M42, 745.5 L50, 748.5 L42, 751.5 Z" 
        fill="#333" />
            </g>
            <g>
               <path d="M68.5, 763.5 L68.5 793 Q68.5 797
                72.5 797
                L79 797 "
        style="fill:none; stroke:#444; stroke-width:1" />
               <path d="M79, 794 L87, 797 L79, 800 Z" 
        fill="#333" />
            </g>
            <g>
               <path d="M68.5, 763.5 L68.5 841.5 Q68.5 845.5
                72.5 845.5
                L79 845.5 "
        style="fill:none; stroke:#444; stroke-width:1" />
               <path d="M79, 842.5 L87, 845.5 L79, 848.5 Z" 
        fill="#333" />
            </g>
            <g>
               <path d="M68.5, 763.5 L68.5 890 Q68.5 894
                72.5 894
                L79 894 "
        style="fill:none; stroke:#444; stroke-width:1" />
               <path d="M79, 891 L87, 894 L79, 897 Z" 
        fill="#333" />
            </g>
            <g>
               <path d="M68.5, 763.5 L68.5 938.5 Q68.5 942.5
                72.5 942.5
                L79 942.5 "
        style="fill:none; stroke:#444; stroke-width:1" />
               <path d="M79, 939.5 L87, 942.5 L79, 945.5 Z" 
        fill="#333" />
            </g>
            <g>
               <path d="M105.5, 957.5 L105.5 987 Q105.5 991
                109.5 991
                L116 991 "
        style="fill:none; stroke:#444; stroke-width:1" />
               <path d="M116, 988 L124, 991 L116, 994 Z" 
        fill="#333" />
            </g>
            <g>
               <path d="M142.5, 1006 L142.5 1035.5 Q142.5 1039.5
                146.5 1039.5
                L153 1039.5 "
        style="fill:none; stroke:#444; stroke-width:1" />
               <path d="M153, 1036.5 L161, 1039.5 L153, 1042.5 Z" 
        fill="#333" />
            </g>
            <g>
               <path d="M142.5, 1006 L142.5 1084 Q142.5 1088
                146.5 1088
                L153 1088 "
        style="fill:none; stroke:#444; stroke-width:1" />
               <path d="M153, 1085 L161, 1088 L153, 1091 Z" 
        fill="#333" />
            </g>
            <g>
               <path d="M142.5, 1006 L142.5 1132.5 Q142.5 1136.5
                146.5 1136.5
                L153 1136.5 "
        style="fill:none; stroke:#444; stroke-width:1" />
               <path d="M153, 1133.5 L161, 1136.5 L153, 1139.5 Z" 
        fill="#333" />
            </g>
            <g>
               <path d="M25, 40 L25 1181 Q25 1185
                29 1185
                L42 1185 "
        style="fill:none; stroke:#444; stroke-width:1" />
               <path d="M42, 1182 L50, 1185 L42, 1188 Z" 
        fill="#333" />
            </g>
            <g>
               <path d="M25, 40 L25 1229.5 Q25 1233.5
                29 1233.5
                L42 1233.5 "
        style="fill:none; stroke:#444; stroke-width:1" />
               <path d="M42, 1230.5 L50, 1233.5 L42, 1236.5 Z" 
        fill="#333" />
            </g>
            </svg>