<!DOCTYPE svg PUBLIC "-//W3C//DTD SVG 1.1//EN" "http://www.w3.org/Graphics/SVG/1.1/DTD/svg11.dtd">
                <svg xmlns="http://www.w3.org/2000/svg" xmlns:xlink="http://www.w3.org/1999/xlink" 
                width="656" height="1253">
                
            <g>
                <rect x="50" y="80"
            width="237.2" height="30"
            style="fill:#a5d6a7; stroke:#444; stroke-width:1" />
                    
                <line x1="60" y1="80" x2="60" y2="110"
                style="fill:#a5d6a7; stroke:#444; stroke-width:1" />
                <line x1="277.2" y1="80" x2="277.2" y2="110"
                style="fill:#a5d6a7; stroke:#444; stroke-width:1" />
             
                <title>function rotate1(matrix)</title>
            <text x="75" y="100"
                font-family="monospace" font-size="13" fill="#222">
                <tspan x="75" y="100">function rotate1(matrix)</tspan>
            </text>
                
            </g>
                <g>
                   <rect x="87" y="128.5"
            width="264" height="30"
            rx="3" ry="3"
            style="fill:#90caf9; stroke:#444; stroke-width:1" />
                   <title>const last = matrix.length - 1</title>
            <text x="102" y="148.5"
                font-family="monospace" font-size="13" fill="#222">
                <tspan x="102" y="148.5">const last = matrix.length - 1</tspan>
            </text>
                   
                   
                </g><g>

            <rect x="117" y="212"
            width="223.79999999999998" height="30"
            rx="3" ry="3"
            style="fill:#b39ddb; stroke:#444; stroke-width:1" />
            <polygon points="87,227 117,197 147,227 117,257"
            style="fill:#b39ddb; stroke:#444; stroke-width:1" />
                
            <title>i &lt; matrix.length / 2</title>
            <text x="162" y="232"
                font-family="monospace" font-size="13" fill="#222">
                <tspan x="162" y="232">i &lt; matrix.length / 2</tspan>
            </text>
            
            <text x="105.3" y="232"
        font-family="monospace" font-size="13" fill="#222">for</text>
        </g>
                <g>
                   <rect x="137" y="267"
            width="53.4" height="30"
            rx="3" ry="3"
            style="fill:#90caf9; stroke:#444; stroke-width:1" />
                   <title>i++</title>
            <text x="152" y="287"
                font-family="monospace" font-size="13" fill="#222">
                <tspan x="152" y="287">i++</tspan>
            </text>
                   
                   
                </g><g>

            <rect x="167" y="350.5"
            width="153.6" height="30"
            rx="3" ry="3"
            style="fill:#b39ddb; stroke:#444; stroke-width:1" />
            <polygon points="137,365.5 167,335.5 197,365.5 167,395.5"
            style="fill:#b39ddb; stroke:#444; stroke-width:1" />
                
            <title>j &lt; last - i</title>
            <text x="212" y="370.5"
                font-family="monospace" font-size="13" fill="#222">
                <tspan x="212" y="370.5">j &lt; last - i</tspan>
            </text>
            
            <text x="155.3" y="370.5"
        font-family="monospace" font-size="13" fill="#222">for</text>
        </g>
                <g>
                   <rect x="187" y="405.5"
            width="53.4" height="30"
            rx="3" ry="3"
            style="fill:#90caf9; stroke:#444; stroke-width:1" />
                   <title>j++</title>
            <text x="202" y="425.5"
                font-family="monospace" font-size="13" fill="#222">
                <tspan x="202" y="425.5">j++</tspan>
            </text>
                   
                   
                </g>
                <g>
                   <rect x="187" y="454"
            width="271.79999999999995" height="30"
            rx="2" ry="2"
            style="fill:#C5E1A5; stroke:#444; stroke-width:1" />
                   <title>swap(matrix, i, j, j, last - i)</title>
            <text x="202" y="474"
                font-family="monospace" font-size="13" fill="#222">
                <tspan x="202" y="474">swap(matrix, i, j, j, last - i)</tspan>
            </text>
                   
                   
                </g>
                <g>
                   <rect x="187" y="502.5"
            width="326.4" height="30"
            rx="2" ry="2"
            style="fill:#C5E1A5; stroke:#444; stroke-width:1" />
                   <title>swap(matrix, i, j, last - i, last - j)</title>
            <text x="202" y="522.5"
                font-family="monospace" font-size="13" fill="#222">
                <tspan x="202" y="522.5">swap(matrix, i, j, last - i, last - j)</tspan>
            </text>
                   
                   
                </g>
                <g>
                   <rect x="187" y="551"
            width="271.79999999999995" height="30"
            rx="2" ry="2"
            style="fill:#C5E1A5; stroke:#444; stroke-width:1" />
                   <title>swap(matrix, i, j, last - j, i)</title>
            <text x="202" y="571"
                font-family="monospace" font-size="13" fill="#222">
                <tspan x="202" y="571">swap(matrix, i, j, last - j, i)</tspan>
            </text>
                   
                   
                </g>
            <g>
                <rect x="50" y="614.5"
            width="299.6" height="30"
            style="fill:#a5d6a7; stroke:#444; stroke-width:1" />
                    
                <line x1="60" y1="614.5" x2="60" y2="644.5"
                style="fill:#a5d6a7; stroke:#444; stroke-width:1" />
                <line x1="339.6" y1="614.5" x2="339.6" y2="644.5"
                style="fill:#a5d6a7; stroke:#444; stroke-width:1" />
             
                <title>function swap(m, x1, y1, x2, y2)</title>
            <text x="75" y="634.5"
                font-family="monospace" font-size="13" fill="#222">
                <tspan x="75" y="634.5">function swap(m, x1, y1, x2, y2)</tspan>
            </text>
                
            </g>
                <g>
                   <rect x="87" y="663"
            width="396.59999999999997" height="30"
            rx="3" ry="3"
            style="fill:#90caf9; stroke:#444; stroke-width:1" />
                   <title>[m[x1][y1], m[x2][y2]] = [m[x2][y2], m[x1][y1]]</title>
            <text x="102" y="683"
                font-family="monospace" font-size="13" fill="#222">
                <tspan x="102" y="683">[m[x1][y1], m[x2][y2]] = [m[x2][y2], m[x1][y1]]</tspan>
            </text>
                   
                   
                </g>
                <g>
                   <rect x="124" y="711.5"
            width="69" height="30"
            rx="3" ry="3"
            style="fill:#90caf9; stroke:#444; stroke-width:1" />
                   <title>[...]</title>
            <text x="139" y="731.5"
                font-family="monospace" font-size="13" fill="#222">
                <tspan x="139" y="731.5">[...]</tspan>
            </text>
                   
                   
                </g>
            <g>
                <rect x="50" y="775"
            width="229.4" height="30"
            style="fill:#a5d6a7; stroke:#444; stroke-width:1" />
                    
                <line x1="60" y1="775" x2="60" y2="805"
                style="fill:#a5d6a7; stroke:#444; stroke-width:1" />
                <line x1="269.4" y1="775" x2="269.4" y2="805"
                style="fill:#a5d6a7; stroke:#444; stroke-width:1" />
             
                <title>function rotate(matrix)</title>
            <text x="75" y="795"
                font-family="monospace" font-size="13" fill="#222">
                <tspan x="75" y="795">function rotate(matrix)</tspan>
            </text>
                
            </g>
                <g>
                   <rect x="87" y="823.5"
            width="154.8" height="30"
            rx="2" ry="2"
            style="fill:#C5E1A5; stroke:#444; stroke-width:1" />
                   <title>matrix.reverse()</title>
            <text x="102" y="843.5"
                font-family="monospace" font-size="13" fill="#222">
                <tspan x="102" y="843.5">matrix.reverse()</tspan>
            </text>
                   
                   
                </g><g>

            <rect x="117" y="907"
            width="192.6" height="30"
            rx="3" ry="3"
            style="fill:#b39ddb; stroke:#444; stroke-width:1" />
            <polygon points="87,922 117,892 147,922 117,952"
            style="fill:#b39ddb; stroke:#444; stroke-width:1" />
                
            <title>i &lt; matrix.length</title>
            <text x="162" y="927"
                font-family="monospace" font-size="13" fill="#222">
                <tspan x="162" y="927">i &lt; matrix.length</tspan>
            </text>
            
            <text x="105.3" y="927"
        font-family="monospace" font-size="13" fill="#222">for</text>
        </g>
                <g>
                   <rect x="137" y="962"
            width="53.4" height="30"
            rx="3" ry="3"
            style="fill:#90caf9; stroke:#444; stroke-width:1" />
                   <title>i++</title>
            <text x="152" y="982"
                font-family="monospace" font-size="13" fill="#222">
                <tspan x="152" y="982">i++</tspan>
            </text>
                   
                   
                </g><g>

            <rect x="167" y="1045.5"
            width="216" height="30"
            rx="3" ry="3"
            style="fill:#b39ddb; stroke:#444; stroke-width:1" />
            <polygon points="137,1060.5 167,1030.5 197,1060.5 167,1090.5"
            style="fill:#b39ddb; stroke:#444; stroke-width:1" />
                
            <title>j &lt; matrix[i].length</title>
            <text x="212" y="1065.5"
                font-family="monospace" font-size="13" fill="#222">
                <tspan x="212" y="1065.5">j &lt; matrix[i].length</tspan>
            </text>
            
            <text x="155.3" y="1065.5"
        font-family="monospace" font-size="13" fill="#222">for</text>
        </g>
                <g>
                   <rect x="187" y="1100.5"
            width="53.4" height="30"
            rx="3" ry="3"
            style="fill:#90caf9; stroke:#444; stroke-width:1" />
                   <title>j++</title>
            <text x="202" y="1120.5"
                font-family="monospace" font-size="13" fill="#222">
                <tspan x="202" y="1120.5">j++</tspan>
            </text>
                   
                   
                </g>
                <g>
                   <rect x="187" y="1149"
            width="443.4" height="30"
            rx="3" ry="3"
            style="fill:#90caf9; stroke:#444; stroke-width:1" />
                   <title>[matrix[i][j], matrix[j][i]] = [matrix[j][i], matrix[i][j]]</title>
            <text x="202" y="1169"
                font-family="monospace" font-size="13" fill="#222">
                <tspan x="202" y="1169">[matrix[i][j], matrix[j][i]] = [matrix[j][i], matr...</tspan>
            </text>
                   
                   
                </g>
                <g>
                   <rect x="224" y="1197.5"
            width="69" height="30"
            rx="3" ry="3"
            style="fill:#90caf9; stroke:#444; stroke-width:1" />
                   <title>[...]</title>
            <text x="239" y="1217.5"
                font-family="monospace" font-size="13" fill="#222">
                <tspan x="239" y="1217.5">[...]</tspan>
            </text>
                   
                   
                </g>
            <g>
               <rect x="25" y="13.75"
            width="216.6" height="24"
            style="fill:#fff59d; stroke:#444; stroke-width:1" />
               <circle cx="25" cy="25" r="15"
        style="fill:#fff59d; stroke:#444; stroke-width:1" />
               <title>Program: source module</title>
            <text x="55" y="30"
                font-family="monospace" font-size="13" fill="#222">
                <tspan x="55" y="30">Program: source module</tspan>
            </text>
            </g>
            <g>
               <path d="M25, 40 L25 91 Q25 95
                29 95
                L42 95 "
        style="fill:none; stroke:#444; stroke-width:1" />
               <path d="M42, 92 L50, 95 L42, 98 Z" 
        fill="#333" />
            </g>
            <g>
               <path d="M68.5, 110 L68.5 139.5 Q68.5 143.5
                72.5 143.5
                L79 143.5 "
        style="fill:none; stroke:#444; stroke-width:1" />
               <path d="M79, 140.5 L87, 143.5 L79, 146.5 Z" 
        fill="#333" />
            </g>
            <g>
               <path d="M68.5, 110 L68.5 223 Q68.5 227
                72.5 227
                L79 227 "
        style="fill:none; stroke:#444; stroke-width:1" />
               <path d="M79, 224 L87, 227 L79, 230 Z" 
        fill="#333" />
            </g>
            <g>
               <path d="M117, 257 L117 278 Q117 282
                121 282
                L129 282 "
        style="fill:none; stroke:#444; stroke-width:1" />
               <path d="M129, 279 L137, 282 L129, 285 Z" 
        fill="#333" />
            </g>
            <g>
               <path d="M117, 257 L117 361.5 Q117 365.5
                121 365.5
                L129 365.5 "
        style="fill:none; stroke:#444; stroke-width:1" />
               <path d="M129, 362.5 L137, 365.5 L129, 368.5 Z" 
        fill="#333" />
            </g>
            <g>
               <path d="M167, 395.5 L167 416.5 Q167 420.5
                171 420.5
                L179 420.5 "
        style="fill:none; stroke:#444; stroke-width:1" />
               <path d="M179, 417.5 L187, 420.5 L179, 423.5 Z" 
        fill="#333" />
            </g>
            <g>
               <path d="M167, 395.5 L167 465 Q167 469
                171 469
                L179 469 "
        style="fill:none; stroke:#444; stroke-width:1" />
               <path d="M179, 466 L187, 469 L179, 472 Z" 
        fill="#333" />
            </g>
            <g>
               <path d="M167, 395.5 L167 513.5 Q167 517.5
                171 517.5
                L179 517.5 "
        style="fill:none; stroke:#444; stroke-width:1" />
               <path d="M179, 514.5 L187, 517.5 L179, 520.5 Z" 
        fill="#333" />
            </g>
            <g>
               <path d="M167, 395.5 L167 562 Q167 566
                171 566
                L179 566 "
        style="fill:none; stroke:#444; stroke-width:1" />
               <path d="M179, 563 L187, 566 L179, 569 Z" 
        fill="#333" />
            </g>
            <g>
               <path d="M458.79999999999995, 566 L529.4 566  Q533.4 566
                533.4 562
                L533.4 323.5 Q533.4 315.5
                529.4 315.5
                L175 315.5  Q167 315.5
                167 319.5
                L167 327.5"
        style="fill:none; stroke:#444; stroke-width:1" />
               <path d="M164, 327.5 L167, 335.5 L170, 327.5 Z" 
        fill="#333" />
            </g>
            <g>
               <path d="M458.79999999999995, 566 L529.4 566  Q533.4 566
                533.4 562
                L533.4 185 Q533.4 177
                529.4 177
                L125 177  Q117 177
                117 181
                L117 189"
        style="fill:none; stroke:#444; stroke-width:1" />
               <path d="M114, 189 L117, 197 L120, 189 Z" 
        fill="#333" />
            </g>
            <g>
               <path d="M25, 40 L25 625.5 Q25 629.5
                29 629.5
                L42 629.5 "
        style="fill:none; stroke:#444; stroke-width:1" />
               <path d="M42, 626.5 L50, 629.5 L42, 632.5 Z" 
        fill="#333" />
            </g>
            <g>
               <path d="M68.5, 644.5 L68.5 674 Q68.5 678
                72.5 678
                L79 678 "
        style="fill:none; stroke:#444; stroke-width:1" />
               <path d="M79, 675 L87, 678 L79, 681 Z" 
        fill="#333" />
            </g>
            <g>
               <path d="M105.5, 693 L105.5 722.5 Q105.5 726.5
                109.5 726.5
                L116 726.5 "
        style="fill:none; stroke:#444; stroke-width:1" />
               <path d="M116, 723.5 L124, 726.5 L116, 729.5 Z" 
        fill="#333" />
            </g>
            <g>
               <path d="M25, 40 L25 786 Q25 790
                29 790
                L42 790 "
        style="fill:none; stroke:#444; stroke-width:1" />
               <path d="M42, 787 L50, 790 L42, 793 Z" 
        fill="#333" />
            </g>
            <g>
               <path d="M68.5, 805 L68.5 834.5 Q68.5 838.5
                72.5 838.5
                L79 838.5 "
        style="fill:none; stroke:#444; stroke-width:1" />
               <path d="M79, 835.5 L87, 838.5 L79, 841.5 Z" 
        fill="#333" />
            </g>
            <g>
               <path d="M68.5, 805 L68.5 918 Q68.5 922
                72.5 922
                L79 922 "
        style="fill:none; stroke:#444; stroke-width:1" />
               <path d="M79, 919 L87, 922 L79, 925 Z" 
        fill="#333" />
            </g>
            <g>
               <path d="M117, 952 L117 973 Q117 977
                121 977
                L129 977 "
        style="fill:none; stroke:#444; stroke-width:1" />
               <path d="M129, 974 L137, 977 L129, 980 Z" 
        fill="#333" />
            </g>
            <g>
               <path d="M117, 952 L117 1056.5 Q117 1060.5
                121 1060.5
                L129 1060.5 "
        style="fill:none; stroke:#444; stroke-width:1" />
               <path d="M129, 1057.5 L137, 1060.5 L129, 1063.5 Z" 
        fill="#333" />
            </g>
            <g>
               <path d="M167, 1090.5 L167 1111.5 Q167 1115.5
                171 1115.5
                L179 1115.5 "
        style="fill:none; stroke:#444; stroke-width:1" />
               <path d="M179, 1112.5 L187, 1115.5 L179, 1118.5 Z" 
        fill="#333" />
            </g>
            <g>
               <path d="M167, 1090.5 L167 1160 Q167 1164
                171 1164
                L179 1164 "
        style="fill:none; stroke:#444; stroke-width:1" />
               <path d="M179, 1161 L187, 1164 L179, 1167 Z" 
        fill="#333" />
            </g>
            <g>
               <path d="M205.5, 1179 L205.5 1208.5 Q205.5 1212.5
                209.5 1212.5
                L216 1212.5 "
        style="fill:none; stroke:#444; stroke-width:1" />
               <path d="M216, 1209.5 L224, 1212.5 L216, 1215.5 Z" 
        fill="#333" />
            </g>
            <g>
               <path d="M293, 1212.5 L646.4 1212.5  Q650.4 1212.5
                650.4 1208.5
                L650.4 1018.5 Q650.4 1010.5
                646.4 1010.5
                L175 1010.5  Q167 1010.5
                167 1014.5
                L167 1022.5"
        style="fill:none; stroke:#444; stroke-width:1" />
               <path d="M164, 1022.5 L167, 1030.5 L170, 1022.5 Z" 
        fill="#333" />
            </g>
            <g>
               <path d="M293, 1212.5 L646.4 1212.5  Q650.4 1212.5
                650.4 1208.5
                L650.4 880 Q650.4 872
                646.4 872
                L125 872  Q117 872
                117 876
                L117 884"
        style="fill:none; stroke:#444; stroke-width:1" />
               <path d="M114, 884 L117, 892 L120, 884 Z" 
        fill="#333" />
            </g>
            </svg>