<!DOCTYPE svg PUBLIC "-//W3C//DTD SVG 1.1//EN" "http://www.w3.org/Graphics/SVG/1.1/DTD/svg11.dtd">
                <svg xmlns="http://www.w3.org/2000/svg" xmlns:xlink="http://www.w3.org/1999/xlink" 
                width="556" height="1574">
                
            <g>
                <rect x="50" y="80"
            width="252.79999999999998" height="30"
            style="fill:#a5d6a7; stroke:#444; stroke-width:1" />
                    
                <line x1="60" y1="80" x2="60" y2="110"
                style="fill:#a5d6a7; stroke:#444; stroke-width:1" />
                <line x1="292.79999999999995" y1="80" x2="292.79999999999995" y2="110"
                style="fill:#a5d6a7; stroke:#444; stroke-width:1" />
             
                <title>rotate = function(nums, k)</title>
            <text x="75" y="100"
                font-family="monospace" font-size="13" fill="#222">
                <tspan x="75" y="100">rotate = function(nums, k)</tspan>
            </text>
                
            </g>
                <g>
                   <rect x="87" y="128.5"
            width="443.4" height="30"
            rx="2" ry="2"
            style="fill:#C5E1A5; stroke:#444; stroke-width:1" />
                   <title>nums.unshift.apply(nums, nums.splice(nums.length - k, k))</title>
            <text x="102" y="148.5"
                font-family="monospace" font-size="13" fill="#222">
                <tspan x="102" y="148.5">nums.unshift.apply(nums, nums.splice(nums.length -...</tspan>
            </text>
                   
                   
                </g>
            <g>
                <rect x="50" y="192"
            width="268.4" height="30"
            style="fill:#a5d6a7; stroke:#444; stroke-width:1" />
                    
                <line x1="60" y1="192" x2="60" y2="222"
                style="fill:#a5d6a7; stroke:#444; stroke-width:1" />
                <line x1="308.4" y1="192" x2="308.4" y2="222"
                style="fill:#a5d6a7; stroke:#444; stroke-width:1" />
             
                <title>reverseWords = function(str)</title>
            <text x="75" y="212"
                font-family="monospace" font-size="13" fill="#222">
                <tspan x="75" y="212">reverseWords = function(str)</tspan>
            </text>
                
            </g>
                <g>
                   <rect x="87" y="240.5"
            width="147" height="30"
            rx="3" ry="3"
            style="fill:#90caf9; stroke:#444; stroke-width:1" />
                   <title>let output = []</title>
            <text x="102" y="260.5"
                font-family="monospace" font-size="13" fill="#222">
                <tspan x="102" y="260.5">let output = []</tspan>
            </text>
                   
                   
                </g>
                <g>
                   <rect x="87" y="289"
            width="232.79999999999998" height="30"
            rx="3" ry="3"
            style="fill:#90caf9; stroke:#444; stroke-width:1" />
                   <title>let words = str.split(&apos; &apos;)</title>
            <text x="102" y="309"
                font-family="monospace" font-size="13" fill="#222">
                <tspan x="102" y="309">let words = str.split(&apos; &apos;)</tspan>
            </text>
                   
                   
                </g><g>

            <rect x="117" y="372.5"
            width="138" height="30"
            rx="3" ry="3"
            style="fill:#b39ddb; stroke:#444; stroke-width:1" />
            <polygon points="87,387.5 117,357.5 147,387.5 117,417.5"
            style="fill:#b39ddb; stroke:#444; stroke-width:1" />
                
            <title>index &gt; -1</title>
            <text x="162" y="392.5"
                font-family="monospace" font-size="13" fill="#222">
                <tspan x="162" y="392.5">index &gt; -1</tspan>
            </text>
            
            <text x="105.3" y="392.5"
        font-family="monospace" font-size="13" fill="#222">for</text>
        </g>
                <g>
                   <rect x="137" y="427.5"
            width="84.6" height="30"
            rx="3" ry="3"
            style="fill:#90caf9; stroke:#444; stroke-width:1" />
                   <title>index--</title>
            <text x="152" y="447.5"
                font-family="monospace" font-size="13" fill="#222">
                <tspan x="152" y="447.5">index--</tspan>
            </text>
                   
                   
                </g>
                <g>
                   <rect x="137" y="476"
            width="209.4" height="30"
            rx="3" ry="3"
            style="fill:#90caf9; stroke:#444; stroke-width:1" />
                   <title>let word = words[index]</title>
            <text x="152" y="496"
                font-family="monospace" font-size="13" fill="#222">
                <tspan x="152" y="496">let word = words[index]</tspan>
            </text>
                   
                   
                </g><g>
            <rect x="167" y="539.5"
            width="106.80000000000001" height="30"
            rx="3" ry="3"
            style="fill:#ce93d8; stroke:#444; stroke-width:1" />                
            <polygon points="137,554.5 167,524.5 197,554.5 167,584.5"
            style="fill:#ce93d8; stroke:#444; stroke-width:1" />
            <title>(word)</title>
            <text x="212" y="559.5"
                font-family="monospace" font-size="13" fill="#222">
                <tspan x="212" y="559.5">(word)</tspan>
            </text>
            
            <text x="159.2" y="559.5"
        font-family="monospace" font-size="13" fill="#222">if</text> <text x="174.8" y="586.45"
        font-family="monospace" font-size="13" fill="#222">+</text> 
        </g>
                <g>
                   <rect x="187" y="594.5"
            width="162.6" height="30"
            rx="2" ry="2"
            style="fill:#C5E1A5; stroke:#444; stroke-width:1" />
                   <title>output.push(word)</title>
            <text x="202" y="614.5"
                font-family="monospace" font-size="13" fill="#222">
                <tspan x="202" y="614.5">output.push(word)</tspan>
            </text>
                   
                   
                </g>
            <g>
                <rect x="87" y="644.5"
            width="209.4" height="30"
            rx="3" ry="3"
            style="fill:#90caf9; stroke:#444; stroke-width:1" />
                
                <line x1="296.4" y1="654.5" x2="301.4" y2="654.5"
                style="fill:#a5d6a7; stroke:#444; stroke-width:1" />
                
                <line x1="296.4" y1="664.5" x2="301.4" y2="664.5"
                style="fill:#a5d6a7; stroke:#444; stroke-width:1" />

                <path d="M301.4, 648.5 L317.4, 659.5 L301.4, 670.5 Z" 
        fill="#a5d6a7" stroke="#444" stroke-width="1" />
                             
                <title>return output.join(&apos; &apos;)</title>
            <text x="102" y="664.5"
                font-family="monospace" font-size="13" fill="#222">
                <tspan x="102" y="664.5">return output.join(&apos; &apos;)</tspan>
            </text>
                
            </g>
                <g>
                   <rect x="50" y="693"
            width="373.2" height="30"
            rx="2" ry="2"
            style="fill:#C5E1A5; stroke:#444; stroke-width:1" />
                   <title>console.log(reverseWords(&apos;the sky is blue&apos;))</title>
            <text x="65" y="713"
                font-family="monospace" font-size="13" fill="#222">
                <tspan x="65" y="713">console.log(reverseWords(&apos;the sky is blue&apos;))</tspan>
            </text>
                   
                   
                </g>
                <g>
                   <rect x="50" y="741.5"
            width="388.8" height="30"
            rx="2" ry="2"
            style="fill:#C5E1A5; stroke:#444; stroke-width:1" />
                   <title>console.log(reverseWords(&apos; the sky is blue &apos;))</title>
            <text x="65" y="761.5"
                font-family="monospace" font-size="13" fill="#222">
                <tspan x="65" y="761.5">console.log(reverseWords(&apos; the sky is blue &apos;))</tspan>
            </text>
                   
                   
                </g>
            <g>
                <rect x="50" y="805"
            width="276.2" height="30"
            style="fill:#a5d6a7; stroke:#444; stroke-width:1" />
                    
                <line x1="60" y1="805" x2="60" y2="835"
                style="fill:#a5d6a7; stroke:#444; stroke-width:1" />
                <line x1="316.2" y1="805" x2="316.2" y2="835"
                style="fill:#a5d6a7; stroke:#444; stroke-width:1" />
             
                <title>reverseWords2 = function(str)</title>
            <text x="75" y="825"
                font-family="monospace" font-size="13" fill="#222">
                <tspan x="75" y="825">reverseWords2 = function(str)</tspan>
            </text>
                
            </g>
                <g>
                   <rect x="87" y="853.5"
            width="147" height="30"
            rx="3" ry="3"
            style="fill:#90caf9; stroke:#444; stroke-width:1" />
                   <title>let output = []</title>
            <text x="102" y="873.5"
                font-family="monospace" font-size="13" fill="#222">
                <tspan x="102" y="873.5">let output = []</tspan>
            </text>
                   
                   
                </g>
                <g>
                   <rect x="87" y="902"
            width="232.79999999999998" height="30"
            rx="3" ry="3"
            style="fill:#90caf9; stroke:#444; stroke-width:1" />
                   <title>let words = str.split(&apos; &apos;)</title>
            <text x="102" y="922"
                font-family="monospace" font-size="13" fill="#222">
                <tspan x="102" y="922">let words = str.split(&apos; &apos;)</tspan>
            </text>
                   
                   
                </g><g>

            <rect x="117" y="985.5"
            width="216" height="30"
            rx="3" ry="3"
            style="fill:#b39ddb; stroke:#444; stroke-width:1" />
            <polygon points="87,1000.5 117,970.5 147,1000.5 117,1030.5"
            style="fill:#b39ddb; stroke:#444; stroke-width:1" />
                
            <title>index &lt; words.length</title>
            <text x="162" y="1005.5"
                font-family="monospace" font-size="13" fill="#222">
                <tspan x="162" y="1005.5">index &lt; words.length</tspan>
            </text>
            
            <text x="105.3" y="1005.5"
        font-family="monospace" font-size="13" fill="#222">for</text>
        </g>
                <g>
                   <rect x="137" y="1040.5"
            width="84.6" height="30"
            rx="3" ry="3"
            style="fill:#90caf9; stroke:#444; stroke-width:1" />
                   <title>index++</title>
            <text x="152" y="1060.5"
                font-family="monospace" font-size="13" fill="#222">
                <tspan x="152" y="1060.5">index++</tspan>
            </text>
                   
                   
                </g>
                <g>
                   <rect x="137" y="1089"
            width="209.4" height="30"
            rx="3" ry="3"
            style="fill:#90caf9; stroke:#444; stroke-width:1" />
                   <title>let word = words[index]</title>
            <text x="152" y="1109"
                font-family="monospace" font-size="13" fill="#222">
                <tspan x="152" y="1109">let word = words[index]</tspan>
            </text>
                   
                   
                </g>
                <g>
                   <rect x="137" y="1137.5"
            width="131.39999999999998" height="30"
            rx="3" ry="3"
            style="fill:#90caf9; stroke:#444; stroke-width:1" />
                   <title>let temp = []</title>
            <text x="152" y="1157.5"
                font-family="monospace" font-size="13" fill="#222">
                <tspan x="152" y="1157.5">let temp = []</tspan>
            </text>
                   
                   
                </g><g>

            <rect x="167" y="1221"
            width="138" height="30"
            rx="3" ry="3"
            style="fill:#b39ddb; stroke:#444; stroke-width:1" />
            <polygon points="137,1236 167,1206 197,1236 167,1266"
            style="fill:#b39ddb; stroke:#444; stroke-width:1" />
                
            <title>index &gt; -1</title>
            <text x="212" y="1241"
                font-family="monospace" font-size="13" fill="#222">
                <tspan x="212" y="1241">index &gt; -1</tspan>
            </text>
            
            <text x="155.3" y="1241"
        font-family="monospace" font-size="13" fill="#222">for</text>
        </g>
                <g>
                   <rect x="187" y="1276"
            width="84.6" height="30"
            rx="3" ry="3"
            style="fill:#90caf9; stroke:#444; stroke-width:1" />
                   <title>index--</title>
            <text x="202" y="1296"
                font-family="monospace" font-size="13" fill="#222">
                <tspan x="202" y="1296">index--</tspan>
            </text>
                   
                   
                </g>
                <g>
                   <rect x="187" y="1324.5"
            width="178.2" height="30"
            rx="3" ry="3"
            style="fill:#90caf9; stroke:#444; stroke-width:1" />
                   <title>let w = word[index]</title>
            <text x="202" y="1344.5"
                font-family="monospace" font-size="13" fill="#222">
                <tspan x="202" y="1344.5">let w = word[index]</tspan>
            </text>
                   
                   
                </g>
                <g>
                   <rect x="187" y="1373"
            width="123.6" height="30"
            rx="2" ry="2"
            style="fill:#C5E1A5; stroke:#444; stroke-width:1" />
                   <title>temp.push(w)</title>
            <text x="202" y="1393"
                font-family="monospace" font-size="13" fill="#222">
                <tspan x="202" y="1393">temp.push(w)</tspan>
            </text>
                   
                   
                </g>
                <g>
                   <rect x="137" y="1421.5"
            width="232.79999999999998" height="30"
            rx="2" ry="2"
            style="fill:#C5E1A5; stroke:#444; stroke-width:1" />
                   <title>output.push(temp.join(&apos;&apos;))</title>
            <text x="152" y="1441.5"
                font-family="monospace" font-size="13" fill="#222">
                <tspan x="152" y="1441.5">output.push(temp.join(&apos;&apos;))</tspan>
            </text>
                   
                   
                </g>
            <g>
                <rect x="87" y="1470"
            width="209.4" height="30"
            rx="3" ry="3"
            style="fill:#90caf9; stroke:#444; stroke-width:1" />
                
                <line x1="296.4" y1="1480" x2="301.4" y2="1480"
                style="fill:#a5d6a7; stroke:#444; stroke-width:1" />
                
                <line x1="296.4" y1="1490" x2="301.4" y2="1490"
                style="fill:#a5d6a7; stroke:#444; stroke-width:1" />

                <path d="M301.4, 1474 L317.4, 1485 L301.4, 1496 Z" 
        fill="#a5d6a7" stroke="#444" stroke-width="1" />
                             
                <title>return output.join(&apos; &apos;)</title>
            <text x="102" y="1490"
                font-family="monospace" font-size="13" fill="#222">
                <tspan x="102" y="1490">return output.join(&apos; &apos;)</tspan>
            </text>
                
            </g>
                <g>
                   <rect x="50" y="1518.5"
            width="443.4" height="30"
            rx="2" ry="2"
            style="fill:#C5E1A5; stroke:#444; stroke-width:1" />
                   <title>console.log(reverseWords2(&quot;Let&apos;s take LeetCode contest&quot;))</title>
            <text x="65" y="1538.5"
                font-family="monospace" font-size="13" fill="#222">
                <tspan x="65" y="1538.5">console.log(reverseWords2(&quot;Let&apos;s take LeetCode con...</tspan>
            </text>
                   
                   
                </g>
            <g>
               <rect x="25" y="13.75"
            width="216.6" height="24"
            style="fill:#fff59d; stroke:#444; stroke-width:1" />
               <circle cx="25" cy="25" r="15"
        style="fill:#fff59d; stroke:#444; stroke-width:1" />
               <title>Program: source module</title>
            <text x="55" y="30"
                font-family="monospace" font-size="13" fill="#222">
                <tspan x="55" y="30">Program: source module</tspan>
            </text>
            </g>
            <g>
               <path d="M25, 40 L25 91 Q25 95
                29 95
                L42 95 "
        style="fill:none; stroke:#444; stroke-width:1" />
               <path d="M42, 92 L50, 95 L42, 98 Z" 
        fill="#333" />
            </g>
            <g>
               <path d="M68.5, 110 L68.5 139.5 Q68.5 143.5
                72.5 143.5
                L79 143.5 "
        style="fill:none; stroke:#444; stroke-width:1" />
               <path d="M79, 140.5 L87, 143.5 L79, 146.5 Z" 
        fill="#333" />
            </g>
            <g>
               <path d="M25, 40 L25 203 Q25 207
                29 207
                L42 207 "
        style="fill:none; stroke:#444; stroke-width:1" />
               <path d="M42, 204 L50, 207 L42, 210 Z" 
        fill="#333" />
            </g>
            <g>
               <path d="M68.5, 222 L68.5 251.5 Q68.5 255.5
                72.5 255.5
                L79 255.5 "
        style="fill:none; stroke:#444; stroke-width:1" />
               <path d="M79, 252.5 L87, 255.5 L79, 258.5 Z" 
        fill="#333" />
            </g>
            <g>
               <path d="M68.5, 222 L68.5 300 Q68.5 304
                72.5 304
                L79 304 "
        style="fill:none; stroke:#444; stroke-width:1" />
               <path d="M79, 301 L87, 304 L79, 307 Z" 
        fill="#333" />
            </g>
            <g>
               <path d="M68.5, 222 L68.5 383.5 Q68.5 387.5
                72.5 387.5
                L79 387.5 "
        style="fill:none; stroke:#444; stroke-width:1" />
               <path d="M79, 384.5 L87, 387.5 L79, 390.5 Z" 
        fill="#333" />
            </g>
            <g>
               <path d="M117, 417.5 L117 438.5 Q117 442.5
                121 442.5
                L129 442.5 "
        style="fill:none; stroke:#444; stroke-width:1" />
               <path d="M129, 439.5 L137, 442.5 L129, 445.5 Z" 
        fill="#333" />
            </g>
            <g>
               <path d="M117, 417.5 L117 487 Q117 491
                121 491
                L129 491 "
        style="fill:none; stroke:#444; stroke-width:1" />
               <path d="M129, 488 L137, 491 L129, 494 Z" 
        fill="#333" />
            </g>
            <g>
               <path d="M117, 417.5 L117 550.5 Q117 554.5
                121 554.5
                L129 554.5 "
        style="fill:none; stroke:#444; stroke-width:1" />
               <path d="M129, 551.5 L137, 554.5 L129, 557.5 Z" 
        fill="#333" />
            </g>
            <g>
               <path d="M167, 584.5 L167 605.5 Q167 609.5
                171 609.5
                L179 609.5 "
        style="fill:none; stroke:#444; stroke-width:1" />
               <path d="M179, 606.5 L187, 609.5 L179, 612.5 Z" 
        fill="#333" />
            </g>
            <g>
               <path d="M349.6, 609.5 L365.6 609.5  Q369.6 609.5
                369.6 605.5
                L369.6 345.5 Q369.6 337.5
                365.6 337.5
                L125 337.5  Q117 337.5
                117 341.5
                L117 349.5"
        style="fill:none; stroke:#444; stroke-width:1" />
               <path d="M114, 349.5 L117, 357.5 L120, 349.5 Z" 
        fill="#333" />
            </g>
            <g>
               <path d="M68.5, 222 L68.5 655.5 Q68.5 659.5
                72.5 659.5
                L79 659.5 "
        style="fill:none; stroke:#444; stroke-width:1" />
               <path d="M79, 656.5 L87, 659.5 L79, 662.5 Z" 
        fill="#333" />
            </g>
            <g>
               <path d="M25, 40 L25 704 Q25 708
                29 708
                L42 708 "
        style="fill:none; stroke:#444; stroke-width:1" />
               <path d="M42, 705 L50, 708 L42, 711 Z" 
        fill="#333" />
            </g>
            <g>
               <path d="M25, 40 L25 752.5 Q25 756.5
                29 756.5
                L42 756.5 "
        style="fill:none; stroke:#444; stroke-width:1" />
               <path d="M42, 753.5 L50, 756.5 L42, 759.5 Z" 
        fill="#333" />
            </g>
            <g>
               <path d="M25, 40 L25 816 Q25 820
                29 820
                L42 820 "
        style="fill:none; stroke:#444; stroke-width:1" />
               <path d="M42, 817 L50, 820 L42, 823 Z" 
        fill="#333" />
            </g>
            <g>
               <path d="M68.5, 835 L68.5 864.5 Q68.5 868.5
                72.5 868.5
                L79 868.5 "
        style="fill:none; stroke:#444; stroke-width:1" />
               <path d="M79, 865.5 L87, 868.5 L79, 871.5 Z" 
        fill="#333" />
            </g>
            <g>
               <path d="M68.5, 835 L68.5 913 Q68.5 917
                72.5 917
                L79 917 "
        style="fill:none; stroke:#444; stroke-width:1" />
               <path d="M79, 914 L87, 917 L79, 920 Z" 
        fill="#333" />
            </g>
            <g>
               <path d="M68.5, 835 L68.5 996.5 Q68.5 1000.5
                72.5 1000.5
                L79 1000.5 "
        style="fill:none; stroke:#444; stroke-width:1" />
               <path d="M79, 997.5 L87, 1000.5 L79, 1003.5 Z" 
        fill="#333" />
            </g>
            <g>
               <path d="M117, 1030.5 L117 1051.5 Q117 1055.5
                121 1055.5
                L129 1055.5 "
        style="fill:none; stroke:#444; stroke-width:1" />
               <path d="M129, 1052.5 L137, 1055.5 L129, 1058.5 Z" 
        fill="#333" />
            </g>
            <g>
               <path d="M117, 1030.5 L117 1100 Q117 1104
                121 1104
                L129 1104 "
        style="fill:none; stroke:#444; stroke-width:1" />
               <path d="M129, 1101 L137, 1104 L129, 1107 Z" 
        fill="#333" />
            </g>
            <g>
               <path d="M117, 1030.5 L117 1148.5 Q117 1152.5
                121 1152.5
                L129 1152.5 "
        style="fill:none; stroke:#444; stroke-width:1" />
               <path d="M129, 1149.5 L137, 1152.5 L129, 1155.5 Z" 
        fill="#333" />
            </g>
            <g>
               <path d="M117, 1030.5 L117 1232 Q117 1236
                121 1236
                L129 1236 "
        style="fill:none; stroke:#444; stroke-width:1" />
               <path d="M129, 1233 L137, 1236 L129, 1239 Z" 
        fill="#333" />
            </g>
            <g>
               <path d="M167, 1266 L167 1287 Q167 1291
                171 1291
                L179 1291 "
        style="fill:none; stroke:#444; stroke-width:1" />
               <path d="M179, 1288 L187, 1291 L179, 1294 Z" 
        fill="#333" />
            </g>
            <g>
               <path d="M167, 1266 L167 1335.5 Q167 1339.5
                171 1339.5
                L179 1339.5 "
        style="fill:none; stroke:#444; stroke-width:1" />
               <path d="M179, 1336.5 L187, 1339.5 L179, 1342.5 Z" 
        fill="#333" />
            </g>
            <g>
               <path d="M167, 1266 L167 1384 Q167 1388
                171 1388
                L179 1388 "
        style="fill:none; stroke:#444; stroke-width:1" />
               <path d="M179, 1385 L187, 1388 L179, 1391 Z" 
        fill="#333" />
            </g>
            <g>
               <path d="M310.6, 1388 L381.2 1388  Q385.2 1388
                385.2 1384
                L385.2 1194 Q385.2 1186
                381.2 1186
                L175 1186  Q167 1186
                167 1190
                L167 1198"
        style="fill:none; stroke:#444; stroke-width:1" />
               <path d="M164, 1198 L167, 1206 L170, 1198 Z" 
        fill="#333" />
            </g>
            <g>
               <path d="M117, 1030.5 L117 1432.5 Q117 1436.5
                121 1436.5
                L129 1436.5 "
        style="fill:none; stroke:#444; stroke-width:1" />
               <path d="M129, 1433.5 L137, 1436.5 L129, 1439.5 Z" 
        fill="#333" />
            </g>
            <g>
               <path d="M369.79999999999995, 1436.5 L385.79999999999995 1436.5  Q389.79999999999995 1436.5
                389.79999999999995 1432.5
                L389.79999999999995 958.5 Q389.79999999999995 950.5
                385.79999999999995 950.5
                L125 950.5  Q117 950.5
                117 954.5
                L117 962.5"
        style="fill:none; stroke:#444; stroke-width:1" />
               <path d="M114, 962.5 L117, 970.5 L120, 962.5 Z" 
        fill="#333" />
            </g>
            <g>
               <path d="M68.5, 835 L68.5 1481 Q68.5 1485
                72.5 1485
                L79 1485 "
        style="fill:none; stroke:#444; stroke-width:1" />
               <path d="M79, 1482 L87, 1485 L79, 1488 Z" 
        fill="#333" />
            </g>
            <g>
               <path d="M25, 40 L25 1529.5 Q25 1533.5
                29 1533.5
                L42 1533.5 "
        style="fill:none; stroke:#444; stroke-width:1" />
               <path d="M42, 1530.5 L50, 1533.5 L42, 1536.5 Z" 
        fill="#333" />
            </g>
            </svg>