<!DOCTYPE svg PUBLIC "-//W3C//DTD SVG 1.1//EN" "http://www.w3.org/Graphics/SVG/1.1/DTD/svg11.dtd">
                <svg xmlns="http://www.w3.org/2000/svg" xmlns:xlink="http://www.w3.org/1999/xlink" 
                width="1200" height="751">
                
            <g>
                <rect x="50" y="80"
            width="338.59999999999997" height="30"
            style="fill:#a5d6a7; stroke:#444; stroke-width:1" />
                    
                <line x1="60" y1="80" x2="60" y2="110"
                style="fill:#a5d6a7; stroke:#444; stroke-width:1" />
                <line x1="378.59999999999997" y1="80" x2="378.59999999999997" y2="110"
                style="fill:#a5d6a7; stroke:#444; stroke-width:1" />
             
                <title>function searchMatrix(matrix, target)</title>
            <text x="75" y="100"
                font-family="monospace" font-size="13" fill="#222">
                <tspan x="75" y="100">function searchMatrix(matrix, target)</tspan>
            </text>
                
            </g><g>
            <rect x="117" y="143.5"
            width="348.59999999999997" height="30"
            rx="3" ry="3"
            style="fill:#ce93d8; stroke:#444; stroke-width:1" />                
            <polygon points="87,158.5 117,128.5 147,158.5 117,188.5"
            style="fill:#ce93d8; stroke:#444; stroke-width:1" />
            <title>(!matrix.length || !matrix[0].length)</title>
            <text x="162" y="163.5"
                font-family="monospace" font-size="13" fill="#222">
                <tspan x="162" y="163.5">(!matrix.length || !matrix[0].length)</tspan>
            </text>
            
            <text x="109.2" y="163.5"
        font-family="monospace" font-size="13" fill="#222">if</text> <text x="124.8" y="190.45"
        font-family="monospace" font-size="13" fill="#222">+</text> 
        </g>
            <g>
                <rect x="137" y="198.5"
            width="123.6" height="30"
            rx="3" ry="3"
            style="fill:#90caf9; stroke:#444; stroke-width:1" />
                
                <line x1="260.6" y1="208.5" x2="265.6" y2="208.5"
                style="fill:#a5d6a7; stroke:#444; stroke-width:1" />
                
                <line x1="260.6" y1="218.5" x2="265.6" y2="218.5"
                style="fill:#a5d6a7; stroke:#444; stroke-width:1" />

                <path d="M265.6, 202.5 L281.6, 213.5 L265.6, 224.5 Z" 
        fill="#a5d6a7" stroke="#444" stroke-width="1" />
                             
                <title>return false</title>
            <text x="152" y="218.5"
                font-family="monospace" font-size="13" fill="#222">
                <tspan x="152" y="218.5">return false</tspan>
            </text>
                
            </g>
                <g>
                   <rect x="87" y="248.5"
            width="115.8" height="30"
            rx="3" ry="3"
            style="fill:#90caf9; stroke:#444; stroke-width:1" />
                   <title>let row = 0</title>
            <text x="102" y="268.5"
                font-family="monospace" font-size="13" fill="#222">
                <tspan x="102" y="268.5">let row = 0</tspan>
            </text>
                   
                   
                </g>
                <g>
                   <rect x="87" y="297"
            width="264" height="30"
            rx="3" ry="3"
            style="fill:#90caf9; stroke:#444; stroke-width:1" />
                   <title>let col = matrix[0].length - 1</title>
            <text x="102" y="317"
                font-family="monospace" font-size="13" fill="#222">
                <tspan x="102" y="317">let col = matrix[0].length - 1</tspan>
            </text>
                   
                   
                </g><g>

            <rect x="117" y="380.5"
            width="340.8" height="30"
            rx="3" ry="3"
            style="fill:#b39ddb; stroke:#444; stroke-width:1" />
            <polygon points="87,395.5 117,365.5 147,395.5 117,425.5"
            style="fill:#b39ddb; stroke:#444; stroke-width:1" />
                
            <title>col &gt;= 0 &amp;&amp; row &lt;= matrix.length - 1</title>
            <text x="162" y="400.5"
                font-family="monospace" font-size="13" fill="#222">
                <tspan x="162" y="400.5">col &gt;= 0 &amp;&amp; row &lt;= matrix.length - 1</tspan>
            </text>
            
            <text x="97.5" y="400.5"
        font-family="monospace" font-size="13" fill="#222">while</text>
        </g><g>
            <rect x="167" y="450.5"
            width="286.2" height="30"
            rx="3" ry="3"
            style="fill:#ce93d8; stroke:#444; stroke-width:1" />                
            <polygon points="137,465.5 167,435.5 197,465.5 167,495.5"
            style="fill:#ce93d8; stroke:#444; stroke-width:1" />
            <title>(matrix[row][col] === target)</title>
            <text x="212" y="470.5"
                font-family="monospace" font-size="13" fill="#222">
                <tspan x="212" y="470.5">(matrix[row][col] === target)</tspan>
            </text>
            
            <text x="159.2" y="470.5"
        font-family="monospace" font-size="13" fill="#222">if</text> <text x="174.8" y="497.45"
        font-family="monospace" font-size="13" fill="#222">+</text> <text x="457.09999999999997" y="463.55"
        font-family="monospace" font-size="13" fill="#222">-</text>
        </g>
            <g>
                <rect x="187" y="505.5"
            width="115.80000000000001" height="30"
            rx="3" ry="3"
            style="fill:#90caf9; stroke:#444; stroke-width:1" />
                
                <line x1="302.8" y1="515.5" x2="307.8" y2="515.5"
                style="fill:#a5d6a7; stroke:#444; stroke-width:1" />
                
                <line x1="302.8" y1="525.5" x2="307.8" y2="525.5"
                style="fill:#a5d6a7; stroke:#444; stroke-width:1" />

                <path d="M307.8, 509.5 L323.8, 520.5 L307.8, 531.5 Z" 
        fill="#a5d6a7" stroke="#444" stroke-width="1" />
                             
                <title>return true</title>
            <text x="202" y="525.5"
                font-family="monospace" font-size="13" fill="#222">
                <tspan x="202" y="525.5">return true</tspan>
            </text>
                
            </g><g>
            <rect x="543.2" y="520.5"
            width="270.6" height="30"
            rx="3" ry="3"
            style="fill:#ce93d8; stroke:#444; stroke-width:1" />                
            <polygon points="513.2,535.5 543.2,505.5 573.2,535.5 543.2,565.5"
            style="fill:#ce93d8; stroke:#444; stroke-width:1" />
            <title>(matrix[row][col] &gt; target)</title>
            <text x="588.2" y="540.5"
                font-family="monospace" font-size="13" fill="#222">
                <tspan x="588.2" y="540.5">(matrix[row][col] &gt; target)</tspan>
            </text>
            
            <text x="535.4000000000001" y="540.5"
        font-family="monospace" font-size="13" fill="#222">if</text> <text x="551" y="567.45"
        font-family="monospace" font-size="13" fill="#222">+</text> <text x="817.7" y="533.55"
        font-family="monospace" font-size="13" fill="#222">-</text>
        </g>
                <g>
                   <rect x="563.2" y="575.5"
            width="69" height="30"
            rx="3" ry="3"
            style="fill:#90caf9; stroke:#444; stroke-width:1" />
                   <title>col--</title>
            <text x="578.2" y="595.5"
                font-family="monospace" font-size="13" fill="#222">
                <tspan x="578.2" y="595.5">col--</tspan>
            </text>
                   
                   
                </g><g>
            <rect x="903.8000000000001" y="590.5"
            width="270.6" height="30"
            rx="3" ry="3"
            style="fill:#ce93d8; stroke:#444; stroke-width:1" />                
            <polygon points="873.8000000000001,605.5 903.8000000000001,575.5 933.8000000000001,605.5 903.8000000000001,635.5"
            style="fill:#ce93d8; stroke:#444; stroke-width:1" />
            <title>(matrix[row][col] &lt; target)</title>
            <text x="948.8000000000001" y="610.5"
                font-family="monospace" font-size="13" fill="#222">
                <tspan x="948.8000000000001" y="610.5">(matrix[row][col] &lt; target)</tspan>
            </text>
            
            <text x="896.0000000000001" y="610.5"
        font-family="monospace" font-size="13" fill="#222">if</text> <text x="911.6" y="637.45"
        font-family="monospace" font-size="13" fill="#222">+</text> 
        </g>
                <g>
                   <rect x="923.8000000000001" y="645.5"
            width="69" height="30"
            rx="3" ry="3"
            style="fill:#90caf9; stroke:#444; stroke-width:1" />
                   <title>row++</title>
            <text x="938.8000000000001" y="665.5"
                font-family="monospace" font-size="13" fill="#222">
                <tspan x="938.8000000000001" y="665.5">row++</tspan>
            </text>
                   
                   
                </g>
            <g>
                <rect x="87" y="695.5"
            width="123.6" height="30"
            rx="3" ry="3"
            style="fill:#90caf9; stroke:#444; stroke-width:1" />
                
                <line x1="210.6" y1="705.5" x2="215.6" y2="705.5"
                style="fill:#a5d6a7; stroke:#444; stroke-width:1" />
                
                <line x1="210.6" y1="715.5" x2="215.6" y2="715.5"
                style="fill:#a5d6a7; stroke:#444; stroke-width:1" />

                <path d="M215.6, 699.5 L231.6, 710.5 L215.6, 721.5 Z" 
        fill="#a5d6a7" stroke="#444" stroke-width="1" />
                             
                <title>return false</title>
            <text x="102" y="715.5"
                font-family="monospace" font-size="13" fill="#222">
                <tspan x="102" y="715.5">return false</tspan>
            </text>
                
            </g>
            <g>
               <rect x="25" y="13.75"
            width="216.6" height="24"
            style="fill:#fff59d; stroke:#444; stroke-width:1" />
               <circle cx="25" cy="25" r="15"
        style="fill:#fff59d; stroke:#444; stroke-width:1" />
               <title>Program: source module</title>
            <text x="55" y="30"
                font-family="monospace" font-size="13" fill="#222">
                <tspan x="55" y="30">Program: source module</tspan>
            </text>
            </g>
            <g>
               <path d="M25, 40 L25 91 Q25 95
                29 95
                L42 95 "
        style="fill:none; stroke:#444; stroke-width:1" />
               <path d="M42, 92 L50, 95 L42, 98 Z" 
        fill="#333" />
            </g>
            <g>
               <path d="M68.5, 110 L68.5 154.5 Q68.5 158.5
                72.5 158.5
                L79 158.5 "
        style="fill:none; stroke:#444; stroke-width:1" />
               <path d="M79, 155.5 L87, 158.5 L79, 161.5 Z" 
        fill="#333" />
            </g>
            <g>
               <path d="M117, 188.5 L117 209.5 Q117 213.5
                121 213.5
                L129 213.5 "
        style="fill:none; stroke:#444; stroke-width:1" />
               <path d="M129, 210.5 L137, 213.5 L129, 216.5 Z" 
        fill="#333" />
            </g>
            <g>
               <path d="M68.5, 110 L68.5 259.5 Q68.5 263.5
                72.5 263.5
                L79 263.5 "
        style="fill:none; stroke:#444; stroke-width:1" />
               <path d="M79, 260.5 L87, 263.5 L79, 266.5 Z" 
        fill="#333" />
            </g>
            <g>
               <path d="M68.5, 110 L68.5 308 Q68.5 312
                72.5 312
                L79 312 "
        style="fill:none; stroke:#444; stroke-width:1" />
               <path d="M79, 309 L87, 312 L79, 315 Z" 
        fill="#333" />
            </g>
            <g>
               <path d="M68.5, 110 L68.5 391.5 Q68.5 395.5
                72.5 395.5
                L79 395.5 "
        style="fill:none; stroke:#444; stroke-width:1" />
               <path d="M79, 392.5 L87, 395.5 L79, 398.5 Z" 
        fill="#333" />
            </g>
            <g>
               <path d="M117, 425.5 L117 461.5 Q117 465.5
                121 465.5
                L129 465.5 "
        style="fill:none; stroke:#444; stroke-width:1" />
               <path d="M129, 462.5 L137, 465.5 L129, 468.5 Z" 
        fill="#333" />
            </g>
            <g>
               <path d="M167, 495.5 L167 516.5 Q167 520.5
                171 520.5
                L179 520.5 "
        style="fill:none; stroke:#444; stroke-width:1" />
               <path d="M179, 517.5 L187, 520.5 L179, 523.5 Z" 
        fill="#333" />
            </g>
            <g>
               <path d="M453.2, 465.5 L489.2 465.5  Q493.2 465.5
                493.2 469.5
                L493.2 527.5 Q493.2 535.5
                497.2 535.5
                L505.20000000000005 535.5 "
        style="fill:none; stroke:#444; stroke-width:1" />
               <path d="M505.20000000000005, 532.5 L513.2, 535.5 L505.20000000000005, 538.5 Z" 
        fill="#333" />
            </g>
            <g>
               <path d="M543.2, 565.5 L543.2 586.5 Q543.2 590.5
                547.2 590.5
                L555.2 590.5 "
        style="fill:none; stroke:#444; stroke-width:1" />
               <path d="M555.2, 587.5 L563.2, 590.5 L555.2, 593.5 Z" 
        fill="#333" />
            </g>
            <g>
               <path d="M813.8000000000001, 535.5 L849.8000000000001 535.5  Q853.8000000000001 535.5
                853.8000000000001 539.5
                L853.8000000000001 597.5 Q853.8000000000001 605.5
                857.8000000000001 605.5
                L865.8000000000001 605.5 "
        style="fill:none; stroke:#444; stroke-width:1" />
               <path d="M865.8000000000001, 602.5 L873.8000000000001, 605.5 L865.8000000000001, 608.5 Z" 
        fill="#333" />
            </g>
            <g>
               <path d="M903.8000000000001, 635.5 L903.8000000000001 656.5 Q903.8000000000001 660.5
                907.8000000000001 660.5
                L915.8000000000001 660.5 "
        style="fill:none; stroke:#444; stroke-width:1" />
               <path d="M915.8000000000001, 657.5 L923.8000000000001, 660.5 L915.8000000000001, 663.5 Z" 
        fill="#333" />
            </g>
            <g>
               <path d="M992.8000000000001, 660.5 L1190.4 660.5  Q1194.4 660.5
                1194.4 656.5
                L1194.4 353.5 Q1194.4 345.5
                1190.4 345.5
                L125 345.5  Q117 345.5
                117 349.5
                L117 357.5"
        style="fill:none; stroke:#444; stroke-width:1" />
               <path d="M114, 357.5 L117, 365.5 L120, 357.5 Z" 
        fill="#333" />
            </g>
            <g>
               <path d="M68.5, 110 L68.5 706.5 Q68.5 710.5
                72.5 710.5
                L79 710.5 "
        style="fill:none; stroke:#444; stroke-width:1" />
               <path d="M79, 707.5 L87, 710.5 L79, 713.5 Z" 
        fill="#333" />
            </g>
            </svg>