<!DOCTYPE svg PUBLIC "-//W3C//DTD SVG 1.1//EN" "http://www.w3.org/Graphics/SVG/1.1/DTD/svg11.dtd">
                <svg xmlns="http://www.w3.org/2000/svg" xmlns:xlink="http://www.w3.org/1999/xlink" 
                width="588" height="539">
                
            <g>
                <rect x="50" y="80"
            width="276.2" height="30"
            style="fill:#a5d6a7; stroke:#444; stroke-width:1" />
                    
                <line x1="60" y1="80" x2="60" y2="110"
                style="fill:#a5d6a7; stroke:#444; stroke-width:1" />
                <line x1="316.2" y1="80" x2="316.2" y2="110"
                style="fill:#a5d6a7; stroke:#444; stroke-width:1" />
             
                <title>singleNumber = function(nums)</title>
            <text x="75" y="100"
                font-family="monospace" font-size="13" fill="#222">
                <tspan x="75" y="100">singleNumber = function(nums)</tspan>
            </text>
                
            </g><g>

            <rect x="117" y="163.5"
            width="177" height="30"
            rx="3" ry="3"
            style="fill:#b39ddb; stroke:#444; stroke-width:1" />
            <polygon points="87,178.5 117,148.5 147,178.5 117,208.5"
            style="fill:#b39ddb; stroke:#444; stroke-width:1" />
                
            <title>i &lt; nums.length</title>
            <text x="162" y="183.5"
                font-family="monospace" font-size="13" fill="#222">
                <tspan x="162" y="183.5">i &lt; nums.length</tspan>
            </text>
            
            <text x="105.3" y="183.5"
        font-family="monospace" font-size="13" fill="#222">for</text>
        </g>
                <g>
                   <rect x="137" y="218.5"
            width="53.4" height="30"
            rx="3" ry="3"
            style="fill:#90caf9; stroke:#444; stroke-width:1" />
                   <title>i++</title>
            <text x="152" y="238.5"
                font-family="monospace" font-size="13" fill="#222">
                <tspan x="152" y="238.5">i++</tspan>
            </text>
                   
                   
                </g>
                <g>
                   <rect x="137" y="267"
            width="154.8" height="30"
            rx="3" ry="3"
            style="fill:#90caf9; stroke:#444; stroke-width:1" />
                   <title>let n1 = nums[i]</title>
            <text x="152" y="287"
                font-family="monospace" font-size="13" fill="#222">
                <tspan x="152" y="287">let n1 = nums[i]</tspan>
            </text>
                   
                   
                </g><g>
            <rect x="167" y="330.5"
            width="395.4" height="30"
            rx="3" ry="3"
            style="fill:#ce93d8; stroke:#444; stroke-width:1" />                
            <polygon points="137,345.5 167,315.5 197,345.5 167,375.5"
            style="fill:#ce93d8; stroke:#444; stroke-width:1" />
            <title>(nums.indexOf(n1) === nums.lastIndexOf(n1))</title>
            <text x="212" y="350.5"
                font-family="monospace" font-size="13" fill="#222">
                <tspan x="212" y="350.5">(nums.indexOf(n1) === nums.lastIndexOf(n1))</tspan>
            </text>
            
            <text x="159.2" y="350.5"
        font-family="monospace" font-size="13" fill="#222">if</text> <text x="174.8" y="377.45"
        font-family="monospace" font-size="13" fill="#222">+</text> 
        </g>
            <g>
                <rect x="187" y="385.5"
            width="100.2" height="30"
            rx="3" ry="3"
            style="fill:#90caf9; stroke:#444; stroke-width:1" />
                
                <line x1="287.2" y1="395.5" x2="292.2" y2="395.5"
                style="fill:#a5d6a7; stroke:#444; stroke-width:1" />
                
                <line x1="287.2" y1="405.5" x2="292.2" y2="405.5"
                style="fill:#a5d6a7; stroke:#444; stroke-width:1" />

                <path d="M292.2, 389.5 L308.2, 400.5 L292.2, 411.5 Z" 
        fill="#a5d6a7" stroke="#444" stroke-width="1" />
                             
                <title>return n1</title>
            <text x="202" y="405.5"
                font-family="monospace" font-size="13" fill="#222">
                <tspan x="202" y="405.5">return n1</tspan>
            </text>
                
            </g>
                <g>
                   <rect x="50" y="435.5"
            width="310.8" height="30"
            rx="2" ry="2"
            style="fill:#C5E1A5; stroke:#444; stroke-width:1" />
                   <title>console.log(singleNumber([2, 2, 1]))</title>
            <text x="65" y="455.5"
                font-family="monospace" font-size="13" fill="#222">
                <tspan x="65" y="455.5">console.log(singleNumber([2, 2, 1]))</tspan>
            </text>
                   
                   
                </g>
                <g>
                   <rect x="50" y="484"
            width="381" height="30"
            rx="2" ry="2"
            style="fill:#C5E1A5; stroke:#444; stroke-width:1" />
                   <title>console.log(singleNumber([1, 1, 1, 1, 1, 5]))</title>
            <text x="65" y="504"
                font-family="monospace" font-size="13" fill="#222">
                <tspan x="65" y="504">console.log(singleNumber([1, 1, 1, 1, 1, 5]))</tspan>
            </text>
                   
                   
                </g>
            <g>
               <rect x="25" y="13.75"
            width="216.6" height="24"
            style="fill:#fff59d; stroke:#444; stroke-width:1" />
               <circle cx="25" cy="25" r="15"
        style="fill:#fff59d; stroke:#444; stroke-width:1" />
               <title>Program: source module</title>
            <text x="55" y="30"
                font-family="monospace" font-size="13" fill="#222">
                <tspan x="55" y="30">Program: source module</tspan>
            </text>
            </g>
            <g>
               <path d="M25, 40 L25 91 Q25 95
                29 95
                L42 95 "
        style="fill:none; stroke:#444; stroke-width:1" />
               <path d="M42, 92 L50, 95 L42, 98 Z" 
        fill="#333" />
            </g>
            <g>
               <path d="M68.5, 110 L68.5 174.5 Q68.5 178.5
                72.5 178.5
                L79 178.5 "
        style="fill:none; stroke:#444; stroke-width:1" />
               <path d="M79, 175.5 L87, 178.5 L79, 181.5 Z" 
        fill="#333" />
            </g>
            <g>
               <path d="M117, 208.5 L117 229.5 Q117 233.5
                121 233.5
                L129 233.5 "
        style="fill:none; stroke:#444; stroke-width:1" />
               <path d="M129, 230.5 L137, 233.5 L129, 236.5 Z" 
        fill="#333" />
            </g>
            <g>
               <path d="M117, 208.5 L117 278 Q117 282
                121 282
                L129 282 "
        style="fill:none; stroke:#444; stroke-width:1" />
               <path d="M129, 279 L137, 282 L129, 285 Z" 
        fill="#333" />
            </g>
            <g>
               <path d="M117, 208.5 L117 341.5 Q117 345.5
                121 345.5
                L129 345.5 "
        style="fill:none; stroke:#444; stroke-width:1" />
               <path d="M129, 342.5 L137, 345.5 L129, 348.5 Z" 
        fill="#333" />
            </g>
            <g>
               <path d="M167, 375.5 L167 396.5 Q167 400.5
                171 400.5
                L179 400.5 "
        style="fill:none; stroke:#444; stroke-width:1" />
               <path d="M179, 397.5 L187, 400.5 L179, 403.5 Z" 
        fill="#333" />
            </g>
            <g>
               <path d="M308.2, 400.5 L578.4 400.5  Q582.4 400.5
                582.4 396.5
                L582.4 136.5 Q582.4 128.5
                578.4 128.5
                L125 128.5  Q117 128.5
                117 132.5
                L117 140.5"
        style="fill:none; stroke:#444; stroke-width:1" />
               <path d="M114, 140.5 L117, 148.5 L120, 140.5 Z" 
        fill="#333" />
            </g>
            <g>
               <path d="M25, 40 L25 446.5 Q25 450.5
                29 450.5
                L42 450.5 "
        style="fill:none; stroke:#444; stroke-width:1" />
               <path d="M42, 447.5 L50, 450.5 L42, 453.5 Z" 
        fill="#333" />
            </g>
            <g>
               <path d="M25, 40 L25 495 Q25 499
                29 499
                L42 499 "
        style="fill:none; stroke:#444; stroke-width:1" />
               <path d="M42, 496 L50, 499 L42, 502 Z" 
        fill="#333" />
            </g>
            </svg>