<!DOCTYPE svg PUBLIC "-//W3C//DTD SVG 1.1//EN" "http://www.w3.org/Graphics/SVG/1.1/DTD/svg11.dtd">
                <svg xmlns="http://www.w3.org/2000/svg" xmlns:xlink="http://www.w3.org/1999/xlink" 
                width="588" height="845">
                
            <g>
                <rect x="50" y="80"
            width="276.2" height="30"
            style="fill:#a5d6a7; stroke:#444; stroke-width:1" />
                    
                <line x1="60" y1="80" x2="60" y2="110"
                style="fill:#a5d6a7; stroke:#444; stroke-width:1" />
                <line x1="316.2" y1="80" x2="316.2" y2="110"
                style="fill:#a5d6a7; stroke:#444; stroke-width:1" />
             
                <title>singleNumber = function(nums)</title>
            <text x="75" y="100"
                font-family="monospace" font-size="13" fill="#222">
                <tspan x="75" y="100">singleNumber = function(nums)</tspan>
            </text>
                
            </g><g>

            <rect x="117" y="163.5"
            width="177" height="30"
            rx="3" ry="3"
            style="fill:#b39ddb; stroke:#444; stroke-width:1" />
            <polygon points="87,178.5 117,148.5 147,178.5 117,208.5"
            style="fill:#b39ddb; stroke:#444; stroke-width:1" />
                
            <title>i &lt; nums.length</title>
            <text x="162" y="183.5"
                font-family="monospace" font-size="13" fill="#222">
                <tspan x="162" y="183.5">i &lt; nums.length</tspan>
            </text>
            
            <text x="105.3" y="183.5"
        font-family="monospace" font-size="13" fill="#222">for</text>
        </g>
                <g>
                   <rect x="137" y="218.5"
            width="53.4" height="30"
            rx="3" ry="3"
            style="fill:#90caf9; stroke:#444; stroke-width:1" />
                   <title>i++</title>
            <text x="152" y="238.5"
                font-family="monospace" font-size="13" fill="#222">
                <tspan x="152" y="238.5">i++</tspan>
            </text>
                   
                   
                </g>
                <g>
                   <rect x="137" y="267"
            width="154.8" height="30"
            rx="3" ry="3"
            style="fill:#90caf9; stroke:#444; stroke-width:1" />
                   <title>let n1 = nums[i]</title>
            <text x="152" y="287"
                font-family="monospace" font-size="13" fill="#222">
                <tspan x="152" y="287">let n1 = nums[i]</tspan>
            </text>
                   
                   
                </g><g>
            <rect x="167" y="330.5"
            width="395.4" height="30"
            rx="3" ry="3"
            style="fill:#ce93d8; stroke:#444; stroke-width:1" />                
            <polygon points="137,345.5 167,315.5 197,345.5 167,375.5"
            style="fill:#ce93d8; stroke:#444; stroke-width:1" />
            <title>(nums.indexOf(n1) === nums.lastIndexOf(n1))</title>
            <text x="212" y="350.5"
                font-family="monospace" font-size="13" fill="#222">
                <tspan x="212" y="350.5">(nums.indexOf(n1) === nums.lastIndexOf(n1))</tspan>
            </text>
            
            <text x="159.2" y="350.5"
        font-family="monospace" font-size="13" fill="#222">if</text> <text x="174.8" y="377.45"
        font-family="monospace" font-size="13" fill="#222">+</text> 
        </g>
            <g>
                <rect x="187" y="385.5"
            width="100.2" height="30"
            rx="3" ry="3"
            style="fill:#90caf9; stroke:#444; stroke-width:1" />
                
                <line x1="287.2" y1="395.5" x2="292.2" y2="395.5"
                style="fill:#a5d6a7; stroke:#444; stroke-width:1" />
                
                <line x1="287.2" y1="405.5" x2="292.2" y2="405.5"
                style="fill:#a5d6a7; stroke:#444; stroke-width:1" />

                <path d="M292.2, 389.5 L308.2, 400.5 L292.2, 411.5 Z" 
        fill="#a5d6a7" stroke="#444" stroke-width="1" />
                             
                <title>return n1</title>
            <text x="202" y="405.5"
                font-family="monospace" font-size="13" fill="#222">
                <tspan x="202" y="405.5">return n1</tspan>
            </text>
                
            </g>
            <g>
                <rect x="50" y="450.5"
            width="268.4" height="30"
            style="fill:#a5d6a7; stroke:#444; stroke-width:1" />
                    
                <line x1="60" y1="450.5" x2="60" y2="480.5"
                style="fill:#a5d6a7; stroke:#444; stroke-width:1" />
                <line x1="308.4" y1="450.5" x2="308.4" y2="480.5"
                style="fill:#a5d6a7; stroke:#444; stroke-width:1" />
             
                <title>function singleNumber2(nums)</title>
            <text x="75" y="470.5"
                font-family="monospace" font-size="13" fill="#222">
                <tspan x="75" y="470.5">function singleNumber2(nums)</tspan>
            </text>
                
            </g>
            <g>
                <rect x="87" y="499"
            width="365.4" height="30"
            rx="3" ry="3"
            style="fill:#90caf9; stroke:#444; stroke-width:1" />
                
                <line x1="452.4" y1="509" x2="457.4" y2="509"
                style="fill:#a5d6a7; stroke:#444; stroke-width:1" />
                
                <line x1="452.4" y1="519" x2="457.4" y2="519"
                style="fill:#a5d6a7; stroke:#444; stroke-width:1" />

                <path d="M457.4, 503 L473.4, 514 L457.4, 525 Z" 
        fill="#a5d6a7" stroke="#444" stroke-width="1" />
                             
                <title>return nums.reduce((sum, num) =&gt; sum ^ num)</title>
            <text x="102" y="519"
                font-family="monospace" font-size="13" fill="#222">
                <tspan x="102" y="519">return nums.reduce((sum, num) =&gt; sum ^ num)</tspan>
            </text>
                
            </g>
            <g>
                <rect x="124" y="547.5"
            width="151.39999999999998" height="30"
            style="fill:#a5d6a7; stroke:#444; stroke-width:1" />
                    
                <line x1="134" y1="547.5" x2="134" y2="577.5"
                style="fill:#a5d6a7; stroke:#444; stroke-width:1" />
                <line x1="265.4" y1="547.5" x2="265.4" y2="577.5"
                style="fill:#a5d6a7; stroke:#444; stroke-width:1" />
             
                <title>(sum, num) =&gt;</title>
            <text x="149" y="567.5"
                font-family="monospace" font-size="13" fill="#222">
                <tspan x="149" y="567.5">(sum, num) =&gt;</tspan>
            </text>
                
            </g>
            <g>
                <rect x="161" y="596"
            width="154.8" height="30"
            rx="3" ry="3"
            style="fill:#90caf9; stroke:#444; stroke-width:1" />
                
                <line x1="315.8" y1="606" x2="320.8" y2="606"
                style="fill:#a5d6a7; stroke:#444; stroke-width:1" />
                
                <line x1="315.8" y1="616" x2="320.8" y2="616"
                style="fill:#a5d6a7; stroke:#444; stroke-width:1" />

                <path d="M320.8, 600 L336.8, 611 L320.8, 622 Z" 
        fill="#a5d6a7" stroke="#444" stroke-width="1" />
                             
                <title>return sum ^ num</title>
            <text x="176" y="616"
                font-family="monospace" font-size="13" fill="#222">
                <tspan x="176" y="616">return sum ^ num</tspan>
            </text>
                
            </g>
                <g>
                   <rect x="50" y="644.5"
            width="310.8" height="30"
            rx="2" ry="2"
            style="fill:#C5E1A5; stroke:#444; stroke-width:1" />
                   <title>console.log(singleNumber([2, 2, 1]))</title>
            <text x="65" y="664.5"
                font-family="monospace" font-size="13" fill="#222">
                <tspan x="65" y="664.5">console.log(singleNumber([2, 2, 1]))</tspan>
            </text>
                   
                   
                </g>
                <g>
                   <rect x="50" y="693"
            width="318.59999999999997" height="30"
            rx="2" ry="2"
            style="fill:#C5E1A5; stroke:#444; stroke-width:1" />
                   <title>console.log(singleNumber2([2, 2, 1]))</title>
            <text x="65" y="713"
                font-family="monospace" font-size="13" fill="#222">
                <tspan x="65" y="713">console.log(singleNumber2([2, 2, 1]))</tspan>
            </text>
                   
                   
                </g>
                <g>
                   <rect x="50" y="741.5"
            width="381" height="30"
            rx="2" ry="2"
            style="fill:#C5E1A5; stroke:#444; stroke-width:1" />
                   <title>console.log(singleNumber([1, 1, 1, 1, 1, 5]))</title>
            <text x="65" y="761.5"
                font-family="monospace" font-size="13" fill="#222">
                <tspan x="65" y="761.5">console.log(singleNumber([1, 1, 1, 1, 1, 5]))</tspan>
            </text>
                   
                   
                </g>
                <g>
                   <rect x="50" y="790"
            width="388.8" height="30"
            rx="2" ry="2"
            style="fill:#C5E1A5; stroke:#444; stroke-width:1" />
                   <title>console.log(singleNumber2([1, 1, 1, 1, 1, 5]))</title>
            <text x="65" y="810"
                font-family="monospace" font-size="13" fill="#222">
                <tspan x="65" y="810">console.log(singleNumber2([1, 1, 1, 1, 1, 5]))</tspan>
            </text>
                   
                   
                </g>
            <g>
               <rect x="25" y="13.75"
            width="216.6" height="24"
            style="fill:#fff59d; stroke:#444; stroke-width:1" />
               <circle cx="25" cy="25" r="15"
        style="fill:#fff59d; stroke:#444; stroke-width:1" />
               <title>Program: source module</title>
            <text x="55" y="30"
                font-family="monospace" font-size="13" fill="#222">
                <tspan x="55" y="30">Program: source module</tspan>
            </text>
            </g>
            <g>
               <path d="M25, 40 L25 91 Q25 95
                29 95
                L42 95 "
        style="fill:none; stroke:#444; stroke-width:1" />
               <path d="M42, 92 L50, 95 L42, 98 Z" 
        fill="#333" />
            </g>
            <g>
               <path d="M68.5, 110 L68.5 174.5 Q68.5 178.5
                72.5 178.5
                L79 178.5 "
        style="fill:none; stroke:#444; stroke-width:1" />
               <path d="M79, 175.5 L87, 178.5 L79, 181.5 Z" 
        fill="#333" />
            </g>
            <g>
               <path d="M117, 208.5 L117 229.5 Q117 233.5
                121 233.5
                L129 233.5 "
        style="fill:none; stroke:#444; stroke-width:1" />
               <path d="M129, 230.5 L137, 233.5 L129, 236.5 Z" 
        fill="#333" />
            </g>
            <g>
               <path d="M117, 208.5 L117 278 Q117 282
                121 282
                L129 282 "
        style="fill:none; stroke:#444; stroke-width:1" />
               <path d="M129, 279 L137, 282 L129, 285 Z" 
        fill="#333" />
            </g>
            <g>
               <path d="M117, 208.5 L117 341.5 Q117 345.5
                121 345.5
                L129 345.5 "
        style="fill:none; stroke:#444; stroke-width:1" />
               <path d="M129, 342.5 L137, 345.5 L129, 348.5 Z" 
        fill="#333" />
            </g>
            <g>
               <path d="M167, 375.5 L167 396.5 Q167 400.5
                171 400.5
                L179 400.5 "
        style="fill:none; stroke:#444; stroke-width:1" />
               <path d="M179, 397.5 L187, 400.5 L179, 403.5 Z" 
        fill="#333" />
            </g>
            <g>
               <path d="M308.2, 400.5 L578.4 400.5  Q582.4 400.5
                582.4 396.5
                L582.4 136.5 Q582.4 128.5
                578.4 128.5
                L125 128.5  Q117 128.5
                117 132.5
                L117 140.5"
        style="fill:none; stroke:#444; stroke-width:1" />
               <path d="M114, 140.5 L117, 148.5 L120, 140.5 Z" 
        fill="#333" />
            </g>
            <g>
               <path d="M25, 40 L25 461.5 Q25 465.5
                29 465.5
                L42 465.5 "
        style="fill:none; stroke:#444; stroke-width:1" />
               <path d="M42, 462.5 L50, 465.5 L42, 468.5 Z" 
        fill="#333" />
            </g>
            <g>
               <path d="M68.5, 480.5 L68.5 510 Q68.5 514
                72.5 514
                L79 514 "
        style="fill:none; stroke:#444; stroke-width:1" />
               <path d="M79, 511 L87, 514 L79, 517 Z" 
        fill="#333" />
            </g>
            <g>
               <path d="M105.5, 529 L105.5 558.5 Q105.5 562.5
                109.5 562.5
                L116 562.5 "
        style="fill:none; stroke:#444; stroke-width:1" />
               <path d="M116, 559.5 L124, 562.5 L116, 565.5 Z" 
        fill="#333" />
            </g>
            <g>
               <path d="M142.5, 577.5 L142.5 607 Q142.5 611
                146.5 611
                L153 611 "
        style="fill:none; stroke:#444; stroke-width:1" />
               <path d="M153, 608 L161, 611 L153, 614 Z" 
        fill="#333" />
            </g>
            <g>
               <path d="M25, 40 L25 655.5 Q25 659.5
                29 659.5
                L42 659.5 "
        style="fill:none; stroke:#444; stroke-width:1" />
               <path d="M42, 656.5 L50, 659.5 L42, 662.5 Z" 
        fill="#333" />
            </g>
            <g>
               <path d="M25, 40 L25 704 Q25 708
                29 708
                L42 708 "
        style="fill:none; stroke:#444; stroke-width:1" />
               <path d="M42, 705 L50, 708 L42, 711 Z" 
        fill="#333" />
            </g>
            <g>
               <path d="M25, 40 L25 752.5 Q25 756.5
                29 756.5
                L42 756.5 "
        style="fill:none; stroke:#444; stroke-width:1" />
               <path d="M42, 753.5 L50, 756.5 L42, 759.5 Z" 
        fill="#333" />
            </g>
            <g>
               <path d="M25, 40 L25 801 Q25 805
                29 805
                L42 805 "
        style="fill:none; stroke:#444; stroke-width:1" />
               <path d="M42, 802 L50, 805 L42, 808 Z" 
        fill="#333" />
            </g>
            </svg>