<!DOCTYPE svg PUBLIC "-//W3C//DTD SVG 1.1//EN" "http://www.w3.org/Graphics/SVG/1.1/DTD/svg11.dtd">
                <svg xmlns="http://www.w3.org/2000/svg" xmlns:xlink="http://www.w3.org/1999/xlink" 
                width="532" height="498">
                
            <g>
                <rect x="50" y="80"
            width="291.79999999999995" height="30"
            style="fill:#a5d6a7; stroke:#444; stroke-width:1" />
                    
                <line x1="60" y1="80" x2="60" y2="110"
                style="fill:#a5d6a7; stroke:#444; stroke-width:1" />
                <line x1="331.79999999999995" y1="80" x2="331.79999999999995" y2="110"
                style="fill:#a5d6a7; stroke:#444; stroke-width:1" />
             
                <title>function sortedArrayToBST(nums)</title>
            <text x="75" y="100"
                font-family="monospace" font-size="13" fill="#222">
                <tspan x="75" y="100">function sortedArrayToBST(nums)</tspan>
            </text>
                
            </g><g>
            <rect x="117" y="143.5"
            width="169.2" height="30"
            rx="3" ry="3"
            style="fill:#ce93d8; stroke:#444; stroke-width:1" />                
            <polygon points="87,158.5 117,128.5 147,158.5 117,188.5"
            style="fill:#ce93d8; stroke:#444; stroke-width:1" />
            <title>(!nums.length)</title>
            <text x="162" y="163.5"
                font-family="monospace" font-size="13" fill="#222">
                <tspan x="162" y="163.5">(!nums.length)</tspan>
            </text>
            
            <text x="109.2" y="163.5"
        font-family="monospace" font-size="13" fill="#222">if</text> <text x="124.8" y="190.45"
        font-family="monospace" font-size="13" fill="#222">+</text> 
        </g>
            <g>
                <rect x="137" y="198.5"
            width="115.80000000000001" height="30"
            rx="3" ry="3"
            style="fill:#90caf9; stroke:#444; stroke-width:1" />
                
                <line x1="252.8" y1="208.5" x2="257.8" y2="208.5"
                style="fill:#a5d6a7; stroke:#444; stroke-width:1" />
                
                <line x1="252.8" y1="218.5" x2="257.8" y2="218.5"
                style="fill:#a5d6a7; stroke:#444; stroke-width:1" />

                <path d="M257.8, 202.5 L273.8, 213.5 L257.8, 224.5 Z" 
        fill="#a5d6a7" stroke="#444" stroke-width="1" />
                             
                <title>return null</title>
            <text x="152" y="218.5"
                font-family="monospace" font-size="13" fill="#222">
                <tspan x="152" y="218.5">return null</tspan>
            </text>
                
            </g>
                <g>
                   <rect x="87" y="248.5"
            width="334.2" height="30"
            rx="3" ry="3"
            style="fill:#90caf9; stroke:#444; stroke-width:1" />
                   <title>const mid = Math.floor(nums.length / 2)</title>
            <text x="102" y="268.5"
                font-family="monospace" font-size="13" fill="#222">
                <tspan x="102" y="268.5">const mid = Math.floor(nums.length / 2)</tspan>
            </text>
                   
                   
                </g>
                <g>
                   <rect x="87" y="297"
            width="264" height="30"
            rx="3" ry="3"
            style="fill:#90caf9; stroke:#444; stroke-width:1" />
                   <title>let node = TreeNode(nums[mid])</title>
            <text x="102" y="317"
                font-family="monospace" font-size="13" fill="#222">
                <tspan x="102" y="317">let node = TreeNode(nums[mid])</tspan>
            </text>
                   
                   
                </g>
                <g>
                   <rect x="87" y="345.5"
            width="404.4" height="30"
            rx="3" ry="3"
            style="fill:#90caf9; stroke:#444; stroke-width:1" />
                   <title>node.left = sortedArrayToBST(nums.slice(0, mid))</title>
            <text x="102" y="365.5"
                font-family="monospace" font-size="13" fill="#222">
                <tspan x="102" y="365.5">node.left = sortedArrayToBST(nums.slice(0, mid))</tspan>
            </text>
                   
                   
                </g>
                <g>
                   <rect x="87" y="394"
            width="420" height="30"
            rx="3" ry="3"
            style="fill:#90caf9; stroke:#444; stroke-width:1" />
                   <title>node.right = sortedArrayToBST(nums.slice(mid + 1))</title>
            <text x="102" y="414"
                font-family="monospace" font-size="13" fill="#222">
                <tspan x="102" y="414">node.right = sortedArrayToBST(nums.slice(mid + 1))</tspan>
            </text>
                   
                   
                </g>
            <g>
                <rect x="87" y="442.5"
            width="115.80000000000001" height="30"
            rx="3" ry="3"
            style="fill:#90caf9; stroke:#444; stroke-width:1" />
                
                <line x1="202.8" y1="452.5" x2="207.8" y2="452.5"
                style="fill:#a5d6a7; stroke:#444; stroke-width:1" />
                
                <line x1="202.8" y1="462.5" x2="207.8" y2="462.5"
                style="fill:#a5d6a7; stroke:#444; stroke-width:1" />

                <path d="M207.8, 446.5 L223.8, 457.5 L207.8, 468.5 Z" 
        fill="#a5d6a7" stroke="#444" stroke-width="1" />
                             
                <title>return node</title>
            <text x="102" y="462.5"
                font-family="monospace" font-size="13" fill="#222">
                <tspan x="102" y="462.5">return node</tspan>
            </text>
                
            </g>
            <g>
               <rect x="25" y="13.75"
            width="216.6" height="24"
            style="fill:#fff59d; stroke:#444; stroke-width:1" />
               <circle cx="25" cy="25" r="15"
        style="fill:#fff59d; stroke:#444; stroke-width:1" />
               <title>Program: source module</title>
            <text x="55" y="30"
                font-family="monospace" font-size="13" fill="#222">
                <tspan x="55" y="30">Program: source module</tspan>
            </text>
            </g>
            <g>
               <path d="M25, 40 L25 91 Q25 95
                29 95
                L42 95 "
        style="fill:none; stroke:#444; stroke-width:1" />
               <path d="M42, 92 L50, 95 L42, 98 Z" 
        fill="#333" />
            </g>
            <g>
               <path d="M68.5, 110 L68.5 154.5 Q68.5 158.5
                72.5 158.5
                L79 158.5 "
        style="fill:none; stroke:#444; stroke-width:1" />
               <path d="M79, 155.5 L87, 158.5 L79, 161.5 Z" 
        fill="#333" />
            </g>
            <g>
               <path d="M117, 188.5 L117 209.5 Q117 213.5
                121 213.5
                L129 213.5 "
        style="fill:none; stroke:#444; stroke-width:1" />
               <path d="M129, 210.5 L137, 213.5 L129, 216.5 Z" 
        fill="#333" />
            </g>
            <g>
               <path d="M68.5, 110 L68.5 259.5 Q68.5 263.5
                72.5 263.5
                L79 263.5 "
        style="fill:none; stroke:#444; stroke-width:1" />
               <path d="M79, 260.5 L87, 263.5 L79, 266.5 Z" 
        fill="#333" />
            </g>
            <g>
               <path d="M68.5, 110 L68.5 308 Q68.5 312
                72.5 312
                L79 312 "
        style="fill:none; stroke:#444; stroke-width:1" />
               <path d="M79, 309 L87, 312 L79, 315 Z" 
        fill="#333" />
            </g>
            <g>
               <path d="M68.5, 110 L68.5 356.5 Q68.5 360.5
                72.5 360.5
                L79 360.5 "
        style="fill:none; stroke:#444; stroke-width:1" />
               <path d="M79, 357.5 L87, 360.5 L79, 363.5 Z" 
        fill="#333" />
            </g>
            <g>
               <path d="M68.5, 110 L68.5 405 Q68.5 409
                72.5 409
                L79 409 "
        style="fill:none; stroke:#444; stroke-width:1" />
               <path d="M79, 406 L87, 409 L79, 412 Z" 
        fill="#333" />
            </g>
            <g>
               <path d="M68.5, 110 L68.5 453.5 Q68.5 457.5
                72.5 457.5
                L79 457.5 "
        style="fill:none; stroke:#444; stroke-width:1" />
               <path d="M79, 454.5 L87, 457.5 L79, 460.5 Z" 
        fill="#333" />
            </g>
            </svg>