<!DOCTYPE svg PUBLIC "-//W3C//DTD SVG 1.1//EN" "http://www.w3.org/Graphics/SVG/1.1/DTD/svg11.dtd">
                <svg xmlns="http://www.w3.org/2000/svg" xmlns:xlink="http://www.w3.org/1999/xlink" 
                width="593" height="964">
                
            <g>
                <rect x="50" y="80"
            width="221.6" height="30"
            style="fill:#a5d6a7; stroke:#444; stroke-width:1" />
                    
                <line x1="60" y1="80" x2="60" y2="110"
                style="fill:#a5d6a7; stroke:#444; stroke-width:1" />
                <line x1="261.6" y1="80" x2="261.6" y2="110"
                style="fill:#a5d6a7; stroke:#444; stroke-width:1" />
             
                <title>function TreeNode(val)</title>
            <text x="75" y="100"
                font-family="monospace" font-size="13" fill="#222">
                <tspan x="75" y="100">function TreeNode(val)</tspan>
            </text>
                
            </g>
                <g>
                   <rect x="87" y="128.5"
            width="139.2" height="30"
            rx="3" ry="3"
            style="fill:#90caf9; stroke:#444; stroke-width:1" />
                   <title>this.val = val</title>
            <text x="102" y="148.5"
                font-family="monospace" font-size="13" fill="#222">
                <tspan x="102" y="148.5">this.val = val</tspan>
            </text>
                   
                   
                </g>
                <g>
                   <rect x="87" y="177"
            width="256.2" height="30"
            rx="3" ry="3"
            style="fill:#90caf9; stroke:#444; stroke-width:1" />
                   <title>this.left = this.right = null</title>
            <text x="102" y="197"
                font-family="monospace" font-size="13" fill="#222">
                <tspan x="102" y="197">this.left = this.right = null</tspan>
            </text>
                   
                   
                </g>
                <g>
                   <rect x="124" y="225.5"
            width="162.6" height="30"
            rx="3" ry="3"
            style="fill:#90caf9; stroke:#444; stroke-width:1" />
                   <title>this.right = null</title>
            <text x="139" y="245.5"
                font-family="monospace" font-size="13" fill="#222">
                <tspan x="139" y="245.5">this.right = null</tspan>
            </text>
                   
                   
                </g>
            <g>
                <rect x="50" y="289"
            width="307.4" height="30"
            style="fill:#a5d6a7; stroke:#444; stroke-width:1" />
                    
                <line x1="60" y1="289" x2="60" y2="319"
                style="fill:#a5d6a7; stroke:#444; stroke-width:1" />
                <line x1="347.4" y1="289" x2="347.4" y2="319"
                style="fill:#a5d6a7; stroke:#444; stroke-width:1" />
             
                <title>sortedArrayToBST = function(nums)</title>
            <text x="75" y="309"
                font-family="monospace" font-size="13" fill="#222">
                <tspan x="75" y="309">sortedArrayToBST = function(nums)</tspan>
            </text>
                
            </g>
            <g>
                <rect x="87" y="337.5"
            width="381" height="30"
            rx="3" ry="3"
            style="fill:#90caf9; stroke:#444; stroke-width:1" />
                
                <line x1="468" y1="347.5" x2="473" y2="347.5"
                style="fill:#a5d6a7; stroke:#444; stroke-width:1" />
                
                <line x1="468" y1="357.5" x2="473" y2="357.5"
                style="fill:#a5d6a7; stroke:#444; stroke-width:1" />

                <path d="M473, 341.5 L489, 352.5 L473, 363.5 Z" 
        fill="#a5d6a7" stroke="#444" stroke-width="1" />
                             
                <title>return sortedArrayToBSTHelper(0, nums.length)</title>
            <text x="102" y="357.5"
                font-family="monospace" font-size="13" fill="#222">
                <tspan x="102" y="357.5">return sortedArrayToBSTHelper(0, nums.length)</tspan>
            </text>
                
            </g>
            <g>
                <rect x="87" y="401"
            width="385.4" height="30"
            style="fill:#a5d6a7; stroke:#444; stroke-width:1" />
                    
                <line x1="97" y1="401" x2="97" y2="431"
                style="fill:#a5d6a7; stroke:#444; stroke-width:1" />
                <line x1="462.4" y1="401" x2="462.4" y2="431"
                style="fill:#a5d6a7; stroke:#444; stroke-width:1" />
             
                <title>function sortedArrayToBSTHelper(start, end)</title>
            <text x="112" y="421"
                font-family="monospace" font-size="13" fill="#222">
                <tspan x="112" y="421">function sortedArrayToBSTHelper(start, end)</tspan>
            </text>
                
            </g><g>
            <rect x="154" y="464.5"
            width="169.2" height="30"
            rx="3" ry="3"
            style="fill:#ce93d8; stroke:#444; stroke-width:1" />                
            <polygon points="124,479.5 154,449.5 184,479.5 154,509.5"
            style="fill:#ce93d8; stroke:#444; stroke-width:1" />
            <title>(start &gt;= end)</title>
            <text x="199" y="484.5"
                font-family="monospace" font-size="13" fill="#222">
                <tspan x="199" y="484.5">(start &gt;= end)</tspan>
            </text>
            
            <text x="146.2" y="484.5"
        font-family="monospace" font-size="13" fill="#222">if</text> <text x="161.8" y="511.45"
        font-family="monospace" font-size="13" fill="#222">+</text> 
        </g>
            <g>
                <rect x="174" y="519.5"
            width="115.80000000000001" height="30"
            rx="3" ry="3"
            style="fill:#90caf9; stroke:#444; stroke-width:1" />
                
                <line x1="289.8" y1="529.5" x2="294.8" y2="529.5"
                style="fill:#a5d6a7; stroke:#444; stroke-width:1" />
                
                <line x1="289.8" y1="539.5" x2="294.8" y2="539.5"
                style="fill:#a5d6a7; stroke:#444; stroke-width:1" />

                <path d="M294.8, 523.5 L310.8, 534.5 L294.8, 545.5 Z" 
        fill="#a5d6a7" stroke="#444" stroke-width="1" />
                             
                <title>return null</title>
            <text x="189" y="539.5"
                font-family="monospace" font-size="13" fill="#222">
                <tspan x="189" y="539.5">return null</tspan>
            </text>
                
            </g>
                <g>
                   <rect x="124" y="569.5"
            width="443.4" height="30"
            rx="3" ry="3"
            style="fill:#90caf9; stroke:#444; stroke-width:1" />
                   <title>const middle = start + Math.floor((end - start) / 2)</title>
            <text x="139" y="589.5"
                font-family="monospace" font-size="13" fill="#222">
                <tspan x="139" y="589.5">const middle = start + Math.floor((end - start) / ...</tspan>
            </text>
                   
                   
                </g>
                <g>
                   <rect x="124" y="618"
            width="357.59999999999997" height="30"
            rx="3" ry="3"
            style="fill:#90caf9; stroke:#444; stroke-width:1" />
                   <title>const currentNode = TreeNode(nums[middle])</title>
            <text x="139" y="638"
                font-family="monospace" font-size="13" fill="#222">
                <tspan x="139" y="638">const currentNode = TreeNode(nums[middle])</tspan>
            </text>
                   
                   
                </g>
                <g>
                   <rect x="124" y="666.5"
            width="443.4" height="30"
            rx="3" ry="3"
            style="fill:#90caf9; stroke:#444; stroke-width:1" />
                   <title>const leftNode = sortedArrayToBSTHelper(start, middle)</title>
            <text x="139" y="686.5"
                font-family="monospace" font-size="13" fill="#222">
                <tspan x="139" y="686.5">const leftNode = sortedArrayToBSTHelper(start, mid...</tspan>
            </text>
                   
                   
                </g>
                <g>
                   <rect x="124" y="715"
            width="443.4" height="30"
            rx="3" ry="3"
            style="fill:#90caf9; stroke:#444; stroke-width:1" />
                   <title>const rightNode = sortedArrayToBSTHelper(middle + 1, end)</title>
            <text x="139" y="735"
                font-family="monospace" font-size="13" fill="#222">
                <tspan x="139" y="735">const rightNode = sortedArrayToBSTHelper(middle + ...</tspan>
            </text>
                   
                   
                </g>
                <g>
                   <rect x="124" y="763.5"
            width="240.6" height="30"
            rx="3" ry="3"
            style="fill:#90caf9; stroke:#444; stroke-width:1" />
                   <title>currentNode.left = leftNode</title>
            <text x="139" y="783.5"
                font-family="monospace" font-size="13" fill="#222">
                <tspan x="139" y="783.5">currentNode.left = leftNode</tspan>
            </text>
                   
                   
                </g>
                <g>
                   <rect x="124" y="812"
            width="256.2" height="30"
            rx="3" ry="3"
            style="fill:#90caf9; stroke:#444; stroke-width:1" />
                   <title>currentNode.right = rightNode</title>
            <text x="139" y="832"
                font-family="monospace" font-size="13" fill="#222">
                <tspan x="139" y="832">currentNode.right = rightNode</tspan>
            </text>
                   
                   
                </g>
            <g>
                <rect x="124" y="860.5"
            width="170.4" height="30"
            rx="3" ry="3"
            style="fill:#90caf9; stroke:#444; stroke-width:1" />
                
                <line x1="294.4" y1="870.5" x2="299.4" y2="870.5"
                style="fill:#a5d6a7; stroke:#444; stroke-width:1" />
                
                <line x1="294.4" y1="880.5" x2="299.4" y2="880.5"
                style="fill:#a5d6a7; stroke:#444; stroke-width:1" />

                <path d="M299.4, 864.5 L315.4, 875.5 L299.4, 886.5 Z" 
        fill="#a5d6a7" stroke="#444" stroke-width="1" />
                             
                <title>return currentNode</title>
            <text x="139" y="880.5"
                font-family="monospace" font-size="13" fill="#222">
                <tspan x="139" y="880.5">return currentNode</tspan>
            </text>
                
            </g>
                <g>
                   <rect x="50" y="909"
            width="412.2" height="30"
            rx="2" ry="2"
            style="fill:#C5E1A5; stroke:#444; stroke-width:1" />
                   <title>console.log(sortedArrayToBST([-10, -3, 0, 5, 9]))</title>
            <text x="65" y="929"
                font-family="monospace" font-size="13" fill="#222">
                <tspan x="65" y="929">console.log(sortedArrayToBST([-10, -3, 0, 5, 9]))</tspan>
            </text>
                   
                   
                </g>
            <g>
               <rect x="25" y="13.75"
            width="216.6" height="24"
            style="fill:#fff59d; stroke:#444; stroke-width:1" />
               <circle cx="25" cy="25" r="15"
        style="fill:#fff59d; stroke:#444; stroke-width:1" />
               <title>Program: source module</title>
            <text x="55" y="30"
                font-family="monospace" font-size="13" fill="#222">
                <tspan x="55" y="30">Program: source module</tspan>
            </text>
            </g>
            <g>
               <path d="M25, 40 L25 91 Q25 95
                29 95
                L42 95 "
        style="fill:none; stroke:#444; stroke-width:1" />
               <path d="M42, 92 L50, 95 L42, 98 Z" 
        fill="#333" />
            </g>
            <g>
               <path d="M68.5, 110 L68.5 139.5 Q68.5 143.5
                72.5 143.5
                L79 143.5 "
        style="fill:none; stroke:#444; stroke-width:1" />
               <path d="M79, 140.5 L87, 143.5 L79, 146.5 Z" 
        fill="#333" />
            </g>
            <g>
               <path d="M68.5, 110 L68.5 188 Q68.5 192
                72.5 192
                L79 192 "
        style="fill:none; stroke:#444; stroke-width:1" />
               <path d="M79, 189 L87, 192 L79, 195 Z" 
        fill="#333" />
            </g>
            <g>
               <path d="M105.5, 207 L105.5 236.5 Q105.5 240.5
                109.5 240.5
                L116 240.5 "
        style="fill:none; stroke:#444; stroke-width:1" />
               <path d="M116, 237.5 L124, 240.5 L116, 243.5 Z" 
        fill="#333" />
            </g>
            <g>
               <path d="M25, 40 L25 300 Q25 304
                29 304
                L42 304 "
        style="fill:none; stroke:#444; stroke-width:1" />
               <path d="M42, 301 L50, 304 L42, 307 Z" 
        fill="#333" />
            </g>
            <g>
               <path d="M68.5, 319 L68.5 348.5 Q68.5 352.5
                72.5 352.5
                L79 352.5 "
        style="fill:none; stroke:#444; stroke-width:1" />
               <path d="M79, 349.5 L87, 352.5 L79, 355.5 Z" 
        fill="#333" />
            </g>
            <g>
               <path d="M68.5, 319 L68.5 412 Q68.5 416
                72.5 416
                L79 416 "
        style="fill:none; stroke:#444; stroke-width:1" />
               <path d="M79, 413 L87, 416 L79, 419 Z" 
        fill="#333" />
            </g>
            <g>
               <path d="M105.5, 431 L105.5 475.5 Q105.5 479.5
                109.5 479.5
                L116 479.5 "
        style="fill:none; stroke:#444; stroke-width:1" />
               <path d="M116, 476.5 L124, 479.5 L116, 482.5 Z" 
        fill="#333" />
            </g>
            <g>
               <path d="M154, 509.5 L154 530.5 Q154 534.5
                158 534.5
                L166 534.5 "
        style="fill:none; stroke:#444; stroke-width:1" />
               <path d="M166, 531.5 L174, 534.5 L166, 537.5 Z" 
        fill="#333" />
            </g>
            <g>
               <path d="M105.5, 431 L105.5 580.5 Q105.5 584.5
                109.5 584.5
                L116 584.5 "
        style="fill:none; stroke:#444; stroke-width:1" />
               <path d="M116, 581.5 L124, 584.5 L116, 587.5 Z" 
        fill="#333" />
            </g>
            <g>
               <path d="M105.5, 431 L105.5 629 Q105.5 633
                109.5 633
                L116 633 "
        style="fill:none; stroke:#444; stroke-width:1" />
               <path d="M116, 630 L124, 633 L116, 636 Z" 
        fill="#333" />
            </g>
            <g>
               <path d="M105.5, 431 L105.5 677.5 Q105.5 681.5
                109.5 681.5
                L116 681.5 "
        style="fill:none; stroke:#444; stroke-width:1" />
               <path d="M116, 678.5 L124, 681.5 L116, 684.5 Z" 
        fill="#333" />
            </g>
            <g>
               <path d="M105.5, 431 L105.5 726 Q105.5 730
                109.5 730
                L116 730 "
        style="fill:none; stroke:#444; stroke-width:1" />
               <path d="M116, 727 L124, 730 L116, 733 Z" 
        fill="#333" />
            </g>
            <g>
               <path d="M105.5, 431 L105.5 774.5 Q105.5 778.5
                109.5 778.5
                L116 778.5 "
        style="fill:none; stroke:#444; stroke-width:1" />
               <path d="M116, 775.5 L124, 778.5 L116, 781.5 Z" 
        fill="#333" />
            </g>
            <g>
               <path d="M105.5, 431 L105.5 823 Q105.5 827
                109.5 827
                L116 827 "
        style="fill:none; stroke:#444; stroke-width:1" />
               <path d="M116, 824 L124, 827 L116, 830 Z" 
        fill="#333" />
            </g>
            <g>
               <path d="M105.5, 431 L105.5 871.5 Q105.5 875.5
                109.5 875.5
                L116 875.5 "
        style="fill:none; stroke:#444; stroke-width:1" />
               <path d="M116, 872.5 L124, 875.5 L116, 878.5 Z" 
        fill="#333" />
            </g>
            <g>
               <path d="M25, 40 L25 920 Q25 924
                29 924
                L42 924 "
        style="fill:none; stroke:#444; stroke-width:1" />
               <path d="M42, 921 L50, 924 L42, 927 Z" 
        fill="#333" />
            </g>
            </svg>