<!DOCTYPE svg PUBLIC "-//W3C//DTD SVG 1.1//EN" "http://www.w3.org/Graphics/SVG/1.1/DTD/svg11.dtd">
                <svg xmlns="http://www.w3.org/2000/svg" xmlns:xlink="http://www.w3.org/1999/xlink" 
                width="643" height="1813">
                
            <g>
                <rect x="50" y="80"
            width="237.2" height="30"
            style="fill:#a5d6a7; stroke:#444; stroke-width:1" />
                    
                <line x1="60" y1="80" x2="60" y2="110"
                style="fill:#a5d6a7; stroke:#444; stroke-width:1" />
                <line x1="277.2" y1="80" x2="277.2" y2="110"
                style="fill:#a5d6a7; stroke:#444; stroke-width:1" />
             
                <title>subsets = function(nums)</title>
            <text x="75" y="100"
                font-family="monospace" font-size="13" fill="#222">
                <tspan x="75" y="100">subsets = function(nums)</tspan>
            </text>
                
            </g>
                <g>
                   <rect x="87" y="128.5"
            width="154.8" height="30"
            rx="3" ry="3"
            style="fill:#90caf9; stroke:#444; stroke-width:1" />
                   <title>const res = [[]]</title>
            <text x="102" y="148.5"
                font-family="monospace" font-size="13" fill="#222">
                <tspan x="102" y="148.5">const res = [[]]</tspan>
            </text>
                   
                   
                </g><g>
            <rect x="117" y="192"
            width="340.8" height="30"
            rx="3" ry="3"
            style="fill:#ce93d8; stroke:#444; stroke-width:1" />                
            <polygon points="87,207 117,177 147,207 117,237"
            style="fill:#ce93d8; stroke:#444; stroke-width:1" />
            <title>(nums.length === 0 || nums === null)</title>
            <text x="162" y="212"
                font-family="monospace" font-size="13" fill="#222">
                <tspan x="162" y="212">(nums.length === 0 || nums === null)</tspan>
            </text>
            
            <text x="109.2" y="212"
        font-family="monospace" font-size="13" fill="#222">if</text> <text x="124.8" y="238.95"
        font-family="monospace" font-size="13" fill="#222">+</text> 
        </g>
            <g>
                <rect x="137" y="247"
            width="108" height="30"
            rx="3" ry="3"
            style="fill:#90caf9; stroke:#444; stroke-width:1" />
                
                <line x1="245" y1="257" x2="250" y2="257"
                style="fill:#a5d6a7; stroke:#444; stroke-width:1" />
                
                <line x1="245" y1="267" x2="250" y2="267"
                style="fill:#a5d6a7; stroke:#444; stroke-width:1" />

                <path d="M250, 251 L266, 262 L250, 273 Z" 
        fill="#a5d6a7" stroke="#444" stroke-width="1" />
                             
                <title>return res</title>
            <text x="152" y="267"
                font-family="monospace" font-size="13" fill="#222">
                <tspan x="152" y="267">return res</tspan>
            </text>
                
            </g>
                <g>
                   <rect x="87" y="297"
            width="209.4" height="30"
            rx="3" ry="3"
            style="fill:#90caf9; stroke:#444; stroke-width:1" />
                   <title>const len = nums.length</title>
            <text x="102" y="317"
                font-family="monospace" font-size="13" fill="#222">
                <tspan x="102" y="317">const len = nums.length</tspan>
            </text>
                   
                   
                </g>
            <g>
                <rect x="87" y="360.5"
            width="268.4" height="30"
            style="fill:#a5d6a7; stroke:#444; stroke-width:1" />
                    
                <line x1="97" y1="360.5" x2="97" y2="390.5"
                style="fill:#a5d6a7; stroke:#444; stroke-width:1" />
                <line x1="345.4" y1="360.5" x2="345.4" y2="390.5"
                style="fill:#a5d6a7; stroke:#444; stroke-width:1" />
             
                <title>function helper(i, arr = [])</title>
            <text x="112" y="380.5"
                font-family="monospace" font-size="13" fill="#222">
                <tspan x="112" y="380.5">function helper(i, arr = [])</tspan>
            </text>
                
            </g><g>

            <rect x="154" y="444"
            width="114.6" height="30"
            rx="3" ry="3"
            style="fill:#b39ddb; stroke:#444; stroke-width:1" />
            <polygon points="124,459 154,429 184,459 154,489"
            style="fill:#b39ddb; stroke:#444; stroke-width:1" />
                
            <title>i &lt; len</title>
            <text x="199" y="464"
                font-family="monospace" font-size="13" fill="#222">
                <tspan x="199" y="464">i &lt; len</tspan>
            </text>
            
            <text x="142.3" y="464"
        font-family="monospace" font-size="13" fill="#222">for</text>
        </g>
                <g>
                   <rect x="174" y="499"
            width="53.4" height="30"
            rx="3" ry="3"
            style="fill:#90caf9; stroke:#444; stroke-width:1" />
                   <title>i++</title>
            <text x="189" y="519"
                font-family="monospace" font-size="13" fill="#222">
                <tspan x="189" y="519">i++</tspan>
            </text>
                   
                   
                </g>
                <g>
                   <rect x="174" y="547.5"
            width="217.2" height="30"
            rx="3" ry="3"
            style="fill:#90caf9; stroke:#444; stroke-width:1" />
                   <title>let clone = arr.slice(0)</title>
            <text x="189" y="567.5"
                font-family="monospace" font-size="13" fill="#222">
                <tspan x="189" y="567.5">let clone = arr.slice(0)</tspan>
            </text>
                   
                   
                </g>
                <g>
                   <rect x="174" y="596"
            width="178.2" height="30"
            rx="2" ry="2"
            style="fill:#C5E1A5; stroke:#444; stroke-width:1" />
                   <title>clone.push(nums[i])</title>
            <text x="189" y="616"
                font-family="monospace" font-size="13" fill="#222">
                <tspan x="189" y="616">clone.push(nums[i])</tspan>
            </text>
                   
                   
                </g>
                <g>
                   <rect x="174" y="644.5"
            width="147" height="30"
            rx="2" ry="2"
            style="fill:#C5E1A5; stroke:#444; stroke-width:1" />
                   <title>res.push(clone)</title>
            <text x="189" y="664.5"
                font-family="monospace" font-size="13" fill="#222">
                <tspan x="189" y="664.5">res.push(clone)</tspan>
            </text>
                   
                   
                </g><g>
            <rect x="204" y="708"
            width="161.39999999999998" height="30"
            rx="3" ry="3"
            style="fill:#ce93d8; stroke:#444; stroke-width:1" />                
            <polygon points="174,723 204,693 234,723 204,753"
            style="fill:#ce93d8; stroke:#444; stroke-width:1" />
            <title>(i + 1 &lt; len)</title>
            <text x="249" y="728"
                font-family="monospace" font-size="13" fill="#222">
                <tspan x="249" y="728">(i + 1 &lt; len)</tspan>
            </text>
            
            <text x="196.2" y="728"
        font-family="monospace" font-size="13" fill="#222">if</text> <text x="211.8" y="754.95"
        font-family="monospace" font-size="13" fill="#222">+</text> 
        </g>
                <g>
                   <rect x="224" y="763"
            width="186" height="30"
            rx="2" ry="2"
            style="fill:#C5E1A5; stroke:#444; stroke-width:1" />
                   <title>helper(i + 1, clone)</title>
            <text x="239" y="783"
                font-family="monospace" font-size="13" fill="#222">
                <tspan x="239" y="783">helper(i + 1, clone)</tspan>
            </text>
                   
                   
                </g>
                <g>
                   <rect x="87" y="813"
            width="100.2" height="30"
            rx="2" ry="2"
            style="fill:#C5E1A5; stroke:#444; stroke-width:1" />
                   <title>helper(0)</title>
            <text x="102" y="833"
                font-family="monospace" font-size="13" fill="#222">
                <tspan x="102" y="833">helper(0)</tspan>
            </text>
                   
                   
                </g>
            <g>
                <rect x="87" y="861.5"
            width="108" height="30"
            rx="3" ry="3"
            style="fill:#90caf9; stroke:#444; stroke-width:1" />
                
                <line x1="195" y1="871.5" x2="200" y2="871.5"
                style="fill:#a5d6a7; stroke:#444; stroke-width:1" />
                
                <line x1="195" y1="881.5" x2="200" y2="881.5"
                style="fill:#a5d6a7; stroke:#444; stroke-width:1" />

                <path d="M200, 865.5 L216, 876.5 L200, 887.5 Z" 
        fill="#a5d6a7" stroke="#444" stroke-width="1" />
                             
                <title>return res</title>
            <text x="102" y="881.5"
                font-family="monospace" font-size="13" fill="#222">
                <tspan x="102" y="881.5">return res</tspan>
            </text>
                
            </g>
                <g>
                   <rect x="50" y="910"
            width="271.79999999999995" height="30"
            rx="2" ry="2"
            style="fill:#C5E1A5; stroke:#444; stroke-width:1" />
                   <title>console.log(subsets([1, 2, 3]))</title>
            <text x="65" y="930"
                font-family="monospace" font-size="13" fill="#222">
                <tspan x="65" y="930">console.log(subsets([1, 2, 3]))</tspan>
            </text>
                   
                   
                </g>
                <g>
                   <rect x="50" y="958.5"
            width="248.4" height="30"
            rx="2" ry="2"
            style="fill:#C5E1A5; stroke:#444; stroke-width:1" />
                   <title>console.log(subsets([1, 2]))</title>
            <text x="65" y="978.5"
                font-family="monospace" font-size="13" fill="#222">
                <tspan x="65" y="978.5">console.log(subsets([1, 2]))</tspan>
            </text>
                   
                   
                </g>
            <g>
                <rect x="50" y="1022"
            width="229.4" height="30"
            style="fill:#a5d6a7; stroke:#444; stroke-width:1" />
                    
                <line x1="60" y1="1022" x2="60" y2="1052"
                style="fill:#a5d6a7; stroke:#444; stroke-width:1" />
                <line x1="269.4" y1="1022" x2="269.4" y2="1052"
                style="fill:#a5d6a7; stroke:#444; stroke-width:1" />
             
                <title>function subsets2(nums)</title>
            <text x="75" y="1042"
                font-family="monospace" font-size="13" fill="#222">
                <tspan x="75" y="1042">function subsets2(nums)</tspan>
            </text>
                
            </g>
                <g>
                   <rect x="87" y="1070.5"
            width="123.6" height="30"
            rx="3" ry="3"
            style="fill:#90caf9; stroke:#444; stroke-width:1" />
                   <title>let res = []</title>
            <text x="102" y="1090.5"
                font-family="monospace" font-size="13" fill="#222">
                <tspan x="102" y="1090.5">let res = []</tspan>
            </text>
                   
                   
                </g>
            <g>
                <rect x="87" y="1134"
            width="299.6" height="30"
            style="fill:#a5d6a7; stroke:#444; stroke-width:1" />
                    
                <line x1="97" y1="1134" x2="97" y2="1164"
                style="fill:#a5d6a7; stroke:#444; stroke-width:1" />
                <line x1="376.6" y1="1134" x2="376.6" y2="1164"
                style="fill:#a5d6a7; stroke:#444; stroke-width:1" />
             
                <title>function find(curr, rest, start)</title>
            <text x="112" y="1154"
                font-family="monospace" font-size="13" fill="#222">
                <tspan x="112" y="1154">function find(curr, rest, start)</tspan>
            </text>
                
            </g>
                <g>
                   <rect x="124" y="1182.5"
            width="139.2" height="30"
            rx="2" ry="2"
            style="fill:#C5E1A5; stroke:#444; stroke-width:1" />
                   <title>res.push(curr)</title>
            <text x="139" y="1202.5"
                font-family="monospace" font-size="13" fill="#222">
                <tspan x="139" y="1202.5">res.push(curr)</tspan>
            </text>
                   
                   
                </g><g>

            <rect x="154" y="1266"
            width="177" height="30"
            rx="3" ry="3"
            style="fill:#b39ddb; stroke:#444; stroke-width:1" />
            <polygon points="124,1281 154,1251 184,1281 154,1311"
            style="fill:#b39ddb; stroke:#444; stroke-width:1" />
                
            <title>i &lt; rest.length</title>
            <text x="199" y="1286"
                font-family="monospace" font-size="13" fill="#222">
                <tspan x="199" y="1286">i &lt; rest.length</tspan>
            </text>
            
            <text x="142.3" y="1286"
        font-family="monospace" font-size="13" fill="#222">for</text>
        </g>
                <g>
                   <rect x="174" y="1321"
            width="53.4" height="30"
            rx="3" ry="3"
            style="fill:#90caf9; stroke:#444; stroke-width:1" />
                   <title>i++</title>
            <text x="189" y="1341"
                font-family="monospace" font-size="13" fill="#222">
                <tspan x="189" y="1341">i++</tspan>
            </text>
                   
                   
                </g>
                <g>
                   <rect x="174" y="1369.5"
            width="154.8" height="30"
            rx="2" ry="2"
            style="fill:#C5E1A5; stroke:#444; stroke-width:1" />
                   <title>rest.slice(0, i)</title>
            <text x="189" y="1389.5"
                font-family="monospace" font-size="13" fill="#222">
                <tspan x="189" y="1389.5">rest.slice(0, i)</tspan>
            </text>
                   
                   
                </g>
                <g>
                   <rect x="174" y="1418"
            width="162.6" height="30"
            rx="2" ry="2"
            style="fill:#C5E1A5; stroke:#444; stroke-width:1" />
                   <title>rest.slice(i + 1)</title>
            <text x="189" y="1438"
                font-family="monospace" font-size="13" fill="#222">
                <tspan x="189" y="1438">rest.slice(i + 1)</tspan>
            </text>
                   
                   
                </g>
                <g>
                   <rect x="174" y="1466.5"
            width="443.4" height="30"
            rx="2" ry="2"
            style="fill:#C5E1A5; stroke:#444; stroke-width:1" />
                   <title>find([...curr, rest[i]], [...rest.slice(0, i), ...rest.slice(i + 1)], start)</title>
            <text x="189" y="1486.5"
                font-family="monospace" font-size="13" fill="#222">
                <tspan x="189" y="1486.5">find([...curr, rest[i]], [...rest.slice(0, i), ......</tspan>
            </text>
                   
                   
                </g>
                <g>
                   <rect x="174" y="1515"
            width="84.6" height="30"
            rx="3" ry="3"
            style="fill:#90caf9; stroke:#444; stroke-width:1" />
                   <title>start++</title>
            <text x="189" y="1535"
                font-family="monospace" font-size="13" fill="#222">
                <tspan x="189" y="1535">start++</tspan>
            </text>
                   
                   
                </g>
                <g>
                   <rect x="87" y="1563.5"
            width="162.6" height="30"
            rx="2" ry="2"
            style="fill:#C5E1A5; stroke:#444; stroke-width:1" />
                   <title>find([], nums, 0)</title>
            <text x="102" y="1583.5"
                font-family="monospace" font-size="13" fill="#222">
                <tspan x="102" y="1583.5">find([], nums, 0)</tspan>
            </text>
                   
                   
                </g>
            <g>
                <rect x="87" y="1612"
            width="108" height="30"
            rx="3" ry="3"
            style="fill:#90caf9; stroke:#444; stroke-width:1" />
                
                <line x1="195" y1="1622" x2="200" y2="1622"
                style="fill:#a5d6a7; stroke:#444; stroke-width:1" />
                
                <line x1="195" y1="1632" x2="200" y2="1632"
                style="fill:#a5d6a7; stroke:#444; stroke-width:1" />

                <path d="M200, 1616 L216, 1627 L200, 1638 Z" 
        fill="#a5d6a7" stroke="#444" stroke-width="1" />
                             
                <title>return res</title>
            <text x="102" y="1632"
                font-family="monospace" font-size="13" fill="#222">
                <tspan x="102" y="1632">return res</tspan>
            </text>
                
            </g>
                <g>
                   <rect x="50" y="1660.5"
            width="279.6" height="30"
            rx="2" ry="2"
            style="fill:#C5E1A5; stroke:#444; stroke-width:1" />
                   <title>console.log(subsets2([1, 2, 3]))</title>
            <text x="65" y="1680.5"
                font-family="monospace" font-size="13" fill="#222">
                <tspan x="65" y="1680.5">console.log(subsets2([1, 2, 3]))</tspan>
            </text>
                   
                   
                </g>
                <g>
                   <rect x="50" y="1709"
            width="256.2" height="30"
            rx="2" ry="2"
            style="fill:#C5E1A5; stroke:#444; stroke-width:1" />
                   <title>console.log(subsets2([1, 2]))</title>
            <text x="65" y="1729"
                font-family="monospace" font-size="13" fill="#222">
                <tspan x="65" y="1729">console.log(subsets2([1, 2]))</tspan>
            </text>
                   
                   
                </g>
                <g>
                   <rect x="50" y="1757.5"
            width="326.4" height="30"
            rx="2" ry="2"
            style="fill:#C5E1A5; stroke:#444; stroke-width:1" />
                   <title>console.log(subsets2([&apos;a&apos;, &apos;b&apos;, &apos;c&apos;]))</title>
            <text x="65" y="1777.5"
                font-family="monospace" font-size="13" fill="#222">
                <tspan x="65" y="1777.5">console.log(subsets2([&apos;a&apos;, &apos;b&apos;, &apos;c&apos;]))</tspan>
            </text>
                   
                   
                </g>
            <g>
               <rect x="25" y="13.75"
            width="216.6" height="24"
            style="fill:#fff59d; stroke:#444; stroke-width:1" />
               <circle cx="25" cy="25" r="15"
        style="fill:#fff59d; stroke:#444; stroke-width:1" />
               <title>Program: source module</title>
            <text x="55" y="30"
                font-family="monospace" font-size="13" fill="#222">
                <tspan x="55" y="30">Program: source module</tspan>
            </text>
            </g>
            <g>
               <path d="M25, 40 L25 91 Q25 95
                29 95
                L42 95 "
        style="fill:none; stroke:#444; stroke-width:1" />
               <path d="M42, 92 L50, 95 L42, 98 Z" 
        fill="#333" />
            </g>
            <g>
               <path d="M68.5, 110 L68.5 139.5 Q68.5 143.5
                72.5 143.5
                L79 143.5 "
        style="fill:none; stroke:#444; stroke-width:1" />
               <path d="M79, 140.5 L87, 143.5 L79, 146.5 Z" 
        fill="#333" />
            </g>
            <g>
               <path d="M68.5, 110 L68.5 203 Q68.5 207
                72.5 207
                L79 207 "
        style="fill:none; stroke:#444; stroke-width:1" />
               <path d="M79, 204 L87, 207 L79, 210 Z" 
        fill="#333" />
            </g>
            <g>
               <path d="M117, 237 L117 258 Q117 262
                121 262
                L129 262 "
        style="fill:none; stroke:#444; stroke-width:1" />
               <path d="M129, 259 L137, 262 L129, 265 Z" 
        fill="#333" />
            </g>
            <g>
               <path d="M68.5, 110 L68.5 308 Q68.5 312
                72.5 312
                L79 312 "
        style="fill:none; stroke:#444; stroke-width:1" />
               <path d="M79, 309 L87, 312 L79, 315 Z" 
        fill="#333" />
            </g>
            <g>
               <path d="M68.5, 110 L68.5 371.5 Q68.5 375.5
                72.5 375.5
                L79 375.5 "
        style="fill:none; stroke:#444; stroke-width:1" />
               <path d="M79, 372.5 L87, 375.5 L79, 378.5 Z" 
        fill="#333" />
            </g>
            <g>
               <path d="M105.5, 390.5 L105.5 455 Q105.5 459
                109.5 459
                L116 459 "
        style="fill:none; stroke:#444; stroke-width:1" />
               <path d="M116, 456 L124, 459 L116, 462 Z" 
        fill="#333" />
            </g>
            <g>
               <path d="M154, 489 L154 510 Q154 514
                158 514
                L166 514 "
        style="fill:none; stroke:#444; stroke-width:1" />
               <path d="M166, 511 L174, 514 L166, 517 Z" 
        fill="#333" />
            </g>
            <g>
               <path d="M154, 489 L154 558.5 Q154 562.5
                158 562.5
                L166 562.5 "
        style="fill:none; stroke:#444; stroke-width:1" />
               <path d="M166, 559.5 L174, 562.5 L166, 565.5 Z" 
        fill="#333" />
            </g>
            <g>
               <path d="M154, 489 L154 607 Q154 611
                158 611
                L166 611 "
        style="fill:none; stroke:#444; stroke-width:1" />
               <path d="M166, 608 L174, 611 L166, 614 Z" 
        fill="#333" />
            </g>
            <g>
               <path d="M154, 489 L154 655.5 Q154 659.5
                158 659.5
                L166 659.5 "
        style="fill:none; stroke:#444; stroke-width:1" />
               <path d="M166, 656.5 L174, 659.5 L166, 662.5 Z" 
        fill="#333" />
            </g>
            <g>
               <path d="M154, 489 L154 719 Q154 723
                158 723
                L166 723 "
        style="fill:none; stroke:#444; stroke-width:1" />
               <path d="M166, 720 L174, 723 L166, 726 Z" 
        fill="#333" />
            </g>
            <g>
               <path d="M204, 753 L204 774 Q204 778
                208 778
                L216 778 "
        style="fill:none; stroke:#444; stroke-width:1" />
               <path d="M216, 775 L224, 778 L216, 781 Z" 
        fill="#333" />
            </g>
            <g>
               <path d="M410, 778 L426 778  Q430 778
                430 774
                L430 417 Q430 409
                426 409
                L162 409  Q154 409
                154 413
                L154 421"
        style="fill:none; stroke:#444; stroke-width:1" />
               <path d="M151, 421 L154, 429 L157, 421 Z" 
        fill="#333" />
            </g>
            <g>
               <path d="M68.5, 110 L68.5 824 Q68.5 828
                72.5 828
                L79 828 "
        style="fill:none; stroke:#444; stroke-width:1" />
               <path d="M79, 825 L87, 828 L79, 831 Z" 
        fill="#333" />
            </g>
            <g>
               <path d="M68.5, 110 L68.5 872.5 Q68.5 876.5
                72.5 876.5
                L79 876.5 "
        style="fill:none; stroke:#444; stroke-width:1" />
               <path d="M79, 873.5 L87, 876.5 L79, 879.5 Z" 
        fill="#333" />
            </g>
            <g>
               <path d="M25, 40 L25 921 Q25 925
                29 925
                L42 925 "
        style="fill:none; stroke:#444; stroke-width:1" />
               <path d="M42, 922 L50, 925 L42, 928 Z" 
        fill="#333" />
            </g>
            <g>
               <path d="M25, 40 L25 969.5 Q25 973.5
                29 973.5
                L42 973.5 "
        style="fill:none; stroke:#444; stroke-width:1" />
               <path d="M42, 970.5 L50, 973.5 L42, 976.5 Z" 
        fill="#333" />
            </g>
            <g>
               <path d="M25, 40 L25 1033 Q25 1037
                29 1037
                L42 1037 "
        style="fill:none; stroke:#444; stroke-width:1" />
               <path d="M42, 1034 L50, 1037 L42, 1040 Z" 
        fill="#333" />
            </g>
            <g>
               <path d="M68.5, 1052 L68.5 1081.5 Q68.5 1085.5
                72.5 1085.5
                L79 1085.5 "
        style="fill:none; stroke:#444; stroke-width:1" />
               <path d="M79, 1082.5 L87, 1085.5 L79, 1088.5 Z" 
        fill="#333" />
            </g>
            <g>
               <path d="M68.5, 1052 L68.5 1145 Q68.5 1149
                72.5 1149
                L79 1149 "
        style="fill:none; stroke:#444; stroke-width:1" />
               <path d="M79, 1146 L87, 1149 L79, 1152 Z" 
        fill="#333" />
            </g>
            <g>
               <path d="M105.5, 1164 L105.5 1193.5 Q105.5 1197.5
                109.5 1197.5
                L116 1197.5 "
        style="fill:none; stroke:#444; stroke-width:1" />
               <path d="M116, 1194.5 L124, 1197.5 L116, 1200.5 Z" 
        fill="#333" />
            </g>
            <g>
               <path d="M105.5, 1164 L105.5 1277 Q105.5 1281
                109.5 1281
                L116 1281 "
        style="fill:none; stroke:#444; stroke-width:1" />
               <path d="M116, 1278 L124, 1281 L116, 1284 Z" 
        fill="#333" />
            </g>
            <g>
               <path d="M154, 1311 L154 1332 Q154 1336
                158 1336
                L166 1336 "
        style="fill:none; stroke:#444; stroke-width:1" />
               <path d="M166, 1333 L174, 1336 L166, 1339 Z" 
        fill="#333" />
            </g>
            <g>
               <path d="M154, 1311 L154 1380.5 Q154 1384.5
                158 1384.5
                L166 1384.5 "
        style="fill:none; stroke:#444; stroke-width:1" />
               <path d="M166, 1381.5 L174, 1384.5 L166, 1387.5 Z" 
        fill="#333" />
            </g>
            <g>
               <path d="M154, 1311 L154 1429 Q154 1433
                158 1433
                L166 1433 "
        style="fill:none; stroke:#444; stroke-width:1" />
               <path d="M166, 1430 L174, 1433 L166, 1436 Z" 
        fill="#333" />
            </g>
            <g>
               <path d="M154, 1311 L154 1477.5 Q154 1481.5
                158 1481.5
                L166 1481.5 "
        style="fill:none; stroke:#444; stroke-width:1" />
               <path d="M166, 1478.5 L174, 1481.5 L166, 1484.5 Z" 
        fill="#333" />
            </g>
            <g>
               <path d="M154, 1311 L154 1526 Q154 1530
                158 1530
                L166 1530 "
        style="fill:none; stroke:#444; stroke-width:1" />
               <path d="M166, 1527 L174, 1530 L166, 1533 Z" 
        fill="#333" />
            </g>
            <g>
               <path d="M258.6, 1530 L633.4 1530  Q637.4 1530
                637.4 1526
                L637.4 1239 Q637.4 1231
                633.4 1231
                L162 1231  Q154 1231
                154 1235
                L154 1243"
        style="fill:none; stroke:#444; stroke-width:1" />
               <path d="M151, 1243 L154, 1251 L157, 1243 Z" 
        fill="#333" />
            </g>
            <g>
               <path d="M68.5, 1052 L68.5 1574.5 Q68.5 1578.5
                72.5 1578.5
                L79 1578.5 "
        style="fill:none; stroke:#444; stroke-width:1" />
               <path d="M79, 1575.5 L87, 1578.5 L79, 1581.5 Z" 
        fill="#333" />
            </g>
            <g>
               <path d="M68.5, 1052 L68.5 1623 Q68.5 1627
                72.5 1627
                L79 1627 "
        style="fill:none; stroke:#444; stroke-width:1" />
               <path d="M79, 1624 L87, 1627 L79, 1630 Z" 
        fill="#333" />
            </g>
            <g>
               <path d="M25, 40 L25 1671.5 Q25 1675.5
                29 1675.5
                L42 1675.5 "
        style="fill:none; stroke:#444; stroke-width:1" />
               <path d="M42, 1672.5 L50, 1675.5 L42, 1678.5 Z" 
        fill="#333" />
            </g>
            <g>
               <path d="M25, 40 L25 1720 Q25 1724
                29 1724
                L42 1724 "
        style="fill:none; stroke:#444; stroke-width:1" />
               <path d="M42, 1721 L50, 1724 L42, 1727 Z" 
        fill="#333" />
            </g>
            <g>
               <path d="M25, 40 L25 1768.5 Q25 1772.5
                29 1772.5
                L42 1772.5 "
        style="fill:none; stroke:#444; stroke-width:1" />
               <path d="M42, 1769.5 L50, 1772.5 L42, 1775.5 Z" 
        fill="#333" />
            </g>
            </svg>