<!DOCTYPE svg PUBLIC "-//W3C//DTD SVG 1.1//EN" "http://www.w3.org/Graphics/SVG/1.1/DTD/svg11.dtd">
                <svg xmlns="http://www.w3.org/2000/svg" xmlns:xlink="http://www.w3.org/1999/xlink" 
                width="494" height="558">
                
            <g>
                <rect x="50" y="80"
            width="245" height="30"
            style="fill:#a5d6a7; stroke:#444; stroke-width:1" />
                    
                <line x1="60" y1="80" x2="60" y2="110"
                style="fill:#a5d6a7; stroke:#444; stroke-width:1" />
                <line x1="285" y1="80" x2="285" y2="110"
                style="fill:#a5d6a7; stroke:#444; stroke-width:1" />
             
                <title>function findSubstring(s)</title>
            <text x="75" y="100"
                font-family="monospace" font-size="13" fill="#222">
                <tspan x="75" y="100">function findSubstring(s)</tspan>
            </text>
                
            </g>
                <g>
                   <rect x="87" y="128.5"
            width="279.6" height="30"
            rx="3" ry="3"
            style="fill:#90caf9; stroke:#444; stroke-width:1" />
                   <title>let map = new Array(256).fill(0)</title>
            <text x="102" y="148.5"
                font-family="monospace" font-size="13" fill="#222">
                <tspan x="102" y="148.5">let map = new Array(256).fill(0)</tspan>
            </text>
                   
                   
                </g>
                <g>
                   <rect x="87" y="177"
            width="154.8" height="30"
            rx="3" ry="3"
            style="fill:#90caf9; stroke:#444; stroke-width:1" />
                   <title>let d = s.length</title>
            <text x="102" y="197"
                font-family="monospace" font-size="13" fill="#222">
                <tspan x="102" y="197">let d = s.length</tspan>
            </text>
                   
                   
                </g>
                <g>
                   <rect x="87" y="225.5"
            width="131.39999999999998" height="30"
            rx="3" ry="3"
            style="fill:#90caf9; stroke:#444; stroke-width:1" />
                   <title>let begin = 0</title>
            <text x="102" y="245.5"
                font-family="monospace" font-size="13" fill="#222">
                <tspan x="102" y="245.5">let begin = 0</tspan>
            </text>
                   
                   
                </g>
                <g>
                   <rect x="87" y="274"
            width="147" height="30"
            rx="3" ry="3"
            style="fill:#90caf9; stroke:#444; stroke-width:1" />
                   <title>let end = d - 1</title>
            <text x="102" y="294"
                font-family="monospace" font-size="13" fill="#222">
                <tspan x="102" y="294">let end = d - 1</tspan>
            </text>
                   
                   
                </g><g>

            <rect x="117" y="357.5"
            width="169.2" height="30"
            rx="3" ry="3"
            style="fill:#b39ddb; stroke:#444; stroke-width:1" />
            <polygon points="87,372.5 117,342.5 147,372.5 117,402.5"
            style="fill:#b39ddb; stroke:#444; stroke-width:1" />
                
            <title>end &lt; s.length</title>
            <text x="162" y="377.5"
                font-family="monospace" font-size="13" fill="#222">
                <tspan x="162" y="377.5">end &lt; s.length</tspan>
            </text>
            
            <text x="97.5" y="377.5"
        font-family="monospace" font-size="13" fill="#222">while</text>
        </g><g>

            <rect x="167" y="447.5"
            width="301.79999999999995" height="30"
            rx="3" ry="3"
            style="fill:#b39ddb; stroke:#444; stroke-width:1" />
            <polygon points="137,462.5 167,432.5 197,462.5 167,492.5"
            style="fill:#b39ddb; stroke:#444; stroke-width:1" />
                
            <title>counter /* counter condition */</title>
            <text x="212" y="467.5"
                font-family="monospace" font-size="13" fill="#222">
                <tspan x="212" y="467.5">counter /* counter condition */</tspan>
            </text>
            
            <text x="147.5" y="467.5"
        font-family="monospace" font-size="13" fill="#222">while</text>
        </g>
            <g>
                <rect x="87" y="502.5"
            width="92.4" height="30"
            rx="3" ry="3"
            style="fill:#90caf9; stroke:#444; stroke-width:1" />
                
                <line x1="179.4" y1="512.5" x2="184.4" y2="512.5"
                style="fill:#a5d6a7; stroke:#444; stroke-width:1" />
                
                <line x1="179.4" y1="522.5" x2="184.4" y2="522.5"
                style="fill:#a5d6a7; stroke:#444; stroke-width:1" />

                <path d="M184.4, 506.5 L200.4, 517.5 L184.4, 528.5 Z" 
        fill="#a5d6a7" stroke="#444" stroke-width="1" />
                             
                <title>return d</title>
            <text x="102" y="522.5"
                font-family="monospace" font-size="13" fill="#222">
                <tspan x="102" y="522.5">return d</tspan>
            </text>
                
            </g>
            <g>
               <rect x="25" y="13.75"
            width="216.6" height="24"
            style="fill:#fff59d; stroke:#444; stroke-width:1" />
               <circle cx="25" cy="25" r="15"
        style="fill:#fff59d; stroke:#444; stroke-width:1" />
               <title>Program: source module</title>
            <text x="55" y="30"
                font-family="monospace" font-size="13" fill="#222">
                <tspan x="55" y="30">Program: source module</tspan>
            </text>
            </g>
            <g>
               <path d="M25, 40 L25 91 Q25 95
                29 95
                L42 95 "
        style="fill:none; stroke:#444; stroke-width:1" />
               <path d="M42, 92 L50, 95 L42, 98 Z" 
        fill="#333" />
            </g>
            <g>
               <path d="M68.5, 110 L68.5 139.5 Q68.5 143.5
                72.5 143.5
                L79 143.5 "
        style="fill:none; stroke:#444; stroke-width:1" />
               <path d="M79, 140.5 L87, 143.5 L79, 146.5 Z" 
        fill="#333" />
            </g>
            <g>
               <path d="M68.5, 110 L68.5 188 Q68.5 192
                72.5 192
                L79 192 "
        style="fill:none; stroke:#444; stroke-width:1" />
               <path d="M79, 189 L87, 192 L79, 195 Z" 
        fill="#333" />
            </g>
            <g>
               <path d="M68.5, 110 L68.5 236.5 Q68.5 240.5
                72.5 240.5
                L79 240.5 "
        style="fill:none; stroke:#444; stroke-width:1" />
               <path d="M79, 237.5 L87, 240.5 L79, 243.5 Z" 
        fill="#333" />
            </g>
            <g>
               <path d="M68.5, 110 L68.5 285 Q68.5 289
                72.5 289
                L79 289 "
        style="fill:none; stroke:#444; stroke-width:1" />
               <path d="M79, 286 L87, 289 L79, 292 Z" 
        fill="#333" />
            </g>
            <g>
               <path d="M68.5, 110 L68.5 368.5 Q68.5 372.5
                72.5 372.5
                L79 372.5 "
        style="fill:none; stroke:#444; stroke-width:1" />
               <path d="M79, 369.5 L87, 372.5 L79, 375.5 Z" 
        fill="#333" />
            </g>
            <g>
               <path d="M117, 402.5 L117 458.5 Q117 462.5
                121 462.5
                L129 462.5 "
        style="fill:none; stroke:#444; stroke-width:1" />
               <path d="M129, 459.5 L137, 462.5 L129, 465.5 Z" 
        fill="#333" />
            </g>
            <g>
               <path d="M468.79999999999995, 462.5 L484.79999999999995 462.5  Q488.79999999999995 462.5
                488.79999999999995 458.5
                L488.79999999999995 420.5 Q488.79999999999995 412.5
                484.79999999999995 412.5
                L175 412.5  Q167 412.5
                167 416.5
                L167 424.5"
        style="fill:none; stroke:#444; stroke-width:1" />
               <path d="M164, 424.5 L167, 432.5 L170, 424.5 Z" 
        fill="#333" />
            </g>
            <g>
               <path d="M468.79999999999995, 462.5 L484.79999999999995 462.5  Q488.79999999999995 462.5
                488.79999999999995 458.5
                L488.79999999999995 330.5 Q488.79999999999995 322.5
                484.79999999999995 322.5
                L125 322.5  Q117 322.5
                117 326.5
                L117 334.5"
        style="fill:none; stroke:#444; stroke-width:1" />
               <path d="M114, 334.5 L117, 342.5 L120, 334.5 Z" 
        fill="#333" />
            </g>
            <g>
               <path d="M68.5, 110 L68.5 513.5 Q68.5 517.5
                72.5 517.5
                L79 517.5 "
        style="fill:none; stroke:#444; stroke-width:1" />
               <path d="M79, 514.5 L87, 517.5 L79, 520.5 Z" 
        fill="#333" />
            </g>
            </svg>