<!DOCTYPE svg PUBLIC "-//W3C//DTD SVG 1.1//EN" "http://www.w3.org/Graphics/SVG/1.1/DTD/svg11.dtd">
                <svg xmlns="http://www.w3.org/2000/svg" xmlns:xlink="http://www.w3.org/1999/xlink" 
                width="519" height="965">
                
            <g>
                <rect x="50" y="80"
            width="237.2" height="30"
            style="fill:#a5d6a7; stroke:#444; stroke-width:1" />
                    
                <line x1="60" y1="80" x2="60" y2="110"
                style="fill:#a5d6a7; stroke:#444; stroke-width:1" />
                <line x1="277.2" y1="80" x2="277.2" y2="110"
                style="fill:#a5d6a7; stroke:#444; stroke-width:1" />
             
                <title>connect = function(root)</title>
            <text x="75" y="100"
                font-family="monospace" font-size="13" fill="#222">
                <tspan x="75" y="100">connect = function(root)</tspan>
            </text>
                
            </g><g>
            <rect x="117" y="143.5"
            width="114.6" height="30"
            rx="3" ry="3"
            style="fill:#ce93d8; stroke:#444; stroke-width:1" />                
            <polygon points="87,158.5 117,128.5 147,158.5 117,188.5"
            style="fill:#ce93d8; stroke:#444; stroke-width:1" />
            <title>(!root)</title>
            <text x="162" y="163.5"
                font-family="monospace" font-size="13" fill="#222">
                <tspan x="162" y="163.5">(!root)</tspan>
            </text>
            
            <text x="109.2" y="163.5"
        font-family="monospace" font-size="13" fill="#222">if</text> <text x="124.8" y="190.45"
        font-family="monospace" font-size="13" fill="#222">+</text> 
        </g>
            <g>
                <rect x="137" y="198.5"
            width="76.8" height="30"
            rx="3" ry="3"
            style="fill:#90caf9; stroke:#444; stroke-width:1" />
                
                <line x1="213.8" y1="208.5" x2="218.8" y2="208.5"
                style="fill:#a5d6a7; stroke:#444; stroke-width:1" />
                
                <line x1="213.8" y1="218.5" x2="218.8" y2="218.5"
                style="fill:#a5d6a7; stroke:#444; stroke-width:1" />

                <path d="M218.8, 202.5 L234.8, 213.5 L218.8, 224.5 Z" 
        fill="#a5d6a7" stroke="#444" stroke-width="1" />
                             
                <title>return</title>
            <text x="152" y="218.5"
                font-family="monospace" font-size="13" fill="#222">
                <tspan x="152" y="218.5">return</tspan>
            </text>
                
            </g>
                <g>
                   <rect x="87" y="248.5"
            width="186" height="30"
            rx="3" ry="3"
            style="fill:#90caf9; stroke:#444; stroke-width:1" />
                   <title>const queue = [root]</title>
            <text x="102" y="268.5"
                font-family="monospace" font-size="13" fill="#222">
                <tspan x="102" y="268.5">const queue = [root]</tspan>
            </text>
                   
                   
                </g><g>

            <rect x="117" y="332"
            width="153.6" height="30"
            rx="3" ry="3"
            style="fill:#b39ddb; stroke:#444; stroke-width:1" />
            <polygon points="87,347 117,317 147,347 117,377"
            style="fill:#b39ddb; stroke:#444; stroke-width:1" />
                
            <title>queue.length</title>
            <text x="162" y="352"
                font-family="monospace" font-size="13" fill="#222">
                <tspan x="162" y="352">queue.length</tspan>
            </text>
            
            <text x="97.5" y="352"
        font-family="monospace" font-size="13" fill="#222">while</text>
        </g>
                <g>
                   <rect x="137" y="387"
            width="225" height="30"
            rx="3" ry="3"
            style="fill:#90caf9; stroke:#444; stroke-width:1" />
                   <title>const size = queue.length</title>
            <text x="152" y="407"
                font-family="monospace" font-size="13" fill="#222">
                <tspan x="152" y="407">const size = queue.length</tspan>
            </text>
                   
                   
                </g>
                <g>
                   <rect x="137" y="435.5"
            width="240.6" height="30"
            rx="3" ry="3"
            style="fill:#90caf9; stroke:#444; stroke-width:1" />
                   <title>const level = queue.slice()</title>
            <text x="152" y="455.5"
                font-family="monospace" font-size="13" fill="#222">
                <tspan x="152" y="455.5">const level = queue.slice()</tspan>
            </text>
                   
                   
                </g><g>

            <rect x="167" y="519"
            width="122.4" height="30"
            rx="3" ry="3"
            style="fill:#b39ddb; stroke:#444; stroke-width:1" />
            <polygon points="137,534 167,504 197,534 167,564"
            style="fill:#b39ddb; stroke:#444; stroke-width:1" />
                
            <title>i &lt; size</title>
            <text x="212" y="539"
                font-family="monospace" font-size="13" fill="#222">
                <tspan x="212" y="539">i &lt; size</tspan>
            </text>
            
            <text x="155.3" y="539"
        font-family="monospace" font-size="13" fill="#222">for</text>
        </g>
                <g>
                   <rect x="187" y="574"
            width="53.4" height="30"
            rx="3" ry="3"
            style="fill:#90caf9; stroke:#444; stroke-width:1" />
                   <title>i++</title>
            <text x="202" y="594"
                font-family="monospace" font-size="13" fill="#222">
                <tspan x="202" y="594">i++</tspan>
            </text>
                   
                   
                </g>
                <g>
                   <rect x="187" y="622.5"
            width="287.4" height="30"
            rx="3" ry="3"
            style="fill:#90caf9; stroke:#444; stroke-width:1" />
                   <title>const currentNode = queue.shift()</title>
            <text x="202" y="642.5"
                font-family="monospace" font-size="13" fill="#222">
                <tspan x="202" y="642.5">const currentNode = queue.shift()</tspan>
            </text>
                   
                   
                </g>
                <g>
                   <rect x="187" y="671"
            width="271.79999999999995" height="30"
            rx="3" ry="3"
            style="fill:#90caf9; stroke:#444; stroke-width:1" />
                   <title>currentNode.next = level[i + 1]</title>
            <text x="202" y="691"
                font-family="monospace" font-size="13" fill="#222">
                <tspan x="202" y="691">currentNode.next = level[i + 1]</tspan>
            </text>
                   
                   
                </g><g>
            <rect x="217" y="734.5"
            width="200.4" height="30"
            rx="3" ry="3"
            style="fill:#ce93d8; stroke:#444; stroke-width:1" />                
            <polygon points="187,749.5 217,719.5 247,749.5 217,779.5"
            style="fill:#ce93d8; stroke:#444; stroke-width:1" />
            <title>(currentNode.left)</title>
            <text x="262" y="754.5"
                font-family="monospace" font-size="13" fill="#222">
                <tspan x="262" y="754.5">(currentNode.left)</tspan>
            </text>
            
            <text x="209.2" y="754.5"
        font-family="monospace" font-size="13" fill="#222">if</text> <text x="224.8" y="781.45"
        font-family="monospace" font-size="13" fill="#222">+</text> 
        </g>
                <g>
                   <rect x="237" y="789.5"
            width="248.4" height="30"
            rx="2" ry="2"
            style="fill:#C5E1A5; stroke:#444; stroke-width:1" />
                   <title>queue.push(currentNode.left)</title>
            <text x="252" y="809.5"
                font-family="monospace" font-size="13" fill="#222">
                <tspan x="252" y="809.5">queue.push(currentNode.left)</tspan>
            </text>
                   
                   
                </g><g>
            <rect x="217" y="854.5"
            width="208.2" height="30"
            rx="3" ry="3"
            style="fill:#ce93d8; stroke:#444; stroke-width:1" />                
            <polygon points="187,869.5 217,839.5 247,869.5 217,899.5"
            style="fill:#ce93d8; stroke:#444; stroke-width:1" />
            <title>(currentNode.right)</title>
            <text x="262" y="874.5"
                font-family="monospace" font-size="13" fill="#222">
                <tspan x="262" y="874.5">(currentNode.right)</tspan>
            </text>
            
            <text x="209.2" y="874.5"
        font-family="monospace" font-size="13" fill="#222">if</text> <text x="224.8" y="901.45"
        font-family="monospace" font-size="13" fill="#222">+</text> 
        </g>
                <g>
                   <rect x="237" y="909.5"
            width="256.2" height="30"
            rx="2" ry="2"
            style="fill:#C5E1A5; stroke:#444; stroke-width:1" />
                   <title>queue.push(currentNode.right)</title>
            <text x="252" y="929.5"
                font-family="monospace" font-size="13" fill="#222">
                <tspan x="252" y="929.5">queue.push(currentNode.right)</tspan>
            </text>
                   
                   
                </g>
            <g>
               <rect x="25" y="13.75"
            width="216.6" height="24"
            style="fill:#fff59d; stroke:#444; stroke-width:1" />
               <circle cx="25" cy="25" r="15"
        style="fill:#fff59d; stroke:#444; stroke-width:1" />
               <title>Program: source module</title>
            <text x="55" y="30"
                font-family="monospace" font-size="13" fill="#222">
                <tspan x="55" y="30">Program: source module</tspan>
            </text>
            </g>
            <g>
               <path d="M25, 40 L25 91 Q25 95
                29 95
                L42 95 "
        style="fill:none; stroke:#444; stroke-width:1" />
               <path d="M42, 92 L50, 95 L42, 98 Z" 
        fill="#333" />
            </g>
            <g>
               <path d="M68.5, 110 L68.5 154.5 Q68.5 158.5
                72.5 158.5
                L79 158.5 "
        style="fill:none; stroke:#444; stroke-width:1" />
               <path d="M79, 155.5 L87, 158.5 L79, 161.5 Z" 
        fill="#333" />
            </g>
            <g>
               <path d="M117, 188.5 L117 209.5 Q117 213.5
                121 213.5
                L129 213.5 "
        style="fill:none; stroke:#444; stroke-width:1" />
               <path d="M129, 210.5 L137, 213.5 L129, 216.5 Z" 
        fill="#333" />
            </g>
            <g>
               <path d="M68.5, 110 L68.5 259.5 Q68.5 263.5
                72.5 263.5
                L79 263.5 "
        style="fill:none; stroke:#444; stroke-width:1" />
               <path d="M79, 260.5 L87, 263.5 L79, 266.5 Z" 
        fill="#333" />
            </g>
            <g>
               <path d="M68.5, 110 L68.5 343 Q68.5 347
                72.5 347
                L79 347 "
        style="fill:none; stroke:#444; stroke-width:1" />
               <path d="M79, 344 L87, 347 L79, 350 Z" 
        fill="#333" />
            </g>
            <g>
               <path d="M117, 377 L117 398 Q117 402
                121 402
                L129 402 "
        style="fill:none; stroke:#444; stroke-width:1" />
               <path d="M129, 399 L137, 402 L129, 405 Z" 
        fill="#333" />
            </g>
            <g>
               <path d="M117, 377 L117 446.5 Q117 450.5
                121 450.5
                L129 450.5 "
        style="fill:none; stroke:#444; stroke-width:1" />
               <path d="M129, 447.5 L137, 450.5 L129, 453.5 Z" 
        fill="#333" />
            </g>
            <g>
               <path d="M117, 377 L117 530 Q117 534
                121 534
                L129 534 "
        style="fill:none; stroke:#444; stroke-width:1" />
               <path d="M129, 531 L137, 534 L129, 537 Z" 
        fill="#333" />
            </g>
            <g>
               <path d="M167, 564 L167 585 Q167 589
                171 589
                L179 589 "
        style="fill:none; stroke:#444; stroke-width:1" />
               <path d="M179, 586 L187, 589 L179, 592 Z" 
        fill="#333" />
            </g>
            <g>
               <path d="M167, 564 L167 633.5 Q167 637.5
                171 637.5
                L179 637.5 "
        style="fill:none; stroke:#444; stroke-width:1" />
               <path d="M179, 634.5 L187, 637.5 L179, 640.5 Z" 
        fill="#333" />
            </g>
            <g>
               <path d="M167, 564 L167 682 Q167 686
                171 686
                L179 686 "
        style="fill:none; stroke:#444; stroke-width:1" />
               <path d="M179, 683 L187, 686 L179, 689 Z" 
        fill="#333" />
            </g>
            <g>
               <path d="M167, 564 L167 745.5 Q167 749.5
                171 749.5
                L179 749.5 "
        style="fill:none; stroke:#444; stroke-width:1" />
               <path d="M179, 746.5 L187, 749.5 L179, 752.5 Z" 
        fill="#333" />
            </g>
            <g>
               <path d="M217, 779.5 L217 800.5 Q217 804.5
                221 804.5
                L229 804.5 "
        style="fill:none; stroke:#444; stroke-width:1" />
               <path d="M229, 801.5 L237, 804.5 L229, 807.5 Z" 
        fill="#333" />
            </g>
            <g>
               <path d="M167, 564 L167 865.5 Q167 869.5
                171 869.5
                L179 869.5 "
        style="fill:none; stroke:#444; stroke-width:1" />
               <path d="M179, 866.5 L187, 869.5 L179, 872.5 Z" 
        fill="#333" />
            </g>
            <g>
               <path d="M217, 899.5 L217 920.5 Q217 924.5
                221 924.5
                L229 924.5 "
        style="fill:none; stroke:#444; stroke-width:1" />
               <path d="M229, 921.5 L237, 924.5 L229, 927.5 Z" 
        fill="#333" />
            </g>
            <g>
               <path d="M493.2, 924.5 L509.20000000000005 924.5  Q513.2 924.5
                513.2 920.5
                L513.2 492 Q513.2 484
                509.20000000000005 484
                L175 484  Q167 484
                167 488
                L167 496"
        style="fill:none; stroke:#444; stroke-width:1" />
               <path d="M164, 496 L167, 504 L170, 496 Z" 
        fill="#333" />
            </g>
            <g>
               <path d="M493.2, 924.5 L509.20000000000005 924.5  Q513.2 924.5
                513.2 920.5
                L513.2 305 Q513.2 297
                509.20000000000005 297
                L125 297  Q117 297
                117 301
                L117 309"
        style="fill:none; stroke:#444; stroke-width:1" />
               <path d="M114, 309 L117, 317 L120, 309 Z" 
        fill="#333" />
            </g>
            </svg>